<svg xmlns="http://www.w3.org/2000/svg" xmlns:xlink="http://www.w3.org/1999/xlink" width="733" height="33" viewBox="0 0 733 33">
  <defs>
    <clipPath id="clip-path">
      <rect id="Rectangle_4865" data-name="Rectangle 4865" width="112" height="33" transform="translate(490.03 817.94)" fill="#fff"/>
    </clipPath>
  </defs>
  <g id="Group_4493" data-name="Group 4493" transform="translate(-20 -208.001)">
    <g id="Group_1296" data-name="Group 1296" transform="translate(-470.03 -609.939)" clip-path="url(#clip-path)">
      <path id="Path_4237" data-name="Path 4237" d="M508.012,817.94l-7.018,18.977-7.3-18.977H490.03V842.8h.916V821.334l8.441,21.463h.185l7.9-21.2,0,21.2h3.811V817.94Z" transform="translate(0 0)" fill="#01a9a7"/>
      <g id="Group_1295" data-name="Group 1295" transform="translate(513.507 817.94)">
        <path id="Path_4238" data-name="Path 4238" d="M529.869,844.431c-1.662,0-2.492-1.367-2.492-2.938,0-1.672.768-3.448,3.628-4.885l2.679-1.228v7.035A4.982,4.982,0,0,1,529.869,844.431Zm10.241-1.228c-.429.853-.954,1.162-1.477,1.162-.769,0-1.291-.544-1.291-2.355v-7.274c0-4.3-1.816-7.375-6.152-7.375-3.814,0-6.09,3.278-6.09,6.521h.185a4.887,4.887,0,0,1,4.645-4.849c3.045,0,3.753,2.494,3.753,4.711v1.332l-4.46,1.81c-3.659,1.468-5.074,3.208-5.074,5.394a3.584,3.584,0,0,0,3.876,3.687,7.048,7.048,0,0,0,5.689-3.278l.031.07c.429,2.29,1.816,3.208,3.231,3.208,1.569,0,2.523-.819,3.231-2.664l-.062-.1h-.031Z" transform="translate(-524.15 -820.879)" fill="#1d1d1b"/>
        <path id="Path_4239" data-name="Path 4239" d="M560.309,828.229a3.466,3.466,0,0,0-2.492-.958c-1.905,0-3.66,1.638-4.738,3.757V827.58h-.155c-.966.352-2.291.842-3.416,1.274v16.792H553.2V831.3a3.367,3.367,0,0,1,2.891-2.015,3.788,3.788,0,0,1,3.138,1.81h.062Z" transform="translate(-532.06 -820.851)" fill="#1d1d1b"/>
        <path id="Path_4240" data-name="Path 4240" d="M649.247,841.538l-.155-.135a2.784,2.784,0,0,1-2.245,1.3c-1.383,0-2.369-.784-2.369-3.208V827.059h4.135V826.5h-4.135v-3.433h-.092a47.405,47.405,0,0,1-5.689,3.857v.136h2.091v12.258c0,3.278,1.445,5.359,4.181,5.359,1.967,0,3.261-.958,4.274-3.143" transform="translate(-559.88 -819.538)" fill="#1d1d1b"/>
        <path id="Path_4241" data-name="Path 4241" d="M628.1,834.929h-7.559c.147-4.236,1.558-7.085,4.023-7.085S628.076,830.261,628.1,834.929Zm3.416.529v-.409c-.062-4.405-2.245-7.614-7.045-7.614s-7.876,4.1-7.876,9.32c0,5.7,3.385,9.286,8.119,9.286,3.536,0,5.26-2.015,6.427-4.471l-.093-.169a5.414,5.414,0,0,1-4.83,2.459c-3.536,0-5.689-3.652-5.689-8.262v-.135H631.5Z" transform="translate(-552.985 -820.902)" fill="#1d1d1b"/>
        <path id="Path_4242" data-name="Path 4242" d="M611.429,845.711v-18.2h-.123c-.97.374-2.423.9-3.594,1.316v16.88Z" transform="translate(-550.215 -820.926)" fill="#1d1d1b"/>
        <path id="Path_4243" data-name="Path 4243" d="M609.263,822.979a2.519,2.519,0,1,0-2.523-2.517,2.523,2.523,0,0,0,2.523,2.517" transform="translate(-549.912 -817.94)" fill="#01a9a7"/>
        <path id="Path_4244" data-name="Path 4244" d="M601.455,828.229a3.465,3.465,0,0,0-2.492-.958c-1.905,0-3.66,1.638-4.738,3.757V827.58h-.155c-.966.352-2.291.842-3.416,1.274v16.792h3.695V831.3a3.362,3.362,0,0,1,2.891-2.015,3.788,3.788,0,0,1,3.138,1.81h.062Z" transform="translate(-544.895 -820.851)" fill="#1d1d1b"/>
        <path id="Path_4245" data-name="Path 4245" d="M575.621,829.666v12.44a4.569,4.569,0,0,1-3.679,2.162c-2.326,0-3.891-2.892-3.891-8.023,0-5.475,1.9-7.753,4.595-7.753a4.009,4.009,0,0,1,2.972,1.174m3.718,16.177V827.516h-.124c-.974.374-2.423.9-3.594,1.316v.425a6.233,6.233,0,0,0-4.413-1.884c-3.737,0-7.076,3.5-7.076,9.247,0,6.085,2.755,9.282,6.187,9.282a6.1,6.1,0,0,0,5.291-3.363v3.054h0v.12c-.135,3.853-1.727,7.084-4.371,7.084-2.439,0-3.552-4.27-3.822-5.116h-.12l-1.175,3.455a7.416,7.416,0,0,0,4.966,2.081c4.487,0,8.185-2.506,8.251-7.378Z" transform="translate(-536.62 -820.882)" fill="#1d1d1b"/>
      </g>
    </g>
    <rect id="Rectangle_4868" data-name="Rectangle 4868" width="613" height="1" rx="0.5" transform="translate(140 232)"/>
  </g>
</svg>
