<svg id="Humo_Logo_Primair_RGB" xmlns="http://www.w3.org/2000/svg" width="144.813" height="48" viewBox="0 0 144.813 48">
  <rect id="Rectangle_6985" data-name="Rectangle 6985" width="144.813" height="48" fill="#ee090d"/>
  <path id="Path_4453" data-name="Path 4453" d="M81.4,47.526H72V60.02H64.743V47.526h-9.4V81.4h9.4V68.217H72V81.4h9.4Zm30.134,0h-7.389V68.267c0,1.58.135,3.358-1.076,4.495A4.827,4.827,0,0,1,99.847,73.9a4.025,4.025,0,0,1-3.359-1.533,7.489,7.489,0,0,1-.583-3.7V47.526H86.324V69.847c0,4.051.626,7.262,3.895,9.63,2.373,1.73,6.044,2.421,8.867,2.421,3.223,0,6.449-.591,9.089-2.864,2.954-2.618,3.359-5.776,3.359-9.727V47.526Zm39.18,0h-12.4L134.1,65.5h-.09l-4.387-17.976H117.31V81.4h7.075v-24.2h.09l5.777,24.2h6l5.6-24.2h.09V81.4h8.775V47.526Zm19.3-.5c-9.36,0-14.687,7.407-14.687,17.532S160.7,81.9,170.013,81.9s14.687-7.7,14.687-17.333c0-10.126-5.328-17.532-14.687-17.532m0,7.656c4.165,0,4.611,6.618,4.611,9.927s-.314,9.53-4.611,9.53-4.611-6.27-4.611-9.53.448-9.927,4.611-9.927" transform="translate(-47.615 -40.465)" fill="#fff"/>
</svg>
