<svg id="Group_4347" data-name="Group 4347" xmlns="http://www.w3.org/2000/svg" width="320" height="40" viewBox="0 0 320 40">
  <rect id="Rectangle_6941" data-name="Rectangle 6941" width="320" height="40" fill="#fff"/>
  <g id="HetParool_Logo_Primair_RGB" transform="translate(100.692 8.156)">
    <rect id="Rectangle_6949" data-name="Rectangle 6949" width="119.524" height="3.347" transform="translate(0.017 20.342)"/>
    <path id="Path_4298" data-name="Path 4298" d="M6.541,9.312V3.7c0-1.159.09-1.362,1.566-1.522V1.84H0v.341c1.475.16,1.566.363,1.566,1.522v12.22c0,1.158-.091,1.362-1.566,1.523v.341H8.107v-.341c-1.477-.16-1.566-.365-1.566-1.523V9.994h5.269v5.929c0,1.158-.09,1.362-1.566,1.523v.341H18.35v-.341c-1.475-.16-1.566-.365-1.566-1.523V3.7c0-1.159.091-1.362,1.566-1.522V1.839H10.243V2.18c1.476.16,1.566.363,1.566,1.522V9.311H6.541Zm23.347,4.315a3.84,3.84,0,0,1-3.178,1.544c-2.227,0-3.68-1.5-3.749-4.293h7.177v-.568c0-2.974-1.724-5.087-5.133-5.087s-6.29,2.542-6.29,6.655,2.7,6.132,6.086,6.132a5.109,5.109,0,0,0,5.361-4.269l-.274-.114ZM24.71,5.77c1.09,0,1.453,1.635,1.453,4.451l-3.2.227c.09-2.816.615-4.678,1.749-4.678m12.15-.318V2.294H36.52a21.306,21.306,0,0,1-5.633,3.5v.341h1.226V14.2c0,2.725,1.523,3.815,3.7,3.815a4.206,4.206,0,0,0,4.156-3.248l-.272-.114a1.824,1.824,0,0,1-1.566.819,1.265,1.265,0,0,1-1.273-1.431V6.131h2.521V5.45H36.86Zm14.445,10.47v-4.2h1.477c4.633,0,6.836-1.818,6.836-5.041,0-2.795-2.089-4.839-6.587-4.839H44.765v.341c1.475.16,1.566.363,1.566,1.522v12.22c0,1.158-.091,1.362-1.566,1.523v.341h9.152v-.341c-1.975-.091-2.612-.365-2.612-1.523m0-4.657V2.294h.3c1.861,0,3.178,1.566,3.178,4.385s-1.135,4.587-3.178,4.587Zm21.418,4.793a1.816,1.816,0,0,1-.7.18c-.43,0-.748-.318-.748-.954V9.266c0-3.066-2.09-4.042-5.451-4.042-2.839,0-5.02.862-5.02,3.021a1.715,1.715,0,0,0,1.135,1.725l2.817-.205c-.136-1.566-.318-4,.954-4,.726,0,.886.795.886,1.93v3.112a18.08,18.08,0,0,0-3.68.657c-1.681.5-3.066,1.364-3.066,3.363a3.066,3.066,0,0,0,3.225,3.248,3.955,3.955,0,0,0,3.543-2.273A2.967,2.967,0,0,0,69.77,18.08a3.278,3.278,0,0,0,3.087-1.841l-.136-.18Zm-8.268-2.5c0-1.341.5-1.84,1.227-2.091.318-.114.568-.182.908-.271v4.225a1.654,1.654,0,0,1-.658.136c-1.091,0-1.477-.864-1.477-2m18.1-8.336c-2.112,0-3,2.725-3.384,4.246l.09-4.246h-.34L73.292,6.587v.34l1.2.773v8.927c0,.682-.363.749-1.2.818v.341h7.654v-.341c-1.272-.182-1.771-.251-1.771-1.182V10.039c1.022-1.158,3.452-1.181,4.407-.681l.179-.114V5.61a1.72,1.72,0,0,0-1.2-.385M97.5,11.834c0,3.791-2.7,6.246-6.587,6.246s-6.586-2.454-6.586-6.246a6.587,6.587,0,1,1,13.173,0m-4.973,0c0-3.816-.408-6.064-1.613-6.064S89.3,8.018,89.3,11.834s.409,5.7,1.611,5.7,1.613-1.885,1.613-5.7m19.282,0c0,3.791-2.7,6.246-6.585,6.246s-6.587-2.454-6.587-6.246a6.586,6.586,0,1,1,13.172,0m-4.973,0c0-3.816-.41-6.064-1.612-6.064s-1.614,2.248-1.614,6.064.409,5.7,1.614,5.7,1.612-1.885,1.612-5.7m11.492,4.792V0h-.34l-5.542,1.022v.341l1.2.682V16.626c0,.682-.362.749-1.2.818v.341h7.087v-.341c-.84-.069-1.205-.136-1.205-.818"/>
  </g>
</svg>
