<svg id="Group_4349" data-name="Group 4349" xmlns="http://www.w3.org/2000/svg" width="320" height="40" viewBox="0 0 320 40">
  <rect id="Rectangle_6941" data-name="Rectangle 6941" width="320" height="40" fill="#fff"/>
  <g id="Trouw_Logo_Primair_Tagline_RGB" transform="translate(109.513 7.403)">
    <path id="Path_4296" data-name="Path 4296" d="M75.9,24.526l.169,8.13c0,.4,0,1.877-.034,4.445a28.077,28.077,0,0,1,1.821-4.214l4.11-8.361h7.112l.2,8.56V37.1a29.351,29.351,0,0,1,1.753-4.377l3.943-8.2h6L91.841,41.448H84.965l-.3-7.6c-.034-1.053-.067-2.107-.067-3.193,0-.658,0-1.316.033-1.975-.742,1.843-1.28,3.094-1.617,3.785l-4.348,8.988H71.62L69.969,24.528H75.9Zm-19.111,0L54.97,33.019a7.55,7.55,0,0,0-.2,1.679c0,1.646.809,2.534,2.292,2.534,2.19,0,3.876-1.876,4.684-5.563l1.549-7.144h6.067L65.653,41.447H60.228l.675-2.865A8.8,8.8,0,0,1,54.3,41.875c-3.572,0-5.661-2.107-5.661-5.892a23.468,23.468,0,0,1,.64-4.708l1.45-6.749h6.065Zm-18.5,3.423c-2.427,0-4.652,2.569-4.652,6.189,0,2.239,1.383,3.819,3.336,3.819,2.427,0,4.55-2.568,4.55-6.189,0-2.37-1.314-3.819-3.235-3.819m9.334,4.082c0,5.794-4.313,9.909-11.222,9.909-5.561,0-8.9-2.995-8.9-7.737,0-6.057,4.178-10.138,11.121-10.138,5.628,0,9,3.029,9,7.967M27.535,29.364a10.564,10.564,0,0,0-2.629-.46c-2.763,0-3.943,1.679-4.751,5.234l-1.617,7.308H12.47L16.009,24.46H21.5l-.64,3.095c1.685-2.37,3.371-3.489,5.729-3.489a8.33,8.33,0,0,1,2.292.362l-1.348,4.938ZM19.041,18.6l-.977,4.411H12.1L8.089,41.447h-6.3L5.8,23.011H0L.943,18.6h18.1Z" transform="translate(0 -16.756)" fill="#005693"/>
    <path id="Path_4297" data-name="Path 4297" d="M249.825,5.315a.9.9,0,0,0-.47-.076h-1.028a.776.776,0,0,1-.3-.042.893.893,0,0,0-.345.569c0,.376.463.661,1.078.661.677,0,1.23-.361,1.23-.813a.354.354,0,0,0-.167-.3m-.6-3.227a.646.646,0,0,0-.489-.243.743.743,0,0,0-.684.834,1.036,1.036,0,0,0,.387.89.652.652,0,0,0,.366.117c.408,0,.684-.334.684-.82a1.189,1.189,0,0,0-.262-.78m.434-.159a1.189,1.189,0,0,1,.352.369,1.033,1.033,0,0,1,.123.5A1.214,1.214,0,0,1,248.8,3.946a1.383,1.383,0,0,1-.359-.036,1,1,0,0,0-.284.486.224.224,0,0,0,.117.188.8.8,0,0,0,.414.083h.974a.848.848,0,0,1,.691.209.7.7,0,0,1,.18.494,1.214,1.214,0,0,1-.566.98,2.421,2.421,0,0,1-2.425.1.772.772,0,0,1-.428-.591.57.57,0,0,1,.29-.452,2.48,2.48,0,0,1,.477-.271.558.558,0,0,1-.3-.438.521.521,0,0,1,.187-.361,4.429,4.429,0,0,1,.489-.474,1.314,1.314,0,0,1-.484-.229,1.061,1.061,0,0,1-.407-.828A1.283,1.283,0,0,1,248.7,1.589a1.588,1.588,0,0,1,.794.2l1.251-.258v.626l-1.085-.229Zm-4.52,3.206V4.954l.573-.258V2.875a.693.693,0,0,0-.29-.661,1.2,1.2,0,0,0-.628-.132,4.53,4.53,0,0,0-.628.042V4.7l.539.258v.181h-1.8V4.954l.608-.258v-2.5L242.874,2v-.16l1.3-.285v.4c.158-.062.3-.132.449-.187a1.654,1.654,0,0,1,.753-.181.963.963,0,0,1,.731.313,1.09,1.09,0,0,1,.257.842V4.7l.607.258v.181h-1.831Zm-4.386,0V4.954l.615-.258V2.179l-.615-.187V1.831l1.264-.278V4.7l.608.258v.181h-1.872Zm.939-4.346c-.29,0-.435-.126-.435-.376s.138-.382.435-.382.428.118.428.369-.138.39-.428.39m-3.071,1.271a1.722,1.722,0,0,0-.6.1V4.856c.151.014.269.021.407.021a1.349,1.349,0,0,0,.794-.2,1.453,1.453,0,0,0,.566-1.231c0-.835-.456-1.384-1.167-1.384M238.477,5.2a2.108,2.108,0,0,1-.456-.042V6.316l.759.23v.181h-2.017V6.546l.608-.23V2.193L236.763,2V1.838l1.257-.285V2c.116-.063.221-.118.469-.229a1.658,1.658,0,0,1,.636-.181,1.5,1.5,0,0,1,1.346,1.648,1.922,1.922,0,0,1-2,1.968m-2.894-3.08a.577.577,0,0,0-.525-.244c-.5,0-.781.4-.843,1.161l1.547-.147a1.192,1.192,0,0,0-.18-.772m-1.375,1.142a1.528,1.528,0,0,0,.332,1.105,1.315,1.315,0,0,0,1.022.4,6.269,6.269,0,0,0,.828-.083l.042.237s-.3.091-.477.145a2.878,2.878,0,0,1-.877.139,1.584,1.584,0,0,1-1.595-1.738,1.988,1.988,0,0,1,.56-1.447,1.541,1.541,0,0,1,1.1-.431,1.261,1.261,0,0,1,1.209.73,2.557,2.557,0,0,1,.138.946h-2.28Zm-2.941,1.87V4.954l.614-.258V2.179l-.614-.187V1.831l1.264-.278V4.7l.608.258v.181h-1.872ZM232.2.789c-.29,0-.435-.126-.435-.376s.139-.382.435-.382.428.118.428.369-.138.39-.428.39M229.8,1.949a1.84,1.84,0,0,0-.435-.042,1.292,1.292,0,0,0-1.326,1.447c0,.883.456,1.377,1.187,1.377a1.884,1.884,0,0,0,.573-.1V1.948Zm0,3.282V4.807l-.484.215a1.463,1.463,0,0,1-.662.182,1.485,1.485,0,0,1-1.3-1.648,1.873,1.873,0,0,1,1.92-1.968,1.5,1.5,0,0,1,.525.09V.649L229.15.455V.3l1.3-.292v4.6l.573.182v.153l-1.223.285Zm-3.22-2.739-.213-.423a1.709,1.709,0,0,0-.187-.008,1.643,1.643,0,0,0-.539.118V4.7l.753.258v.181h-2.016V4.954l.614-.258V2.186L224.349,2v-.16l1.292-.285V2a2.9,2.9,0,0,1,1.071-.41.751.751,0,0,1,.366.111v.792h-.5Zm-3.558-.368a.577.577,0,0,0-.525-.244c-.5,0-.781.4-.843,1.161l1.547-.147a1.2,1.2,0,0,0-.18-.772m-1.375,1.142a1.523,1.523,0,0,0,.332,1.105,1.315,1.315,0,0,0,1.022.4,6.3,6.3,0,0,0,.829-.083l.041.237s-.3.091-.477.145a2.878,2.878,0,0,1-.877.139,1.585,1.585,0,0,1-1.6-1.738,1.988,1.988,0,0,1,.56-1.447,1.541,1.541,0,0,1,1.1-.431,1.262,1.262,0,0,1,1.209.73,2.578,2.578,0,0,1,.138.946h-2.28ZM221,.7l-1.782,4.5h-.352L217.242.7l-.554-.258V.267h1.837V.447L217.981.7l1,2.969c.055.16.048.146.221.7L220.508.7l-.545-.258V.267h1.582V.447L221,.7Zm-5.217,1.419a.578.578,0,0,0-.525-.244c-.5,0-.781.4-.843,1.161l1.547-.147a1.2,1.2,0,0,0-.18-.772m-1.375,1.142a1.524,1.524,0,0,0,.332,1.105,1.314,1.314,0,0,0,1.021.4,6.281,6.281,0,0,0,.829-.083l.042.237s-.3.091-.477.145a2.878,2.878,0,0,1-.877.139,1.584,1.584,0,0,1-1.595-1.738,1.988,1.988,0,0,1,.56-1.447,1.541,1.541,0,0,1,1.1-.431,1.261,1.261,0,0,1,1.209.73,2.578,2.578,0,0,1,.138.946h-2.28Zm-2.122,1.967V4.807l-.484.215a1.466,1.466,0,0,1-.663.182,1.485,1.485,0,0,1-1.3-1.648,1.873,1.873,0,0,1,1.919-1.968,1.5,1.5,0,0,1,.525.09V.649l-.65-.194V.3l1.3-.292v4.6l.573.182v.153l-1.223.285Zm0-3.282a1.846,1.846,0,0,0-.435-.042,1.293,1.293,0,0,0-1.326,1.447c0,.883.457,1.377,1.189,1.377a1.884,1.884,0,0,0,.573-.1V1.948Z" transform="translate(-189.133)" fill="#005693"/>
  </g>
</svg>
