<svg id="Group_4342" data-name="Group 4342" xmlns="http://www.w3.org/2000/svg" width="320" height="40" viewBox="0 0 320 40">
  <rect id="Rectangle_6941" data-name="Rectangle 6941" width="320" height="40" fill="#fff"/>
  <g id="Group_4267" data-name="Group 4267" transform="translate(79 10)">
    <g id="Volkskrant-logo">
      <path id="Path_4284" data-name="Path 4284" d="M15.167,19.647v-.727h-.491c-1.3,0-1.493-.137-1.493-1.12V0H6.11V.727h.864c1.3,0,1.493.118,1.493,1v9.8a6.061,6.061,0,0,0-3.418-1A4.825,4.825,0,0,0,0,15.246a4.861,4.861,0,0,0,5.049,4.715A5.3,5.3,0,0,0,8.684,18.8v.845Zm-6.66-3.34c0,1.179-.137,1.69-.57,2.063A2.061,2.061,0,0,1,6.6,18.86c-1.611,0-1.611-1.336-1.611-2.711V14.342c0-1.375,0-2.711,1.611-2.711a2.061,2.061,0,0,1,1.336.492c.432.373.57.884.57,2.063Z" fill="#1a1919" fill-rule="evenodd"/>
      <path id="Path_4285" data-name="Path 4285" d="M88.862,57.544c-.059-3.144-2.2-4.892-6.012-4.892-3.949,0-6.424,1.827-6.424,4.755,0,2.829,2.613,4.715,6.523,4.715a6.916,6.916,0,0,0,5.8-2.613l-.452-.491a5.956,5.956,0,0,1-4.479,2.259c-1.355,0-2.259-.53-2.515-1.414A7.04,7.04,0,0,1,81.141,58v-.452Zm-4.539-.786H81.141v-.806c0-1.238.039-1.572.255-1.925a1.563,1.563,0,0,1,1.395-.629,1.319,1.319,0,0,1,1.375.806,4.724,4.724,0,0,1,.157,1.709Z" transform="translate(-61.141 -42.121)" fill="#1a1919" fill-rule="evenodd"/>
      <path id="Path_4286" data-name="Path 4286" d="M140.46,19.647,132.366,2.063a4.7,4.7,0,0,0-.53-.943c-.256-.295-.59-.393-1.533-.393h-.668V0h10.648V.727h-.373a6.694,6.694,0,0,0-1.2.059.755.755,0,0,0-.727.766,5.166,5.166,0,0,0,.609,1.808L143.112,13.5l4.2-9.489A8,8,0,0,0,148.1,1.67c0-.727-.472-.943-2.24-.943h-.157V0h6.13V.727h-.2a4.631,4.631,0,0,0-1.159.079c-.412.118-.609.373-1,1.257L141.5,19.647Z" transform="translate(-103.708)" fill="#1a1919" fill-rule="evenodd"/>
      <path id="Path_4287" data-name="Path 4287" d="M225.1,57.172c0-2.849-2.613-4.715-6.621-4.715-4.047,0-6.621,1.847-6.621,4.754s2.574,4.754,6.621,4.754C222.542,61.965,225.1,60.119,225.1,57.172Zm-4.912,1.139a5.819,5.819,0,0,1-.157,2.024,1.8,1.8,0,0,1-3.1,0,5.813,5.813,0,0,1-.157-2.024v-2.2a5.812,5.812,0,0,1,.157-2.023,1.8,1.8,0,0,1,3.1,0,5.819,5.819,0,0,1,.157,2.023Z" transform="translate(-169.483 -41.965)" fill="#1a1919" fill-rule="evenodd"/>
      <path id="Path_4288" data-name="Path 4288" d="M277.846,18.919h.491c1.3,0,1.493-.118,1.493-1V1.729c0-.884-.2-1-1.493-1h-.864V0h7.073V17.9c0,.9.216,1.021,1.513,1.021h.491v.727h-8.7Z" transform="translate(-221.978)" fill="#1a1919" fill-rule="evenodd"/>
      <path id="Path_4289" data-name="Path 4289" d="M334.8,19.666l-3.3-4.3V17.8c0,.982.216,1.139,1.513,1.139h.255v.727H324.8v-.727h.491c1.3,0,1.493-.137,1.493-1.12V1.729c0-.884-.2-1-1.493-1h-.864V0H331.5V14.951l2.1-1.532c.255-.2.668-.491.864-.668.334-.294.452-.471.452-.687a.384.384,0,0,0-.255-.353,2.421,2.421,0,0,0-.943-.079h-.668V10.9h6.876v.727a8.1,8.1,0,0,0-4.7,1.179l4.3,5.4a1.78,1.78,0,0,0,.727.648,2.157,2.157,0,0,0,.609.079,1.238,1.238,0,0,0,.295,0v.727Z" transform="translate(-259.54)" fill="#1a1919" fill-rule="evenodd"/>
      <path id="Path_4290" data-name="Path 4290" d="M416.84,62.279a12.575,12.575,0,0,1-4.283-.766,1.173,1.173,0,0,0-.373-.1c-.255,0-.334.177-.354.59h-.668v-3.36h.668v.079a2.012,2.012,0,0,0,.413,1.454,3.816,3.816,0,0,0,2.691,1.12c.786,0,1.2-.275,1.2-.727,0-.412-.295-.688-1.081-1.041l-.687-.314c-2.181-.963-3.026-1.827-3.026-3.163,0-1.925,1.827-3.1,4.794-3.1a11.045,11.045,0,0,1,3.32.53,2.041,2.041,0,0,0,.648.137c.275,0,.374-.118.432-.373h.649V56.15h-.649v-.216c0-.688-.1-.943-.432-1.238a3.764,3.764,0,0,0-2.279-.747c-.766,0-1.179.275-1.179.747,0,.452.275.688,1.434,1.14l1.179.452c1.906.746,2.574,1.454,2.574,2.75C421.83,61.042,419.944,62.279,416.84,62.279Z" transform="translate(-328.93 -42.358)" fill="#1a1919" fill-rule="evenodd"/>
      <path id="Path_4291" data-name="Path 4291" d="M473.306,19.666l-3.3-4.3V17.8c0,.982.216,1.139,1.513,1.139h.255v.727h-8.468v-.727h.491c1.3,0,1.493-.137,1.493-1.12V1.729c0-.884-.2-1-1.493-1h-.865V0h7.073V14.951l2.1-1.532c.255-.2.668-.491.864-.668.334-.294.452-.471.452-.687a.384.384,0,0,0-.255-.353,2.416,2.416,0,0,0-.943-.079h-.668V10.9h6.876v.727a8.1,8.1,0,0,0-4.7,1.179l4.3,5.4a1.779,1.779,0,0,0,.727.648,2.156,2.156,0,0,0,.609.079,1.237,1.237,0,0,0,.295,0v.727Z" transform="translate(-370.346)" fill="#1a1919" fill-rule="evenodd"/>
      <path id="Path_4292" data-name="Path 4292" d="M557.334,61.041h.57v.727H549.3v-.727h.373c1.3,0,1.493-.118,1.493-1V54.773c0-.884-.2-1-1.493-1h-.589v-.727h6.582v2.279a3.739,3.739,0,0,1,3.457-2.672,2.6,2.6,0,0,1,2.79,2.79,2.441,2.441,0,0,1-2.515,2.652,2.281,2.281,0,0,1-2.475-2.259,1.767,1.767,0,0,1,.2-.884c.079-.157.059-.177.059-.216,0-.059-.079-.1-.118-.1-.157,0-.353.177-.57.511a4.321,4.321,0,0,0-.511,1.2,8.961,8.961,0,0,0-.157,1.886v1.788C555.822,60.9,556.038,61.041,557.334,61.041Z" transform="translate(-439.267 -42.121)" fill="#1a1919" fill-rule="evenodd"/>
      <path id="Path_4293" data-name="Path 4293" d="M628.492,61.768v-.727H628.1c-.884,0-1.041-.275-1.041-1.12V56.974a6.47,6.47,0,0,0-.137-1.886,2.838,2.838,0,0,0-.53-1.021c-.747-.943-2.122-1.415-4.028-1.415a14.179,14.179,0,0,0-3.713.609,5.711,5.711,0,0,1-.786.2c-.236,0-.314-.1-.334-.432h-.59v2.908h.648v-.216a1.507,1.507,0,0,1,.491-1.356,4.252,4.252,0,0,1,2.416-.668c.924,0,1.533.275,1.729.786a3,3,0,0,1,.118,1.12v.648c-.727-.059-1.238-.079-1.945-.079-3.085,0-5.206.806-5.206,2.967,0,1.945,1.67,2.888,3.674,2.888a6.142,6.142,0,0,0,3.635-1.081v.825Zm-6.149-3.143c0,.216,0,.531-.02.864a1.288,1.288,0,0,1-.236.825,1.257,1.257,0,0,1-.963.413c-.766,0-1.041-.452-1.041-1.65v-.413c0-1.237.452-1.709,1.67-1.709.255,0,.236,0,.589.02Z" transform="translate(-492.153 -42.121)" fill="#1a1919" fill-rule="evenodd"/>
      <path id="Path_4294" data-name="Path 4294" d="M692.185,62.24v-.648h.118a1.06,1.06,0,0,0,.766-.2c.137-.138.177-.472.177-1.317v-3.32a4.369,4.369,0,0,0-.118-1.572.927.927,0,0,0-.963-.491,1.7,1.7,0,0,0-1.3.57c-.295.373-.354.648-.354,1.768v3.045c0,.393.019.766.039.963.059.393.275.55.9.55h.2v.648h-7.584v-.727h.373c1.3,0,1.493-.118,1.493-1.061V55.3c0-.943-.2-1.061-1.493-1.061h-.589v-.727h6.5v1.257a5.5,5.5,0,0,1,3.949-1.533,3.9,3.9,0,0,1,2.966,1.1,2.652,2.652,0,0,1,.629,1.434,9.681,9.681,0,0,1,.059,1.316v3.359c0,.943.2,1.061,1.493,1.061h.315v.727Z" transform="translate(-547.084 -42.593)" fill="#1a1919" fill-rule="evenodd"/>
      <path id="Path_4295" data-name="Path 4295" d="M771.888,47.524c-.55,1.081-1.788,1.631-3.693,1.631a3.822,3.822,0,0,1-3.026-.982,2.92,2.92,0,0,1-.668-1.749,14.338,14.338,0,0,1-.059-1.631V40.864h-1.611v-.649l6.051-3.772.255.2v3.438h3.006v.786h-3.006V45.4a6.057,6.057,0,0,0,.1,1.631.858.858,0,0,0,.9.609c1.316,0,1.375-1.12,1.375-2.22v-.216h.668V45.5A4.167,4.167,0,0,1,771.888,47.524Z" transform="translate(-610.265 -29.155)" fill="#1a1919" fill-rule="evenodd"/>
    </g>
  </g>
</svg>
