<svg xmlns="http://www.w3.org/2000/svg" xmlns:xlink="http://www.w3.org/1999/xlink" width="39" height="974" viewBox="0 0 39 974">
  <defs>
    <clipPath id="clip-path">
      <rect id="Rectangle_6909" data-name="Rectangle 6909" width="39" height="974" transform="translate(592.211 188.014)" fill="#fff"/>
    </clipPath>
  </defs>
  <g id="Group_4197" data-name="Group 4197" transform="translate(-592.211 -188.014)" clip-path="url(#clip-path)">
    <g id="Group_4196" data-name="Group 4196" transform="translate(-236.75 6.892)">
      <path id="Path_4324" data-name="Path 4324" d="M202.57,1091.2l879.8-937.619" transform="translate(-96.532 -40.578)" fill="none" stroke="#f39579" stroke-width="2"/>
      <path id="Path_4325" data-name="Path 4325" d="M166.87,1055.5l879.8-937.619" transform="translate(-127.106 -75.507)" fill="none" stroke="#f39579" stroke-width="2"/>
      <path id="Path_4326" data-name="Path 4326" d="M238.271,1126.923l879.823-937.639" transform="translate(-65.958 -5.649)" fill="none" stroke="#f39579" stroke-width="2"/>
      <path id="Path_4327" data-name="Path 4327" d="M281.12,1169.753l879.8-937.619" transform="translate(-29.262 36.275)" fill="none" stroke="#f39579" stroke-width="2"/>
      <path id="Path_4328" data-name="Path 4328" d="M316.82,1205.453l879.8-937.619" transform="translate(1.311 71.203)" fill="none" stroke="#f39579" stroke-width="2"/>
      <path id="Path_4329" data-name="Path 4329" d="M149.021,1037.653l879.8-937.619" transform="translate(-142.392 -92.971)" fill="none" stroke="#f39579" stroke-width="2"/>
      <path id="Path_4330" data-name="Path 4330" d="M220.42,1109.073l879.822-937.639" transform="translate(-81.246 -23.114)" fill="none" stroke="#f39579" stroke-width="2"/>
      <path id="Path_4331" data-name="Path 4331" d="M184.72,1073.352l879.8-937.619" transform="translate(-111.819 -58.043)" fill="none" stroke="#f39579" stroke-width="2"/>
      <path id="Path_4332" data-name="Path 4332" d="M256.13,1144.763l879.8-937.619" transform="translate(-50.664 11.825)" fill="none" stroke="#f39579" stroke-width="2"/>
      <path id="Path_4333" data-name="Path 4333" d="M298.97,1187.6l879.8-937.619" transform="translate(-13.975 53.738)" fill="none" stroke="#f39579" stroke-width="2"/>
      <path id="Path_4334" data-name="Path 4334" d="M334.67,1223.323l879.822-937.639" transform="translate(16.598 88.667)" fill="none" stroke="#f39579" stroke-width="2"/>
      <path id="Path_4335" data-name="Path 4335" d="M206.141,1094.773l879.8-937.619" transform="translate(-93.474 -37.085)" fill="none" stroke="#f39579" stroke-width="2"/>
      <path id="Path_4336" data-name="Path 4336" d="M170.44,1059.073l879.8-937.619" transform="translate(-124.049 -72.014)" fill="none" stroke="#f39579" stroke-width="2"/>
      <path id="Path_4337" data-name="Path 4337" d="M241.851,1130.483l879.8-937.619" transform="translate(-62.892 -2.147)" fill="none" stroke="#f39579" stroke-width="2"/>
      <path id="Path_4338" data-name="Path 4338" d="M284.69,1173.323l879.8-937.619" transform="translate(-26.205 39.767)" fill="none" stroke="#f39579" stroke-width="2"/>
      <path id="Path_4339" data-name="Path 4339" d="M320.391,1209.023l879.8-937.619" transform="translate(4.37 74.696)" fill="none" stroke="#f39579" stroke-width="2"/>
      <path id="Path_4340" data-name="Path 4340" d="M152.59,1041.223l879.8-937.619" transform="translate(-139.335 -89.478)" fill="none" stroke="#f39579" stroke-width="2"/>
      <path id="Path_4341" data-name="Path 4341" d="M223.99,1112.643,1103.812,175" transform="translate(-78.188 -19.621)" fill="none" stroke="#f39579" stroke-width="2"/>
      <path id="Path_4342" data-name="Path 4342" d="M188.29,1076.923l879.8-937.619" transform="translate(-108.762 -54.549)" fill="none" stroke="#f39579" stroke-width="2"/>
      <path id="Path_4343" data-name="Path 4343" d="M259.7,1148.333l879.8-937.619" transform="translate(-47.606 15.317)" fill="none" stroke="#f39579" stroke-width="2"/>
      <path id="Path_4344" data-name="Path 4344" d="M302.54,1191.173l879.8-937.619" transform="translate(-10.918 57.232)" fill="none" stroke="#f39579" stroke-width="2"/>
      <path id="Path_4345" data-name="Path 4345" d="M338.24,1226.893l879.823-937.639" transform="translate(19.655 92.16)" fill="none" stroke="#f39579" stroke-width="2"/>
      <path id="Path_4346" data-name="Path 4346" d="M209.71,1098.343l879.8-937.619" transform="translate(-90.418 -33.592)" fill="none" stroke="#f39579" stroke-width="2"/>
      <path id="Path_4347" data-name="Path 4347" d="M174.01,1062.642l879.8-937.619" transform="translate(-120.991 -68.522)" fill="none" stroke="#f39579" stroke-width="2"/>
      <path id="Path_4348" data-name="Path 4348" d="M245.42,1134.053l879.8-937.619" transform="translate(-59.836 1.346)" fill="none" stroke="#f39579" stroke-width="2"/>
      <path id="Path_4349" data-name="Path 4349" d="M288.26,1176.892l879.8-937.619" transform="translate(-23.147 43.259)" fill="none" stroke="#f39579" stroke-width="2"/>
      <path id="Path_4350" data-name="Path 4350" d="M323.96,1212.593l879.8-937.619" transform="translate(7.426 78.189)" fill="none" stroke="#f39579" stroke-width="2"/>
      <path id="Path_4351" data-name="Path 4351" d="M156.16,1044.793l879.8-937.619" transform="translate(-136.278 -85.985)" fill="none" stroke="#f39579" stroke-width="2"/>
      <path id="Path_4352" data-name="Path 4352" d="M227.561,1116.213l879.822-937.639" transform="translate(-75.13 -16.128)" fill="none" stroke="#f39579" stroke-width="2"/>
      <path id="Path_4353" data-name="Path 4353" d="M191.86,1080.493l879.8-937.619" transform="translate(-105.704 -51.057)" fill="none" stroke="#f39579" stroke-width="2"/>
      <path id="Path_4354" data-name="Path 4354" d="M263.271,1151.9l879.8-937.619" transform="translate(-44.548 18.81)" fill="none" stroke="#f39579" stroke-width="2"/>
      <path id="Path_4355" data-name="Path 4355" d="M306.11,1194.743l879.8-937.619" transform="translate(-7.861 60.725)" fill="none" stroke="#f39579" stroke-width="2"/>
      <path id="Path_4356" data-name="Path 4356" d="M341.811,1230.463l879.822-937.639" transform="translate(22.714 95.653)" fill="none" stroke="#f39579" stroke-width="2"/>
      <path id="Path_4357" data-name="Path 4357" d="M213.28,1101.913l879.8-937.619" transform="translate(-87.36 -30.099)" fill="none" stroke="#f39579" stroke-width="2"/>
      <path id="Path_4358" data-name="Path 4358" d="M177.58,1066.213l879.8-937.619" transform="translate(-117.934 -65.028)" fill="none" stroke="#f39579" stroke-width="2"/>
      <path id="Path_4359" data-name="Path 4359" d="M248.99,1137.623,1128.794,200" transform="translate(-56.778 4.839)" fill="none" stroke="#f39579" stroke-width="2"/>
      <path id="Path_4360" data-name="Path 4360" d="M291.83,1180.463l879.8-937.619" transform="translate(-20.09 46.753)" fill="none" stroke="#f39579" stroke-width="2"/>
      <path id="Path_4361" data-name="Path 4361" d="M327.53,1216.163l879.8-937.619" transform="translate(10.483 81.682)" fill="none" stroke="#f39579" stroke-width="2"/>
      <path id="Path_4362" data-name="Path 4362" d="M159.73,1048.363l879.8-937.619" transform="translate(-133.221 -82.492)" fill="none" stroke="#f39579" stroke-width="2"/>
      <path id="Path_4363" data-name="Path 4363" d="M231.13,1119.783l879.822-937.639" transform="translate(-72.074 -12.635)" fill="none" stroke="#f39579" stroke-width="2"/>
      <path id="Path_4364" data-name="Path 4364" d="M273.98,1162.613l879.8-937.619" transform="translate(-35.377 29.289)" fill="none" stroke="#f39579" stroke-width="2"/>
      <path id="Path_4365" data-name="Path 4365" d="M195.431,1084.063l879.8-937.619" transform="translate(-102.646 -47.564)" fill="none" stroke="#f39579" stroke-width="2"/>
      <path id="Path_4366" data-name="Path 4366" d="M266.84,1155.473l879.8-937.619" transform="translate(-41.492 22.303)" fill="none" stroke="#f39579" stroke-width="2"/>
      <path id="Path_4367" data-name="Path 4367" d="M309.681,1198.313l879.8-937.619" transform="translate(-4.803 64.218)" fill="none" stroke="#f39579" stroke-width="2"/>
      <path id="Path_4368" data-name="Path 4368" d="M345.38,1234.033,1225.2,296.394" transform="translate(25.77 99.146)" fill="none" stroke="#f39579" stroke-width="2"/>
      <path id="Path_4369" data-name="Path 4369" d="M145.45,1034.083l879.8-937.619" transform="translate(-145.45 -96.464)" fill="none" stroke="#f39579" stroke-width="2"/>
      <path id="Path_4370" data-name="Path 4370" d="M216.851,1105.483l879.8-937.619" transform="translate(-84.302 -26.607)" fill="none" stroke="#f39579" stroke-width="2"/>
      <path id="Path_4371" data-name="Path 4371" d="M181.15,1069.783l879.8-937.619" transform="translate(-114.877 -61.535)" fill="none" stroke="#f39579" stroke-width="2"/>
      <path id="Path_4372" data-name="Path 4372" d="M252.561,1141.193l879.8-937.619" transform="translate(-53.72 8.332)" fill="none" stroke="#f39579" stroke-width="2"/>
      <path id="Path_4373" data-name="Path 4373" d="M295.4,1184.033l879.8-937.619" transform="translate(-17.033 50.246)" fill="none" stroke="#f39579" stroke-width="2"/>
      <path id="Path_4374" data-name="Path 4374" d="M331.1,1219.753l879.822-937.639" transform="translate(13.542 85.175)" fill="none" stroke="#f39579" stroke-width="2"/>
      <path id="Path_4375" data-name="Path 4375" d="M163.3,1051.932l879.8-937.619" transform="translate(-130.163 -79)" fill="none" stroke="#f39579" stroke-width="2"/>
      <path id="Path_4376" data-name="Path 4376" d="M234.7,1123.353l879.822-937.639" transform="translate(-69.016 -9.142)" fill="none" stroke="#f39579" stroke-width="2"/>
      <path id="Path_4377" data-name="Path 4377" d="M277.55,1166.182l879.8-937.619" transform="translate(-32.32 32.781)" fill="none" stroke="#f39579" stroke-width="2"/>
      <path id="Path_4378" data-name="Path 4378" d="M199,1087.633l879.8-937.619" transform="translate(-99.59 -44.071)" fill="none" stroke="#f39579" stroke-width="2"/>
      <path id="Path_4379" data-name="Path 4379" d="M270.41,1159.043l879.8-937.619" transform="translate(-38.434 25.796)" fill="none" stroke="#f39579" stroke-width="2"/>
      <path id="Path_4380" data-name="Path 4380" d="M313.25,1201.883l879.8-937.619" transform="translate(-1.746 67.71)" fill="none" stroke="#f39579" stroke-width="2"/>
      <path id="Path_4381" data-name="Path 4381" d="M348.95,1237.6l879.822-937.639" transform="translate(28.827 102.639)" fill="none" stroke="#f39579" stroke-width="2"/>
      <path id="Path_4382" data-name="Path 4382" d="M352.84,1240.533l879.8-937.639" transform="translate(32.159 105.505)" fill="none" stroke="#f39579" stroke-width="2"/>
      <path id="Path_4383" data-name="Path 4383" d="M424.24,1311.923,1304.062,374.3" transform="translate(93.306 175.372)" fill="none" stroke="#f39579" stroke-width="2"/>
      <path id="Path_4384" data-name="Path 4384" d="M388.54,1276.223l879.8-937.619" transform="translate(62.732 140.444)" fill="none" stroke="#f39579" stroke-width="2"/>
      <path id="Path_4385" data-name="Path 4385" d="M459.95,1347.643,1339.754,410" transform="translate(123.888 210.301)" fill="none" stroke="#f39579" stroke-width="2"/>
      <path id="Path_4386" data-name="Path 4386" d="M502.79,1390.473l879.8-937.619" transform="translate(160.576 252.225)" fill="none" stroke="#f39579" stroke-width="2"/>
      <path id="Path_4387" data-name="Path 4387" d="M538.49,1426.173l879.822-937.619" transform="translate(191.15 287.154)" fill="none" stroke="#f39579" stroke-width="2"/>
      <path id="Path_4388" data-name="Path 4388" d="M370.69,1258.373l879.8-937.619" transform="translate(47.446 122.98)" fill="none" stroke="#f39579" stroke-width="2"/>
      <path id="Path_4389" data-name="Path 4389" d="M442.1,1329.773l879.8-937.619" transform="translate(108.602 192.837)" fill="none" stroke="#f39579" stroke-width="2"/>
      <path id="Path_4390" data-name="Path 4390" d="M406.391,1294.073l879.8-937.619" transform="translate(78.02 157.908)" fill="none" stroke="#f39579" stroke-width="2"/>
      <path id="Path_4391" data-name="Path 4391" d="M477.8,1365.483l879.8-937.619" transform="translate(139.175 227.775)" fill="none" stroke="#f39579" stroke-width="2"/>
      <path id="Path_4392" data-name="Path 4392" d="M520.641,1408.323l879.8-937.619" transform="translate(175.864 269.689)" fill="none" stroke="#f39579" stroke-width="2"/>
      <path id="Path_4393" data-name="Path 4393" d="M556.351,1444.023l879.8-937.619" transform="translate(206.446 304.618)" fill="none" stroke="#f39579" stroke-width="2"/>
      <path id="Path_4394" data-name="Path 4394" d="M356.41,1244.1l879.8-937.639" transform="translate(35.216 108.998)" fill="none" stroke="#f39579" stroke-width="2"/>
      <path id="Path_4395" data-name="Path 4395" d="M427.811,1315.493l879.822-937.619" transform="translate(96.364 178.865)" fill="none" stroke="#f39579" stroke-width="2"/>
      <path id="Path_4396" data-name="Path 4396" d="M392.11,1279.793l879.8-937.619" transform="translate(65.79 143.937)" fill="none" stroke="#f39579" stroke-width="2"/>
      <path id="Path_4397" data-name="Path 4397" d="M463.521,1351.213l879.8-937.639" transform="translate(126.946 213.794)" fill="none" stroke="#f39579" stroke-width="2"/>
      <path id="Path_4398" data-name="Path 4398" d="M506.36,1394.043l879.8-937.619" transform="translate(163.633 255.718)" fill="none" stroke="#f39579" stroke-width="2"/>
      <path id="Path_4399" data-name="Path 4399" d="M542.061,1429.743l879.82-937.619" transform="translate(194.208 290.646)" fill="none" stroke="#f39579" stroke-width="2"/>
      <path id="Path_4400" data-name="Path 4400" d="M374.26,1261.943l879.8-937.619" transform="translate(50.503 126.472)" fill="none" stroke="#f39579" stroke-width="2"/>
      <path id="Path_4401" data-name="Path 4401" d="M445.67,1333.343l879.8-937.619" transform="translate(111.659 196.33)" fill="none" stroke="#f39579" stroke-width="2"/>
      <path id="Path_4402" data-name="Path 4402" d="M409.96,1297.642l879.8-937.619" transform="translate(81.076 161.4)" fill="none" stroke="#f39579" stroke-width="2"/>
      <path id="Path_4403" data-name="Path 4403" d="M481.37,1369.053l879.8-937.619" transform="translate(142.232 231.268)" fill="none" stroke="#f39579" stroke-width="2"/>
      <path id="Path_4404" data-name="Path 4404" d="M524.21,1411.892l879.8-937.619" transform="translate(178.92 273.181)" fill="none" stroke="#f39579" stroke-width="2"/>
      <path id="Path_4405" data-name="Path 4405" d="M559.92,1447.593l879.8-937.619" transform="translate(209.502 308.111)" fill="none" stroke="#f39579" stroke-width="2"/>
      <path id="Path_4406" data-name="Path 4406" d="M359.98,1247.663l879.8-937.619" transform="translate(38.274 112.501)" fill="none" stroke="#f39579" stroke-width="2"/>
      <path id="Path_4407" data-name="Path 4407" d="M431.38,1319.062,1311.2,381.443" transform="translate(99.421 182.357)" fill="none" stroke="#f39579" stroke-width="2"/>
      <path id="Path_4408" data-name="Path 4408" d="M395.681,1283.363l879.8-937.619" transform="translate(68.848 147.43)" fill="none" stroke="#f39579" stroke-width="2"/>
      <path id="Path_4409" data-name="Path 4409" d="M467.09,1354.783l879.8-937.639" transform="translate(130.003 217.287)" fill="none" stroke="#f39579" stroke-width="2"/>
      <path id="Path_4410" data-name="Path 4410" d="M509.93,1397.613l879.8-937.619" transform="translate(166.691 259.211)" fill="none" stroke="#f39579" stroke-width="2"/>
      <path id="Path_4411" data-name="Path 4411" d="M545.63,1433.312l879.822-937.619" transform="translate(197.264 294.138)" fill="none" stroke="#f39579" stroke-width="2"/>
      <path id="Path_4412" data-name="Path 4412" d="M377.83,1265.513l879.8-937.619" transform="translate(53.56 129.965)" fill="none" stroke="#f39579" stroke-width="2"/>
      <path id="Path_4413" data-name="Path 4413" d="M449.24,1336.933l879.8-937.639" transform="translate(114.716 199.822)" fill="none" stroke="#f39579" stroke-width="2"/>
      <path id="Path_4414" data-name="Path 4414" d="M413.53,1301.213l879.823-937.619" transform="translate(84.134 164.894)" fill="none" stroke="#f39579" stroke-width="2"/>
      <path id="Path_4415" data-name="Path 4415" d="M484.94,1372.623,1364.744,435" transform="translate(145.289 234.761)" fill="none" stroke="#f39579" stroke-width="2"/>
      <path id="Path_4416" data-name="Path 4416" d="M527.78,1415.463,1407.6,477.844" transform="translate(181.978 276.675)" fill="none" stroke="#f39579" stroke-width="2"/>
      <path id="Path_4417" data-name="Path 4417" d="M563.49,1451.183l879.8-937.639" transform="translate(212.56 311.604)" fill="none" stroke="#f39579" stroke-width="2"/>
      <path id="Path_4418" data-name="Path 4418" d="M363.55,1251.233l879.8-937.619" transform="translate(41.331 115.994)" fill="none" stroke="#f39579" stroke-width="2"/>
      <path id="Path_4419" data-name="Path 4419" d="M434.95,1322.633l879.822-937.619" transform="translate(102.478 185.851)" fill="none" stroke="#f39579" stroke-width="2"/>
      <path id="Path_4420" data-name="Path 4420" d="M399.25,1286.932l879.8-937.619" transform="translate(71.904 150.921)" fill="none" stroke="#f39579" stroke-width="2"/>
      <path id="Path_4421" data-name="Path 4421" d="M470.66,1358.343l879.8-937.619" transform="translate(133.06 220.789)" fill="none" stroke="#f39579" stroke-width="2"/>
      <path id="Path_4422" data-name="Path 4422" d="M513.5,1401.182l879.8-937.619" transform="translate(169.748 262.703)" fill="none" stroke="#f39579" stroke-width="2"/>
      <path id="Path_4423" data-name="Path 4423" d="M549.21,1436.883l879.8-937.619" transform="translate(200.33 297.632)" fill="none" stroke="#f39579" stroke-width="2"/>
      <path id="Path_4424" data-name="Path 4424" d="M381.4,1269.083l879.8-937.619" transform="translate(56.618 133.458)" fill="none" stroke="#f39579" stroke-width="2"/>
      <path id="Path_4425" data-name="Path 4425" d="M452.811,1340.5l879.8-937.639" transform="translate(117.774 203.315)" fill="none" stroke="#f39579" stroke-width="2"/>
      <path id="Path_4426" data-name="Path 4426" d="M495.65,1383.333l879.8-937.619" transform="translate(154.462 245.239)" fill="none" stroke="#f39579" stroke-width="2"/>
      <path id="Path_4427" data-name="Path 4427" d="M417.1,1304.783l879.823-937.619" transform="translate(87.192 168.387)" fill="none" stroke="#f39579" stroke-width="2"/>
      <path id="Path_4428" data-name="Path 4428" d="M488.51,1376.193l879.8-937.619" transform="translate(148.347 238.254)" fill="none" stroke="#f39579" stroke-width="2"/>
      <path id="Path_4429" data-name="Path 4429" d="M531.351,1419.033l879.821-937.619" transform="translate(185.036 280.168)" fill="none" stroke="#f39579" stroke-width="2"/>
      <path id="Path_4430" data-name="Path 4430" d="M567.061,1454.752l879.8-937.638" transform="translate(215.618 315.097)" fill="none" stroke="#f39579" stroke-width="2"/>
      <path id="Path_4431" data-name="Path 4431" d="M367.12,1254.8l879.8-937.619" transform="translate(44.388 119.487)" fill="none" stroke="#f39579" stroke-width="2"/>
      <path id="Path_4432" data-name="Path 4432" d="M438.53,1326.2l879.8-937.619" transform="translate(105.544 189.344)" fill="none" stroke="#f39579" stroke-width="2"/>
      <path id="Path_4433" data-name="Path 4433" d="M402.82,1290.5l879.8-937.619" transform="translate(74.962 154.415)" fill="none" stroke="#f39579" stroke-width="2"/>
      <path id="Path_4434" data-name="Path 4434" d="M474.23,1361.913l879.8-937.619" transform="translate(136.117 224.282)" fill="none" stroke="#f39579" stroke-width="2"/>
      <path id="Path_4435" data-name="Path 4435" d="M517.07,1404.754l879.8-937.62" transform="translate(172.805 266.197)" fill="none" stroke="#f39579" stroke-width="2"/>
      <path id="Path_4436" data-name="Path 4436" d="M552.78,1440.453l879.8-937.619" transform="translate(203.388 301.125)" fill="none" stroke="#f39579" stroke-width="2"/>
      <path id="Path_4437" data-name="Path 4437" d="M384.97,1272.653l879.8-937.619" transform="translate(59.675 136.951)" fill="none" stroke="#f39579" stroke-width="2"/>
      <path id="Path_4438" data-name="Path 4438" d="M456.38,1344.073l879.8-937.639" transform="translate(120.831 206.808)" fill="none" stroke="#f39579" stroke-width="2"/>
      <path id="Path_4439" data-name="Path 4439" d="M499.22,1386.9l879.8-937.619" transform="translate(157.519 248.732)" fill="none" stroke="#f39579" stroke-width="2"/>
      <path id="Path_4440" data-name="Path 4440" d="M420.67,1308.352l879.822-937.619" transform="translate(90.249 171.879)" fill="none" stroke="#f39579" stroke-width="2"/>
      <path id="Path_4441" data-name="Path 4441" d="M492.08,1379.763l879.8-937.619" transform="translate(151.404 241.747)" fill="none" stroke="#f39579" stroke-width="2"/>
      <path id="Path_4442" data-name="Path 4442" d="M534.92,1422.6l879.822-937.619" transform="translate(188.092 283.66)" fill="none" stroke="#f39579" stroke-width="2"/>
      <path id="Path_4443" data-name="Path 4443" d="M570.63,1458.323l879.8-937.639" transform="translate(218.674 318.59)" fill="none" stroke="#f39579" stroke-width="2"/>
    </g>
  </g>
</svg>
