<svg id="Het_Parool" data-name="Het Parool" xmlns="http://www.w3.org/2000/svg" xmlns:xlink="http://www.w3.org/1999/xlink" width="141" height="26.611" viewBox="0 0 141 26.611">
  <defs>
    <clipPath id="clip-path">
      <rect id="Rectangle_4812" data-name="Rectangle 4812" width="141" height="26.611" fill="#fff"/>
    </clipPath>
  </defs>
  <g id="Group_124" data-name="Group 124" clip-path="url(#clip-path)">
    <path id="Path_3859" data-name="Path 3859" d="M666,288.852v3.759H525.02v-3.759ZM602.635,271.87c3.965,0,6.429,1.095,6.429,4.54v6.762c0,.714.374,1.071.884,1.071a2.249,2.249,0,0,0,.83-.2l.16.2a3.9,3.9,0,0,1-3.642,2.068,3.483,3.483,0,0,1-3.725-2.553,4.69,4.69,0,0,1-4.178,2.553,3.538,3.538,0,0,1-3.805-3.649c0-2.246,1.634-3.216,3.616-3.778a22.278,22.278,0,0,1,4.342-.739v-3.5c0-1.273-.189-2.167-1.045-2.167-1.5,0-1.286,2.729-1.125,4.49l-3.324.231a1.934,1.934,0,0,1-1.337-1.94C596.714,272.837,599.284,271.87,602.635,271.87Zm29.6,0c4.848,0,7.769,3.162,7.769,7.425s-3.188,7.017-7.769,7.017-7.769-2.757-7.769-7.017S627.387,271.87,632.236,271.87Zm16.877,0c4.849,0,7.769,3.162,7.769,7.425s-3.187,7.017-7.769,7.017-7.767-2.757-7.767-7.017S644.264,271.87,649.113,271.87Zm-94.619,0c4.02,0,6.054,2.372,6.054,5.713v.639h-8.465c.081,3.139,1.795,4.822,4.422,4.822a4.615,4.615,0,0,0,3.749-1.734l.323.13a5.964,5.964,0,0,1-6.323,4.794c-3.992,0-7.178-2.425-7.178-6.889A7.227,7.227,0,0,1,554.493,271.87Zm13.984-3.294v3.548h2.974v.764h-2.974v8.881a1.451,1.451,0,0,0,1.5,1.608,2.188,2.188,0,0,0,1.848-.92l.321.128a4.925,4.925,0,0,1-4.9,3.648c-2.571,0-4.366-1.223-4.366-4.285v-9.059h-1.446v-.382a25.362,25.362,0,0,0,6.644-3.93Zm-33.915-.51v.382c-1.742.179-1.848.409-1.848,1.71v6.3h6.215V270.1c0-1.254-.131-1.479-1.848-1.656v-.382h9.563v.382c-1.74.179-1.848.409-1.848,1.71v13.727c0,1.3.108,1.53,1.848,1.71v.383h-9.563V285.6c1.742-.18,1.848-.41,1.848-1.71v-6.661h-6.215v6.715c0,1.252.131,1.478,1.848,1.656v.383H525V285.6c1.74-.18,1.848-.41,1.848-1.71V270.1c0-1.254-.133-1.479-1.848-1.656v-.382Zm52.988,0c5.306,0,7.769,2.3,7.769,5.437,0,3.62-2.6,5.662-8.063,5.662h-1.741v4.72c0,1.3.751,1.608,3.08,1.71v.383H577.8V285.6c1.74-.18,1.848-.41,1.848-1.71V270.1c0-1.254-.133-1.479-1.848-1.656v-.382Zm30.942,3.8-.107,4.769c.456-1.707,1.5-4.769,3.992-4.769a2.1,2.1,0,0,1,1.42.432l0,4.083-.212.128c-1.125-.563-3.991-.536-5.2.764v6.992c0,1.045.59,1.123,2.09,1.327v.383h-9.027V285.6c.991-.078,1.418-.154,1.418-.919V274.649l-1.418-.867V273.4l6.643-1.53ZM664.571,266v18.678c0,.765.429.841,1.421.919v.383h-8.359V285.6c.992-.078,1.419-.154,1.419-.919V268.3l-1.419-.766v-.382L664.169,266Zm-32.335,6.482c-1.42,0-1.9,2.525-1.9,6.813s.481,6.4,1.9,6.4,1.9-2.117,1.9-6.4S633.657,272.482,632.236,272.482Zm16.877,0c-1.419,0-1.9,2.525-1.9,6.813s.483,6.4,1.9,6.4,1.893-2.075,1.9-6.275v-.128C651.016,275.007,650.532,272.482,649.113,272.482Zm-45.567,6.1c-.4.1-.7.179-1.072.306-.856.281-1.446.843-1.446,2.348,0,1.276.456,2.245,1.742,2.245a2.033,2.033,0,0,0,.776-.152Zm-17.681-10h-.349v10.079h.349c2.41,0,3.749-1.963,3.749-5.151C589.614,270.337,588.06,268.576,585.865,268.576Zm-31.718,3.905c-1.339,0-1.957,2.091-2.064,5.254l3.777-.254C555.86,274.318,555.432,272.482,554.146,272.482Z" transform="translate(-525 -266)" fill-rule="evenodd"/>
  </g>
</svg>
