<svg xmlns="http://www.w3.org/2000/svg" width="80" height="35.615" viewBox="0 0 80 35.615">
  <g id="Group_4200" data-name="Group 4200" transform="translate(-73 -266)">
    <path id="Libelle_-_voor_jouw_dagelijkse_dosis_inspiratie_en_nieuwtjes-1" data-name="Libelle - voor jouw dagelijkse dosis inspiratie en nieuwtjes-1" d="M67.052,18.584a5.113,5.113,0,0,1,4.646-4.8H71.8a3.089,3.089,0,0,1,2.308,1.149,5.858,5.858,0,0,1,1.132,3.647ZM63.9,14.011c-1.064,1.783-2,5.486-2.011,9.32a15.391,15.391,0,0,0,1.59,7.313c1.967,3.312,4.541,4.971,8.153,4.971a20.647,20.647,0,0,0,5.939-1.05h.068l.142-.043,1.027-5.35-.693.41a11.315,11.315,0,0,1-5.568,1.783,5.55,5.55,0,0,1-3.025-.833c-1.856-1.181-2.945-3.585-2.945-6.623a8.237,8.237,0,0,1,.049-1.094H80V20.9c0-3.448-.161-6.35-2.747-9.034a8.443,8.443,0,0,0-5.889-2.336,7.937,7.937,0,0,0-.854.044,8.8,8.8,0,0,0-6.625,4.486ZM56.115.64V35.161h4.5V0h-4.5ZM48.6.019V35.18h4.5V.019Zm-29.78,21.7a11.85,11.85,0,0,1,1-5.176,4.679,4.679,0,0,1,2.753-2.554,3.992,3.992,0,0,1,1.237-.193,5.339,5.339,0,0,1,4.225,2.349,9.638,9.638,0,0,1,1.107,5.095c0,3.15-.891,6.748-2.988,8.469a6.871,6.871,0,0,1-4.417,1.411,10.232,10.232,0,0,1-2.92-.429Zm15.274-3.107a5.113,5.113,0,0,1,4.646-4.8h.1a3.088,3.088,0,0,1,2.308,1.149,5.9,5.9,0,0,1,1.132,3.647ZM14.247.031l.031,33.912.167.062a24.223,24.223,0,0,0,7.795,1.51c3.835,0,6.8-1.454,8.716-4.349a8.652,8.652,0,0,0,7.912,4.393H38.9a20.4,20.4,0,0,0,5.883-1.013h.068l.142-.044,1.021-5.35-.693.41a11.316,11.316,0,0,1-5.568,1.783,5.55,5.55,0,0,1-3.025-.833c-1.856-1.181-2.945-3.585-2.945-6.623a8.237,8.237,0,0,1,.049-1.094H47.195v-1.92c0-3.448-.161-6.35-2.747-9.034a8.307,8.307,0,0,0-5.809-2.287,5.675,5.675,0,0,0-.792.037,8.818,8.818,0,0,0-6.427,3.964,7.889,7.889,0,0,0-5.531-3.964A8.625,8.625,0,0,0,24.5,9.481,9.518,9.518,0,0,0,18.818,11.4c0-1.758-.049-8.543-.062-11.358Zm-2.586,9.8H7.04V35.161h4.621ZM0,0V35.161H4.565V0Z" transform="translate(73 266)" fill="#ea908d"/>
  </g>
</svg>
