<svg xmlns="http://www.w3.org/2000/svg" xmlns:xlink="http://www.w3.org/1999/xlink" width="970" height="52" viewBox="0 0 970 52">
  <defs>
    <clipPath id="clip-path">
      <rect id="Rectangle_4810" data-name="Rectangle 4810" width="167" height="32" transform="translate(-0.195 0.291)" fill="#fff"/>
    </clipPath>
  </defs>
  <g id="Group_4472" data-name="Group 4472" transform="translate(0 -198)">
    <rect id="Rectangle_6941" data-name="Rectangle 6941" width="970" height="52" transform="translate(0 198)" fill="#fff"/>
    <g id="Group_120" data-name="Group 120" transform="translate(20.195 207.709)" clip-path="url(#clip-path)">
      <g id="Group_117" data-name="Group 117" transform="translate(0 0.281)">
        <path id="Path_3847" data-name="Path 3847" d="M559.349,274.437c0-8.869-1.689-11.017-4.561-11.017a5.711,5.711,0,0,0-1.688.2v19.034c0,1.808.506,2.114,1.756,2.114C557.727,284.772,559.349,281.567,559.349,274.437ZM543,285.319l.912-.239c1.25-.341,1.486-.409,1.486-2.763V265.841c0-2.353-.237-2.422-1.486-2.762L543,262.84v-.58h12.431c7.5,0,11.957,3.65,11.957,11.29,0,7.607-4.526,12.348-12.092,12.348H543Z" transform="translate(-543 -262.26)"/>
      </g>
      <g id="Group_118" data-name="Group 118" transform="translate(25.067 5.534)">
        <path id="Path_3848" data-name="Path 3848" d="M597.213,279.649l4.527-.341c0-4.844-.44-6.106-2.061-6.106C598.294,273.2,597.246,274.43,597.213,279.649ZM590.66,281.9a9.186,9.186,0,0,1,9.289-9.653c4.964,0,8.072,2.388,8.241,8.323H597.213c.1,5.935,2.061,7.231,5.675,7.231a9.66,9.66,0,0,0,4.593-1.193v.648a9.464,9.464,0,0,1-7.667,3.786C593.734,291.042,590.66,287.836,590.66,281.9Z" transform="translate(-590.66 -272.247)"/>
      </g>
      <g id="Group_119" data-name="Group 119" transform="translate(41.715 0.281)">
        <path id="Path_3849" data-name="Path 3849" d="M622.312,285.319l.912-.239c1.25-.341,1.486-.75,1.486-3.445V265.841c0-2.353-.236-2.422-1.486-2.762l-.912-.239v-.58h10.269l4.222,11.973h.135l4.391-11.973h10.133v.58l-.911.239c-1.25.341-1.487.409-1.487,2.762v16.475c0,2.354.237,2.422,1.487,2.763l.911.239v.58h-12.6v-.58l.912-.239c1.317-.341,1.52-.409,1.52-2.763V266.183h-.135l-6.924,19.2H632.75l-6.587-19.2h-.135V281.4c0,2.865.1,3.309,1.622,3.684l.945.239v.58h-6.283Z" transform="translate(-622.312 -262.26)" fill="#ed1b2f"/>
      </g>
      <path id="Path_3850" data-name="Path 3850" d="M688.149,282.431c0-8.062-1.151-8.947-2.843-8.947-1.59,0-2.639,1.2-2.639,8.31,0,8.133.846,9.124,2.808,9.124C687.235,290.918,688.149,290.1,688.149,282.431Zm-12.384-.142c0-7.178,4.906-9.831,9.643-9.831,4.974,0,9.643,3.076,9.643,9.689,0,7.143-4.8,9.794-9.643,9.794C680.4,291.943,675.765,288.866,675.765,282.29Z" transform="translate(-605.935 -266.814)" fill="#ed1b2f"/>
      <path id="Path_3851" data-name="Path 3851" d="M711.3,290.678l.611-.175c1.357-.384,1.425-.489,1.425-2.094V276.927c0-1.5-.034-1.64-1.086-2.408l-1.086-.8v-.349l8.449-.908.271.21v2.792h.1c.984-1.256,2.816-2.966,5.021-2.966a2.624,2.624,0,0,1,2.782,2.931c0,2.024-1.187,3.176-2.85,3.176a2.609,2.609,0,0,1-2.715-1.85c-.238-.524-.407-.7-.814-.7a2.184,2.184,0,0,0-1.391.489v11.866c0,1.746.169,1.851,1.425,2.094l.747.139v.629H711.3Z" transform="translate(-622.718 -266.814)" fill="#ed1b2f"/>
      <path id="Path_3852" data-name="Path 3852" d="M750.848,276.771c0-4.183-.449-4.915-1.691-4.915-1.346,0-1.691.732-1.691,4.81s.414,4.915,1.691,4.915C750.5,281.582,750.848,280.815,750.848,276.771Zm3.969,15.651c0-1.742-1.036-2.4-3.245-2.4h-6.007a3.659,3.659,0,0,0-.622,2.509c0,1.917.967,3.242,4.074,3.242C752.92,295.769,754.818,294.584,754.818,292.422Zm-14.567.662c0-1.673,1.553-2.927,4.556-3.276v-.069c-2.451-.628-3.452-1.918-3.452-3.834a5.37,5.37,0,0,1,2.8-4.392v-.069a4.766,4.766,0,0,1-2.831-4.462c0-3.87,3.349-6.1,7.836-6.1a10.771,10.771,0,0,1,4.695,1.046,6.045,6.045,0,0,1,4.039-2.021,2.042,2.042,0,0,1,2.312,2.126,1.737,1.737,0,0,1-1.829,1.952c-1.139,0-1.415-.488-1.726-1.359-.381-1.08-1.347-.8-2.175-.209v.069a5.006,5.006,0,0,1,2.52,3.974c0,3.9-3.349,6.1-7.836,6.1a12.657,12.657,0,0,1-4.315-.732,2.5,2.5,0,0,0-.519,1.464c0,.558.346.942,1.485.942h7.042c3.383,0,6.041,1.08,6.041,4.845,0,4.88-4.522,7.7-10.666,7.7C742.805,296.779,740.251,295.524,740.251,293.084Z" transform="translate(-636.504 -265.603)" fill="#ed1b2f"/>
      <path id="Path_3853" data-name="Path 3853" d="M779.838,280.133l4.635-.354c0-5.021-.449-6.329-2.11-6.329C780.945,273.449,779.873,274.722,779.838,280.133Zm-6.712,2.334c0-6.683,4.947-10.007,9.515-10.007,5.086,0,8.269,2.476,8.442,8.628H779.838c.1,6.153,2.11,7.5,5.812,7.5a9.8,9.8,0,0,0,4.705-1.238v.672a9.659,9.659,0,0,1-7.854,3.925C776.274,291.943,773.126,288.619,773.126,282.467Z" transform="translate(-652.088 -266.814)" fill="#ed1b2f"/>
      <path id="Path_3854" data-name="Path 3854" d="M804.872,290.678l.614-.175c1.363-.384,1.431-.489,1.431-2.094V276.962c0-1.536-.034-1.675-1.09-2.443l-1.091-.8v-.349l8.485-.908.273.21v2.652h.1c1.84-1.466,3.919-2.862,6.611-2.862,2.59,0,4.4,1.571,4.4,4.677v11.272c0,1.641.1,1.71,1.465,2.094l.613.175v.593h-10.53v-.593l.511-.14c1.192-.314,1.226-.383,1.226-2.129v-9.946c0-1.885-.749-2.408-2.01-2.408a9.7,9.7,0,0,0-2.25.209v12.146c0,1.78.068,1.815,1.227,2.129l.511.14v.593h-10.5Z" transform="translate(-667.072 -266.814)" fill="#ed1b2f"/>
      <path id="Path_3855" data-name="Path 3855" d="M853.048,299.418a2.66,2.66,0,1,1-2.661-2.688A2.674,2.674,0,0,1,853.048,299.418Z" transform="translate(-687.452 -278.319)"/>
    </g>
  </g>
</svg>
