<svg xmlns="http://www.w3.org/2000/svg" width="40" height="40" viewBox="0 0 40 40">
  <g id="Group_4406" data-name="Group 4406" transform="translate(-171 -461)">
    <path id="Path_490" data-name="Path 490" d="M684.087,247.964v35.312a2.344,2.344,0,0,1-2.344,2.344H646.431a2.343,2.343,0,0,1-2.344-2.344V247.964a2.344,2.344,0,0,1,2.344-2.344h35.312A2.345,2.345,0,0,1,684.087,247.964Z" transform="translate(-473.087 215.38)" fill="red"/>
    <path id="Path_491" data-name="Path 491" d="M723.473,271.023v1.038c.621.273,1,.519,1,1.1V283.5l-4.728-12.477h-3.387v1.038c.591.273,1.12.49,1.12,1.1v17.366c0,.544-.529.852-1.12,1.123v1.041h3.668v-1.041a1.028,1.028,0,0,1-.745-1.123V277.277l5.752,15.411h1.214v-19.53c0-.55.15-.824.779-1.1v-1.038Z" transform="translate(-519.654 199.16)" fill="#fff"/>
    <path id="Path_492" data-name="Path 492" d="M696.1,288.387a4.074,4.074,0,0,1-.591,1.649,2.322,2.322,0,0,1-1.863,1.1h-1.462V273.158c0-.516.308-.793.932-1.1v-1.04h-4.944v1.04c.589.3.993.58.993,1.1v17.394c0,.518-.466.642-1.118.92v1.216H697.5v-5.1C696.939,287.592,696.2,287.778,696.1,288.387Z" transform="translate(-501.375 199.16)" fill="#fff"/>
    <path id="Path_493" data-name="Path 493" d="M660.692,272.007c.625.273,1.061.547,1.061,1.1v7.385h-3.64v-7.6c0-.548.157-.761.78-1.035v-.885h-4.759v1.067c.622.273.962.552.962,1.1v17.272c0,.578-.341.855-.963,1.131v1.1h4.849v-.947a1.258,1.258,0,0,1-.87-1.247v-7.389a.935.935,0,0,1,.9-.974h1.8a.961.961,0,0,1,.937.976v7.353c0,.578-.436.855-1.061,1.131v1.1h4.884v-1.1c-.617-.276-.807-.553-.807-1.131V273.136a1.5,1.5,0,0,1,.842-1.341v-.855h-4.919Z" transform="translate(-479.502 199.213)" fill="#fff"/>
  </g>
</svg>
