<svg xmlns="http://www.w3.org/2000/svg" width="970" height="52" viewBox="0 0 970 52">
  <g id="Group_4348" data-name="Group 4348" transform="translate(0 -198)">
    <rect id="Rectangle_6941" data-name="Rectangle 6941" width="970" height="52" transform="translate(0 198)" fill="#fff"/>
    <g id="HetParool_Logo_Primair_RGB" transform="translate(20 208.697)">
      <rect id="Rectangle_6949" data-name="Rectangle 6949" width="152.898" height="4.282" transform="translate(0.021 26.021)"/>
      <path id="Path_4298" data-name="Path 4298" d="M8.367,11.913V4.737c0-1.482.115-1.743,2-1.947V2.354H0V2.79c1.887.2,2,.464,2,1.947V20.369c0,1.481-.116,1.743-2,1.948v.436H10.371v-.436c-1.89-.2-2-.467-2-1.948V12.784h6.74v7.584c0,1.481-.115,1.743-2,1.948v.436H23.474v-.436c-1.887-.2-2-.467-2-1.948V4.736c0-1.482.116-1.743,2-1.947V2.353H13.1v.436c1.889.2,2,.464,2,1.947v7.176H8.367Zm29.866,5.52a4.913,4.913,0,0,1-4.066,1.975c-2.848,0-4.707-1.916-4.8-5.491h9.181V13.19c0-3.8-2.206-6.507-6.566-6.507S23.94,9.935,23.94,15.2,27.4,23.04,31.725,23.04c3.807,0,6.044-2.092,6.858-5.462l-.35-.146ZM31.61,7.381c1.394,0,1.859,2.092,1.859,5.694l-4.1.29c.115-3.6.786-5.984,2.238-5.984m15.543-.407V2.935h-.436a27.255,27.255,0,0,1-7.205,4.473v.436h1.568V18.159c0,3.486,1.948,4.881,4.737,4.881a5.381,5.381,0,0,0,5.317-4.155l-.348-.146a2.333,2.333,0,0,1-2,1.048,1.618,1.618,0,0,1-1.628-1.83V7.843h3.225V6.971H47.153ZM65.632,20.367V14.993h1.89c5.927,0,8.745-2.326,8.745-6.449,0-3.575-2.673-6.19-8.426-6.19H57.265V2.79c1.887.2,2,.464,2,1.947V20.369c0,1.481-.116,1.743-2,1.948v.436H68.972v-.436c-2.526-.116-3.341-.467-3.341-1.948m0-5.957V2.935h.379c2.38,0,4.066,2,4.066,5.609s-1.452,5.868-4.066,5.868Zm27.4,6.132a2.323,2.323,0,0,1-.9.23c-.55,0-.957-.406-.957-1.22v-7.7c0-3.922-2.674-5.171-6.974-5.171-3.632,0-6.421,1.1-6.421,3.865a2.193,2.193,0,0,0,1.452,2.207l3.6-.263c-.175-2-.407-5.112,1.22-5.112.929,0,1.133,1.017,1.133,2.468V13.83a23.129,23.129,0,0,0-4.707.841c-2.15.64-3.922,1.745-3.922,4.3a3.922,3.922,0,0,0,4.125,4.155,5.059,5.059,0,0,0,4.533-2.908,3.8,3.8,0,0,0,4.039,2.908A4.193,4.193,0,0,0,93.2,20.773l-.173-.23Zm-10.576-3.2c0-1.715.639-2.354,1.569-2.675.407-.146.727-.233,1.162-.347v5.4a2.116,2.116,0,0,1-.842.173c-1.4,0-1.89-1.1-1.89-2.556M105.61,6.684c-2.7,0-3.835,3.486-4.328,5.432l.115-5.432h-.435L93.757,8.426v.435l1.539.988v11.42c0,.872-.464.959-1.539,1.046v.436h9.791v-.436c-1.627-.233-2.265-.321-2.265-1.512V12.843c1.308-1.481,4.416-1.511,5.637-.871l.229-.146V7.177a2.2,2.2,0,0,0-1.537-.493m19.114,8.455c0,4.85-3.458,7.99-8.426,7.99s-8.425-3.139-8.425-7.99,3.167-8.456,8.425-8.456,8.426,3.6,8.426,8.456m-6.362,0c0-4.882-.521-7.758-2.063-7.758s-2.061,2.876-2.061,7.758.523,7.291,2.061,7.291,2.063-2.411,2.063-7.291m24.666,0c0,4.85-3.457,7.99-8.424,7.99s-8.426-3.139-8.426-7.99,3.167-8.456,8.426-8.456,8.424,3.6,8.424,8.456m-6.362,0c0-4.882-.525-7.758-2.062-7.758s-2.064,2.876-2.064,7.758.523,7.291,2.064,7.291,2.062-2.411,2.062-7.291m14.7,6.13V0h-.435l-7.09,1.308v.436l1.539.872V21.268c0,.872-.463.959-1.539,1.046v.436h9.065v-.436c-1.075-.088-1.542-.175-1.542-1.046"/>
    </g>
  </g>
</svg>
