<svg xmlns="http://www.w3.org/2000/svg" width="970" height="52" viewBox="0 0 970 52">
  <g id="Group_4346" data-name="Group 4346" transform="translate(0 -198)">
    <rect id="Rectangle_6941" data-name="Rectangle 6941" width="970" height="52" transform="translate(0 198)" fill="#fff"/>
    <g id="Trouw_Logo_Primair_Tagline_RGB" transform="translate(20 209.99)">
      <path id="Path_4296" data-name="Path 4296" d="M84.418,25.191l.188,9.043c0,.44,0,2.088-.037,4.943a31.228,31.228,0,0,1,2.025-4.687l4.571-9.3h7.91l.224,9.52v4.467a32.646,32.646,0,0,1,1.949-4.869l4.386-9.117h6.672l-10.157,18.82H94.5l-.337-8.458c-.037-1.171-.075-2.343-.075-3.552,0-.732,0-1.464.036-2.2-.825,2.05-1.424,3.441-1.8,4.21l-4.836,10H79.658l-1.836-18.82h6.6Zm-21.255,0L61.14,34.638a8.4,8.4,0,0,0-.225,1.867c0,1.831.9,2.819,2.55,2.819,2.435,0,4.311-2.086,5.21-6.187L70.4,25.191h6.748l-4.124,18.82H66.988l.751-3.186a9.793,9.793,0,0,1-7.347,3.663c-3.973,0-6.3-2.343-6.3-6.554a26.1,26.1,0,0,1,.712-5.236l1.612-7.506h6.746ZM42.583,29c-2.7,0-5.174,2.857-5.174,6.884,0,2.49,1.538,4.248,3.711,4.248,2.7,0,5.061-2.856,5.061-6.884,0-2.636-1.462-4.248-3.6-4.248m10.382,4.541c0,6.444-4.8,11.021-12.481,11.021-6.185,0-9.9-3.331-9.9-8.6,0-6.737,4.647-11.276,12.37-11.276,6.259,0,10.008,3.368,10.008,8.861m-22.34-2.967a11.75,11.75,0,0,0-2.924-.511c-3.073,0-4.386,1.867-5.285,5.821l-1.8,8.129H13.87l3.936-18.893h6.11L23.2,28.559c1.875-2.636,3.749-3.881,6.372-3.881a9.265,9.265,0,0,1,2.55.4l-1.5,5.492ZM21.179,18.6l-1.087,4.906H13.457L9,44.011H1.987l4.46-20.5H0L1.049,18.6H21.179Z" transform="translate(0 -16.55)" fill="#005693"/>
      <path id="Path_4297" data-name="Path 4297" d="M254.312,5.91a1,1,0,0,0-.522-.085h-1.144a.864.864,0,0,1-.331-.047.993.993,0,0,0-.384.633c0,.418.515.735,1.2.735.753,0,1.368-.4,1.368-.9a.393.393,0,0,0-.185-.333m-.667-3.589a.718.718,0,0,0-.544-.27.827.827,0,0,0-.761.927,1.152,1.152,0,0,0,.43.99.725.725,0,0,0,.407.131c.453,0,.761-.371.761-.912a1.323,1.323,0,0,0-.292-.867m.483-.177a1.323,1.323,0,0,1,.392.41,1.149,1.149,0,0,1,.137.556,1.35,1.35,0,0,1-1.489,1.278,1.538,1.538,0,0,1-.4-.04,1.108,1.108,0,0,0-.316.541.249.249,0,0,0,.131.21.893.893,0,0,0,.461.092h1.083a.944.944,0,0,1,.768.233.783.783,0,0,1,.2.55,1.35,1.35,0,0,1-.63,1.09,2.692,2.692,0,0,1-2.7.109.858.858,0,0,1-.476-.657.634.634,0,0,1,.323-.5,2.758,2.758,0,0,1,.53-.3.621.621,0,0,1-.33-.487.58.58,0,0,1,.207-.4,4.925,4.925,0,0,1,.544-.527,1.462,1.462,0,0,1-.538-.255,1.18,1.18,0,0,1-.452-.921,1.427,1.427,0,0,1,1.482-1.353,1.767,1.767,0,0,1,.884.224l1.392-.286v.7l-1.207-.255ZM249.1,5.71v-.2l.638-.286V3.2a.771.771,0,0,0-.323-.735,1.332,1.332,0,0,0-.7-.147,5.038,5.038,0,0,0-.7.047V5.222l.6.286v.2h-2v-.2l.676-.286V2.438l-.715-.21V2.05l1.443-.317v.441c.176-.069.338-.147.5-.209a1.839,1.839,0,0,1,.837-.2,1.071,1.071,0,0,1,.813.348,1.213,1.213,0,0,1,.285.936V5.222l.675.286v.2H249.1Zm-4.879,0v-.2l.684-.286v-2.8l-.684-.209V2.035l1.406-.31v3.5l.676.286v.2h-2.082ZM245.267.876c-.323,0-.484-.14-.484-.418s.154-.425.484-.425.476.132.476.41-.154.434-.476.434m-3.416,1.414a1.915,1.915,0,0,0-.667.116V5.4c.168.015.3.023.452.023a1.5,1.5,0,0,0,.884-.224,1.616,1.616,0,0,0,.63-1.369c0-.929-.507-1.54-1.3-1.54m-.16,3.5a2.344,2.344,0,0,1-.507-.047V7.023l.844.256v.2h-2.243v-.2l.676-.256V2.438l-.676-.21V2.043l1.4-.317v.5c.13-.07.246-.132.521-.255a1.844,1.844,0,0,1,.707-.2,1.673,1.673,0,0,1,1.5,1.833,2.138,2.138,0,0,1-2.219,2.189M238.47,2.361a.642.642,0,0,0-.584-.271c-.553,0-.868.441-.937,1.292l1.721-.164a1.326,1.326,0,0,0-.2-.858m-1.529,1.27a1.7,1.7,0,0,0,.369,1.229,1.463,1.463,0,0,0,1.137.44,6.973,6.973,0,0,0,.921-.092l.047.263s-.338.1-.53.161a3.2,3.2,0,0,1-.976.155,1.762,1.762,0,0,1-1.774-1.933,2.211,2.211,0,0,1,.622-1.609,1.714,1.714,0,0,1,1.222-.48,1.4,1.4,0,0,1,1.345.812,2.843,2.843,0,0,1,.154,1.053h-2.535ZM233.67,5.71v-.2l.683-.286v-2.8l-.683-.209V2.035l1.406-.31v3.5l.676.286v.2H233.67ZM234.714.876c-.323,0-.484-.14-.484-.418s.155-.425.484-.425.476.132.476.41-.154.434-.476.434m-2.676,1.29a2.047,2.047,0,0,0-.484-.047,1.437,1.437,0,0,0-1.475,1.609c0,.982.507,1.531,1.32,1.531a2.1,2.1,0,0,0,.638-.109V2.166Zm0,3.65V5.345l-.538.239a1.627,1.627,0,0,1-.736.2,1.652,1.652,0,0,1-1.444-1.833,2.083,2.083,0,0,1,2.136-2.189,1.667,1.667,0,0,1,.584.1V.721l-.722-.216V.335L232.762.01V5.13l.638.2V5.5l-1.36.317ZM228.457,2.77,228.22,2.3a1.9,1.9,0,0,0-.207-.009,1.827,1.827,0,0,0-.6.132v2.8l.837.286v.2h-2.242v-.2l.683-.286V2.43l-.713-.209V2.044l1.437-.317v.5a3.226,3.226,0,0,1,1.191-.455.836.836,0,0,1,.407.123V2.77h-.553ZM224.5,2.361a.642.642,0,0,0-.584-.271c-.553,0-.868.441-.937,1.292l1.721-.164a1.332,1.332,0,0,0-.2-.858M222.97,3.63a1.694,1.694,0,0,0,.369,1.229,1.463,1.463,0,0,0,1.137.44,7,7,0,0,0,.922-.092l.046.263s-.338.1-.53.161a3.2,3.2,0,0,1-.976.155,1.762,1.762,0,0,1-1.775-1.933,2.211,2.211,0,0,1,.622-1.609,1.714,1.714,0,0,1,1.222-.48,1.4,1.4,0,0,1,1.344.812,2.868,2.868,0,0,1,.154,1.053H222.97ZM222.251.783l-1.982,5h-.392l-1.8-5L217.457.5V.3H219.5V.5l-.606.286,1.113,3.3c.061.178.054.162.246.774L221.706.783,221.1.5V.3h1.759V.5l-.607.286Zm-5.8,1.578a.642.642,0,0,0-.584-.271c-.553,0-.868.441-.937,1.292l1.721-.164a1.332,1.332,0,0,0-.2-.858M214.92,3.63a1.7,1.7,0,0,0,.369,1.229,1.462,1.462,0,0,0,1.136.44,6.986,6.986,0,0,0,.922-.092l.047.263s-.338.1-.53.161a3.2,3.2,0,0,1-.976.155,1.762,1.762,0,0,1-1.774-1.933,2.211,2.211,0,0,1,.622-1.609,1.714,1.714,0,0,1,1.222-.48,1.4,1.4,0,0,1,1.345.812,2.867,2.867,0,0,1,.154,1.053h-2.535Zm-2.36,2.187V5.345l-.538.239a1.631,1.631,0,0,1-.738.2,1.652,1.652,0,0,1-1.444-1.833,2.083,2.083,0,0,1,2.135-2.189,1.667,1.667,0,0,1,.584.1V.721l-.723-.216V.335L213.28.01V5.13l.638.2V5.5l-1.36.317Zm0-3.65a2.053,2.053,0,0,0-.484-.047A1.438,1.438,0,0,0,210.6,3.729c0,.982.508,1.531,1.323,1.531a2.1,2.1,0,0,0,.638-.109V2.166Z" transform="translate(-186.809)" fill="#005693"/>
    </g>
  </g>
</svg>
