<svg xmlns="http://www.w3.org/2000/svg" width="970" height="52" viewBox="0 0 970 52">
  <g id="Group_4342" data-name="Group 4342" transform="translate(0 -198)">
    <rect id="Rectangle_6941" data-name="Rectangle 6941" width="970" height="52" transform="translate(0 198)" fill="#fff"/>
    <g id="Group_4267" data-name="Group 4267" transform="translate(20 210)">
      <g id="Volkskrant-logo">
        <path id="Path_4284" data-name="Path 4284" d="M21.234,27.505V26.487h-.688c-1.815,0-2.09-.192-2.09-1.567V0h-9.9V1.018h1.21c1.815,0,2.091.165,2.091,1.4V16.145a8.486,8.486,0,0,0-4.786-1.4c-3.576,0-7.069,2.5-7.069,6.6,0,4.07,3.548,6.6,7.069,6.6a7.426,7.426,0,0,0,5.088-1.622v1.183ZM11.91,22.829c0,1.65-.192,2.366-.8,2.888a2.886,2.886,0,0,1-1.87.688c-2.255,0-2.255-1.87-2.255-3.8v-2.53c0-1.926,0-3.8,2.255-3.8a2.886,2.886,0,0,1,1.87.688c.605.522.8,1.237.8,2.888Z" fill="#1a1919" fill-rule="evenodd"/>
        <path id="Path_4285" data-name="Path 4285" d="M93.837,59.5c-.083-4.4-3.081-6.849-8.417-6.849-5.529,0-8.994,2.558-8.994,6.656,0,3.961,3.658,6.6,9.132,6.6a9.683,9.683,0,0,0,8.114-3.658l-.633-.688a8.338,8.338,0,0,1-6.271,3.163c-1.9,0-3.163-.742-3.52-1.98a9.856,9.856,0,0,1-.22-2.613V59.5Zm-6.354-1.1H83.027V57.273c0-1.733.055-2.2.357-2.7a2.189,2.189,0,0,1,1.953-.88,1.846,1.846,0,0,1,1.925,1.128,6.614,6.614,0,0,1,.22,2.393Z" transform="translate(-55.027 -37.909)" fill="#1a1919" fill-rule="evenodd"/>
        <path id="Path_4286" data-name="Path 4286" d="M144.79,27.505,133.458,2.888a6.583,6.583,0,0,0-.742-1.32c-.358-.413-.825-.55-2.146-.55h-.935V0h14.907V1.018h-.522a9.372,9.372,0,0,0-1.678.083,1.058,1.058,0,0,0-1.018,1.072,7.232,7.232,0,0,0,.853,2.531L148.5,18.9,154.39,5.611a11.2,11.2,0,0,0,1.1-3.273c0-1.018-.66-1.32-3.136-1.32h-.22V0h8.582V1.018h-.275a6.484,6.484,0,0,0-1.623.11c-.577.165-.852.522-1.4,1.76L146.248,27.505Z" transform="translate(-93.337)" fill="#1a1919" fill-rule="evenodd"/>
        <path id="Path_4287" data-name="Path 4287" d="M230.393,59.058c0-3.988-3.658-6.6-9.269-6.6-5.666,0-9.27,2.585-9.27,6.656s3.6,6.656,9.27,6.656C226.817,65.769,230.393,63.183,230.393,59.058Zm-6.877,1.595a8.146,8.146,0,0,1-.22,2.833,2.527,2.527,0,0,1-4.346,0,8.138,8.138,0,0,1-.22-2.833V57.572a8.137,8.137,0,0,1,.22-2.832,2.526,2.526,0,0,1,4.346,0,8.145,8.145,0,0,1,.22,2.832Z" transform="translate(-152.535 -37.769)" fill="#1a1919" fill-rule="evenodd"/>
        <path id="Path_4288" data-name="Path 4288" d="M278,26.487h.687c1.815,0,2.091-.165,2.091-1.4V2.42c0-1.238-.275-1.4-2.091-1.4h-1.21V0h9.9V25.057c0,1.265.3,1.43,2.118,1.43h.688v1.018H278Z" transform="translate(-199.781)" fill="#1a1919" fill-rule="evenodd"/>
        <path id="Path_4289" data-name="Path 4289" d="M338.947,27.532l-4.621-6.024V24.92c0,1.375.3,1.595,2.118,1.595h.358v1.018H324.947V26.515h.688c1.815,0,2.09-.192,2.09-1.567V2.42c0-1.238-.275-1.4-2.09-1.4h-1.21V0h9.9V20.931l2.943-2.145c.358-.275.935-.688,1.21-.936.467-.412.632-.66.632-.962a.538.538,0,0,0-.357-.495,3.389,3.389,0,0,0-1.321-.111H336.5V15.265h9.627v1.017c-3.136.083-5.144.605-6.574,1.651l6.023,7.564a2.492,2.492,0,0,0,1.018.908,3.02,3.02,0,0,0,.852.11,1.733,1.733,0,0,0,.413,0v1.018Z" transform="translate(-233.586)" fill="#1a1919" fill-rule="evenodd"/>
        <path id="Path_4290" data-name="Path 4290" d="M419.111,66.012a17.6,17.6,0,0,1-6-1.073,1.642,1.642,0,0,0-.523-.137c-.358,0-.468.248-.5.825h-.936v-4.7h.936v.11a2.817,2.817,0,0,0,.578,2.035,5.343,5.343,0,0,0,3.768,1.567c1.1,0,1.678-.385,1.678-1.018,0-.577-.413-.963-1.513-1.458l-.962-.44c-3.053-1.348-4.236-2.558-4.236-4.428,0-2.7,2.558-4.346,6.712-4.346a15.463,15.463,0,0,1,4.648.743,2.858,2.858,0,0,0,.908.192c.385,0,.523-.165.605-.522h.908V57.43h-.908v-.3c0-.963-.137-1.32-.605-1.733a5.27,5.27,0,0,0-3.191-1.045c-1.072,0-1.65.385-1.65,1.045,0,.633.385.963,2.008,1.6l1.65.632c2.668,1.045,3.6,2.035,3.6,3.85C426.1,64.279,423.457,66.012,419.111,66.012Z" transform="translate(-296.037 -38.122)" fill="#1a1919" fill-rule="evenodd"/>
        <path id="Path_4291" data-name="Path 4291" d="M477.456,27.532l-4.621-6.024V24.92c0,1.375.3,1.595,2.118,1.595h.357v1.018H463.456V26.515h.688c1.816,0,2.09-.192,2.09-1.567V2.42c0-1.238-.275-1.4-2.09-1.4h-1.21V0h9.9V20.931l2.943-2.145c.357-.275.935-.688,1.21-.936.468-.412.633-.66.633-.962a.538.538,0,0,0-.358-.495,3.383,3.383,0,0,0-1.32-.111h-.935V15.265h9.627v1.017c-3.136.083-5.144.605-6.574,1.651l6.023,7.564a2.491,2.491,0,0,0,1.018.908,3.019,3.019,0,0,0,.852.11,1.731,1.731,0,0,0,.413,0v1.018Z" transform="translate(-333.312)" fill="#1a1919" fill-rule="evenodd"/>
        <path id="Path_4292" data-name="Path 4292" d="M560.635,64.4h.8v1.018H549.385V64.4h.523c1.815,0,2.09-.165,2.09-1.4V55.622c0-1.238-.275-1.4-2.09-1.4h-.825V53.2H558.3v3.191c.935-2.338,2.64-3.741,4.84-3.741a3.64,3.64,0,0,1,3.906,3.906,3.418,3.418,0,0,1-3.521,3.713,3.194,3.194,0,0,1-3.466-3.163,2.473,2.473,0,0,1,.275-1.238c.11-.22.083-.247.083-.3,0-.082-.11-.137-.165-.137-.22,0-.495.248-.8.715a6.047,6.047,0,0,0-.715,1.678,12.54,12.54,0,0,0-.22,2.64v2.5C558.517,64.2,558.82,64.4,560.635,64.4Z" transform="translate(-395.34 -37.909)" fill="#1a1919" fill-rule="evenodd"/>
        <path id="Path_4293" data-name="Path 4293" d="M633.812,65.414V64.4h-.55c-1.238,0-1.458-.385-1.458-1.567V58.7a9.059,9.059,0,0,0-.192-2.641,3.972,3.972,0,0,0-.742-1.43c-1.045-1.32-2.971-1.981-5.639-1.981a19.85,19.85,0,0,0-5.2.853,7.992,7.992,0,0,1-1.1.275c-.33,0-.44-.138-.467-.6h-.825v4.071h.908v-.3a2.11,2.11,0,0,1,.688-1.9,5.954,5.954,0,0,1,3.383-.935c1.293,0,2.146.385,2.421,1.1a4.205,4.205,0,0,1,.165,1.568v.908c-1.018-.083-1.733-.11-2.723-.11-4.319,0-7.289,1.128-7.289,4.154,0,2.723,2.338,4.043,5.143,4.043a8.6,8.6,0,0,0,5.089-1.513v1.155Zm-8.609-4.4c0,.3,0,.743-.028,1.21a1.8,1.8,0,0,1-.33,1.155,1.76,1.76,0,0,1-1.348.578c-1.073,0-1.458-.633-1.458-2.311v-.578c0-1.732.633-2.393,2.338-2.393.357,0,.33,0,.825.028Z" transform="translate(-442.938 -37.909)" fill="#1a1919" fill-rule="evenodd"/>
        <path id="Path_4294" data-name="Path 4294" d="M695.517,65.839v-.908h.166a1.483,1.483,0,0,0,1.073-.275c.192-.193.247-.66.247-1.843V58.165a6.117,6.117,0,0,0-.165-2.2,1.3,1.3,0,0,0-1.348-.688,2.386,2.386,0,0,0-1.815.8c-.413.522-.5.908-.5,2.475v4.263c0,.55.027,1.073.055,1.348.082.55.385.77,1.265.77h.275v.908H684.158V64.821h.522c1.816,0,2.091-.165,2.091-1.485V56.13c0-1.321-.275-1.486-2.091-1.486h-.825V53.627h9.1v1.76a7.7,7.7,0,0,1,5.528-2.146,5.455,5.455,0,0,1,4.153,1.54,3.713,3.713,0,0,1,.88,2.008,13.55,13.55,0,0,1,.083,1.843v4.7c0,1.321.275,1.485,2.09,1.485h.44v1.018Z" transform="translate(-492.376 -38.334)" fill="#1a1919" fill-rule="evenodd"/>
        <path id="Path_4295" data-name="Path 4295" d="M775.511,51.957c-.77,1.513-2.5,2.283-5.171,2.283-2.008,0-3.383-.413-4.236-1.375a4.088,4.088,0,0,1-.935-2.448,20.086,20.086,0,0,1-.082-2.283v-5.5h-2.255v-.908l8.471-5.281.358.275v4.813h4.209v1.1H771.66v6.353a8.48,8.48,0,0,0,.138,2.283,1.2,1.2,0,0,0,1.265.853c1.843,0,1.925-1.568,1.925-3.108v-.3h.935v.412A5.834,5.834,0,0,1,775.511,51.957Z" transform="translate(-549.238 -26.24)" fill="#1a1919" fill-rule="evenodd"/>
      </g>
    </g>
  </g>
</svg>
