<svg xmlns="http://www.w3.org/2000/svg" xmlns:xlink="http://www.w3.org/1999/xlink" width="24" height="600" viewBox="0 0 24 600">
  <defs>
    <clipPath id="clip-path">
      <rect id="Rectangle_6909" data-name="Rectangle 6909" width="24" height="600" transform="translate(592.049 188.014)" fill="#fff"/>
    </clipPath>
  </defs>
  <g id="Group_4197" data-name="Group 4197" transform="translate(-592.049 -188.014)" clip-path="url(#clip-path)">
    <g id="Group_4196" data-name="Group 4196" transform="translate(81.248 76.414)">
      <path id="Path_4324" data-name="Path 4324" d="M202.57,731.306l542.1-577.722" transform="translate(-137.234 -83.954)" fill="none" stroke="#f39579" stroke-width="1.26"/>
      <path id="Path_4325" data-name="Path 4325" d="M166.87,695.606l542.1-577.722" transform="translate(-142.369 -91.773)" fill="none" stroke="#f39579" stroke-width="1.26"/>
      <path id="Path_4326" data-name="Path 4326" d="M238.271,767.018l542.11-577.734" transform="translate(-132.099 -76.136)" fill="none" stroke="#f39579" stroke-width="1.26"/>
      <path id="Path_4327" data-name="Path 4327" d="M281.12,809.856l542.1-577.722" transform="translate(-125.936 -66.752)" fill="none" stroke="#f39579" stroke-width="1.26"/>
      <path id="Path_4328" data-name="Path 4328" d="M316.82,845.556l542.1-577.721" transform="translate(-120.801 -58.934)" fill="none" stroke="#f39579" stroke-width="1.26"/>
      <path id="Path_4329" data-name="Path 4329" d="M149.021,677.756l542.1-577.722" transform="translate(-144.936 -95.682)" fill="none" stroke="#f39579" stroke-width="1.26"/>
      <path id="Path_4330" data-name="Path 4330" d="M220.42,749.168,762.53,171.434" transform="translate(-134.667 -80.045)" fill="none" stroke="#f39579" stroke-width="1.26"/>
      <path id="Path_4331" data-name="Path 4331" d="M184.72,713.455l542.1-577.722" transform="translate(-139.802 -87.864)" fill="none" stroke="#f39579" stroke-width="1.26"/>
      <path id="Path_4332" data-name="Path 4332" d="M256.13,784.866l542.1-577.722" transform="translate(-129.53 -72.225)" fill="none" stroke="#f39579" stroke-width="1.26"/>
      <path id="Path_4333" data-name="Path 4333" d="M298.97,827.7l542.1-577.722" transform="translate(-123.368 -62.843)" fill="none" stroke="#f39579" stroke-width="1.26"/>
      <path id="Path_4334" data-name="Path 4334" d="M334.67,863.418,876.78,285.684" transform="translate(-118.233 -55.024)" fill="none" stroke="#f39579" stroke-width="1.26"/>
      <path id="Path_4335" data-name="Path 4335" d="M206.141,734.876l542.1-577.722" transform="translate(-136.72 -83.173)" fill="none" stroke="#f39579" stroke-width="1.26"/>
      <path id="Path_4336" data-name="Path 4336" d="M170.44,699.176l542.1-577.722" transform="translate(-141.855 -90.991)" fill="none" stroke="#f39579" stroke-width="1.26"/>
      <path id="Path_4337" data-name="Path 4337" d="M241.851,770.586l542.1-577.722" transform="translate(-131.584 -75.352)" fill="none" stroke="#f39579" stroke-width="1.26"/>
      <path id="Path_4338" data-name="Path 4338" d="M284.69,813.426,826.788,235.7" transform="translate(-125.422 -65.97)" fill="none" stroke="#f39579" stroke-width="1.26"/>
      <path id="Path_4339" data-name="Path 4339" d="M320.391,849.126,862.489,271.4" transform="translate(-120.287 -58.152)" fill="none" stroke="#f39579" stroke-width="1.26"/>
      <path id="Path_4340" data-name="Path 4340" d="M152.59,681.326,694.688,103.6" transform="translate(-144.423 -94.9)" fill="none" stroke="#f39579" stroke-width="1.26"/>
      <path id="Path_4341" data-name="Path 4341" d="M223.99,752.738,766.1,175" transform="translate(-134.153 -79.263)" fill="none" stroke="#f39579" stroke-width="1.26"/>
      <path id="Path_4342" data-name="Path 4342" d="M188.29,717.026,730.388,139.3" transform="translate(-139.288 -87.082)" fill="none" stroke="#f39579" stroke-width="1.26"/>
      <path id="Path_4343" data-name="Path 4343" d="M259.7,788.436,801.8,210.714" transform="translate(-129.017 -71.443)" fill="none" stroke="#f39579" stroke-width="1.26"/>
      <path id="Path_4344" data-name="Path 4344" d="M302.54,831.276l542.1-577.722" transform="translate(-122.855 -62.061)" fill="none" stroke="#f39579" stroke-width="1.26"/>
      <path id="Path_4345" data-name="Path 4345" d="M338.24,866.988,880.35,289.254" transform="translate(-117.72 -54.242)" fill="none" stroke="#f39579" stroke-width="1.26"/>
      <path id="Path_4346" data-name="Path 4346" d="M209.71,738.446l542.1-577.722" transform="translate(-136.207 -82.391)" fill="none" stroke="#f39579" stroke-width="1.26"/>
      <path id="Path_4347" data-name="Path 4347" d="M174.01,702.745l542.1-577.722" transform="translate(-141.342 -90.209)" fill="none" stroke="#f39579" stroke-width="1.26"/>
      <path id="Path_4348" data-name="Path 4348" d="M245.42,774.156l542.1-577.722" transform="translate(-131.071 -74.57)" fill="none" stroke="#f39579" stroke-width="1.26"/>
      <path id="Path_4349" data-name="Path 4349" d="M288.26,816.995l542.1-577.722" transform="translate(-124.909 -65.188)" fill="none" stroke="#f39579" stroke-width="1.26"/>
      <path id="Path_4350" data-name="Path 4350" d="M323.96,852.7l542.1-577.722" transform="translate(-119.774 -57.37)" fill="none" stroke="#f39579" stroke-width="1.26"/>
      <path id="Path_4351" data-name="Path 4351" d="M156.16,684.9l542.1-577.722" transform="translate(-143.91 -94.118)" fill="none" stroke="#f39579" stroke-width="1.26"/>
      <path id="Path_4352" data-name="Path 4352" d="M227.561,756.308l542.11-577.734" transform="translate(-133.639 -78.482)" fill="none" stroke="#f39579" stroke-width="1.26"/>
      <path id="Path_4353" data-name="Path 4353" d="M191.86,720.6l542.1-577.722" transform="translate(-138.775 -86.3)" fill="none" stroke="#f39579" stroke-width="1.26"/>
      <path id="Path_4354" data-name="Path 4354" d="M263.271,792.006l542.1-577.722" transform="translate(-128.503 -70.661)" fill="none" stroke="#f39579" stroke-width="1.26"/>
      <path id="Path_4355" data-name="Path 4355" d="M306.11,834.846l542.1-577.722" transform="translate(-122.341 -61.279)" fill="none" stroke="#f39579" stroke-width="1.26"/>
      <path id="Path_4356" data-name="Path 4356" d="M341.811,870.558l542.11-577.734" transform="translate(-117.206 -53.461)" fill="none" stroke="#f39579" stroke-width="1.26"/>
      <path id="Path_4357" data-name="Path 4357" d="M213.28,742.016l542.1-577.722" transform="translate(-135.694 -81.609)" fill="none" stroke="#f39579" stroke-width="1.26"/>
      <path id="Path_4358" data-name="Path 4358" d="M177.58,706.316l542.1-577.722" transform="translate(-140.829 -89.427)" fill="none" stroke="#f39579" stroke-width="1.26"/>
      <path id="Path_4359" data-name="Path 4359" d="M248.99,777.726,791.088,200" transform="translate(-130.557 -73.788)" fill="none" stroke="#f39579" stroke-width="1.26"/>
      <path id="Path_4360" data-name="Path 4360" d="M291.83,820.566l542.1-577.722" transform="translate(-124.395 -64.406)" fill="none" stroke="#f39579" stroke-width="1.26"/>
      <path id="Path_4361" data-name="Path 4361" d="M327.53,856.266l542.1-577.722" transform="translate(-119.26 -56.588)" fill="none" stroke="#f39579" stroke-width="1.26"/>
      <path id="Path_4362" data-name="Path 4362" d="M159.73,688.466l542.1-577.722" transform="translate(-143.396 -93.337)" fill="none" stroke="#f39579" stroke-width="1.26"/>
      <path id="Path_4363" data-name="Path 4363" d="M231.13,759.878,773.24,182.144" transform="translate(-133.126 -77.7)" fill="none" stroke="#f39579" stroke-width="1.26"/>
      <path id="Path_4364" data-name="Path 4364" d="M273.98,802.716l542.1-577.722" transform="translate(-126.963 -68.316)" fill="none" stroke="#f39579" stroke-width="1.26"/>
      <path id="Path_4365" data-name="Path 4365" d="M195.431,724.166l542.1-577.722" transform="translate(-138.261 -85.518)" fill="none" stroke="#f39579" stroke-width="1.26"/>
      <path id="Path_4366" data-name="Path 4366" d="M266.84,795.576l542.1-577.722" transform="translate(-127.99 -69.879)" fill="none" stroke="#f39579" stroke-width="1.26"/>
      <path id="Path_4367" data-name="Path 4367" d="M309.681,838.416l542.1-577.722" transform="translate(-121.828 -60.497)" fill="none" stroke="#f39579" stroke-width="1.26"/>
      <path id="Path_4368" data-name="Path 4368" d="M345.38,874.128,887.49,296.394" transform="translate(-116.693 -52.679)" fill="none" stroke="#f39579" stroke-width="1.26"/>
      <path id="Path_4369" data-name="Path 4369" d="M145.45,674.186l542.1-577.722" transform="translate(-145.45 -96.464)" fill="none" stroke="#f39579" stroke-width="1.26"/>
      <path id="Path_4370" data-name="Path 4370" d="M216.851,745.586l542.1-577.722" transform="translate(-135.18 -80.827)" fill="none" stroke="#f39579" stroke-width="1.26"/>
      <path id="Path_4371" data-name="Path 4371" d="M181.15,709.886l542.1-577.722" transform="translate(-140.315 -88.646)" fill="none" stroke="#f39579" stroke-width="1.26"/>
      <path id="Path_4372" data-name="Path 4372" d="M252.561,781.3l542.1-577.722" transform="translate(-130.044 -73.007)" fill="none" stroke="#f39579" stroke-width="1.26"/>
      <path id="Path_4373" data-name="Path 4373" d="M295.4,824.136,837.5,246.414" transform="translate(-123.882 -63.625)" fill="none" stroke="#f39579" stroke-width="1.26"/>
      <path id="Path_4374" data-name="Path 4374" d="M331.1,859.848l542.11-577.734" transform="translate(-118.747 -55.806)" fill="none" stroke="#f39579" stroke-width="1.26"/>
      <path id="Path_4375" data-name="Path 4375" d="M163.3,692.034,705.4,114.313" transform="translate(-142.883 -92.555)" fill="none" stroke="#f39579" stroke-width="1.26"/>
      <path id="Path_4376" data-name="Path 4376" d="M234.7,763.448,776.81,185.714" transform="translate(-132.613 -76.918)" fill="none" stroke="#f39579" stroke-width="1.26"/>
      <path id="Path_4377" data-name="Path 4377" d="M277.55,806.285l542.1-577.722" transform="translate(-126.449 -67.534)" fill="none" stroke="#f39579" stroke-width="1.26"/>
      <path id="Path_4378" data-name="Path 4378" d="M199,727.736,741.1,150.014" transform="translate(-137.748 -84.736)" fill="none" stroke="#f39579" stroke-width="1.26"/>
      <path id="Path_4379" data-name="Path 4379" d="M270.41,799.146l542.1-577.721" transform="translate(-127.476 -69.097)" fill="none" stroke="#f39579" stroke-width="1.26"/>
      <path id="Path_4380" data-name="Path 4380" d="M313.25,841.986l542.1-577.722" transform="translate(-121.314 -59.715)" fill="none" stroke="#f39579" stroke-width="1.26"/>
      <path id="Path_4381" data-name="Path 4381" d="M348.95,877.7,891.06,299.964" transform="translate(-116.179 -51.897)" fill="none" stroke="#f39579" stroke-width="1.26"/>
      <path id="Path_4382" data-name="Path 4382" d="M352.84,880.628l542.1-577.734" transform="translate(-115.62 -51.255)" fill="none" stroke="#f39579" stroke-width="1.26"/>
      <path id="Path_4383" data-name="Path 4383" d="M424.24,952.026,966.35,374.3" transform="translate(-105.35 -35.616)" fill="none" stroke="#f39579" stroke-width="1.26"/>
      <path id="Path_4384" data-name="Path 4384" d="M388.54,916.326,930.638,338.6" transform="translate(-110.485 -43.435)" fill="none" stroke="#f39579" stroke-width="1.26"/>
      <path id="Path_4385" data-name="Path 4385" d="M459.95,987.738,1002.048,410" transform="translate(-100.213 -27.798)" fill="none" stroke="#f39579" stroke-width="1.26"/>
      <path id="Path_4386" data-name="Path 4386" d="M502.79,1030.576l542.1-577.722" transform="translate(-94.052 -18.414)" fill="none" stroke="#f39579" stroke-width="1.26"/>
      <path id="Path_4387" data-name="Path 4387" d="M538.49,1066.276,1080.6,488.554" transform="translate(-88.917 -10.595)" fill="none" stroke="#f39579" stroke-width="1.26"/>
      <path id="Path_4388" data-name="Path 4388" d="M370.69,898.476l542.1-577.722" transform="translate(-113.052 -47.344)" fill="none" stroke="#f39579" stroke-width="1.26"/>
      <path id="Path_4389" data-name="Path 4389" d="M442.1,969.876,984.2,392.154" transform="translate(-102.781 -31.707)" fill="none" stroke="#f39579" stroke-width="1.26"/>
      <path id="Path_4390" data-name="Path 4390" d="M406.391,934.176l542.1-577.722" transform="translate(-107.917 -39.526)" fill="none" stroke="#f39579" stroke-width="1.26"/>
      <path id="Path_4391" data-name="Path 4391" d="M477.8,1005.586l542.1-577.722" transform="translate(-97.646 -23.887)" fill="none" stroke="#f39579" stroke-width="1.26"/>
      <path id="Path_4392" data-name="Path 4392" d="M520.641,1048.426l542.1-577.722" transform="translate(-91.484 -14.505)" fill="none" stroke="#f39579" stroke-width="1.26"/>
      <path id="Path_4393" data-name="Path 4393" d="M556.351,1084.126l542.1-577.722" transform="translate(-86.348 -6.686)" fill="none" stroke="#f39579" stroke-width="1.26"/>
      <path id="Path_4394" data-name="Path 4394" d="M356.41,884.2l542.1-577.734" transform="translate(-115.106 -50.473)" fill="none" stroke="#f39579" stroke-width="1.26"/>
      <path id="Path_4395" data-name="Path 4395" d="M427.811,955.6l542.11-577.722" transform="translate(-104.836 -34.835)" fill="none" stroke="#f39579" stroke-width="1.26"/>
      <path id="Path_4396" data-name="Path 4396" d="M392.11,919.9l542.1-577.722" transform="translate(-109.971 -42.653)" fill="none" stroke="#f39579" stroke-width="1.26"/>
      <path id="Path_4397" data-name="Path 4397" d="M463.521,991.308l542.1-577.734" transform="translate(-99.7 -27.016)" fill="none" stroke="#f39579" stroke-width="1.26"/>
      <path id="Path_4398" data-name="Path 4398" d="M506.36,1034.146l542.1-577.722" transform="translate(-93.538 -17.632)" fill="none" stroke="#f39579" stroke-width="1.26"/>
      <path id="Path_4399" data-name="Path 4399" d="M542.061,1069.846,1084.17,492.124" transform="translate(-88.403 -9.814)" fill="none" stroke="#f39579" stroke-width="1.26"/>
      <path id="Path_4400" data-name="Path 4400" d="M374.26,902.046l542.1-577.722" transform="translate(-112.539 -46.562)" fill="none" stroke="#f39579" stroke-width="1.26"/>
      <path id="Path_4401" data-name="Path 4401" d="M445.67,973.446l542.1-577.722" transform="translate(-102.267 -30.925)" fill="none" stroke="#f39579" stroke-width="1.26"/>
      <path id="Path_4402" data-name="Path 4402" d="M409.96,937.745l542.1-577.722" transform="translate(-107.404 -38.744)" fill="none" stroke="#f39579" stroke-width="1.26"/>
      <path id="Path_4403" data-name="Path 4403" d="M481.37,1009.156l542.1-577.722" transform="translate(-97.133 -23.105)" fill="none" stroke="#f39579" stroke-width="1.26"/>
      <path id="Path_4404" data-name="Path 4404" d="M524.21,1051.995l542.1-577.722" transform="translate(-90.971 -13.723)" fill="none" stroke="#f39579" stroke-width="1.26"/>
      <path id="Path_4405" data-name="Path 4405" d="M559.92,1087.7l542.1-577.722" transform="translate(-85.834 -5.904)" fill="none" stroke="#f39579" stroke-width="1.26"/>
      <path id="Path_4406" data-name="Path 4406" d="M359.98,887.766l542.1-577.722" transform="translate(-114.593 -49.689)" fill="none" stroke="#f39579" stroke-width="1.26"/>
      <path id="Path_4407" data-name="Path 4407" d="M431.38,959.165,973.49,381.443" transform="translate(-104.323 -34.053)" fill="none" stroke="#f39579" stroke-width="1.26"/>
      <path id="Path_4408" data-name="Path 4408" d="M395.681,923.466l542.1-577.722" transform="translate(-109.458 -41.871)" fill="none" stroke="#f39579" stroke-width="1.26"/>
      <path id="Path_4409" data-name="Path 4409" d="M467.09,994.878l542.1-577.734" transform="translate(-99.186 -26.234)" fill="none" stroke="#f39579" stroke-width="1.26"/>
      <path id="Path_4410" data-name="Path 4410" d="M509.93,1037.716l542.1-577.722" transform="translate(-93.025 -16.85)" fill="none" stroke="#f39579" stroke-width="1.26"/>
      <path id="Path_4411" data-name="Path 4411" d="M545.63,1073.415l542.11-577.722" transform="translate(-87.89 -9.032)" fill="none" stroke="#f39579" stroke-width="1.26"/>
      <path id="Path_4412" data-name="Path 4412" d="M377.83,905.616l542.1-577.722" transform="translate(-112.025 -45.78)" fill="none" stroke="#f39579" stroke-width="1.26"/>
      <path id="Path_4413" data-name="Path 4413" d="M449.24,977.028l542.1-577.734" transform="translate(-101.754 -30.144)" fill="none" stroke="#f39579" stroke-width="1.26"/>
      <path id="Path_4414" data-name="Path 4414" d="M413.53,941.316,955.64,363.594" transform="translate(-106.89 -37.962)" fill="none" stroke="#f39579" stroke-width="1.26"/>
      <path id="Path_4415" data-name="Path 4415" d="M484.94,1012.726,1027.038,435" transform="translate(-96.619 -22.323)" fill="none" stroke="#f39579" stroke-width="1.26"/>
      <path id="Path_4416" data-name="Path 4416" d="M527.78,1055.566l542.11-577.722" transform="translate(-90.457 -12.941)" fill="none" stroke="#f39579" stroke-width="1.26"/>
      <path id="Path_4417" data-name="Path 4417" d="M563.49,1091.278l542.1-577.734" transform="translate(-85.321 -5.123)" fill="none" stroke="#f39579" stroke-width="1.26"/>
      <path id="Path_4418" data-name="Path 4418" d="M363.55,891.336l542.1-577.722" transform="translate(-114.079 -48.908)" fill="none" stroke="#f39579" stroke-width="1.26"/>
      <path id="Path_4419" data-name="Path 4419" d="M434.95,962.736,977.06,385.014" transform="translate(-103.809 -33.271)" fill="none" stroke="#f39579" stroke-width="1.26"/>
      <path id="Path_4420" data-name="Path 4420" d="M399.25,927.035l542.1-577.722" transform="translate(-108.944 -41.089)" fill="none" stroke="#f39579" stroke-width="1.26"/>
      <path id="Path_4421" data-name="Path 4421" d="M470.66,998.446l542.1-577.722" transform="translate(-98.673 -25.45)" fill="none" stroke="#f39579" stroke-width="1.26"/>
      <path id="Path_4422" data-name="Path 4422" d="M513.5,1041.285l542.1-577.722" transform="translate(-92.511 -16.069)" fill="none" stroke="#f39579" stroke-width="1.26"/>
      <path id="Path_4423" data-name="Path 4423" d="M549.21,1076.985l542.1-577.721" transform="translate(-87.375 -8.25)" fill="none" stroke="#f39579" stroke-width="1.26"/>
      <path id="Path_4424" data-name="Path 4424" d="M381.4,909.186,923.5,331.464" transform="translate(-111.512 -44.998)" fill="none" stroke="#f39579" stroke-width="1.26"/>
      <path id="Path_4425" data-name="Path 4425" d="M452.811,980.6l542.1-577.734" transform="translate(-101.24 -29.362)" fill="none" stroke="#f39579" stroke-width="1.26"/>
      <path id="Path_4426" data-name="Path 4426" d="M495.65,1023.436l542.1-577.722" transform="translate(-95.079 -19.977)" fill="none" stroke="#f39579" stroke-width="1.26"/>
      <path id="Path_4427" data-name="Path 4427" d="M417.1,944.886l542.11-577.722" transform="translate(-106.377 -37.18)" fill="none" stroke="#f39579" stroke-width="1.26"/>
      <path id="Path_4428" data-name="Path 4428" d="M488.51,1016.3l542.1-577.722" transform="translate(-96.105 -21.541)" fill="none" stroke="#f39579" stroke-width="1.26"/>
      <path id="Path_4429" data-name="Path 4429" d="M531.351,1059.136,1073.46,481.414" transform="translate(-89.943 -12.159)" fill="none" stroke="#f39579" stroke-width="1.26"/>
      <path id="Path_4430" data-name="Path 4430" d="M567.061,1094.848l542.1-577.734" transform="translate(-84.807 -4.341)" fill="none" stroke="#f39579" stroke-width="1.26"/>
      <path id="Path_4431" data-name="Path 4431" d="M367.12,894.906l542.1-577.722" transform="translate(-113.566 -48.126)" fill="none" stroke="#f39579" stroke-width="1.26"/>
      <path id="Path_4432" data-name="Path 4432" d="M438.53,966.306l542.1-577.722" transform="translate(-103.294 -32.489)" fill="none" stroke="#f39579" stroke-width="1.26"/>
      <path id="Path_4433" data-name="Path 4433" d="M402.82,930.606l542.1-577.722" transform="translate(-108.431 -40.307)" fill="none" stroke="#f39579" stroke-width="1.26"/>
      <path id="Path_4434" data-name="Path 4434" d="M474.23,1002.016l542.1-577.722" transform="translate(-98.16 -24.668)" fill="none" stroke="#f39579" stroke-width="1.26"/>
      <path id="Path_4435" data-name="Path 4435" d="M517.07,1044.856l542.1-577.722" transform="translate(-91.998 -15.286)" fill="none" stroke="#f39579" stroke-width="1.26"/>
      <path id="Path_4436" data-name="Path 4436" d="M552.78,1080.556l542.1-577.722" transform="translate(-86.861 -7.468)" fill="none" stroke="#f39579" stroke-width="1.26"/>
      <path id="Path_4437" data-name="Path 4437" d="M384.97,912.756l542.1-577.722" transform="translate(-110.998 -44.217)" fill="none" stroke="#f39579" stroke-width="1.26"/>
      <path id="Path_4438" data-name="Path 4438" d="M456.38,984.168l542.1-577.734" transform="translate(-100.727 -28.58)" fill="none" stroke="#f39579" stroke-width="1.26"/>
      <path id="Path_4439" data-name="Path 4439" d="M499.22,1027.006l542.1-577.722" transform="translate(-94.565 -19.196)" fill="none" stroke="#f39579" stroke-width="1.26"/>
      <path id="Path_4440" data-name="Path 4440" d="M420.67,948.455,962.78,370.733" transform="translate(-105.863 -36.398)" fill="none" stroke="#f39579" stroke-width="1.26"/>
      <path id="Path_4441" data-name="Path 4441" d="M492.08,1019.866l542.1-577.722" transform="translate(-95.592 -20.759)" fill="none" stroke="#f39579" stroke-width="1.26"/>
      <path id="Path_4442" data-name="Path 4442" d="M534.92,1062.7l542.11-577.722" transform="translate(-89.43 -11.377)" fill="none" stroke="#f39579" stroke-width="1.26"/>
      <path id="Path_4443" data-name="Path 4443" d="M570.63,1098.418l542.1-577.734" transform="translate(-84.294 -3.559)" fill="none" stroke="#f39579" stroke-width="1.26"/>
    </g>
  </g>
</svg>
