<svg xmlns="http://www.w3.org/2000/svg" xmlns:xlink="http://www.w3.org/1999/xlink" width="77" height="1920" viewBox="0 0 77 1920">
  <defs>
    <clipPath id="clip-path">
      <rect id="Rectangle_6909" data-name="Rectangle 6909" width="77" height="1920" transform="translate(591.841 188.014)" fill="#fff"/>
    </clipPath>
  </defs>
  <g id="Group_4197" data-name="Group 4197" transform="translate(-591.841 -188.014)" clip-path="url(#clip-path)">
    <g id="Group_4196" data-name="Group 4196" transform="translate(-1042.298 -169.1)">
      <path id="Path_4324" data-name="Path 4324" d="M202.57,2002.272l1734.7-1848.688" transform="translate(6.503 69.228)" fill="none" stroke="#f39579" stroke-width="4"/>
      <path id="Path_4325" data-name="Path 4325" d="M166.87,1966.573l1734.7-1848.689" transform="translate(-88.468 -34.329)" fill="none" stroke="#f39579" stroke-width="4"/>
      <path id="Path_4326" data-name="Path 4326" d="M238.271,2038.012,1973,189.284" transform="translate(101.476 172.785)" fill="none" stroke="#f39579" stroke-width="4"/>
      <path id="Path_4327" data-name="Path 4327" d="M281.12,2080.823l1734.7-1848.689" transform="translate(215.464 297.083)" fill="none" stroke="#f39579" stroke-width="4"/>
      <path id="Path_4328" data-name="Path 4328" d="M316.82,2116.522l1734.7-1848.688" transform="translate(310.435 400.64)" fill="none" stroke="#f39579" stroke-width="4"/>
      <path id="Path_4329" data-name="Path 4329" d="M149.021,1948.722,1883.716,100.034" transform="translate(-135.95 -86.108)" fill="none" stroke="#f39579" stroke-width="4"/>
      <path id="Path_4330" data-name="Path 4330" d="M220.42,2020.162,1955.151,171.434" transform="translate(53.988 121.007)" fill="none" stroke="#f39579" stroke-width="4"/>
      <path id="Path_4331" data-name="Path 4331" d="M184.72,1984.421l1734.7-1848.688" transform="translate(-40.982 17.446)" fill="none" stroke="#f39579" stroke-width="4"/>
      <path id="Path_4332" data-name="Path 4332" d="M256.13,2055.832,1990.825,207.144" transform="translate(148.985 224.593)" fill="none" stroke="#f39579" stroke-width="4"/>
      <path id="Path_4333" data-name="Path 4333" d="M298.97,2098.671l1734.7-1848.688" transform="translate(262.949 348.859)" fill="none" stroke="#f39579" stroke-width="4"/>
      <path id="Path_4334" data-name="Path 4334" d="M334.67,2134.411,2069.4,285.684" transform="translate(357.92 452.419)" fill="none" stroke="#f39579" stroke-width="4"/>
      <path id="Path_4335" data-name="Path 4335" d="M206.141,2005.843,1940.836,157.154" transform="translate(16.002 79.584)" fill="none" stroke="#f39579" stroke-width="4"/>
      <path id="Path_4336" data-name="Path 4336" d="M170.44,1970.142l1734.7-1848.688" transform="translate(-78.971 -23.974)" fill="none" stroke="#f39579" stroke-width="4"/>
      <path id="Path_4337" data-name="Path 4337" d="M241.851,2041.553,1976.546,192.864" transform="translate(110.999 183.17)" fill="none" stroke="#f39579" stroke-width="4"/>
      <path id="Path_4338" data-name="Path 4338" d="M284.69,2084.392,2019.385,235.7" transform="translate(224.961 307.439)" fill="none" stroke="#f39579" stroke-width="4"/>
      <path id="Path_4339" data-name="Path 4339" d="M320.391,2120.093,2055.085,271.4" transform="translate(319.934 410.996)" fill="none" stroke="#f39579" stroke-width="4"/>
      <path id="Path_4340" data-name="Path 4340" d="M152.59,1952.292,1887.285,103.6" transform="translate(-126.456 -75.752)" fill="none" stroke="#f39579" stroke-width="4"/>
      <path id="Path_4341" data-name="Path 4341" d="M223.99,2023.731,1958.722,175" transform="translate(63.485 131.362)" fill="none" stroke="#f39579" stroke-width="4"/>
      <path id="Path_4342" data-name="Path 4342" d="M188.29,1987.993,1922.985,139.3" transform="translate(-31.486 27.805)" fill="none" stroke="#f39579" stroke-width="4"/>
      <path id="Path_4343" data-name="Path 4343" d="M259.7,2059.4,1994.395,210.714" transform="translate(158.482 234.949)" fill="none" stroke="#f39579" stroke-width="4"/>
      <path id="Path_4344" data-name="Path 4344" d="M302.54,2102.242l1734.7-1848.688" transform="translate(272.446 359.217)" fill="none" stroke="#f39579" stroke-width="4"/>
      <path id="Path_4345" data-name="Path 4345" d="M338.24,2137.982,2072.972,289.254" transform="translate(367.417 462.774)" fill="none" stroke="#f39579" stroke-width="4"/>
      <path id="Path_4346" data-name="Path 4346" d="M209.71,2009.412l1734.7-1848.688" transform="translate(25.497 89.939)" fill="none" stroke="#f39579" stroke-width="4"/>
      <path id="Path_4347" data-name="Path 4347" d="M174.01,1973.711,1908.7,125.023" transform="translate(-69.474 -13.621)" fill="none" stroke="#f39579" stroke-width="4"/>
      <path id="Path_4348" data-name="Path 4348" d="M245.42,2045.122l1734.7-1848.688" transform="translate(120.494 193.526)" fill="none" stroke="#f39579" stroke-width="4"/>
      <path id="Path_4349" data-name="Path 4349" d="M288.26,2087.961,2022.955,239.273" transform="translate(234.458 317.791)" fill="none" stroke="#f39579" stroke-width="4"/>
      <path id="Path_4350" data-name="Path 4350" d="M323.96,2123.663l1734.7-1848.689" transform="translate(329.429 421.352)" fill="none" stroke="#f39579" stroke-width="4"/>
      <path id="Path_4351" data-name="Path 4351" d="M156.16,1955.862,1890.855,107.174" transform="translate(-116.959 -65.396)" fill="none" stroke="#f39579" stroke-width="4"/>
      <path id="Path_4352" data-name="Path 4352" d="M227.561,2027.3,1962.292,178.574" transform="translate(72.985 141.718)" fill="none" stroke="#f39579" stroke-width="4"/>
      <path id="Path_4353" data-name="Path 4353" d="M191.86,1991.562l1734.7-1848.688" transform="translate(-21.988 38.161)" fill="none" stroke="#f39579" stroke-width="4"/>
      <path id="Path_4354" data-name="Path 4354" d="M263.271,2062.972l1734.7-1848.688" transform="translate(167.982 245.304)" fill="none" stroke="#f39579" stroke-width="4"/>
      <path id="Path_4355" data-name="Path 4355" d="M306.11,2105.813,2040.8,257.124" transform="translate(281.943 369.573)" fill="none" stroke="#f39579" stroke-width="4"/>
      <path id="Path_4356" data-name="Path 4356" d="M341.811,2141.552,2076.542,292.824" transform="translate(376.916 473.13)" fill="none" stroke="#f39579" stroke-width="4"/>
      <path id="Path_4357" data-name="Path 4357" d="M213.28,2012.982,1947.975,164.294" transform="translate(34.994 100.295)" fill="none" stroke="#f39579" stroke-width="4"/>
      <path id="Path_4358" data-name="Path 4358" d="M177.58,1977.282l1734.7-1848.688" transform="translate(-59.977 -3.262)" fill="none" stroke="#f39579" stroke-width="4"/>
      <path id="Path_4359" data-name="Path 4359" d="M248.99,2048.692,1983.685,200" transform="translate(129.991 203.881)" fill="none" stroke="#f39579" stroke-width="4"/>
      <path id="Path_4360" data-name="Path 4360" d="M291.83,2091.532l1734.7-1848.688" transform="translate(243.955 328.15)" fill="none" stroke="#f39579" stroke-width="4"/>
      <path id="Path_4361" data-name="Path 4361" d="M327.53,2127.233l1734.7-1848.689" transform="translate(338.926 431.707)" fill="none" stroke="#f39579" stroke-width="4"/>
      <path id="Path_4362" data-name="Path 4362" d="M159.73,1959.432,1894.425,110.744" transform="translate(-107.462 -55.041)" fill="none" stroke="#f39579" stroke-width="4"/>
      <path id="Path_4363" data-name="Path 4363" d="M231.13,2030.871,1965.862,182.144" transform="translate(82.479 152.074)" fill="none" stroke="#f39579" stroke-width="4"/>
      <path id="Path_4364" data-name="Path 4364" d="M273.98,2073.682l1734.7-1848.688" transform="translate(196.47 276.371)" fill="none" stroke="#f39579" stroke-width="4"/>
      <path id="Path_4365" data-name="Path 4365" d="M195.431,1995.132l1734.7-1848.688" transform="translate(-12.489 48.517)" fill="none" stroke="#f39579" stroke-width="4"/>
      <path id="Path_4366" data-name="Path 4366" d="M266.84,2066.542l1734.7-1848.688" transform="translate(177.476 255.66)" fill="none" stroke="#f39579" stroke-width="4"/>
      <path id="Path_4367" data-name="Path 4367" d="M309.681,2109.383,2044.376,260.694" transform="translate(291.443 379.929)" fill="none" stroke="#f39579" stroke-width="4"/>
      <path id="Path_4368" data-name="Path 4368" d="M345.38,2145.122,2080.111,296.394" transform="translate(386.411 483.486)" fill="none" stroke="#f39579" stroke-width="4"/>
      <path id="Path_4369" data-name="Path 4369" d="M145.45,1945.152,1880.146,96.464" transform="translate(-145.45 -96.464)" fill="none" stroke="#f39579" stroke-width="4"/>
      <path id="Path_4370" data-name="Path 4370" d="M216.851,2016.552l1734.7-1848.688" transform="translate(44.493 110.651)" fill="none" stroke="#f39579" stroke-width="4"/>
      <path id="Path_4371" data-name="Path 4371" d="M181.15,1980.852,1915.845,132.164" transform="translate(-50.48 7.094)" fill="none" stroke="#f39579" stroke-width="4"/>
      <path id="Path_4372" data-name="Path 4372" d="M252.561,2052.262l1734.7-1848.688" transform="translate(139.491 214.237)" fill="none" stroke="#f39579" stroke-width="4"/>
      <path id="Path_4373" data-name="Path 4373" d="M295.4,2095.1,2030.1,246.414" transform="translate(253.452 338.506)" fill="none" stroke="#f39579" stroke-width="4"/>
      <path id="Path_4374" data-name="Path 4374" d="M331.1,2130.841,2065.833,282.114" transform="translate(348.425 442.063)" fill="none" stroke="#f39579" stroke-width="4"/>
      <path id="Path_4375" data-name="Path 4375" d="M163.3,1963,1897.995,114.313" transform="translate(-97.965 -44.688)" fill="none" stroke="#f39579" stroke-width="4"/>
      <path id="Path_4376" data-name="Path 4376" d="M234.7,2034.442,1969.432,185.714" transform="translate(91.976 162.43)" fill="none" stroke="#f39579" stroke-width="4"/>
      <path id="Path_4377" data-name="Path 4377" d="M277.55,2077.251l1734.7-1848.688" transform="translate(205.967 286.724)" fill="none" stroke="#f39579" stroke-width="4"/>
      <path id="Path_4378" data-name="Path 4378" d="M199,1998.7,1933.695,150.014" transform="translate(-2.994 58.872)" fill="none" stroke="#f39579" stroke-width="4"/>
      <path id="Path_4379" data-name="Path 4379" d="M270.41,2070.112,2005.1,221.424" transform="translate(186.973 266.016)" fill="none" stroke="#f39579" stroke-width="4"/>
      <path id="Path_4380" data-name="Path 4380" d="M313.25,2112.952,2047.945,264.264" transform="translate(300.937 390.284)" fill="none" stroke="#f39579" stroke-width="4"/>
      <path id="Path_4381" data-name="Path 4381" d="M348.95,2148.691,2083.681,299.964" transform="translate(395.908 493.842)" fill="none" stroke="#f39579" stroke-width="4"/>
      <path id="Path_4382" data-name="Path 4382" d="M352.84,2151.621,2087.535,302.894" transform="translate(406.256 502.341)" fill="none" stroke="#f39579" stroke-width="4"/>
      <path id="Path_4383" data-name="Path 4383" d="M424.24,2222.993,2158.971,374.3" transform="translate(596.197 709.484)" fill="none" stroke="#f39579" stroke-width="4"/>
      <path id="Path_4384" data-name="Path 4384" d="M388.54,2187.292,2123.235,338.6" transform="translate(501.227 605.927)" fill="none" stroke="#f39579" stroke-width="4"/>
      <path id="Path_4385" data-name="Path 4385" d="M459.95,2258.731,2194.645,410" transform="translate(691.194 813.042)" fill="none" stroke="#f39579" stroke-width="4"/>
      <path id="Path_4386" data-name="Path 4386" d="M502.79,2301.542,2237.485,452.854" transform="translate(805.158 937.339)" fill="none" stroke="#f39579" stroke-width="4"/>
      <path id="Path_4387" data-name="Path 4387" d="M538.49,2337.242,2273.221,488.554" transform="translate(900.129 1040.896)" fill="none" stroke="#f39579" stroke-width="4"/>
      <path id="Path_4388" data-name="Path 4388" d="M370.69,2169.442l1734.7-1848.688" transform="translate(453.741 554.148)" fill="none" stroke="#f39579" stroke-width="4"/>
      <path id="Path_4389" data-name="Path 4389" d="M442.1,2240.843,2176.8,392.154" transform="translate(643.711 761.263)" fill="none" stroke="#f39579" stroke-width="4"/>
      <path id="Path_4390" data-name="Path 4390" d="M406.391,2205.142l1734.7-1848.688" transform="translate(548.714 657.706)" fill="none" stroke="#f39579" stroke-width="4"/>
      <path id="Path_4391" data-name="Path 4391" d="M477.8,2276.553,2212.5,427.864" transform="translate(738.679 864.849)" fill="none" stroke="#f39579" stroke-width="4"/>
      <path id="Path_4392" data-name="Path 4392" d="M520.641,2319.392,2255.336,470.7" transform="translate(852.646 989.118)" fill="none" stroke="#f39579" stroke-width="4"/>
      <path id="Path_4393" data-name="Path 4393" d="M556.351,2355.093,2291.042,506.4" transform="translate(947.643 1092.675)" fill="none" stroke="#f39579" stroke-width="4"/>
      <path id="Path_4394" data-name="Path 4394" d="M356.41,2155.191l1734.7-1848.728" transform="translate(415.753 512.697)" fill="none" stroke="#f39579" stroke-width="4"/>
      <path id="Path_4395" data-name="Path 4395" d="M427.811,2226.563,2162.543,377.874" transform="translate(605.697 719.84)" fill="none" stroke="#f39579" stroke-width="4"/>
      <path id="Path_4396" data-name="Path 4396" d="M392.11,2190.862,2126.8,342.174" transform="translate(510.724 616.283)" fill="none" stroke="#f39579" stroke-width="4"/>
      <path id="Path_4397" data-name="Path 4397" d="M463.521,2262.3,2198.216,413.574" transform="translate(700.694 823.397)" fill="none" stroke="#f39579" stroke-width="4"/>
      <path id="Path_4398" data-name="Path 4398" d="M506.36,2305.112l1734.7-1848.688" transform="translate(814.655 947.695)" fill="none" stroke="#f39579" stroke-width="4"/>
      <path id="Path_4399" data-name="Path 4399" d="M542.061,2340.812,2276.789,492.124" transform="translate(909.628 1051.252)" fill="none" stroke="#f39579" stroke-width="4"/>
      <path id="Path_4400" data-name="Path 4400" d="M374.26,2173.012l1734.7-1848.688" transform="translate(463.238 564.504)" fill="none" stroke="#f39579" stroke-width="4"/>
      <path id="Path_4401" data-name="Path 4401" d="M445.67,2244.413l1734.7-1848.689" transform="translate(653.206 771.619)" fill="none" stroke="#f39579" stroke-width="4"/>
      <path id="Path_4402" data-name="Path 4402" d="M409.96,2208.712l1734.7-1848.689" transform="translate(558.209 668.059)" fill="none" stroke="#f39579" stroke-width="4"/>
      <path id="Path_4403" data-name="Path 4403" d="M481.37,2280.123l1734.7-1848.689" transform="translate(748.176 875.205)" fill="none" stroke="#f39579" stroke-width="4"/>
      <path id="Path_4404" data-name="Path 4404" d="M524.21,2322.962,2258.9,474.273" transform="translate(862.141 999.471)" fill="none" stroke="#f39579" stroke-width="4"/>
      <path id="Path_4405" data-name="Path 4405" d="M559.92,2358.662l1734.7-1848.688" transform="translate(957.138 1103.031)" fill="none" stroke="#f39579" stroke-width="4"/>
      <path id="Path_4406" data-name="Path 4406" d="M359.98,2158.732,2094.675,310.044" transform="translate(425.25 523.081)" fill="none" stroke="#f39579" stroke-width="4"/>
      <path id="Path_4407" data-name="Path 4407" d="M431.38,2230.131,2166.111,381.443" transform="translate(615.191 730.193)" fill="none" stroke="#f39579" stroke-width="4"/>
      <path id="Path_4408" data-name="Path 4408" d="M395.681,2194.432,2130.376,345.744" transform="translate(520.223 626.638)" fill="none" stroke="#f39579" stroke-width="4"/>
      <path id="Path_4409" data-name="Path 4409" d="M467.09,2265.871l1734.7-1848.727" transform="translate(710.188 833.753)" fill="none" stroke="#f39579" stroke-width="4"/>
      <path id="Path_4410" data-name="Path 4410" d="M509.93,2308.682,2244.625,459.994" transform="translate(824.152 958.051)" fill="none" stroke="#f39579" stroke-width="4"/>
      <path id="Path_4411" data-name="Path 4411" d="M545.63,2344.382,2280.361,495.693" transform="translate(919.123 1061.605)" fill="none" stroke="#f39579" stroke-width="4"/>
      <path id="Path_4412" data-name="Path 4412" d="M377.83,2176.582,2112.525,327.894" transform="translate(472.735 574.86)" fill="none" stroke="#f39579" stroke-width="4"/>
      <path id="Path_4413" data-name="Path 4413" d="M449.24,2248.021l1734.7-1848.727" transform="translate(662.703 781.974)" fill="none" stroke="#f39579" stroke-width="4"/>
      <path id="Path_4414" data-name="Path 4414" d="M413.53,2212.282,2148.262,363.594" transform="translate(567.706 678.417)" fill="none" stroke="#f39579" stroke-width="4"/>
      <path id="Path_4415" data-name="Path 4415" d="M484.94,2283.692,2219.636,435" transform="translate(757.673 885.561)" fill="none" stroke="#f39579" stroke-width="4"/>
      <path id="Path_4416" data-name="Path 4416" d="M527.78,2326.532,2262.512,477.844" transform="translate(871.638 1009.829)" fill="none" stroke="#f39579" stroke-width="4"/>
      <path id="Path_4417" data-name="Path 4417" d="M563.49,2362.271l1734.7-1848.728" transform="translate(966.635 1113.387)" fill="none" stroke="#f39579" stroke-width="4"/>
      <path id="Path_4418" data-name="Path 4418" d="M363.55,2162.3,2098.245,313.614" transform="translate(434.747 533.437)" fill="none" stroke="#f39579" stroke-width="4"/>
      <path id="Path_4419" data-name="Path 4419" d="M434.95,2233.7,2169.681,385.014" transform="translate(624.688 740.552)" fill="none" stroke="#f39579" stroke-width="4"/>
      <path id="Path_4420" data-name="Path 4420" d="M399.25,2198,2133.945,349.313" transform="translate(529.718 636.991)" fill="none" stroke="#f39579" stroke-width="4"/>
      <path id="Path_4421" data-name="Path 4421" d="M470.66,2269.412l1734.7-1848.688" transform="translate(719.685 844.138)" fill="none" stroke="#f39579" stroke-width="4"/>
      <path id="Path_4422" data-name="Path 4422" d="M513.5,2312.251,2248.194,463.563" transform="translate(833.65 968.403)" fill="none" stroke="#f39579" stroke-width="4"/>
      <path id="Path_4423" data-name="Path 4423" d="M549.21,2347.952l1734.7-1848.688" transform="translate(928.647 1071.964)" fill="none" stroke="#f39579" stroke-width="4"/>
      <path id="Path_4424" data-name="Path 4424" d="M381.4,2180.153,2116.095,331.464" transform="translate(482.232 585.216)" fill="none" stroke="#f39579" stroke-width="4"/>
      <path id="Path_4425" data-name="Path 4425" d="M452.811,2251.591l1734.7-1848.727" transform="translate(672.202 792.33)" fill="none" stroke="#f39579" stroke-width="4"/>
      <path id="Path_4426" data-name="Path 4426" d="M495.65,2294.4l1734.7-1848.688" transform="translate(786.164 916.628)" fill="none" stroke="#f39579" stroke-width="4"/>
      <path id="Path_4427" data-name="Path 4427" d="M417.1,2215.852,2151.833,367.164" transform="translate(577.206 688.773)" fill="none" stroke="#f39579" stroke-width="4"/>
      <path id="Path_4428" data-name="Path 4428" d="M488.51,2287.262l1734.7-1848.688" transform="translate(767.17 895.916)" fill="none" stroke="#f39579" stroke-width="4"/>
      <path id="Path_4429" data-name="Path 4429" d="M531.351,2330.1,2266.079,481.414" transform="translate(881.137 1020.185)" fill="none" stroke="#f39579" stroke-width="4"/>
      <path id="Path_4430" data-name="Path 4430" d="M567.061,2365.841,2301.752,517.114" transform="translate(976.134 1123.742)" fill="none" stroke="#f39579" stroke-width="4"/>
      <path id="Path_4431" data-name="Path 4431" d="M367.12,2165.873,2101.815,317.184" transform="translate(444.244 543.793)" fill="none" stroke="#f39579" stroke-width="4"/>
      <path id="Path_4432" data-name="Path 4432" d="M438.53,2237.272l1734.7-1848.688" transform="translate(634.212 750.907)" fill="none" stroke="#f39579" stroke-width="4"/>
      <path id="Path_4433" data-name="Path 4433" d="M402.82,2201.572l1734.7-1848.688" transform="translate(539.215 647.35)" fill="none" stroke="#f39579" stroke-width="4"/>
      <path id="Path_4434" data-name="Path 4434" d="M474.23,2272.983,2208.924,424.294" transform="translate(729.182 854.494)" fill="none" stroke="#f39579" stroke-width="4"/>
      <path id="Path_4435" data-name="Path 4435" d="M517.07,2315.823,2251.764,467.134" transform="translate(843.146 978.762)" fill="none" stroke="#f39579" stroke-width="4"/>
      <path id="Path_4436" data-name="Path 4436" d="M552.78,2351.522,2287.474,502.834" transform="translate(938.144 1082.319)" fill="none" stroke="#f39579" stroke-width="4"/>
      <path id="Path_4437" data-name="Path 4437" d="M384.97,2183.723l1734.7-1848.689" transform="translate(491.73 595.571)" fill="none" stroke="#f39579" stroke-width="4"/>
      <path id="Path_4438" data-name="Path 4438" d="M456.38,2255.161l1734.7-1848.727" transform="translate(681.697 802.686)" fill="none" stroke="#f39579" stroke-width="4"/>
      <path id="Path_4439" data-name="Path 4439" d="M499.22,2297.973,2233.914,449.284" transform="translate(795.661 926.983)" fill="none" stroke="#f39579" stroke-width="4"/>
      <path id="Path_4440" data-name="Path 4440" d="M420.67,2219.422,2155.4,370.733" transform="translate(586.7 699.126)" fill="none" stroke="#f39579" stroke-width="4"/>
      <path id="Path_4441" data-name="Path 4441" d="M492.08,2290.832,2226.775,442.144" transform="translate(776.667 906.272)" fill="none" stroke="#f39579" stroke-width="4"/>
      <path id="Path_4442" data-name="Path 4442" d="M534.92,2333.671,2269.652,484.983" transform="translate(890.632 1030.538)" fill="none" stroke="#f39579" stroke-width="4"/>
      <path id="Path_4443" data-name="Path 4443" d="M570.63,2369.412l1734.7-1848.728" transform="translate(985.629 1134.098)" fill="none" stroke="#f39579" stroke-width="4"/>
    </g>
  </g>
</svg>
