<svg xmlns="http://www.w3.org/2000/svg" xmlns:xlink="http://www.w3.org/1999/xlink" width="334" height="1988.5" viewBox="0 0 334 1988.5"><defs><style>.a{fill:#cfb7cd;}.b,.f{fill:none;}.b{stroke:#1d1d1b;stroke-width:0.69px;}.c{fill:#d25c2e;}.d{fill:#f39579;}.e{fill:#f39b9b;}.f{stroke:#000;stroke-linecap:round;}.g{clip-path:url(#a);}.h{fill:#770203;}</style><clipPath id="a"><rect class="a" width="334" height="95" transform="translate(406 1786)"/></clipPath></defs><g transform="translate(29 499.134)"><g transform="translate(0 -0.121)"><path class="b" d="M448.872,341.052H555.655" transform="translate(-448.872 -341.052)"/><path class="b" d="M484,341.052H590.783" transform="translate(-380.173 -341.052)"/></g><g transform="translate(61.511 -15)"><path class="c" d="M494.686,336.018,480.1,350.607,494.686,365.2l14.589-14.589Z" transform="translate(-450.88 -336.018)"/><path class="d" d="M484.8,336.025l-14.586,14.589L484.8,365.2l14.589-14.589Z" transform="translate(-470.214 -336.004)"/><path class="e" d="M504.563,336.022l-14.586,14.589L504.563,365.2l14.589-14.589Z" transform="translate(-431.564 -336.01)"/></g><g transform="translate(-29 -498.634)"><path class="f" d="M643,3320v227.172" transform="translate(-509 -3320)"/><path class="f" d="M643,3320v227.172" transform="translate(-509 -1795)"/><g transform="translate(-406)"><g class="g"><circle class="a" cx="95" cy="95" r="95" transform="translate(445 1786)"/></g><circle class="h" cx="67.5" cy="67.5" r="67.5" transform="translate(473 1853)"/></g></g></g></svg>