<svg xmlns="http://www.w3.org/2000/svg" xmlns:xlink="http://www.w3.org/1999/xlink" width="48" height="48" viewBox="0 0 48 48">
  <defs>
    <clipPath id="clip-path">
      <rect id="Rectangle_1748" data-name="Rectangle 1748" width="48" height="48" transform="translate(0)" fill="none"/>
    </clipPath>
  </defs>
  <g id="logo" transform="translate(0)">
    <rect id="Rectangle_1747" data-name="Rectangle 1747" width="48" height="48" transform="translate(0)" fill="#d10a10"/>
    <g id="Group_479" data-name="Group 479">
      <g id="Group_478" data-name="Group 478" clip-path="url(#clip-path)">
        <path id="Path_96" data-name="Path 96" d="M131.933,56.6H121.3l8.411,26.877h2.538c9.018,0,13.969-5.481,13.969-13.472,0-8.03-4.916-13.4-14.288-13.4m-.247,20.866h-1.769V62.614h1.7c3.925,0,6.649,2.266,6.649,7.43,0,5.3-2.545,7.426-6.578,7.426" transform="translate(-100.762 -47.02)" fill="#fff" fill-rule="evenodd"/>
        <path id="Path_97" data-name="Path 97" d="M32.235,56.606H24.343L15.012,83.529H22.39l1.384-4.549h8.384l1.417,4.549h7.131ZM25.466,72.954l2.5-8.42,2.43,8.42Z" transform="translate(-12.47 -47.021)" fill="#fff" fill-rule="evenodd"/>
      </g>
    </g>
  </g>
</svg>
