<?xml version="1.0" encoding="UTF-8"?>
<svg id="Layer_1" xmlns="http://www.w3.org/2000/svg" xmlns:svg="http://www.w3.org/2000/svg" version="1.1" viewBox="0 0 558.84 84.161">
  <!-- Generator: Adobe Illustrator 29.6.1, SVG Export Plug-In . SVG Version: 2.1.1 Build 9)  -->
  <path d="M359.613,66.748h15.284c7.393,0,11.667-.904,15.94-3.451,2.548-1.48,4.683-3.369,6.409-5.671,3.616-4.682,5.341-10.681,5.341-18.159,0-11.01-3.615-19.721-10.024-24.076-3.78-2.466-7.807-3.453-15.12-3.453h-17.831v54.809ZM372.513,57.134V21.554h4.603c4.025,0,6.82,1.151,8.545,3.615,2.299,3.122,3.451,8.136,3.451,14.462,0,11.422-4.355,17.503-12.572,17.503h-4.027ZM421.509,25.662h-12.407v41.086h12.407V25.662ZM422.58,16.87c0-3.615-2.795-5.833-7.397-5.833s-7.395,2.219-7.395,5.916,2.795,5.916,7.395,5.916c4.685,0,7.397-2.218,7.397-5.998M442.341,66.748v-27.363c2.3-2.054,4.272-2.876,7.229-2.876,1.48,0,2.631.164,5.013.904v-11.34c-1.808-.575-2.547-.657-3.697-.657-3.207,0-6.245,1.972-8.711,5.671h-.575v-5.424h-11.668v41.086h12.408ZM489.712,55.407c-3.864,2.384-6.575,3.206-10.272,3.206-6.573,0-9.368-2.712-9.697-9.122h23.503v-2.382c0-14.791-5.672-22.186-16.847-22.186-11.503,0-19.144,8.709-19.144,21.858,0,12.735,7.312,20.541,19.473,20.541,4.437,0,8.464-.821,11.915-2.383,1.149-.575,1.808-.904,3.452-1.972l-2.383-7.56ZM481.084,41.85h-11.257c.08-5.588,2.135-8.545,5.999-8.545,3.533,0,5.259,2.71,5.259,8.298v.247ZM526.597,55.573c-3.04,2.053-5.423,2.957-8.217,2.957-5.26,0-7.972-4.108-7.972-11.832,0-8.464,2.796-12.572,8.381-12.572,2.796,0,4.768.822,7.56,3.287l2.055-8.134c-3.204-2.794-7.148-4.191-11.913-4.191-11.423,0-19.064,8.628-19.064,21.447,0,12.735,7.148,20.788,18.489,20.788,3.532,0,6.737-.739,9.449-2.219,1.068-.574,1.643-.902,3.039-1.972l-1.807-7.558ZM557.853,57.215c-1.807.33-2.547.33-3.944.33-3.368,0-4.436-1.397-4.436-5.588v-17.503h9.367v-8.792h-9.367v-13.723h-9.779l-1.972,13.723h-6.327v8.464h5.833v19.475c0,9.366,3.451,13.721,11.009,13.721,2.467,0,5.589-.492,7.479-1.068.657-.164,1.068-.328,2.136-.821v-8.218" fill="#194f9a"/>
  <path d="M13.344,66.74l3.955-13.227h15.628l3.703,13.227h14.48l-14.388-50.458c-.826-2.979-2.633-4.357-5.766-4.357H10.47v4.765h1.722c2.139,0,3.296.834,3.296,2.471,0,1.072-.24,1.972-1.089,4.429L0,66.74h13.344ZM30.954,44.544h-11.598l6.173-20.128,5.425,20.128Z" fill="#194f9a"/>
  <path d="M67.784,66.74V16.123c0-2.636-1.548-4.199-4.107-4.199h-12.663v4.765h.823c2.138,0,3.039.904,3.039,3.059v46.991h12.908" fill="#194f9a"/>
  <path d="M89.741,66.74V16.123c0-2.636-1.569-4.199-4.115-4.199h-12.661v4.765h.807c2.149,0,3.053.904,3.053,3.059v46.991h12.916" fill="#194f9a"/>
  <path d="M112.022,66.74V29.841c0-2.63-1.57-4.185-4.124-4.185h-12.496v4.675h.735c2.137,0,3.041.981,3.041,3.121v33.287h12.844ZM112.263,16.926c0-3.674-2.722-5.899-7.401-5.899-4.603,0-7.415,2.225-7.415,5.899,0,3.72,2.812,5.921,7.415,5.921,4.679,0,7.401-2.201,7.401-5.921" fill="#194f9a"/>
  <path d="M122.925,37.415c4.285-2.055,8.975-3.209,12.671-3.209,3.465,0,4.699,1.234,4.699,4.828v.916c-5.261.831-6.904,1.167-9.872,1.821-1.713.404-3.299.891-4.859,1.555-5.192,2.078-7.641,6.081-7.641,12.24,0,7.806,3.368,11.581,10.357,11.581,2.549,0,4.858-.488,6.919-1.302,1.804-.8,2.873-1.473,5.513-3.53v.573c0,2.544,1.307,3.853,3.864,3.853h11.763v-4.426h-.581c-2.216,0-3.035-.993-3.035-3.613v-19.57c0-10.431-3.623-14.063-14.081-14.063-3.365,0-6.655.429-9.855,1.164-3.222.731-4.875,1.391-8.719,3.287l2.858,7.896ZM140.295,47.006v7.987c-2.145,2.218-4.767,3.549-6.983,3.549-2.316,0-3.126-1.136-3.126-4.214,0-3.041.643-4.423,2.951-5.32,1.724-.747,3.947-1.402,7.157-2.002" fill="#194f9a"/>
  <path d="M175.069,66.74v-27.778c2.148-2.387,4.36-3.461,6.912-3.461,2.725,0,3.375,1.075,3.375,5.208v26.032h12.829v-27.933c0-6.504-.473-8.558-2.536-10.764-1.731-1.903-4.363-2.877-7.747-2.877-5.021,0-8.556,1.556-13.304,5.994v-1.64c0-2.557-1.339-3.864-3.965-3.864h-12.184v4.675h.739c2.139,0,3.053.981,3.053,3.121v33.287h12.828" fill="#194f9a"/>
  <path d="M236.263,58.113h-17.932l17.115-23.983v-8.479h-26.811c-3.045,0-4.444,1.393-4.444,4.443v7.466h4.767v-.734c0-1.886.988-2.79,3.032-2.79h9.227l-17.277,24.248v8.456h32.324v-8.627" fill="#194f9a"/>
  <path d="M339.657,42.086C339.657,18.022,321.637,0,297.537,0s-42.128,18.022-42.128,42.086,18.016,42.075,42.128,42.075,42.12-17.98,42.12-42.075M332.501,42.086c0,20.465-14.727,35.343-34.964,35.343s-34.969-14.879-34.969-35.343,14.732-35.349,34.969-35.349,34.964,14.971,34.964,35.349M286.101,65.691V24.581h-7.159c-3.541,0-4.933,1.309-4.933,4.94v36.17h12.092ZM308.983,65.691h12.087V29.521c0-3.631-1.401-4.94-4.947-4.94h-7.14v41.11ZM303.617,65.691V19.248c0-3.701-1.317-4.945-4.915-4.945h-10.88v5.186h.651c2.484,0,2.964.558,2.964,3.545v42.657h12.18" fill="#194f9a"/>
</svg>