<?xml version="1.0" encoding="UTF-8"?>
<svg id="_图层_1" data-name="图层_1" xmlns="http://www.w3.org/2000/svg" version="1.1" viewBox="0 0 626.457 223.937">
  <!-- Generator: Adobe Illustrator 29.6.1, SVG Export Plug-In . SVG Version: 2.1.1 Build 9)  -->
  <g id="g10">
    <g id="g12">
      <path id="path14" d="M390.23,171.02c1.926,0,3.258-1.309,3.258-3.215v-94.254h31.996c1.898,0,3.203-1.32,3.203-3.207v-13.02c0-1.898-1.305-3.203-3.203-3.203h-85.226c-1.922,0-3.211,1.305-3.211,3.203v13.02c0,1.887,1.289,3.207,3.211,3.207h32.012v94.254c0,1.906,1.309,3.215,3.207,3.215h14.754ZM536.145,166.938c1.91,2.039.73,4.082-1.598,4.082h-18.562c-2.476,0-3.809-.57-5.43-2.48l-11.098-12.281c-7.465,9.949-17.832,17.398-35.105,17.398-21.336,0-38.137-12.859-38.137-34.934,0-16.93,9.074-26.004,22.809-33.613-6.746-7.719-9.816-15.93-9.816-23.078,0-18.121,12.719-30.547,31.883-30.547,19.586,0,31.574,11.551,31.574,28.648,0,14.617-10.519,22.777-21.629,28.941l16.387,17.664,9.211-16.082c1.16-1.879,2.476-2.613,4.805-2.613h14.187c2.32,0,3.645,1.598,2.203,4.078l-16.391,28.07,24.707,26.746M471.383,69.614c-7.605,0-11.988,4.816-11.988,11.25,0,4.973,2.637,9.352,8.621,15.769,10.379-6.008,14.781-9.633,14.781-16.066,0-6.004-3.801-10.953-11.414-10.953M464.809,155.254c9.352,0,15.625-4.543,20.762-12.289l-23.676-25.434c-9.074,5.129-14.945,10.242-14.945,20.461,0,10.086,8.191,17.262,17.859,17.262M351.234,167.239c.73,1.879-.437,3.781-2.476,3.781h-15.219c-2.176,0-3.496-1.016-4.238-3.074l-8.617-24.836h-47.23l-8.617,24.836c-.738,2.059-2.039,3.074-4.238,3.074h-14.324c-1.902,0-3.211-1.902-2.5-3.781l39.644-110.207c.711-2.043,2.043-2.91,4.219-2.91h19.594c2.199,0,3.668.867,4.379,2.91l39.625,110.207M313.945,123.973l-16.797-48.242-16.961,48.242h33.758ZM559.246,171.02c-1.898,0-3.207-1.309-3.207-3.215v-94.254h-32.012c-1.926,0-3.23-1.32-3.23-3.207v-13.02c0-1.898,1.305-3.203,3.23-3.203h85.227c1.906,0,3.203,1.305,3.203,3.203v13.02c0,1.887-1.297,3.207-3.203,3.207h-32.023v94.254c0,1.906-1.297,3.215-3.203,3.215h-14.781" fill="#2d2623"/>
      <path id="path16" d="M162.418,28.543c-14.641-8.773-31.621-13.766-49.93-13.766-18.473,0-35.957,5.172-50.648,14.16-4.398,2.719-6.875,4.902-6.875,7.676,0,8.246,19.25,17.094,53.352,17.094,33.801,0,59.996-9.691,59.996-19.02,0-2.246-1.949-3.805-5.894-6.144M176.949,39.383c.414.641.617,1.328.617,2.25,0,10.855-33.18,30.043-86.031,30.043-38.793,0-46.055-14.418-46.055-23.586,0-3.25,1.234-6.602,4.004-10.012.145-.207.027-.301-.156-.137-5.039,4.281-9.676,9.098-13.75,14.277-1.949,2.449-3.141,4.625-3.141,5.934,0,18.973,47.598,32.746,92.098,32.746,47.395,0,68.547-15.492,68.547-29.082,0-4.855-1.879-7.695-6.715-13.199-3.137-3.598-6.121-6.504-9.258-9.375-.16-.109-.273-.012-.16.141M24.254,70.512c-2.863,5.676-6.051,15.254-6.965,20.227-.41,2.105-.25,3.144.48,4.719,6.004,12.719,36.281,33.047,106.973,33.047,43.086,0,76.59-10.582,82.024-29.902,1.012-3.578,1.055-7.328-.227-12.398-1.422-5.664-4.125-12.238-6.398-16.871-.07-.152-.203-.133-.203.047.867,25.344-69.848,41.695-105.512,41.695-38.641,0-70.859-15.402-70.859-34.84,0-1.879.371-3.734.875-5.66.047-.211-.117-.23-.188-.062M92.844,151.489c-49.981,0-73.512-23.258-77.801-39.141-.047-.227-.207-.184-.207.027,0,5.359.527,12.238,1.469,16.844.434,2.199,2.246,5.703,4.902,8.504,12.098,12.598,42.281,30.269,94.531,30.269,71.156,0,87.449-23.695,90.75-31.48,2.406-5.601,3.621-15.68,3.621-24.137,0-2.062-.047-3.691-.113-5.293,0-.281-.16-.281-.211-.027-3.57,19.066-64.367,44.434-116.941,44.434M119.09,194.458c24.035,0,50.434-6.551,66.227-19.523,4.328-3.523,8.453-8.246,12.144-14.551,2.105-3.641,4.195-7.953,5.867-12.187.07-.203-.047-.324-.207-.098-14.664,21.613-57.199,35.094-101.109,35.094-31.051,0-64.441-9.902-77.508-28.879-.133-.164-.25-.094-.18.113,12.191,25.875,49.109,40.031,94.766,40.031M52.606,189.465c16.543,12.809,37.332,20.516,59.883,20.516,24.656,0,47.141-9.176,64.297-24.203.211-.184.121-.301-.086-.184-7.703,5.137-29.656,16.363-64.211,16.363-30.051,0-49.043-6.695-59.746-12.672-.203-.117-.297.039-.137.18" fill="#43a3d5"/>
    </g>
  </g>
</svg>