<?xml version="1.0" encoding="UTF-8"?>
<svg id="Layer_1" xmlns="http://www.w3.org/2000/svg" version="1.1" viewBox="0 0 171.993 138.449">
  <!-- Generator: Adobe Illustrator 29.6.1, SVG Export Plug-In . SVG Version: 2.1.1 Build 9)  -->
  <path d="M57.859,3.079c.238-.241.476-.342.674-.342.354,0,.604.316.593.705-.014.23-.107.48-.336.701-8.835,10.985-15.258,23.822-15.258,41.633s6.423,30.386,15.258,41.367c.229.221.322.474.336.701.011.38-.239.701-.593.701-.198,0-.436-.097-.674-.341L20.221,51.803c-1.884-1.607-3.076-3.488-3.076-6.158,0-2.685,1.192-4.556,3.076-6.153L57.859,3.079" fill="#ef3842"/>
  <path d="M86.796,0c-14.734,0-20.499,20.881-20.499,45.776s5.765,45.506,20.499,45.506c8.84,0,16.375-5.18,16.402-9.438,0-.929-.35-1.818-1.138-2.599-4.192-4.052-5.825-8.098-5.838-11.669-.034-6.817,5.883-11.899,11.336-11.899,7.504,0,11.923,5.891,11.923,13.522,0,7.229-3.089,13.258-6.436,18.072-.132.205-.184.419-.184.613,0,.378.223.689.559.689.198,0,.435-.11.698-.369l37.645-36.401c1.878-1.607,3.083-3.488,3.083-6.158,0-2.685-1.205-4.556-3.083-6.153L114.118,3.079c-.263-.257-.5-.366-.698-.366-.341,0-.559.314-.559.692,0,.195.052.413.184.613,3.347,4.811,6.436,10.846,6.436,18.069,0,7.624-4.419,13.526-11.923,13.526-5.453,0-11.37-5.079-11.336-11.9.013-3.574,1.646-7.62,5.838-11.667.788-.786,1.138-1.671,1.138-2.605-.027-4.264-7.562-9.441-16.402-9.441" fill="#25347a"/>
  <path d="M25.775,131.87c-.007-1.948.848-3.525,2.304-4.588,1.443-1.065,3.452-1.628,5.803-1.628,1.456,0,2.972.266,4.006.715v-2.191c-.033-2.2-.864-3.451-3.333-3.482-.468,0-1.495.12-2.346.413.08.315.132.641.132.954,0,.739-.237,1.413-.684,1.914-.442.498-1.101.808-1.891.808-1.436-.01-2.51-1.169-2.51-2.613.032-2.678,3.274-4.482,7.615-4.482,3.437,0,5.605.817,6.758,2.298,1.054,1.335,1.101,3.281,1.108,6.02v7.158c.018,1.387.801,1.763,2.527,2.029l.185.031-.005.196c-.101,1.885-1.49,2.668-2.978,2.787-.132.009-.264.016-.389.016-1.462.007-2.879-.715-3.55-2.18-.93.774-3.011,2.226-5.705,2.229-3.999-.003-7.042-2.704-7.047-6.404M148.621,137.342c-.354-.5-.545-1.134-.724-1.864-.192.227-.428.472-.784.81-1.31,1.226-3.017,1.964-4.94,1.964-2.101,0-3.885-.81-5.026-2.152-1.764-2.091-1.745-4.738-1.752-8.506v-3.624c-.032-1.468-.487-1.973-1.858-2.008-.17,0-.37.016-.565.035l-.171.021-.066-.154c-.1-.268-.153-.528-.153-.782.046-1.753,2.26-2.694,3.572-2.961.453-.069.881-.142,1.302-.148,1.062,0,1.839.343,2.339.954.486.617.692,1.461.692,2.441l-.04,6.193c-.006,2.289.16,3.998.673,5.101.512,1.09,1.278,1.604,2.705,1.617,1.551-.006,2.492-.672,3.085-1.666.605-.998.823-2.346.816-3.633v-5.01c-.031-1.468-.493-1.973-1.85-2.008-.179,0-.378.016-.58.035l-.159.021-.072-.154c-.105-.268-.151-.528-.151-.782.039-1.753,2.253-2.694,3.569-2.961.455-.069.889-.142,1.312-.142,1.055-.006,1.846.337,2.332.948.507.617.697,1.461.697,2.439,0,.711-.058,1.973-.058,7.249,0,2.229-.041,3.413-.041,3.774.034,1.519.548,2.202,1.943,2.23.153,0,.319-.009.488-.028l.158-.015.054.152c.112.265.164.517.164.764-.059,1.712-2.285,2.398-3.578,2.654-.434.066-.854.135-1.212.135h-.031c-1.003,0-1.674-.348-2.09-.939M78.266,128.305c0-3.079,1.008-5.735,2.779-7.618,1.773-1.89,4.303-2.997,7.292-2.997,2.741,0,4.757,1.012,6.087,2.464,1.316,1.446,1.955,3.32,1.955,5.051,0,1.021-.223,1.975-.659,2.778l-.057.111h-12.2c.198,3.548,2.457,6.03,6.39,6.044,2.424.003,4.287-1.33,4.908-2.122l.129-.17.166.128c.357.254.732.715.725,1.597-.013,2.046-2.412,4.668-7.726,4.672-5.39-.011-9.782-4.31-9.789-9.938M121.484,138.209c-2.736,0-5.245-1.035-7.061-2.839-1.825-1.805-2.95-4.383-2.95-7.455.011-6.082,4.794-10.212,10.194-10.225,2.899,0,5.415,1.034,7.206,2.836,1.793,1.798,2.832,4.36,2.832,7.389s-1.093,5.616-2.925,7.429c-1.83,1.818-4.385,2.865-7.29,2.865h-.006ZM158.864,137.602c-.847-.236-1.395-.697-1.388-1.398,0-.275.084-.567.229-.891l.045-.091.108-.027c.315-.063.868-.227,1.336-.596.496-.418.698-.992.705-2.618v-8.194c-.046-1.38-.362-1.865-1.503-1.894-.268,0-.566.029-.92.099l-.178.036-.061-.171c-.116-.308-.184-.601-.184-.877.041-1.64,1.825-2.48,3.036-2.856.494-.145.917-.223,1.358-.223,1.627-.003,2.527,1.172,2.898,2.683,1.075-1.755,2.78-2.923,4.467-2.923,1.579,0,3.175,1.027,3.181,2.997-.006,1.389-.988,2.852-2.63,2.859-1.222.007-2.291-.804-2.527-1.99-.936.306-2.239,1.471-2.246,5.513v4.941c0,1.617.23,2.202.685,2.61.465.363,1.436.541,1.784.604l.099.027.053.091c.157.352.243.67.243.965.014.659-.479,1.114-1.284,1.338-.798.234-1.982.327-3.571.327-1.639,0-2.878-.093-3.735-.341M99.791,137.595c-.847-.232-1.395-.697-1.395-1.398,0-.274.079-.565.224-.884l.046-.095.105-.023c.336-.063.863-.224,1.342-.593.497-.419.694-.995.701-2.621v-10.767l-2.887-.102-.059-.132c-.15-.355-.21-.691-.21-1.007,0-1.051.803-1.753,1.824-1.753h1.27v-1.191c0-2.883.53-4.516,1.267-5.617,1.127-1.752,3.082-2.961,6.066-2.951,3.749.004,6.884,1.745,6.903,4.546,0,1.215-.842,2.72-2.609,2.72-1.322,0-2.541-1.104-2.548-2.503.007-.514.185-1.034.43-1.425-.384-.344-1.141-.552-1.873-.548-1.152.007-1.798.409-2.207,1.077-.389.669-.526,1.653-.521,2.76v3.096h4.962l.053.136c.146.357.225.708.225,1.036.005,1.074-.78,1.885-1.742,1.971-.368.039-.77.039-1.111.039-.825,0-1.642-.056-2.248-.069v10.684c0,1.61.271,2.192.752,2.61.435.353,1.673.541,2.027.604l.108.023.052.095c.138.295.203.56.203.821,0,.737-.599,1.208-1.515,1.447-.916.258-2.225.362-3.885.362-1.64,0-2.893-.093-3.75-.348M65.131,137.602c-.851-.236-1.39-.701-1.382-1.398,0-.275.084-.567.223-.891l.046-.095.106-.023c.329-.063.864-.224,1.35-.593.488-.419.698-.995.698-2.621v-8.194c-.046-1.38-.361-1.865-1.503-1.894-.269,0-.565.029-.92.099l-.178.036-.061-.171c-.125-.315-.184-.61-.184-.891.034-1.63,1.819-2.466,3.037-2.842.468-.151.922-.223,1.337-.223,1.641-.003,2.537,1.156,2.912,2.651,1.085-1.739,2.799-2.891,4.48-2.891,1.56,0,3.181,1.027,3.181,2.997,0,1.389-.988,2.859-2.649,2.859-1.219.007-2.278-.804-2.511-1.99-.94.313-2.264,1.475-2.277,5.513v4.941c.007,1.617.243,2.197.724,2.61.456.361,1.424.541,1.786.604l.099.023.053.095c.15.349.242.662.242.96.014.661-.493,1.119-1.303,1.34-.798.237-1.984.33-3.578.33-1.639,0-2.871-.093-3.728-.341M48.755,137.602c-.843-.236-1.383-.701-1.383-1.398,0-.275.073-.567.231-.891l.046-.095.106-.023c.33-.063.862-.224,1.337-.593.5-.419.699-.995.699-2.621v-8.194c-.027-1.38-.349-1.865-1.503-1.894-.257,0-.574.029-.908.099l-.179.036-.071-.171c-.119-.315-.173-.61-.173-.891.021-1.63,1.819-2.466,3.024-2.842.481-.151.923-.223,1.338-.223,1.646-.003,2.542,1.156,2.923,2.648,1.076-1.736,2.801-2.888,4.481-2.888,1.56,0,3.162,1.027,3.168,2.997-.006,1.389-.988,2.859-2.649,2.859-1.206.007-2.279-.804-2.496-1.99-.942.306-2.278,1.475-2.292,5.513v4.941c.007,1.617.243,2.197.724,2.61.462.361,1.436.541,1.779.604l.112.023.046.095c.151.349.25.662.25.96.006.661-.5,1.119-1.291,1.34-.809.237-1.99.33-3.595.33-1.628,0-2.866-.093-3.724-.341M117.058,127.356c.014,5.38,2.349,7.695,4.648,7.701,2.623-.006,4.521-2.319,4.532-6.855,0-2.361-.527-4.255-1.375-5.539-.864-1.281-2.016-1.967-3.379-1.967-2.715.005-4.412,2.467-4.426,6.66M34.733,128.49c-2.162.019-3.623,1.034-3.63,3.04.007,1.9,1.291,3.173,3.313,3.191,1.306.003,2.628-.726,3.472-1.763v-2.782c.007-.376-.237-.791-.777-1.123-.535-.333-1.344-.563-2.378-.563M90.703,125.232c.393-.006.5-.096.566-.217.084-.134.104-.399.104-.717-.038-1.872-1.5-3.602-3.741-3.602-2.818,0-3.957,2.26-4.13,4.536h7.201ZM3.905,134.681C1.527,132.24-.007,128.677,0,124.241,0,119.995,1.494,116.419,3.832,113.896c2.339-2.52,5.52-3.976,8.88-3.976,6.02.011,10.269,4.223,10.303,7.862,0,1.95-1.232,3.459-2.906,3.461-.823,0-1.594-.279-2.168-.813-.566-.538-.909-1.313-.909-2.262,0-1.139.574-1.832,1.016-2.329-.784-1.37-2.365-2.504-4.81-2.511-2.093.007-3.846,1.087-5.11,2.993-1.265,1.909-2.023,4.645-2.023,7.881s.79,5.958,2.082,7.857c1.303,1.901,3.095,2.975,5.19,2.975,2.45-.003,4.026-1.122,4.809-2.506-.443-.482-1.015-1.177-1.015-2.31,0-.95.343-1.735.909-2.266.574-.534,1.344-.809,2.168-.809,1.674,0,2.892,1.495,2.906,3.436-.028,3.662-4.283,7.86-10.303,7.87-3.347,0-6.562-1.325-8.946-3.768" fill="#25347a"/>
</svg>