<?xml version="1.0" encoding="UTF-8"?>
<svg xmlns="http://www.w3.org/2000/svg" xmlns:xlink="http://www.w3.org/1999/xlink" version="1.1" viewBox="0 0 717.068 507.151">
  <!-- Generator: Adobe Illustrator 29.6.1, SVG Export Plug-In . SVG Version: 2.1.1 Build 9)  -->
  <defs>
    <linearGradient id="linear-gradient" x1="151.664" y1="157.71" x2="564.068" y2="157.71" gradientUnits="userSpaceOnUse">
      <stop offset="0" stop-color="#bbb8b9"/>
      <stop offset=".101" stop-color="#b2afb0"/>
      <stop offset=".264" stop-color="#9b9798"/>
      <stop offset=".468" stop-color="#757072"/>
      <stop offset=".5" stop-color="#6f6a6c"/>
      <stop offset=".617" stop-color="#8f8b8d"/>
      <stop offset=".788" stop-color="#bab7b8"/>
      <stop offset=".922" stop-color="#d4d2d3"/>
      <stop offset="1" stop-color="#dedcdd"/>
    </linearGradient>
    <linearGradient id="linear-gradient1" x1="151.484" x2="563.89" xlink:href="#linear-gradient"/>
    <linearGradient id="linear-gradient2" y1="304.538" y2="304.538" xlink:href="#linear-gradient"/>
    <linearGradient id="linear-gradient3" x1="151.484" y1="304.538" x2="563.89" y2="304.538" xlink:href="#linear-gradient"/>
    <linearGradient id="linear-gradient4" x1="151.755" y1="96.472" x2="562.916" y2="96.472" gradientUnits="userSpaceOnUse">
      <stop offset="0" stop-color="#6f6a6c"/>
      <stop offset=".074" stop-color="#939091"/>
      <stop offset=".165" stop-color="#bab7b8"/>
      <stop offset=".255" stop-color="#d8d6d7"/>
      <stop offset=".342" stop-color="#ededed"/>
      <stop offset=".425" stop-color="#fafafa"/>
      <stop offset=".5" stop-color="#fff"/>
      <stop offset=".571" stop-color="#faf9fa"/>
      <stop offset=".655" stop-color="#ecebeb"/>
      <stop offset=".746" stop-color="#d4d3d4"/>
      <stop offset=".842" stop-color="#b4b1b2"/>
      <stop offset=".941" stop-color="#8b8788"/>
      <stop offset="1" stop-color="#6f6a6c"/>
    </linearGradient>
    <linearGradient id="linear-gradient5" y1="243.301" y2="243.301" xlink:href="#linear-gradient4"/>
    <linearGradient id="linear-gradient6" x1="359.459" y1="93.242" x2="553.891" y2="89.305" gradientUnits="userSpaceOnUse">
      <stop offset="0" stop-color="#f2f1f1"/>
      <stop offset=".002" stop-color="#f0efef"/>
      <stop offset=".068" stop-color="#c2bfc0"/>
      <stop offset=".131" stop-color="#9e9a9b"/>
      <stop offset=".189" stop-color="#847f81"/>
      <stop offset=".241" stop-color="#746f71"/>
      <stop offset=".281" stop-color="#6f6a6c"/>
      <stop offset=".379" stop-color="#767173"/>
      <stop offset=".53" stop-color="#8c8789"/>
      <stop offset=".59" stop-color="#979294"/>
      <stop offset="1" stop-color="#6f6a6c"/>
    </linearGradient>
    <linearGradient id="linear-gradient7" x1="359.459" y1="240.07" x2="553.891" y2="236.133" xlink:href="#linear-gradient6"/>
  </defs>
  <g id="Typo_Citroën">
    <g>
      <path d="M465.983,439.192c-17.619-.393-35.529-.006-35.687,0-21.527,0-39.041,14.924-39.041,33.268,0,18.625,17.515,33.775,39.059,33.775.143.004,18.048.359,35.684,0,21.57,0,39.12-15.15,39.12-33.775,0-18.166-17.19-32.779-39.135-33.268ZM453.902,497.02s-6.434.166-11.302,0c-12.397,0-25.775-9.35-25.775-24.455,0-14.984,13.105-23.938,25.714-23.932.153-.024,6.304-.283,11.355-.006,12.674,0,25.785,8.953,25.785,23.938,0,15.105-13.38,24.455-25.776,24.455Z" fill="#d20824" isolation="isolate"/>
      <path d="M695.12,505.375h21.948v-31.947c0-18.67-16.718-33.297-38.056-33.297h-55.531c-.908,0-3.016.23-3.016,2.432v60.334c0,1.621,1.175,2.475,2.332,2.475h23.207v-50.469c0-2.219,1.687-3.301,3.334-3.301h25.562c7.075,0,17.543,6.352,17.543,20.19v31.039c0,.025.068,2.545,2.676,2.545Z" fill="#d20824" isolation="isolate"/>
      <path d="M231.807,453.082h34.262v-10.393c0-1.457-1.058-2.557-2.464-2.557h-95.478c-1.555,0-2.482,1.281-2.482,2.519v10.428h22.818c8.565,0,14.319,7.344,14.319,14.195v35.623c0,1.172,1.034,2.48,2.519,2.48l23.15.004v-48.971c0-1.838,1.505-3.33,3.355-3.33Z" fill="#d20824" isolation="isolate"/>
      <path d="M126.262,502.895c0,1.465,1.323,2.486,2.514,2.486h23.136v-62.777c0-1.346-1.192-2.482-2.526-2.482h-20.613c-1.358,0-2.51,1.135-2.51,2.479v60.295Z" fill="#d20824" isolation="isolate"/>
      <path d="M355.18,505.389h25.472c-.676-16.908-18.918-23.883-18.918-23.883,0,0,0,.002.013-.002,11.456-2.623,18.855-10.852,18.855-20.365,0-10.109-9.895-21.016-25.88-21.016h-61.6c-7.468,0-13.318,5.857-13.318,13.324v49.44c0,1.43,1.019,2.494,2.44,2.494h23.125v-23.141h21.817c19.421,0,27.403,14.02,27.996,23.148ZM305.351,470.682v-13.031c0-3.561,2.533-6.049,6.157-6.049h34.076c5.167,0,9.531,4.338,9.531,9.471,0,5.299-4.328,9.609-9.645,9.609h-40.119Z" fill="#d20824" isolation="isolate"/>
      <path d="M87.348,462.026h24.925c-5.395-13.645-21.035-23.305-37.544-23.334-9.04-.018-25.149-.531-35.665-.002-12.287.613-20.021,3.42-27.586,10.008-7.391,6.445-11.467,14.951-11.477,23.98,0,18.658,16.6,33.307,38.613,34.07,15.09.531,16.705.557,36.492-.041,18.333-.551,31.476-8.848,37.151-23.324h-24.918c-.941,0-1.663.42-2.144,1.248-4.509,7.77-12.99,12.424-22.275,12.572-3.232.053-7.592.062-11.572.023-12.95-.125-25.773-9.207-25.773-24.58,0-15.098,13.165-24.301,25.834-24.303,1.452-.059,6.554-.23,11.231.002,9.246,0,18.112,4.898,22.587,12.48.165.281.803,1.199,2.121,1.199Z" fill="#d20824" isolation="isolate"/>
      <path d="M606.729,493.657h-60.359c-2.035,0-3.459-1.348-3.459-3.279v-12.438h52.315v-11.449h-52.328v-11.353c0-.051-.018-3.299,3.887-3.299h59.931v-9.156c0-2.672-2.858-2.557-2.937-2.553h-83.952c-.262,0-2.553.07-2.553,2.553v49.418c0,6.527,5.025,13.275,13.428,13.275h73.522c1.908,0,2.507-1.801,2.507-2.432v-9.287Z" fill="#d20824" isolation="isolate"/>
      <path d="M587.935,416.495c-2.453-1.514-5.412-2.264-8.878-2.264s-6.538.799-8.884,2.264c-2.352,1.459-4.223,3.42-6.996,3.42s-4.437-1.961-6.932-3.42c-2.502-1.467-5.418-2.264-8.885-2.264s-6.417.75-8.884,2.264c-2.449,1.49-3.688,3.309-3.688,5.416,0,2.127,1.238,3.938,3.688,5.436,2.467,1.504,5.418,2.246,8.884,2.246s6.469-.725,8.689-2.074c2.22-1.352,4.621-3.567,7.127-3.567s4.773,1.988,7,3.395c2.225,1.408,5.424,2.246,8.88,2.246,3.565,0,6.565-.742,8.956-2.246,2.41-1.498,3.607-3.309,3.607-5.436,0-2.107-1.226-3.926-3.685-5.416Z" fill="#d20824" isolation="isolate"/>
    </g>
  </g>
  <g id="Chevron_ext.">
    <path d="M358.53,101.088c53.551,0,182.821,110.998,199.026,125.096,1.097.956,2.618,2.186,5.418,1.866,4.041-.461,4.157-6.637,4.157-6.637,0,0,.958-14.104.958-28.3,0-17.891-13.969-33.536-13.969-33.536,0,0-144.864-159.577-195.59-159.577s-195.588,159.577-195.588,159.577c0,0-13.97,15.646-13.97,33.536,0,14.197.958,28.3.958,28.3,0,0,.117,6.175,4.157,6.637,2.799.32,4.321-.91,5.42-1.866,16.203-14.099,145.472-125.096,199.023-125.096Z" fill="#1d1d1b"/>
    <path d="M358.53,247.916c53.551,0,182.821,110.999,199.026,125.097,1.097.957,2.618,2.185,5.418,1.867,4.041-.463,4.157-6.639,4.157-6.639,0,0,.958-14.102.958-28.299,0-17.891-13.969-33.537-13.969-33.537,0,0-144.864-159.577-195.59-159.577s-195.588,159.577-195.588,159.577c0,0-13.97,15.647-13.97,33.537,0,14.197.958,28.299.958,28.299,0,0,.117,6.176,4.157,6.639,2.799.318,4.321-.91,5.42-1.867,16.203-14.098,145.472-125.097,199.023-125.097Z" fill="#1d1d1b"/>
  </g>
  <g id="Dgardé_bas">
    <path d="M211.533,135.447c-29.347,24.165-52.011,46.869-59.778,54.855-.436,9.734.84,30.794.847,30.933,0,0,.13,7.611,5.57,2.736l5.413-4.811c58.423-53.441,118.416-100.228,166.483-121.036,3.415-1.48,9.022-2.473,6.114-6.152-1.631-2.053-7.332-2.303-10.937-2.093-49.84,2.867-111.45,43.932-113.713,45.57h-.001v-.002Z" fill="url(#linear-gradient)"/>
    <path d="M505.527,135.447c29.347,24.165,52.011,46.869,59.778,54.855.435,9.734-.841,30.794-.848,30.933,0,0-.131,7.611-5.57,2.736l-5.412-4.811c-58.424-53.441-118.416-100.228-166.484-121.036-3.414-1.48-9.022-2.473-6.114-6.152,1.632-2.053,7.333-2.303,10.937-2.093,49.841,2.867,111.45,43.932,113.713,45.57h.003l-.003-.002Z" fill="url(#linear-gradient1)"/>
    <path d="M211.533,282.276c-29.347,24.164-52.011,46.867-59.778,54.855-.436,9.733.84,30.793.847,30.932,0,0,.13,7.611,5.57,2.736l5.413-4.81c58.423-53.442,118.416-100.229,166.483-121.038,3.415-1.479,9.022-2.473,6.114-6.151-1.631-2.054-7.332-2.303-10.937-2.094-49.84,2.867-111.45,43.933-113.713,45.571,0,0-.001-.002-.001,0v-.002Z" fill="url(#linear-gradient2)"/>
    <path d="M505.527,282.276c29.347,24.164,52.011,46.867,59.778,54.855.435,9.733-.841,30.793-.848,30.932,0,0-.131,7.611-5.57,2.736l-5.412-4.81c-58.424-53.442-118.416-100.229-166.484-121.038-3.414-1.479-9.022-2.473-6.114-6.151,1.632-2.054,7.333-2.303,10.937-2.094,49.841,2.867,111.45,43.933,113.713,45.571,0,0,.003-.002.003,0l-.003-.002Z" fill="url(#linear-gradient3)"/>
  </g>
  <g id="Dgardé_Ht">
    <path d="M552.148,161.343c-1.761-1.942-144.692-158.7-193.619-158.7s-191.856,156.758-193.619,158.7c-.159.176-11.842,13.487-13.156,28.959,7.767-7.986,30.431-30.69,59.778-54.855-.013.01,8.839-7.42,22.139-17.436,29.461-22.188,81.475-56.878,124.858-56.878s95.398,34.69,124.86,56.878c13.299,10.016,22.15,17.446,22.138,17.436,29.347,24.165,52.011,46.869,59.778,54.855-1.315-15.472-12.996-28.783-13.157-28.959Z" fill="url(#linear-gradient4)"/>
    <path d="M552.148,308.17c-1.761-1.94-144.692-158.7-193.619-158.7s-191.856,156.76-193.619,158.7c-.159.178-11.842,13.488-13.156,28.961,7.767-7.988,30.431-30.691,59.778-54.855-.013.01,8.839-7.422,22.139-17.436,29.461-22.189,81.475-56.879,124.858-56.879s95.398,34.69,124.86,56.879c13.299,10.014,22.15,17.446,22.138,17.436,29.347,24.164,52.011,46.867,59.778,54.855-1.315-15.473-12.996-28.783-13.157-28.961Z" fill="url(#linear-gradient5)"/>
  </g>
  <g id="Reflet_Drt">
    <path d="M554.348,171.292C474.142,79.288,386.608,8.591,361.567,7.315c-3.589-.183-3.672,3.368-3.672,3.368-.037,30.236,1.78,35.569,22.595,43.675,2.861,1.115,80.861,24.522,173.8,119.456l1.34,1.352-1.282-3.874Z" fill="url(#linear-gradient6)"/>
    <path d="M554.348,318.12c-80.206-92.004-167.739-162.701-192.781-163.976-3.589-.183-3.672,3.368-3.672,3.368-.037,30.236,1.78,35.569,22.595,43.675,2.861,1.115,80.861,24.522,173.8,119.455l1.34,1.353-1.282-3.875Z" fill="url(#linear-gradient7)"/>
  </g>
</svg>