<?xml version="1.0" encoding="UTF-8"?>
<svg id="Layer_1" xmlns="http://www.w3.org/2000/svg" version="1.1" viewBox="0 0 192.756 192.756">
  <!-- Generator: Adobe Illustrator 29.6.1, SVG Export Plug-In . SVG Version: 2.1.1 Build 9)  -->
  <polygon points="0 0 192.756 0 192.756 192.756 0 192.756 0 0 0 0" fill="#fff" fill-rule="evenodd"/>
  <polygon points="8.504 47.114 184.252 47.114 184.252 145.642 8.504 145.642 8.504 47.114 8.504 47.114" fill="#e32024"/>
  <path d="M19.249,64.051h12.566s14.752-.364,14.934,20.216v17.302s0,19.852-15.663,18.394h-11.838v-55.911h0Z" fill="#fff"/>
  <path d="M29.63,72.793v38.61s6.739,1.639,6.556-8.924v-21.308s.182-9.471-6.556-8.378h0Z" fill="#e32021"/>
  <polygon points="51.849 64.051 62.048 64.051 62.048 119.962 51.849 119.962 51.849 64.051 51.849 64.051" fill="#fff"/>
  <polygon points="91.005 119.806 91.005 111.585 77.71 111.585 77.71 95.922 86.999 95.922 86.999 86.999 77.893 86.999 77.893 72.975 90.641 72.975 90.641 64.051 67.329 64.051 67.329 119.919 91.005 119.806 91.005 119.806" fill="#fff"/>
  <path d="M109.946,80.078h8.923s1.093-17.302-12.931-17.302-13.295,13.477-13.295,13.477c0,0-1.821,10.928,9.835,19.669,0,0,12.202,7.103,7.649,14.752,0,0-7.285,6.557-7.467-6.556h-9.289s-1.639,18.03,13.66,17.302c0,0,12.566-.183,13.477-13.295,0,0,1.457-9.653-8.378-18.577,0,0-14.024-9.106-8.924-16.391,0,0,5.829-6.01,6.739,6.921h0Z" fill="#fff"/>
  <polygon points="123.738 64.051 147.07 64.051 147.07 73.157 134.35 73.157 134.35 87.181 143.821 87.181 143.821 96.469 134.168 96.469 134.168 111.585 147.463 111.585 147.463 120.327 123.969 120.327 123.738 64.051 123.738 64.051" fill="#fff"/>
  <polygon points="152.337 64.051 162.575 64.051 162.575 111.585 173.325 111.585 173.325 120.327 152.337 120.327 152.337 64.051 152.337 64.051" fill="#fff"/>
  <path d="M169.414,64.965c.229-.047.562-.078.868-.078.485,0,.802.094,1.02.292.172.151.276.39.276.666,0,.458-.296.765-.661.89v.016c.265.094.427.344.515.708.115.489.198.827.266.962h-.469c-.057-.099-.135-.401-.229-.838-.104-.484-.297-.666-.708-.682h-.427v1.52h-.452v-3.456h0ZM169.867,66.558h.463c.484,0,.791-.265.791-.666,0-.453-.328-.651-.807-.651-.218,0-.37.021-.448.042v1.275h0Z" fill="#fff"/>
  <path d="M173.485,66.783h0s-.001,0-.001,0c0,.852-.345,1.622-.901,2.179h-.001c-.556.556-1.326.901-2.176.901h0s-.002.001-.002.001h0c-.852-.002-1.622-.346-2.179-.903-.556-.556-.901-1.326-.901-2.177h-.001v-.002h.001c0-.852.345-1.622.901-2.179.556-.556,1.326-.901,2.178-.901h0s.001-.001.001-.001h0c.85.002,1.62.346,2.178.904h0c.556.556.901,1.326.901,2.177h.001v.002h0ZM172.786,66.784h-.001v-.002h.001c0-.656-.267-1.251-.699-1.682h0c-.431-.432-1.026-.699-1.684-.699h0s0,.001,0,.001h-.001c-.656-.001-1.251.266-1.683.697-.432.432-.699,1.027-.699,1.684h.001v.002h-.001c0,.656.267,1.251.698,1.682.432.432,1.027.699,1.684.699h0s0-.001,0-.001h.002c.657.001,1.251-.266,1.683-.696h0c.432-.432.699-1.028.699-1.684h0Z" fill="#fff"/>
</svg>