<?xml version="1.0" encoding="UTF-8"?>
<svg id="Layer_1" xmlns="http://www.w3.org/2000/svg" version="1.1" viewBox="0 0 192.756 192.756">
  <!-- Generator: Adobe Illustrator 29.6.1, SVG Export Plug-In . SVG Version: 2.1.1 Build 9)  -->
  <polygon points="0 0 192.756 0 192.756 192.756 0 192.756 0 0 0 0" fill="#fff" fill-rule="evenodd"/>
  <path d="M10.43,61.199l-3.542-.183-1.461-.292-.292-.548c0-.511.365-.73,1.096-.73h36.627c17.163,0,29.214,5.222,36.225,15.702,4.017,6.062,6.025,13.256,6.025,21.582,0,4.346-.657,8.545-2.009,12.598-1.534,4.272-3.652,8.034-6.39,11.393-2.995,3.542-6.646,6.281-10.846,8.289-4.492,2.045-9.531,3.104-15.191,3.104H3.967c-.767,0-1.132-.255-1.132-.694,0-.475.548-.731,1.57-.731l8.947-.548c1.388-.183,2.374-.584,2.849-1.132l.913-1.278c.329-.876.511-2.191.548-3.98v-57.916c0-2.264-1.278-3.652-3.761-4.199l-3.469-.438h0ZM30.15,62.185l-.256,1.461v64.307c0,.73.146,1.242.438,1.424l1.461.219h4.82l11.174-.402c2.995-.329,5.551-.803,7.559-1.461,2.008-.73,3.907-1.789,5.551-3.067,1.461-1.205,2.958-2.921,4.601-5.112,2.739-3.579,4.711-8.143,5.916-13.73.73-3.652,1.096-7.194,1.096-10.59,0-2.994-.438-6.208-1.351-9.677-1.278-5.003-3.214-9.385-5.952-13.11-5.295-7.23-13.986-10.809-26-10.809h-7.413c-.84-.073-1.388.11-1.643.548h0ZM92.302,131.568c-.073-.438.292-.621,1.096-.621l2.556-.073c1.388-.183,2.227-.657,2.556-1.388l.475-2.629v-21.216c0-.803-.292-1.424-.84-1.79l-1.899-.183-2.556.694-1.388-.073c-.183-.438.365-.84,1.643-1.205,3.031-.803,5.697-1.826,7.961-3.104,1.388-.803,2.374-1.242,2.812-1.424l1.096-.11c.365.073.548.803.548,2.118v26.731c0,1.278.292,2.191.84,2.739.657.657,2.191.986,4.565.986.84,0,1.278.183,1.351.584,0,.329-.256.438-.694.438h-19.464c-.438,0-.657-.183-.657-.475h0ZM178.482,105.275c-1.789,1.863-2.994,4.054-3.652,6.683v15.52c0,1.388.474,2.373,1.461,2.994l2.227.402,2.337.256c.548.073.767.183.767.475l-.11.256-.621.183h-19.537c-.584,0-.913-.183-.913-.475l.548-.438,3.286-.256c1.278-.219,2.081-.657,2.52-1.314l.548-1.643v-21.91l-.365-1.607-.621-.365c-.182-.183-.475-.292-.913-.365-.548-.037-1.205.073-1.899.365l-1.862.511-1.059-.256c-.183-.256-.11-.438.146-.548l1.57-.657c3.578-1.059,6.463-2.155,8.472-3.286l2.483-1.351,1.096.073.438.913v8.034c2.739-4.455,4.93-7.194,6.427-8.107.913-.548,1.789-.986,2.447-1.168l1.278-.11c.803-.073,1.716.183,2.739.84,1.388.803,2.118,2.008,2.191,3.542.073,1.278-.292,2.264-1.096,3.031-.73.621-1.461.804-2.118.621-.621-.109-1.096-.365-1.424-.73l-1.022-1.278c-.803-1.168-1.57-1.534-2.483-1.205-1.059.292-2.154,1.096-3.286,2.373h0ZM102.161,75.258c-1.351,0-2.447.475-3.36,1.388-.986.913-1.461,2.081-1.388,3.433-.073,1.278.402,2.373,1.388,3.286.913.913,2.008,1.388,3.36,1.388,1.278,0,2.41-.475,3.323-1.388.913-.913,1.424-2.008,1.424-3.286,0-1.351-.511-2.52-1.424-3.433-.913-.913-2.045-1.388-3.323-1.388h0ZM121.516,104.399c1.314-1.753,2.958-3.214,4.93-4.382,1.753-1.022,3.506-1.68,5.331-2.009l6.756-.402c2.447.11,4.711.585,6.756,1.497,4.93,2.191,8.034,6.208,9.202,12.051,1.205,5.916.183,10.919-3.031,14.972-2.739,3.433-6.354,5.624-10.919,6.573-4.784,1.059-9.239.73-13.256-.913-5.222-2.118-8.399-6.318-9.421-12.452-.913-5.806.292-10.736,3.652-14.935h0ZM142.915,102.756c-2.227-2.483-5.039-3.579-8.436-3.287-3.286.329-5.806,2.155-7.449,5.624-1.497,3.14-2.045,6.975-1.497,11.503.402,4.492,1.826,8.07,4.127,10.809,2.447,2.885,5.222,4.09,8.326,3.542,3.25-.621,5.624-2.374,7.194-5.295,1.534-2.994,2.081-6.865,1.716-11.795-.438-4.93-1.716-8.582-3.98-11.101h0Z" fill="#1d1d1b" fill-rule="evenodd"/>
  <path d="M92.046,104.362v.365l-.803-.511v.183l.073.329h-.11v-.694h.037l.73.548v-.548h.146l-.073.329h0Z" fill="#1d1d1b" fill-rule="evenodd"/>
  <polygon points="93.397 104.107 92.959 104.107 92.959 104.362 93.324 104.362 93.324 104.399 92.959 104.399 92.959 104.654 93.397 104.654 93.397 104.727 92.849 104.727 92.849 104.034 93.397 104.034 93.397 104.107 93.397 104.107" fill="#1d1d1b" fill-rule="evenodd"/>
  <path d="M95.406,104.034h.037l-.365.694h-.11l-.292-.548-.329.548h-.037c-.183-.329-.329-.548-.365-.694h.183l.219.548.329-.548h.109l.256.548.292-.548h.073Z" fill="#1d1d1b" fill-rule="evenodd"/>
  <polygon points="96.428 104.399 96.501 104.727 96.319 104.727 96.319 104.472 95.954 104.034 96.136 104.034 96.428 104.399 96.72 104.034 96.866 104.034 96.428 104.399 96.428 104.399" fill="#1d1d1b" fill-rule="evenodd"/>
  <path d="M97.451,104.18c.073-.073.256-.146.438-.146s.292.073.438.146c.037.037.11.109.11.219l-.11.255c-.146.073-.256.073-.438.073s-.365,0-.438-.073l-.183-.255c0-.11.073-.183.183-.219h0ZM98.181,104.18l-.292-.073-.292.073c-.073.037-.146.109-.146.219,0,.073.073.146.146.183l.292.146c.11,0,.256-.073.292-.146.073-.037.146-.11.146-.183,0-.11-.073-.183-.146-.219h0Z" fill="#1d1d1b" fill-rule="evenodd"/>
  <path d="M99.277,104.107l-.037.256h.109c.183,0,.292-.073.292-.146,0-.037-.037-.11-.219-.11h-.146ZM99.459,104.034c.183,0,.329.073.329.183l-.146.146-.183.037.438.329h-.183l-.438-.329h-.037l.037.329h-.183v-.694h.365Z" fill="#1d1d1b" fill-rule="evenodd"/>
  <polygon points="101.285 104.034 100.81 104.362 101.285 104.727 101.102 104.727 100.701 104.399 100.701 104.362 100.628 104.399 100.701 104.727 100.518 104.727 100.518 104.034 100.701 104.034 100.628 104.362 100.701 104.362 101.175 104.034 101.285 104.034 101.285 104.034" fill="#1d1d1b" fill-rule="evenodd"/>
</svg>