<?xml version="1.0" encoding="UTF-8"?>
<svg id="Layer_1" xmlns="http://www.w3.org/2000/svg" version="1.1" viewBox="0 0 221.243 50.795">
  <!-- Generator: Adobe Illustrator 29.6.1, SVG Export Plug-In . SVG Version: 2.1.1 Build 9)  -->
  <path d="M0,50.795h50.792V0H0v50.795h0ZM32.554,3.88h0c8.978,2.942,15.465,11.453,15.49,21.508.024,9.892-6.333,18.383-15.49,21.519V3.88h0ZM25.387,2.73h0c1.622,0,3.349.216,4.789.502,0,11.508-11.129,20.978-22.616,20.978l-4.803-.007C3.544,12.406,13.305,2.73,25.387,2.73h0ZM7.564,26.606h0c11.484,0,22.61,9.46,22.61,20.958-1.438.294-3.25.511-4.787.511-12.086-.016-22.177-9.723-22.634-21.468h4.811Z" fill="#121441" fill-rule="evenodd"/>
  <path d="M67.793,29.861v-3.201h10.568v-4.083h-10.57v-5.943h11.244v-4.071h-15.57v17.113c0,4.325,1.843,7.284,6.167,7.893.087.021.172.037.251.038h.079c.443.05.896.083,1.369.083h8.004v-4.067h-7.969c-1.374,0-3.573-.678-3.573-3.762Z" fill="#121441" fill-rule="evenodd"/>
  <polygon points="82.41 24.437 82.41 37.696 86.738 37.696 86.738 24.35 86.738 12.557 82.41 12.557 82.41 24.437" fill="#121441" fill-rule="evenodd"/>
  <path d="M99.148,18.943c-5.471,0-9.564,3.768-9.564,9.637v.146c0,5.724,3.949,9.419,9.673,9.419,2.753,0,5.325-.761,7.68-3.261l-2.608-2.536c-1.377,1.377-2.717,2.102-4.927,2.102-3.224,0-5.362-1.884-5.507-4.782h14.202c.073-.725.073-1.521.073-1.521-.001-5.109-3.588-9.204-9.022-9.204h0ZM94.003,26.624h0c.181-2.21,2.428-3.985,5.145-3.985,2.536,0,4.601,1.812,4.601,3.985h-9.746Z" fill="#121441" fill-rule="evenodd"/>
  <path d="M120.33,22.82c1.956,0,3.405.725,4.637,1.993l2.682-2.79c-2.102-2.247-4.602-3.152-7.318-3.152-5.507,0-9.927,4.094-9.927,9.673s4.42,9.674,9.927,9.674c2.717,0,5.217-.906,7.318-3.152l-2.682-2.79c-1.231,1.269-2.681,1.992-4.637,1.992-3.188,0-5.616-2.427-5.616-5.724s2.428-5.724,5.616-5.724Z" fill="#121441" fill-rule="evenodd"/>
  <path d="M134.67,29.867h-.005v-6.418h3.937v-3.932h-3.931v-6.959h-4.329v17.566h.013c.123,4.083,1.979,6.865,6.155,7.452.087.021.172.037.25.039h.08c.442.049.896.082,1.369.082h.457l.017-4.066h-.438c-1.376,0-3.575-.68-3.575-3.764Z" fill="#121441" fill-rule="evenodd"/>
  <path d="M146.536,22.222v-2.703h-4.293v18.178h4.293v-9.559c0-2.993,1.911-4.869,4.903-4.869.686,0,1.3.072,1.805.181v-4.184c-.181-.036-.829-.107-1.298-.107-2.598-.001-4.545,1.189-5.41,3.063Z" fill="#121441" fill-rule="evenodd"/>
  <path d="M163.826,18.978c-5.52,0-9.92,4.183-9.92,9.63s4.4,9.631,9.92,9.631c5.481,0,9.918-4.187,9.918-9.631s-4.436-9.63-9.918-9.63h0ZM163.826,34.307h0c-3.21,0-5.626-2.489-5.626-5.699s2.416-5.699,5.626-5.699c3.175,0,5.626,2.488,5.626,5.699s-2.451,5.699-5.626,5.699Z" fill="#121441" fill-rule="evenodd"/>
  <polygon points="176.406 24.003 176.406 37.696 180.737 37.696 180.737 24.177 180.737 12.557 176.406 12.557 176.406 24.003" fill="#121441" fill-rule="evenodd"/>
  <path d="M196.346,30.085c0,2.885-1.694,4.113-3.969,4.113s-3.967-1.229-3.967-4.075v-10.604h-4.364v10.965c0,5.194,3.787,7.683,8.296,7.683,4.545,0,8.366-2.524,8.366-7.791v-10.856h-4.362v10.565h0Z" fill="#121441" fill-rule="evenodd"/>
  <polygon points="217.085 31.884 214.356 28.066 217.736 23.462 220.63 19.519 215.906 19.519 211.974 24.964 208.006 19.519 203.318 19.519 206.006 23.196 209.594 28.103 205.834 33.338 202.704 37.696 207.358 37.696 211.974 31.276 216.59 37.696 221.243 37.696 217.085 31.884" fill="#121441" fill-rule="evenodd"/>
</svg>