<?xml version="1.0" encoding="UTF-8"?>
<svg id="Layer_1" xmlns="http://www.w3.org/2000/svg" version="1.1" viewBox="0 0 191.133 68.277">
  <!-- Generator: Adobe Illustrator 29.6.1, SVG Export Plug-In . SVG Version: 2.1.1 Build 9)  -->
  <polygon points="0 0 191.133 0 191.133 68.277 0 68.277 0 0 0 0" fill="#fff" fill-rule="evenodd"/>
  <path d="M46.327,23.233h-14.321c-3.468,0-4.716,1.699-4.716,4.612v20.147c0,2.947,1.179,4.577,4.612,4.577h14.425v-6.589h-11.582v-4.681h10.507v-6.554h-10.507v-5.062h11.582v-6.45h0Z" fill="#312783" fill-rule="evenodd"/>
  <path d="M131.768,23.233h-14.321c-3.502,0-4.716,1.699-4.716,4.612v20.147c0,2.947,1.179,4.577,4.577,4.577h14.46v-6.589h-11.582v-4.681h10.507v-6.554h-10.507v-5.062h11.582v-6.45h0Z" fill="#312783" fill-rule="evenodd"/>
  <path d="M92.273,27.706l-4.265,4.023c-1.456-1.734-3.156-2.844-5.513-3.017-1.387-.104-3.294.797-3.19,2.254.139,2.324,3.676,2.358,7.663,3.78,3.988,1.456,6.519,4.023,6.45,8.565-.312,6.935-4.473,9.536-11.131,9.952-4.855.174-8.669-2.08-11.859-5.86l4.993-3.988c1.422,2.046,3.398,3.537,6.623,3.953,2.462.035,3.537-.832,3.745-2.393.278-1.976-3.19-2.982-7.559-4.057-2.705-.589-6.693-4.404-6.554-8.287-.034-5.583,3.502-9.883,10.437-9.64,5.271-.069,7.802,1.491,10.16,4.716h0Z" fill="#312783" fill-rule="evenodd"/>
  <polygon points="92.411 23.233 97.994 23.233 106.42 23.233 112.038 23.233 112.038 30.48 106.42 30.48 106.42 52.569 97.994 52.569 97.994 30.48 92.411 30.48 92.411 23.233 92.411 23.233" fill="#312783" fill-rule="evenodd"/>
  <path d="M142.067,23.475h17.476c2.011,0,3.711,1.664,3.711,3.711v3.017h-18.552v1.006h18.552v9.432c0,2.046-1.699,3.71-3.711,3.71h-17.476c-2.046,0-3.71-1.664-3.71-3.71v-2.809h18.759v-1.006h-18.759v-9.64c0-2.046,1.665-3.711,3.71-3.711h0Z" fill="#e30613" fill-rule="evenodd"/>
  <path d="M150.909,15.015c2.15,0,3.883,1.769,3.883,3.918s-1.734,3.884-3.883,3.884-3.918-1.734-3.918-3.884,1.768-3.918,3.918-3.918h0Z" fill="#e30613" fill-rule="evenodd"/>
  <polygon points="157.567 52.777 157.567 46.292 159.578 46.292 159.578 48.373 161.243 46.292 163.635 46.292 161.312 49.309 163.809 52.777 161.381 52.777 159.578 50.176 159.578 52.777 157.567 52.777 157.567 52.777" fill="#312783" fill-rule="evenodd"/>
  <polygon points="150.944 52.777 150.944 46.292 152.539 46.292 154.827 49.552 154.827 46.292 156.562 46.292 156.562 52.777 154.966 52.777 152.678 49.517 152.678 52.777 150.944 52.777 150.944 52.777" fill="#312783" fill-rule="evenodd"/>
  <path d="M143.662,52.777l2.323-6.485h2.011l2.392,6.485h-2.254l-.347-1.283h-1.595l-.381,1.283h-2.15ZM146.575,50.037h.832l-.381-1.318-.451,1.318h0Z" fill="#312783" fill-rule="evenodd"/>
  <path d="M138.461,52.777v-6.485h2.462c.832,0,1.456.139,1.872.382.416.277.624.659.624,1.179,0,.312-.069.625-.243.867-.173.243-.416.416-.763.555.451.139.763.312.971.59.243.277.347.624.347,1.04,0,.624-.347,1.109-.763,1.387-.416.312-1.11.486-1.734.486h-2.774ZM140.229,51.286h.451c.381,0,.624-.069.763-.139.139-.104.277-.277.277-.52,0-.208-.139-.382-.312-.486-.139-.069-.347-.139-.728-.139h-.451v1.283h0ZM140.229,48.616h.346c.347,0,.52-.035.624-.104.104-.104.208-.242.208-.416s-.104-.312-.208-.381c-.139-.069-.277-.104-.589-.104h-.381v1.006h0Z" fill="#312783" fill-rule="evenodd"/>
  <path d="M48.061,52.569v-29.336h11.339c6.207,0,11.097,2.601,11.131,9.05.104,3.537-1.456,6.068-4.508,7.663l5.652,12.622h-8.426l-4.647-11.131h-3.017v11.131h-7.525ZM55.065,28.954v6.068h4.127c4.854,0,4.438-6.068-.035-6.068h-4.092Z" fill="#312783" fill-rule="evenodd"/>
</svg>