<?xml version="1.0" encoding="UTF-8"?>
<svg id="Layer_1" xmlns="http://www.w3.org/2000/svg" version="1.1" viewBox="0 0 116.223 33.684">
  <!-- Generator: Adobe Illustrator 29.6.1, SVG Export Plug-In . SVG Version: 2.1.1 Build 9)  -->
  <polyline points="100.234 32.506 95.728 27.451 91.264 32.506 81.873 32.506 91.053 22.187 81.873 11.871 91.558 11.871 96.107 16.883 100.486 11.871 109.837 11.871 100.698 22.145 109.961 32.505 100.234 32.506" fill="#eb7624"/>
  <polyline points="63.831 0 63.831 32.506 81.873 32.506 81.873 25.239 71.473 25.239 71.473 18.842 81.873 18.842 81.873 11.87 71.473 11.87 71.473 7.245 81.873 7.245 81.873 0 63.831 0" fill="#eb7624"/>
  <path d="M56.219,0v13.302h-.083c-1.686-1.937-3.791-2.611-6.233-2.611-5.004,0-8.774,3.404-10.096,7.901-1.51-4.955-5.401-7.992-11.17-7.992-4.687,0-8.385,2.103-10.317,5.53v-4.259h-9.686v-4.625h10.569V0H0v32.506h8.634v-13.665h8.605c-.256,1.005-.394,2.079-.394,3.214,0,6.779,5.18,11.538,11.792,11.538,5.558,0,9.222-2.612,11.16-7.369h-7.399c-1,1.431-1.761,1.854-3.761,1.854-2.32,0-4.32-2.023-4.32-4.423h15.065c.653,5.386,4.849,10.029,10.606,10.029,2.484,0,4.759-1.22,6.148-3.285h.083v2.107h7.612V0h-7.612M24.556,18.937c.479-2.062,2.08-3.413,4.081-3.413,2.201,0,3.721,1.308,4.12,3.413h-8.201ZM51.601,27.557c-2.806,0-4.55-2.616-4.55-5.344,0-2.918,1.517-5.724,4.55-5.724,3.144,0,4.396,2.806,4.396,5.724,0,2.765-1.327,5.344-4.396,5.344" fill="#3e2f82"/>
  <path d="M112.043,30.41c0-1.148.934-2.085,2.095-2.085s2.085.937,2.085,2.085c0,1.163-.927,2.096-2.085,2.096s-2.095-.933-2.095-2.096M115.857,30.41c0-.943-.767-1.719-1.719-1.719s-1.729.776-1.729,1.719c0,.958.773,1.73,1.729,1.73s1.719-.772,1.719-1.73M113.694,30.549v1.063h-.385v-2.458h.797c.448,0,.918.123.918.68,0,.281-.174.506-.502.571v.012c.34.067.378.218.418.483.033.233.06.489.143.712h-.489c-.027-.138-.066-.295-.083-.44-.027-.211-.027-.406-.14-.523-.093-.1-.22-.089-.356-.1h-.321ZM114.099,30.168c.363-.014.446-.164.446-.353,0-.18-.083-.277-.389-.277h-.462v.63h.405Z" fill="#eb7624"/>
</svg>