<?xml version="1.0" encoding="UTF-8"?>
<svg id="Layer_1" xmlns="http://www.w3.org/2000/svg" version="1.1" viewBox="0 0 792 144">
  <!-- Generator: Adobe Illustrator 29.6.1, SVG Export Plug-In . SVG Version: 2.1.1 Build 9)  -->
  <rect x="40" y="28" width="723" height="102" rx="12" ry="12" fill="#fff"/>
  <g>
    <path d="M115.206,65.597v-11.784s-30.007-17.459-54.577,0c0,0-11.784,9.303-11.784,26.669s13.644,26.668,13.644,26.668c0,0,22.087,15.504,53.717,0v-29.769h-34.18v11.164h21.776v11.162s-40.691,14.34-40.072-19.639c0,0-1.86-18.812,18.296-21.293,0,0,13.334-3.721,33.18,6.822Z" fill="#231f20"/>
    <rect x="155.519" y="46.096" width="12.404" height="67.945" fill="#231f20"/>
    <polygon points="199.552 46.096 213.816 46.096 234.283 95.366 255.37 46.096 270.254 46.096 239.865 112.491 228.701 112.491 199.552 46.096" fill="#231f20"/>
    <polygon points="300.023 46.096 300.023 114.041 355.221 114.041 355.221 101.568 313.667 101.568 313.667 85.443 342.817 85.443 342.817 74.9 313.667 74.9 313.667 58.775 355.221 58.775 355.221 46.096 300.023 46.096" fill="#231f20"/>
    <polygon points="391.191 112.491 404.217 112.491 404.217 68.699 444.529 112.491 455.691 112.491 455.691 46.096 443.289 46.096 443.289 91.647 401.975 46.096 391.191 46.096 391.191 112.491" fill="#231f20"/>
    <path d="M550.582,67.459s-4.342-8.683-26.049-9.303c0,0-26.668-.208-25.428,21.913,1.24,22.121,25.717,20.881,25.717,20.881,0,0,22.658-.621,25.76-8.062v14.023s-5.008,5.581-25.76,7.131c0,0-39.361,1.172-39.361-31.078,0,0-2.48-37.764,36.592-36.867,0,0,21.707-.344,28.529,5.858v15.505Z" fill="#231f20"/>
    <polygon points="585.934 46.096 599.578 46.096 599.578 74.282 634.928 74.282 634.928 46.096 647.953 46.096 647.953 112.491 635.549 112.491 635.549 86.065 598.957 86.065 598.957 112.491 585.934 112.491 585.934 46.096" fill="#231f20"/>
    <polygon points="700.67 85.445 700.67 112.491 714.312 112.491 714.312 85.445 745.322 46.096 729.197 46.096 707.49 73.662 687.025 46.096 670.279 46.096 700.67 85.445" fill="#231f20"/>
  </g>
</svg>