<?xml version="1.0" encoding="UTF-8"?>
<svg id="Layer_1" xmlns="http://www.w3.org/2000/svg" version="1.1" viewBox="0 0 226.771 226.771">
  <!-- Generator: Adobe Illustrator 29.6.1, SVG Export Plug-In . SVG Version: 2.1.1 Build 9)  -->
  <path d="M222.238,0H4.538C2.031,0,0,2.032,0,4.532v217.705c0,2.5,2.03,4.534,4.535,4.534h217.698c2.508,0,4.539-2.034,4.539-4.534V4.532c0-2.5-2.031-4.532-4.533-4.532Z" fill="#e41b13"/>
  <g>
    <path d="M46.488,138.625c0,.501.406.905.906.905h7.711c.5,0,.905-.404.905-.905v-50.303c0-.5-.405-.906-.905-.906h-7.711c-.5,0-.906.406-.906.906v18.354c0,.502-.407.904-.907.904h-19.502c-.5,0-.907-.402-.907-.904v-18.354c0-.5-.405-.906-.908-.906h-7.711c-.5,0-.906.406-.906.906v50.303c0,.501.405.905.906.905h7.711c.503,0,.908-.404.908-.905v-21.525c0-.501.407-.909.907-.909h19.502c.5,0,.907.408.907.909v21.525Z" fill="#fff"/>
    <path d="M75.696,96.932c0-.502.405-.908.907-.908h23.584c.501,0,.906-.403.906-.905v-6.796c0-.5-.405-.907-.906-.907h-33.107c-.5,0-.907.407-.907.907v50.303c0,.501.407.905.907.905h33.107c.501,0,.906-.404.906-.905v-6.8c0-.496-.405-.905-.906-.905h-23.584c-.501,0-.907-.404-.907-.904v-12.916c0-.501.405-.909.907-.909h19.502c.503,0,.908-.404.908-.905v-6.798c0-.5-.405-.907-.908-.907h-19.502c-.501,0-.907-.405-.907-.904v-9.745Z" fill="#fff"/>
    <path d="M195.625,87.417c.499,0,1.044.405,1.221.905l17.399,50.303c.169.501-.097.905-.599.905h-7.934c-.504,0-1.047-.404-1.221-.905l-2.801-8.311c-.172-.498-.72-.907-1.221-.907h-18.631c-.501,0-1.044.409-1.221.907l-2.801,8.311c-.172.501-.72.905-1.218.905h-7.936c-.502,0-.768-.404-.597-.905l17.4-50.303c.174-.5.719-.905,1.223-.905h8.935ZM197.503,121.024c.501,0,.768-.407.594-.907l-6.647-19.518c-.082-.235-.171-.353-.291-.353-.123,0-.216.118-.292.353l-6.649,19.518c-.172.5.092.907.591.907h12.695Z" fill="#fff"/>
    <path d="M133.68,138.625c-.502,0-1.059-.403-1.244-.908l-12.787-34.696c-.169-.468-.276-.443-.276.056v35.548c0,.501-.404.905-.905.905h-7.708c-.503,0-.91-.404-.91-.905v-50.303c0-.5.407-.906.91-.906h11.331c.501,0,1.059.406,1.243.906l12.495,34.259c.107.286.184.367.308.367s.197-.081.302-.367l12.495-34.259c.189-.5.747-.906,1.246-.906h11.334c.499,0,.906.406.906.906v50.303c0,.501-.407.905-.906.905h-7.708c-.507,0-.908-.404-.908-.905v-35.548c0-.499-.105-.524-.279-.056l-12.782,34.696c-.189.505-.747.908-1.246.908h-4.909Z" fill="#fff"/>
  </g>
</svg>