<?xml version="1.0" encoding="UTF-8"?>
<svg id="Layer_1" xmlns="http://www.w3.org/2000/svg" version="1.1" viewBox="0 0 192.756 192.756">
  <!-- Generator: Adobe Illustrator 29.6.1, SVG Export Plug-In . SVG Version: 2.1.1 Build 9)  -->
  <polygon points="0 0 192.756 0 192.756 192.756 0 192.756 0 0 0 0" fill="#fff" fill-rule="evenodd"/>
  <polygon points="2.835 96.09 14.08 96.09 14.08 100.18 10.604 100.18 10.604 107.029 23.281 107.029 23.281 100.18 19.703 100.18 19.703 96.09 31.153 96.09 31.153 100.18 27.473 100.18 27.473 120.32 31.153 120.32 31.153 124.307 19.703 124.307 19.703 120.32 23.281 120.32 23.281 111.016 10.604 111.016 10.604 120.32 14.08 120.32 14.08 124.307 2.835 124.307 2.835 120.32 6.413 120.32 6.413 100.18 2.835 100.18 2.835 96.09 2.835 96.09" fill="#ec6608" fill-rule="evenodd"/>
  <polygon points="137.373 96.09 160.478 96.09 160.478 103.962 156.593 103.962 156.593 100.18 145.348 100.18 145.348 106.927 154.958 106.927 154.958 110.914 145.348 110.914 145.348 120.32 156.491 120.32 156.491 114.901 160.58 114.901 160.58 124.307 137.373 124.307 137.373 120.32 141.156 120.32 141.156 100.18 137.373 100.18 137.373 96.09 137.373 96.09" fill="#ec6608" fill-rule="evenodd"/>
  <polygon points="36.367 96.09 59.574 96.09 59.574 103.962 55.587 103.962 55.587 100.18 44.341 100.18 44.341 106.927 53.951 106.927 53.951 110.914 44.341 110.914 44.341 120.32 55.485 120.32 55.485 114.901 59.574 114.901 59.574 124.307 36.367 124.307 36.367 120.32 40.15 120.32 40.15 100.18 36.367 100.18 36.367 96.09 36.367 96.09" fill="#ec6608" fill-rule="evenodd"/>
  <polygon points="144.121 92.308 152.402 92.308 154.446 94.761 146.37 94.761 144.121 92.308 144.121 92.308" fill="#ec6608" fill-rule="evenodd"/>
  <path d="M183.174,108.154c-2.863-.716-4.805-.613-7.77-1.534-2.556-.92-3.067-2.454-3.067-3.476,0-1.124,1.124-3.885,5.214-3.885s6.85,2.76,6.952,5.112h3.987v-8.281h-3.885v1.84l.204.511v.102-.102c-.102,0-.204-.307-.613-.613v-.102c-1.125-1.022-3.476-2.249-6.952-2.249-4.192,0-9.099,2.658-9.099,7.667,0,4.907,3.476,6.543,6.543,7.361,2.965.818,4.498.818,7.054,1.534,2.453.613,4.089,2.147,4.089,4.396,0,2.045-1.329,4.805-6.645,4.805-5.214,0-7.361-2.863-7.974-6.85h-3.783v9.916h3.885v-1.84h0l-.102-.511s.102.307.613.613v.102c1.942,1.534,4.6,2.556,7.872,2.556,3.783,0,10.223-1.942,10.223-8.69,0-4.907-2.556-7.156-6.747-8.383h0Z" fill="#ec6608" fill-rule="evenodd"/>
  <polygon points="128.275 120.32 128.275 100.18 132.057 100.18 132.057 96.09 121.834 96.09 114.984 112.652 114.882 113.47 114.678 112.652 107.93 96.09 97.605 96.09 97.605 100.18 101.387 100.18 101.387 120.32 97.605 120.32 97.605 124.307 109.157 124.307 109.157 120.32 105.579 120.32 105.579 101.815 105.579 100.589 105.886 101.509 113.757 120.32 116.007 120.32 123.879 101.509 124.083 100.487 124.185 101.611 124.185 120.32 120.607 120.32 120.607 124.307 132.057 124.307 132.057 120.32 128.275 120.32 128.275 120.32" fill="#ec6608" fill-rule="evenodd"/>
  <path d="M45.875,85.254h-3.885v-1.022h2.863c.102.205.715.716,1.022,1.022h0Z" fill="#ec6608" fill-rule="evenodd"/>
  <path d="M143.507,85.254c0-.409.409-.818.92-1.022h2.045v1.022h-2.965Z" fill="#ec6608" fill-rule="evenodd"/>
  <path d="M79.305,85.969c-1.738.818-3.885.715-5.623,0h-20.344c-1.943.818-4.192.818-6.134,0h-5.214v1.942h104.482v-1.942h-67.167Z" fill="#ec6608" fill-rule="evenodd"/>
  <path d="M54.565,85.254c.307-.204,1.022-.92,1.125-1.022h15.744c.204.307.716.818,1.022,1.022h-17.891Z" fill="#ec6608" fill-rule="evenodd"/>
  <path d="M76.545,84.64c2.658,0,4.907-2.249,4.907-4.907,0-2.76-2.249-5.01-4.907-5.01-2.76,0-5.009,2.249-5.009,5.01,0,2.658,2.249,4.907,5.009,4.907v1.022c-3.374,0-6.032-2.658-6.032-5.93,0-3.374,2.658-6.032,6.032-6.032,3.271,0,5.929,2.658,5.929,6.032,0,3.271-2.658,5.93-5.929,5.93v-1.022h0Z" fill="#ec6608" fill-rule="evenodd"/>
  <path d="M57.018,78.915c0-3.68-3.067-6.747-6.748-6.747-3.783,0-6.747,3.067-6.747,6.747,0,3.783,2.965,6.748,6.747,6.748,3.681,0,6.748-2.965,6.748-6.748h-1.125c0,3.169-2.556,5.725-5.623,5.725-3.169,0-5.725-2.556-5.725-5.725s2.556-5.623,5.725-5.623c3.067,0,5.623,2.454,5.623,5.623h1.125Z" fill="#ec6608" fill-rule="evenodd"/>
  <path d="M79.714,83.107l-2.045-2.351v-.102c.102-.102.102-.204.204-.307h0l3.067.818c.102,0,.307.102.307.204,0-.102.102-.511.204-.716-.102.102-.307.102-.511.102l-2.862-.818c-.102,0-.102-.102-.102-.102v-.511l2.965-1.124s.307,0,.307.102c0-.102-.204-.613-.204-.715,0,.102-.205.307-.307.307l.204-.102-3.067,1.125c0,.102,0,0-.102,0,0-.102-.102-.204-.205-.204,0-.102-.102-.204,0-.204l1.636-2.556c.102-.102.307-.204.409-.204-.102,0-.511-.307-.715-.409.102,0,.102.307,0,.409l-1.636,2.556h-.204s-.204-.102-.307-.102c0,0-.102,0-.102-.102l-.102-2.965c0-.204,0-.409.204-.409h-.818c.102,0,.204.307.204.409l.102,2.965c0,.102-.102.102-.102.102,0,0-.204.102-.307.204,0,0-.102,0-.102-.102l-1.943-2.351c-.102-.102-.102-.307-.102-.409-.102.102-.511.409-.613.511.102,0,.307.102.409.204l1.943,2.351v.102c-.102,0-.205.204-.205.307,0,0-.102.102-.204.102l-2.862-.818c-.205-.102-.307-.204-.307-.307,0,.102-.205.613-.205.716,0,0,.307-.102.409,0l2.862.716c.102,0,.102.102.102.102v.511l-2.862,1.227c-.102,0-.307.102-.307,0,0,.102.102.511.204.716,0-.102.204-.307.307-.307l2.76-1.227c.102,0,.102.102.102.102.102,0,.205.102.205.204.102,0,.102.102.102.102l-1.738,2.556c-.102.102-.204.204-.307.204.102.102.511.409.613.409-.102,0,0-.307,0-.409l1.738-2.453c0-.102.102-.102.102-.102.102.102.204.102.307.102s.102,0,.102.102l.205,3.067c0,.102-.102.307-.205.307h.818c-.205,0-.205-.204-.205-.409l-.204-2.965c0-.102.102-.102.102-.102.102,0,.307-.102.409-.205,0,0,.102,0,.102.102l2.045,2.249c0,.102.102.306.102.409.102-.102.409-.409.511-.511-.102.102-.307-.102-.307-.102h0Z" fill="#ec6608" fill-rule="evenodd"/>
  <path d="M50.066,75.03c2.862,0,5.725.307,7.361.818.204,0,.204.204,0,.307-1.738.409-4.6.715-7.258.715-2.658.102-5.521,0-7.361-.409-.204,0-.204-.205,0-.205,1.636-.613,4.396-1.125,7.259-1.227v-.511c-3.067.102-6.134.818-8.69,1.738-.307.102-.307.307,0,.307,2.863.716,5.827.818,8.792.716,2.862-.102,5.93-.307,8.69-1.125.409-.102.307-.307.102-.307-2.658-.818-5.725-1.329-8.894-1.329v.511h0Z" fill="#ec6608" fill-rule="evenodd"/>
  <path d="M80.43,73.19c-.716.204-1.943.613-2.556.613-.511,0-3.067-.102-4.805,0-2.351.102-2.556.409-2.658.204-.511-.818-.92-2.045-1.738-2.76-4.805.818-9.508.102-13.801-1.431v-.613c.307.102.511.102.716.102-.716-1.022-1.942-1.329-2.658-2.454-.409-.307-.511-.92-.92-1.227.102,1.125-.818,1.943-.92,2.862.613.205,1.431.205,1.738.102.409-.102.92,0,1.125.307.307.102.511.307.92.307v.613c-.511-.102-.613-.204-1.022-.409-.511.205-.92.102-1.124-.102-.102-.102-1.125-.102-1.534-.102-1.329,0-2.76.511-3.476,1.636-.307.613-.204,1.329.102,1.84.204.307,1.124,1.636,1.738,2.045l-.818.205c-1.227-1.125-2.147-2.147-1.942-3.476.613-2.862,3.271-2.453,3.987-3.68.511-1.125.715-4.396.102-5.316-1.738-.716-3.885-1.636-4.294-3.68-.102-.511.102-1.125.613-1.227.92-.204,1.533.307,2.249.613.307-.204-.307-.92.409-.92.92,0,1.533,1.84,1.84,1.943l-.102.715c-.613-.204-2.863-1.431-3.067-1.533-.409-.205-.92-.511-1.227-.102-.409.511.102,1.125.409,1.636,4.805,5.009,12.779-.307,17.993,3.271.102-.307,0-.409-.204-.511-3.578-3.374-9.303-1.636-13.904-2.76l.102-.715c5.725,1.431,13.291-.92,16.255,5.623,1.942,2.76,3.987,7.156,8.178,7.258,3.374.102,5.623-1.227,7.259-3.68,2.249-4.089,3.578-8.792,7.565-11.552.409-.205.613,0,.409.102-1.943,1.943-3.681,4.498-4.601,6.645,1.534,5.827,4.907,4.6,5.725,4.498-.204-2.147,0-8.485,4.601-10.019,1.022-.818,4.703-3.169,9.508-1.125-3.578,3.374-5.725,8.179-6.441,11.552l-3.987,1.125c.307-.613.307-1.636.204-2.76-.409.204-.818.511-1.738,1.022-.409.102-.102-.511-.102-.511,0-.204,1.022-.613,1.84-1.124-.307-2.351-.511-5.418,1.431-7.361-3.987,1.329-2.862,9.712-2.454,10.734-1.124.511-2.658.511-2.658.511l-.204-1.431c-1.738.613-4.703.204-6.032-4.396-1.431,2.965-2.658,7.667-6.032,8.894h0Z" fill="#ec6608" fill-rule="evenodd"/>
  <path d="M142.792,60.718c-.205-.205-.307-.307-.511-.307-.102-.102,0-.205.102-.205.102-.102.307,0,.409.205.102.102.102.307,0,.307h0Z" fill="#ec6608" fill-rule="evenodd"/>
  <path d="M51.293,80.449l2.147,2.454c.204.204.204.511.102.613.307-.102.716-.613.92-.818-.102.102-.511.102-.613-.102l-2.249-2.454v-.204l.102-.102c0-.102.102-.102.102-.102l3.169,1.124c.307.204.409.409.409.511.102-.204.307-.818.409-1.022-.102.102-.409.205-.613.102l-3.169-1.125q-.102,0-.102-.102v-.204c0-.102.102-.102.102-.102l3.271-.511c.409-.102.613.102.613.204,0-.204-.102-.92-.102-1.124,0,.102-.205.409-.613.511l-3.169.511c-.102,0-.102-.102-.102-.102-.102-.102-.102-.204-.205-.307v-.102l2.556-2.147c.307-.205.613-.205.715-.102-.204-.204-.613-.716-.818-.92.102.102,0,.409-.204.716l-2.454,2.045q-.102.102-.102,0c-.102,0-.204,0-.306-.102,0,0-.102-.102,0-.102l1.124-3.169c.102-.307.409-.409.511-.409-.204-.102-.92-.409-1.125-.409.102,0,.307.409.204.715l-1.124,3.067c0,.102-.102.102-.102.102h-.307l-.102-.102-.613-3.271c0-.409.204-.613.204-.613-.204,0-.818.102-1.124.205.102,0,.409.204.511.511l.613,3.169q0,.102-.102.204c-.102,0-.204.102-.307.102h-.102l-2.249-2.454c-.204-.307-.204-.613-.102-.613-.205.102-.716.511-.818.716.102,0,.409,0,.613.204l2.249,2.454v.102q-.102.102-.205.204h-.102l-3.067-1.124c-.307-.102-.511-.409-.409-.511-.204.307-.306.92-.409,1.125.102-.102.409-.205.715-.102l3.067,1.022v.511l-3.271.613c-.307,0-.613-.204-.613-.307,0,.307.102,1.022.205,1.227,0-.102.102-.409.511-.511l3.169-.613s.102,0,.102.102,0,.102.102.205v.102l-2.556,2.045c-.307.307-.613.205-.613.102,0,.307.511.818.613.92,0-.102,0-.409.204-.613l2.658-2.045q0-.102.102,0s.102.102.204.204q.102,0,.102.102l-1.124,3.067c-.102.307-.409.511-.511.409.204.102.818.409,1.124.409-.205,0-.307-.307-.205-.613l1.125-3.169s0-.102.102-.102c.102.102.205.102.307.102,0,0,.102,0,.102.102l.613,3.169c0,.409-.204.613-.307.716.307,0,.92-.204,1.124-.307-.102.102-.409-.204-.409-.409l-.613-3.271v-.102c.102,0,.204-.102.307-.102q.102-.102.204,0h0Z" fill="#ec6608" fill-rule="evenodd"/>
  <path d="M141.361,61.127c-.102-.102,0-.204,0-.307.102-.307.204-.307.204-.613-.511-.409-.613-1.227-.307-1.431.307-.307,1.329.102,1.329.102.92-.716,1.227-1.227,1.738-1.534.715,0,2.147,1.329,2.147,2.147-.204.307-.715.818-1.534,1.84.307.715.307,1.227-.204,1.636-.102,0-.307,0-.511-.204.102,1.022,1.227,1.636,1.636,2.453,0,1.636,1.738,3.68-.204,5.01-.409.204-.818.511-1.022.92.306,1.636.92,3.374,1.227,5.112l-1.942.102c-.204.613-.818,1.738-.613,2.351,0,0-.102-.102.102,0,.307.409.409,3.783.307,4.089,0,.409.307.409.102,1.125-.204.102-1.022.613-1.124.92-.511.511-1.942.613-1.942.409,0-.511,1.022-1.124,1.227-1.738.205-2.454,0-4.907-1.329-6.85-.511-.307-.92.511-1.227.92.511,1.534,1.431,3.169,1.329,4.907,0,.511.613,1.227.307,1.943l-1.636.818h-5.929c-.204-.307-.613-.613-.511-1.022h5.316c0-.204.511-.102,1.022-.92,0-2.454-2.556-6.032-2.147-7.259.511-1.534,1.227-2.76,2.045-4.805l.409-.102c-.92,3.067-2.249,4.601-2.045,5.521.102.511.307.92.613,1.534l.205.613c.102.307.409,1.022.613,1.227.307,0,.511-.205.716-.307,0-.409-.307-.92-.511-1.227l-.818.307-.205-.613c.613,0,1.022-.409.511-.716,1.432-.715-.306-.511.205-.818.818-.409,1.227-1.943,1.329-2.862,0-.205.102-.307.307-.307.613,1.636.613,3.783,1.636,5.316v.511c-.102.409,0,.92.204,1.227.92.102.818-.102.613-1.227-.204,0-.613-.102-.818,0v-.511c.102-.102.511,0,.613-.102-.307-.511-.307-.92-.307-1.431,0-.307.204-.92.409.409.307.102.818-2.351.92-3.169-1.942.409,0-1.84-1.431-1.942l.716-1.227c0-.409-.307-.716-.818-.511l-.409-.511c-.307-.102-.613-.613-1.022-.92-.307.307-.818.92-.92,1.329-.102.102.205.204.307.102.307-.307.511.306,1.022.204.204-.204.818-.307.613-.716l.409.511c-.409.204-.409.92-.409,1.431-.716,1.329-.409-.716-1.227-.716-.511.307-.716-.511-1.022-.409l-.409.102c0-.715.102-1.534,0-2.351.613-3.476,1.329-3.374,1.431-4.396,0-.409,1.534-1.227,1.431-1.636.102,0,.307.307.307.409-.102.511-1.124.511-1.022,1.636.613-1.124,2.351-1.022,2.453-2.351-.307-.818.409-.307.409-1.125-.204-.204-.818-.818-.92-1.125-.102-.102.307-.716-1.125-.716-.102.102-.205.716-.409,1.022-.102.102-.307.307-.204.409,0,.102.204.204.204.613-.102.409,0,.613.204.818.818.409,1.431,0,.511.511,0,.102,0,.204-.102.307,0-.102-.307-.511-.409-.613-.102,0-.613-.307-.511-.716.102-.409.102-.613-.102-.818h0Z" fill="#ec6608" fill-rule="evenodd"/>
  <path d="M113.86,57.242c.102.716-.307,1.227-.307,1.943.716,1.738,0,3.067.204,4.703-.818-.511-1.022-1.84-1.329-3.271-.204-1.227.102-1.636.204-2.965l1.227-.409h0Z" fill="#ec6608" fill-rule="evenodd"/>
  <path d="M111.713,57.753c-.102,2.147-.409,3.169,1.125,6.543-3.885,1.636-7.054,2.76-11.655,4.089.511-3.271,3.68-9.508,6.338-11.246,2.249.613,4.192.613,4.192.613h0Z" fill="#ec6608" fill-rule="evenodd"/>
  <path d="M101.694,81.778c-1.022.307-1.022.92-.409,1.534.409.306.818.818.818.92h-6.543c0,.307.307.511.511,1.022h36.19c.204-.511-.409-1.124-.613-1.738-2.556-.92-2.556-3.271-2.658-5.929,0-.102-.204-.409-.204-.92-.307-.409-2.045-4.601-1.227-7.974l.613-1.125c.511-.716-.102-1.125.307-1.943l7.565-1.431c.102-.102.102-.409-.102-.511h0c0-.102.102,0,0,0l-7.361,1.329c.409-1.84-1.227-2.454-.511-3.987,1.022,1.125,3.783,3.067,5.214,3.374l.715-.102c-1.84-.818-5.111-2.76-6.952-5.316-.205,0-.409-.204-.613-.307,0,.205.511.818.409.92,0,0-1.227.818-3.476-.204-.716,1.431-8.69,5.009-8.69,5.009.307,2.249,1.329,3.681,2.454,4.907.102.204-.307-.205,0,0,1.636,1.329,3.578,1.942,5.725,2.351.409,1.227,1.942,5.214,2.045,5.827.204.613.511.613.511.613.205.204.92,1.534.92,2.045l.204,2.147c.102.511.716.102.818.613l-.307,1.329h1.534c-.818-.715-.307-1.942-1.329-2.453-.102-1.227-.204-2.147-.716-2.658-.409-1.227-1.738-4.498-2.556-7.463l.511-.716c-2.249.613-3.987-.204-6.032-1.329-1.534-.716-.613-.102-.102-.409,2.454,1.124,3.681.818,5.52.613.205.307.613.613.613,1.125l-.511.716c.511-.511.92-.205,1.227,1.227.409,1.227.818,2.147,1.125,3.169.409,1.022.716,2.351,1.022,3.067,0,0,.307,0,.511.409.716,2.249.92,2.556.818,3.578.205.818,1.329.102,1.227,1.124h-26.887c.409-1.636-.511-3.067,0-4.6-1.022-1.636-3.578-2.862-3.169-5.112,1.227-1.738,5.214-3.476,4.294-5.52,3.68-1.84,5.52,1.227,8.894.92,1.227,0,2.556-.205,3.68-.511-1.431-1.125-2.658-2.862-3.374-4.396-7.156,2.965-14.108,5.316-21.776,6.85l-.613-.204c-.715.102-12.37,2.76-11.961,3.271-4.396.307-9.508,2.147-10.632,2.76-.511.307-.613.511,0,.716,4.703,1.227,8.588.307,15.846-2.454l-.511-.409c-.409.307-6.339,2.351-8.69,2.658-2.454.307-4.601.204-5.623-.102q-.307-.102-.102-.204c4.601-1.84,13.495-3.476,14.722-1.943.715.205,1.227.613,1.636,1.125.409.511,1.227.306,1.84.204.818-.204.92-.92.92-1.636l-.92-.102c-.409,0-2.045.204-2.249.409-.613-.511-1.227-1.022-2.045-1.227,1.636-.715,4.294-1.329,5.725-1.431-1.329.92-.715,2.045-1.431,2.249l.92.102c0-.409,0-.715.204-.92.92-2.249,4.805-2.556,6.747-3.067,0,0-1.022,1.329-1.738,1.636-.204,3.169-1.329,5.93-1.534,9.099.92,0,.92,1.022,1.125,1.636-.307.511-.716,0-1.125.102-1.431-.716.307-1.943-.818-2.965.613-2.556,1.534-5.112,1.534-7.77-.409,0-.511.409-.716.715-.307,2.556-1.022,4.907-1.636,7.259.204.204.716.409.716.818-.818.511,0,1.431-.307,2.045h-9.303l-.92,1.022h14.108l.102-.511c-2.045-2.249-1.329-5.521-.307-7.974l2.454-3.272c2.045-.818,3.271-3.271,5.418-4.09,0,1.125-1.329,1.534-2.045,2.147-.818,1.738-3.169,1.943-3.476,3.885.92,1.022,2.249,1.738,3.374,2.658,1.125.716.818,2.249,1.636,2.965.205.204,0,.613-.204.716h0Z" fill="#ec6608" fill-rule="evenodd"/>
  <path d="M117.336,44.872c-.409.613-1.227,1.022-.715,2.147-1.022.613-.716,1.534-.409,2.045-.511.511-.818,1.534-.102,2.147-.818.92.204,1.738.511,2.045-.409.92,0,1.636,0,1.636h0c-.102.613-1.227,1.636-1.636,1.943-.613,1.534-.409,4.703-.307,6.85,2.863-1.431,5.725-2.76,7.974-4.703-1.943-1.329-3.476-4.498-5.623-4.294-.204-2.249-1.125-6.236,2.045-10.326.409-.205,1.022-.307,1.329-.511-1.329-.204-3.067.613-4.294-.102,0,0,.613,1.022,1.227,1.124h0Z" fill="#ec6608" fill-rule="evenodd"/>
  <path d="M124.185,43.849c0,.102.409.307.409.307,0,0,.409-.102.409-.204s.102-.409,0-.511c-.102,0-.409-.102-.613-.102,0,0-.205.409-.205.511l-.204.205-1.431-1.022.204-.204s.613-.613.92-.613c.307-.102,1.943,0,2.351.307.307.307.511.511.92,1.227,1.125.818,2.965.818,4.089,1.738-.204.307.307.818-.102,1.022-.307.102-1.022-.102-1.125.102l-.102.613-.409-.102s.204-.715,0-.715c-.204-.102-.613-.307-.818-.205-.102.102,0,.205.102.409,0,.204.511.307.818.204l.409.102.511.102c-.205.511-.307.715-1.022.511-.204.511.92.92,1.022,1.125-.102.205-.307.409-1.022,0,0,0-2.965,2.863-4.703,3.681-1.84.818-.102-.409-.102-.409.818-.307,4.396-3.374,4.396-3.68-.102-.205-.307-.613-.307-.92-.511-.205-1.534.102-1.943.409.204.92,1.84,5.521.613,12.472l-.204-.204c1.124-6.747-.716-12.166-.716-12.166-1.022.409-1.738.102-2.249.204-.205,4.192,3.169,4.805,1.942,10.326-3.578-.613-6.134-5.01-8.178-4.601-.102-.716-.818-1.942-.102-2.351-.204-.613-.409-1.431.511-1.943-.307-.818-.409-1.533.511-2.147-.205-.511-.102-1.636,1.022-1.84.102-.92.511-1.636,1.329-1.943-.92-.409-1.125-1.329-1.125-1.329.818.511,1.534.818,2.76.613l1.431,1.022h0Z" fill="#ec6608" fill-rule="evenodd"/>
  <path d="M89.426,120.32l-.102-5.725c0-1.738-1.124-3.578-2.658-4.6-.307-.102-.818-.307-1.227-.307.409,0,.92,0,1.431-.205h0c1.534-.716,3.374-2.658,3.374-6.032,0-2.556-1.022-4.498-2.863-5.828-1.738-1.227-3.68-1.534-5.725-1.534h-15.744v4.09h3.578v20.14h-3.578v3.987h11.246v-3.987h-3.578v-8.894h7.77c2.658.102,3.68,1.84,3.68,3.272l.307,9.61h7.667v-3.987h-3.578ZM82.168,107.541h-8.588v-7.361h8.076c.92,0,1.942,0,2.76.307,1.022.511,1.943,1.636,1.943,3.374,0,2.147-1.943,3.68-4.192,3.68h0Z" fill="#ec6608" fill-rule="evenodd"/>
  <path d="M64.481,134.326c3.681,0,5.316,2.045,5.316,4.6s-1.738,4.498-5.623,4.498h-2.658v7.054h-2.351v-16.153h5.316ZM61.516,141.38h2.863c1.738,0,2.965-.92,2.965-2.556,0-1.227-.716-2.454-2.863-2.454h-2.965v5.009h0Z" fill="#ec6608" fill-rule="evenodd"/>
  <path d="M88.097,150.478h-2.556l-2.045-4.805h-7.054l-1.942,4.805h-2.556l7.156-16.255h1.636l7.361,16.255h0ZM77.363,143.527h5.214l-2.76-6.339-2.454,6.339h0Z" fill="#ec6608" fill-rule="evenodd"/>
  <polygon points="114.984 150.478 112.633 150.478 112.633 134.326 114.984 134.326 114.984 150.478 114.984 150.478" fill="#ec6608" fill-rule="evenodd"/>
  <path d="M131.853,137.801c-1.534-1.227-2.965-1.636-4.192-1.636-1.534,0-2.76.715-2.76,1.84,0,3.169,7.565,3.067,7.565,8.281,0,2.454-2.045,4.294-4.907,4.294-1.84,0-3.476-.409-4.907-1.431v-2.965c1.329,1.534,2.965,2.351,4.703,2.351,1.942,0,2.862-1.125,2.862-2.045,0-3.272-7.667-3.681-7.667-8.076,0-2.658,2.147-4.294,5.316-4.294,1.431,0,2.658.307,3.987,1.125v2.556h0Z" fill="#ec6608" fill-rule="evenodd"/>
  <path d="M105.068,148.536c-.307-.409-.613-.818-.92-1.329-1.227-2.045-2.249-3.476-3.783-4.396,1.84-.715,2.862-2.147,2.862-3.987,0-2.76-2.147-4.498-5.623-4.498h-4.192v16.153h2.454v-7.054h1.022c1.227,0,2.249.409,4.396,3.681l2.249,3.374h2.76l-1.227-1.942h0ZM97.4,141.38h-1.534v-5.112h1.534c2.351,0,3.272.92,3.272,2.454.102,1.329-.613,2.658-3.272,2.658h0Z" fill="#ec6608" fill-rule="evenodd"/>
</svg>