<?xml version="1.0" encoding="UTF-8"?>
<svg id="Layer_1" xmlns="http://www.w3.org/2000/svg" version="1.1" viewBox="0 0 485 198.5">
  <!-- Generator: Adobe Illustrator 29.6.1, SVG Export Plug-In . SVG Version: 2.1.1 Build 9)  -->
  <path d="M272.584,167.249c.609-1.796,1.225-3.59,1.825-5.389,3.489-10.442,7.001-20.878,10.429-31.34.441-1.348.981-1.932,2.479-1.853,2.631.139,5.276.027,7.914.042,2.381.014,1.906-.211,2.626,1.906,2.929,8.611,5.798,17.243,8.692,25.866,1.187,3.537,2.383,7.072,3.634,10.785.965-.628.998-1.527,1.237-2.296,3.501-11.278,6.979-22.563,10.501-33.834.838-2.684.214-2.221,3.037-2.255,3.038-.038,6.077-.015,9.116-.004.695.002,1.391.059,2.286.099-1.189,3.568-2.311,6.965-3.454,10.354-5.097,15.12-10.2,30.239-15.301,45.358q-.76,2.252-3.095,2.257c-2.478.003-4.957.009-7.436-.002-3.156-.013-2.44.239-3.313-2.311-3.902-11.397-7.737-22.818-11.598-34.23-.216-.639-.453-1.269-.745-2.083-.792.843-.906,1.738-1.181,2.54-3.874,11.323-7.731,22.651-11.596,33.977q-.718,2.104-2.994,2.109c-2.639.004-5.278.005-7.916,0-2.143-.004-2.153-.007-2.817-2.003-3.554-10.675-7.101-21.352-10.654-32.027-2.393-7.192-4.801-14.38-7.173-21.579-.243-.738-.724-1.447-.471-2.459,4.267,0,8.574.011,12.881-.011.689-.004,1.011.309,1.169.92.099.386.227.764.342,1.145,3.486,11.449,6.972,22.898,10.459,34.348.208.681.435,1.356.653,2.034.154-.022.308-.044.462-.066Z" fill="#12024e" fill-rule="evenodd"/>
  <path d="M400.108,77.882c-.268.285-.556.552-.799.856-9.37,11.745-25.11,11.072-34.921,3.982-5.827-4.211-9.386-9.931-10.913-16.917-1.668-7.63-1.207-15.111,2.08-22.257,6.11-13.285,20.556-18.261,32.665-14.558,4.068,1.244,7.453,3.59,10.399,6.617.496.51,1.038.974,1.548,1.449.099-.268-.08.123.193-.043.065-.039.175-.094.175-.141.008-8.308.007-16.615.007-24.722.472-.7.991-.55,1.438-.552,3.597-.016,7.194.035,10.791-.034,1.243-.023,1.661.355,1.636,1.627-.075,3.755-.026,7.514-.026,11.27,0,19.825,0,39.65-.002,59.475,0,3.098.196,2.663-2.707,2.68-3.197.018-6.396-.037-9.593.025-1.125.022-1.562-.293-1.524-1.475.078-2.368.023-4.74.023-7.11-.157-.058-.314-.115-.471-.172ZM400.731,57.958c.093-2.438-.309-4.79-1.113-7.066-2.553-7.234-9.153-11.742-16.756-11.472-7.611.271-13.614,5.058-15.632,12.531-.996,3.69-1.018,7.427-.132,11.139,2.74,11.476,15.71,16.849,25.509,10.514,5.636-3.645,7.995-9.097,8.124-15.645Z" fill="#12024e" fill-rule="evenodd"/>
  <path d="M24.437,37.262c1.093-.615,1.462-1.356,1.978-1.948,4.359-4.988,9.844-7.499,16.462-7.499,2.482,0,4.952.212,7.344.937,7.438,2.255,11.72,7.38,13.444,14.823.454,1.958.607,3.946.607,5.949.002,11.673,0,23.345.006,35.018,0,2.318.012,2.074-2.08,2.074-2.958,0-5.916.021-8.874-.006-3.081-.028-2.721.471-2.727-2.853-.016-9.434-.017-18.868.005-28.302.004-1.766-.119-3.518-.375-5.256-.906-6.161-5.208-10.003-11.399-10.225-8.824-.316-14.244,4.965-14.37,14.174-.096,7.034-.021,14.071-.022,21.106,0,3.198.013,6.396-.005,9.594-.01,1.726-.034,1.754-1.659,1.763-3.517.018-7.036-.04-10.553.031-1.18.023-1.601-.38-1.476-1.512.053-.474.008-.958.008-1.438V14.614c0-.4.004-.8,0-1.199-.023-1.901-.048-1.83,1.837-1.824,3.358.01,6.716-.009,10.074.008,1.747.009,1.768.032,1.77,1.877.009,7.035.004,14.071.004,21.106v2.679Z" fill="#0e004d" fill-rule="evenodd"/>
  <path d="M255.658,53.293c.858-5.355-1.899-10.6-7.638-12.361-3.761-1.154-7.57-1.088-11.404-.705-3.762.377-7.388,1.367-10.879,2.782-1.211.491-1.71.226-2.092-.948-.842-2.582-1.717-5.157-2.69-7.691-.413-1.076-.183-1.576.855-2.006,8.044-3.329,16.394-4.749,25.08-4.061,2.551.202,5.076.607,7.526,1.395,8.687,2.795,13.374,8.898,14.637,17.783.291,2.054.403,4.131.397,6.217-.026,10.076-.011,20.152-.011,30.228,0,.479-.025.96-.003,1.439.042.954-.463,1.23-1.336,1.225-3.679-.021-7.357-.032-11.035.005-1.114.011-1.333-.556-1.313-1.496.034-1.595.009-3.19.009-4.744-.728-.304-.955.25-1.263.55-5.46,5.312-12.139,7.147-19.553,6.815-4.217-.188-8.154-1.311-11.829-3.479-10.706-6.315-10.419-23.402.608-29.398,4.705-2.559,9.756-3.477,14.996-3.609,5.057-.127,10.051.441,14.953,1.747.603.161,1.188.514,1.985.31ZM256.155,65.15c0-.239,0-.478,0-.718-.009-2.289-.011-2.282-2.153-2.942-3.768-1.164-7.654-1.586-11.565-1.611-2.624-.017-5.257.282-7.741,1.291-2.294.933-4.18,2.314-5.176,4.682-1.865,4.434-.014,8.946,4.6,10.772,5.457,2.159,10.842,1.553,15.932-1.15,4.05-2.15,6.206-5.618,6.103-10.323Z" fill="#f05e68" fill-rule="evenodd"/>
  <path d="M110.394,27.849c9.172.174,17.915,3.656,24.372,11.775,10.294,12.946,7.856,32.033-5.58,41.689-11.666,8.384-24.294,9.039-36.792,2.121-10.015-5.544-15.079-14.558-14.808-26.12.265-11.333,5.731-19.725,15.46-25.352,4.875-2.82,10.343-4.085,17.348-4.112ZM127.424,57.941c-.299-11.927-9.406-18.648-18.53-18.525-8.966.121-17.574,6.401-17.729,18.366-.137,10.572,8.013,18.731,18.372,18.663,10.319-.068,17.952-7.964,17.887-18.503Z" fill="#f79435" fill-rule="evenodd"/>
  <path d="M356.542,162.603c-.29.564-.108,1.115.017,1.649,1.665,7.153,7.725,12.166,15.076,12.641,6.327.408,11.83-1.474,16.527-5.684.936-.84,1.563-.992,2.56-.069,2.104,1.95,4.332,3.769,6.47,5.607.005.87-.603,1.218-1.021,1.648-7.204,7.407-16.117,10.068-26.201,9.237-7.151-.589-13.499-3.185-18.737-8.198-5.001-4.788-7.769-10.74-8.526-17.542-.978-8.779.925-16.889,6.63-23.822,5.317-6.465,12.263-9.821,20.615-10.25,5.024-.258,9.91.394,14.484,2.591,8.094,3.888,12.555,10.624,14.679,19.101.878,3.505,1.196,7.088,1.021,10.707-.105,2.175-.103,2.192-2.366,2.193-12.876.006-25.753,0-38.63.011-.869,0-1.759-.157-2.597.18ZM386.486,153.384c-.105-2.105-.696-4.145-1.583-6.114-2.372-5.272-6.45-8.273-12.194-8.684-5.578-.399-10.129,1.702-13.393,6.346-1.441,2.051-2.376,4.321-2.897,6.769-.42,1.974-.423,2.003,1.555,2.006,9.016.011,18.03.005,27.046,0,.471,0,.964.082,1.467-.323Z" fill="#5a60aa" fill-rule="evenodd"/>
  <path d="M123.764,162.417c.456,6.571,5.303,12.292,11.777,13.868,6.299,1.533,12.221.519,17.592-3.221.852-.592,1.711-1.204,2.439-1.935.837-.839,1.456-.936,2.384-.069,1.751,1.636,3.634,3.131,5.448,4.701,1.422,1.229,1.427,1.255.166,2.578-3.137,3.293-6.791,5.841-11.088,7.363-8.659,3.067-17.305,2.969-25.709-.775-8.582-3.822-14.029-10.463-16.092-19.645-2.334-10.387-.329-19.892,6.702-28.03,5.043-5.839,11.604-8.893,19.305-9.396,3.932-.257,7.834.004,11.621,1.211,8.557,2.728,14.029,8.597,17.081,16.886,1.709,4.643,2.243,9.467,2.026,14.388-.09,2.048-.1,2.071-2.223,2.073-12.875.008-25.751.004-38.626.004h-2.801ZM123.601,153.488c.743.419,1.559.213,2.337.214,8.319.018,16.639.011,24.959.011,3.485,0,3.296.245,2.484-3.078-1.286-5.259-4.074-9.408-9.433-11.237-10.148-3.463-19.502,3.611-20.347,14.091Z" fill="#f05e68" fill-rule="evenodd"/>
  <path d="M299.38,37.509c.931-1.046,1.495-1.678,2.057-2.311,6.839-7.688,18.521-9.746,27.602-4.856,5.463,2.942,8.359,7.717,9.62,13.619.401,1.875.57,3.785.567,5.715-.018,11.593-.008,23.186-.007,34.78,0,.4-.016.8-.003,1.199.022.724-.357.965-1.033.963-3.917-.011-7.835-.01-11.753-.001-.695.001-1.033-.304-1.026-1,.005-.56-.005-1.119-.005-1.679,0-9.755,0-19.509-.002-29.263,0-2.08-.038-4.155-.631-6.178-1.366-4.659-4.381-7.64-9.194-8.344-9.772-1.43-15.805,4.24-16.145,13.109-.181,4.71-.045,9.434-.047,14.15-.003,5.757.006,11.514-.005,17.27-.004,1.909-.026,1.925-1.979,1.933-3.438.013-6.876-.026-10.314.02-1.086.015-1.701-.251-1.547-1.468.05-.394.007-.799.007-1.199,0-17.43-.003-34.859.003-52.29,0-3.014-.281-2.672,2.699-2.685,2.798-.012,5.597-.021,8.395.002,3.125.026,2.702-.424,2.737,2.854.017,1.676.003,3.353.003,5.659Z" fill="#12024e" fill-rule="evenodd"/>
  <path d="M220.488,178.481c-1.359.567-1.734,1.311-2.24,1.897-7.426,8.617-19.266,8.799-27.001,4.965-6.623-3.282-9.585-9.116-10.419-16.193-.215-1.821-.234-3.672-.238-5.509-.02-10.635-.01-21.27-.01-31.905,0-.16-.001-.32,0-.479.024-2.337.024-2.345,2.363-2.35,3.119-.008,6.237-.016,9.355.003,1.937.011,1.965.032,1.968,1.997.012,8.316-.026,16.633.021,24.948.018,3.19-.249,6.388.34,9.569,1.17,6.309,5.099,9.824,11.487,10.165,7.906.422,13.385-4.24,14.164-12.082.118-1.19.155-2.393.157-3.591.013-9.275.007-18.552.007-27.827,0-.64.029-1.28.004-1.918-.036-.906.352-1.281,1.277-1.275,3.678.027,7.356.035,11.035-.005,1.058-.012,1.442.428,1.365,1.427-.031.396-.003.799-.003,1.198,0,17.432.002,34.863-.002,52.296,0,2.874.22,2.632-2.525,2.638-3.118.008-6.237.018-9.355-.005-1.646-.013-1.693-.042-1.738-1.735-.052-1.966-.012-3.934-.012-6.229Z" fill="#f79435" fill-rule="evenodd"/>
  <path d="M24.867,136.957c.966-1.053,1.892-2.145,2.905-3.151,3.79-3.764,8.352-5.797,13.705-6.032,3.301-.145,6.564.056,9.702,1.163,6.856,2.42,10.789,7.408,12.456,14.346.47,1.954.635,3.944.636,5.949.005,11.758.008,23.517.003,35.275,0,1.964-.022,1.98-1.913,1.987-3.359.013-6.719.017-10.079-.002-1.646-.009-1.681-.036-1.683-1.734-.012-9.919-.008-19.838-.005-29.757,0-2.327-.163-4.638-.829-6.879-1.459-4.912-5.205-7.899-10.33-8.246-2.33-.158-4.623-.019-6.839.853-4.52,1.778-6.915,5.227-7.792,9.855-.297,1.57-.382,3.167-.378,4.775.023,9.679.01,19.357.012,29.036,0,2.298.083,2.102-2.046,2.102-3.2,0-6.399,0-9.599.001-2.118.001-2.042.189-2.042-2.108.002-13.359,0-26.718,0-40.076,0-4.56-.011-9.119.006-13.678.006-1.719.037-1.745,1.676-1.754,3.439-.018,6.879-.018,10.319,0,1.643.009,1.662.035,1.679,1.749.021,2.055.005,4.109.005,6.164.144.054.287.107.43.161Z" fill="#0e004d" fill-rule="evenodd"/>
  <path d="M472.679,34.553c-1.936,3.331-3.692,6.353-5.488,9.444-2.365-1.184-4.528-2.379-6.843-3.246-3.463-1.297-6.987-2.271-10.733-2.141-1.7.059-3.341.389-4.823,1.246-3.539,2.044-3.718,6.059-.376,8.378,1.926,1.337,4.132,2.071,6.327,2.807,3.403,1.141,6.827,2.222,10.227,3.372,1.895.641,3.692,1.518,5.404,2.554,8.811,5.332,10.355,16.757,3.29,24.308-3.015,3.221-6.83,5.008-11.081,5.76-11.285,1.996-21.532-.742-30.949-7.065-.889-.596-1.224-1.045-.485-2.054,1.604-2.191,3.14-4.437,4.595-6.73.662-1.044,1.193-.941,2.086-.325,4.327,2.984,9.046,5.088,14.259,5.925,2.935.471,5.909.613,8.783-.352,2.225-.746,3.977-2.028,4.335-4.606.279-2.017-.358-3.607-2.012-4.8-1.642-1.185-3.505-1.905-5.411-2.502-3.121-.978-6.263-1.891-9.394-2.837-2.452-.741-4.8-1.719-7.069-2.918-10.916-5.77-9.218-18.871-3.472-24.526,3.009-2.962,6.599-4.815,10.671-5.589,10.091-1.918,19.269.728,28.16,5.899Z" fill="#12024e" fill-rule="evenodd"/>
  <path d="M169.026,11.586c.385.89.246,1.618.247,2.325.008,23.416.007,46.833.007,70.249,0,.4-.03.802.004,1.198.078.908-.28,1.278-1.224,1.27-3.836-.034-7.672-.024-11.508-.008-.818.003-1.161-.343-1.117-1.151.031-.558.003-1.118.003-1.678,0-23.177-.007-46.354.008-69.53.002-2.92-.518-2.66,2.666-2.672,3.666-.015,7.332-.004,10.914-.004Z" fill="#12024e" fill-rule="evenodd"/>
  <path d="M201.547,48.907c0,11.669,0,23.339,0,35.008,0,.56-.018,1.12-.002,1.679.019.676-.234,1.026-.967,1.024-3.916-.014-7.832-.014-11.749,0-.713.003-1.013-.314-.998-1.005.012-.559-.006-1.119-.006-1.678V14.157c0-.08,0-.16,0-.24.02-2.568-.244-2.313,2.3-2.321,3.277-.01,6.555.048,9.831-.027,1.245-.028,1.627.349,1.618,1.61-.054,7.593-.026,15.186-.026,22.779v12.948Z" fill="#0e004d" fill-rule="evenodd"/>
  <path d="M95.289,157.624c0,8.639,0,17.277,0,25.916,0,.561-.03,1.121,0,1.68.053.951-.423,1.244-1.309,1.239-3.68-.022-7.359-.028-11.039.004-.997.009-1.514-.315-1.425-1.373.034-.397.004-.8.004-1.199,0-17.437-.001-34.875,0-52.312,0-2.963-.198-2.663,2.75-2.672,2.88-.008,5.759.002,8.639-.002,2.488-.003,2.382-.111,2.38,2.323-.005,8.799-.002,17.598-.002,26.396Z" fill="#5a60aa" fill-rule="evenodd"/>
  <path d="M427.018,179.029c0,2.078-.033,4.157.015,6.234.02.946-.362,1.243-1.268,1.237-4.236-.028-8.473-.029-12.709,0-.964.007-1.231-.427-1.228-1.307.022-4.156.026-8.312-.002-12.469-.006-.954.408-1.241,1.3-1.236,4.236.024,8.473.029,12.708,0,.975-.008,1.212.432,1.196,1.307-.038,2.077-.013,4.156-.013,6.234Z" fill="#12024e" fill-rule="evenodd"/>
</svg>