<?xml version="1.0" encoding="UTF-8"?>
<svg id="Layer_1" xmlns="http://www.w3.org/2000/svg" xmlns:xlink="http://www.w3.org/1999/xlink" version="1.1" viewBox="0 0 283.465 283.465">
  <!-- Generator: Adobe Illustrator 29.6.1, SVG Export Plug-In . SVG Version: 2.1.1 Build 9)  -->
  <defs>
    <linearGradient id="linear-gradient" x1="112.39" y1="60.29" x2="169.587" y2="181.283" gradientUnits="userSpaceOnUse">
      <stop offset="0" stop-color="#8c8c8c"/>
      <stop offset=".331" stop-color="#f2f2f2"/>
      <stop offset="1" stop-color="#000"/>
    </linearGradient>
    <linearGradient id="linear-gradient1" x1="40.851" y1="147.841" x2="252.037" y2="92.845" xlink:href="#linear-gradient"/>
    <linearGradient id="linear-gradient2" x1="245.351" y1="143.757" x2="200.477" y2="123" gradientUnits="userSpaceOnUse">
      <stop offset="0" stop-color="#8c8c8c"/>
      <stop offset=".331" stop-color="#f2f2f2"/>
      <stop offset="1" stop-color="#262626"/>
    </linearGradient>
    <linearGradient id="linear-gradient3" x1="167.146" y1="169.866" x2="112.153" y2="135.404" xlink:href="#linear-gradient2"/>
    <linearGradient id="linear-gradient4" x1="79.347" y1="116.985" x2="27.287" y2="119.185" xlink:href="#linear-gradient2"/>
    <linearGradient id="linear-gradient5" x1="181.496" y1="107.908" x2="113.303" y2="80.044" gradientUnits="userSpaceOnUse">
      <stop offset="0" stop-color="#ccc"/>
      <stop offset=".331" stop-color="#f2f2f2"/>
      <stop offset="1" stop-color="#262626"/>
    </linearGradient>
    <linearGradient id="linear-gradient6" x1="70.996" y1="277.96" x2="212.005" y2="163.773" gradientUnits="userSpaceOnUse">
      <stop offset="0" stop-color="#8c8c8c"/>
      <stop offset=".549" stop-color="#e6e6e6"/>
      <stop offset="1" stop-color="#666"/>
    </linearGradient>
  </defs>
  <g>
    <path d="M262.937,118.543c-.935-34.124-56.06-60.298-123.129-58.461-67.068,1.836-120.68,30.988-119.746,65.112.935,34.124,56.061,60.298,123.129,58.461,67.068-1.836,120.681-30.987,119.746-65.111ZM110.307,77.078c4.756-3.881,11.368-5.932,21.659-6.045,5.567-.069,12.819.161,18.911.348,23.086.709,47.934,3.099,54.966,6.388,3.845,2.005,9.012,4.147,1.266,11.484-2.553,2.418-8.198,5.994-15.62,10.123-9.459,5.262-21.881,11.29-35.283,15.539-10.749,3.408-22.081,5.666-32.713,6.124,0,0-5.568.316-10.654-1.189-5.227-1.547-9.98-5.06-10.275-16.024-.043-4.903.148-9.219.76-13.012,1.101-6.83,3.762-10.942,6.984-13.736ZM55.626,158.103c-4.059.598-8.717-2.522-14.664-7.804,0,0-5.411-4.317-6.953-6.272,0,0-3.385-3.43-5.823-8.392-3.333-7.572-5.16-18.251,8.401-31.964,7.943-8.033,18.56-13.543,27.982-18.18,5.512-2.712,10.948-4.699,15.758-6.214,10.581-3.333,18.601-3.976,21.072-2.167,1.227.77,2.017,2.401,1.369,3.995-1.955,4.812-5.228,10.979-5.228,10.979-7.397,14.024-6.76,13.231-15.167,28.101-8.1,14.326-16.521,28.541-16.521,28.541,0,0-5.727,9.125-10.227,9.377ZM172.648,165.71c-4.756,3.881-11.659,5.869-22.919,6.008-5.567.068-11.56-.124-17.652-.311-23.086-.709-47.488-3.017-54.519-6.306-3.608-1.687-9.084-4.228-1.338-11.566,8.415-7.971,49.807-31.94,84.098-33.418,0,0,21.592-2.847,20.809,17.186.043,4.903-.028,9.247-.64,13.04-1.102,6.829-3.541,11.858-7.84,15.367ZM246.304,139.426c-7.944,8.032-18.561,13.543-27.983,18.18-5.512,2.713-10.948,4.699-15.758,6.214-10.58,3.333-18.601,3.977-21.072,2.167-1.226-.769-2.017-2.4-1.369-3.995,1.956-4.811,5.228-10.979,5.228-10.979,7.396-14.024,6.76-13.23,15.168-28.1,8.099-14.326,16.519-28.541,16.519-28.541,0,0,5.727-9.125,10.227-9.377,4.06-.598,8.717,2.522,14.664,7.804,0,0,5.41,4.317,6.953,6.273,0,0,3.384,3.429,5.822,8.391,3.332,7.572,5.16,18.251-8.4,31.964Z" fill="url(#linear-gradient)" fill-rule="evenodd"/>
    <path d="M259.935,118.176c-.94-32.5-54.679-57.315-120.026-55.423S22.348,92.525,23.289,125.026c.941,32.501,54.679,57.314,120.027,55.423,65.348-1.892,117.56-29.772,116.619-62.273ZM115.792,99.784c.514-17.91,3.792-25.971,23.407-26.398,19.615-.428,47.113,1.405,53.652,4.583,2.654,1.29,6.783,3.525.369,9.363-6.415,5.838-36.575,24.52-61.805,25.65,0,0-16.076,2.549-15.623-13.198ZM64.906,145.685s-4.416,8.069-8.897,8.322c-2.898.164-6.089-1.953-10.856-6.489,0,0-4.405-3.84-5.502-5.334,0,0-2.738-2.751-4.69-7.502-2.671-6.504-3.425-15.977,7.057-27.486,6.325-6.944,14.41-11.705,21.962-15.687,14.139-7.457,27.347-10.509,30.229-8.25.983.661,1.45,2.003,1.097,3.432-.993,4.025-4.432,9.776-4.432,9.776,0,0-6.151,12.499-12.644,24.803-6.492,12.305-13.325,24.416-13.325,24.416ZM166.76,143.546c-.515,17.909-3.792,25.971-23.408,26.397-19.615.428-47.113-1.404-53.651-4.582-2.655-1.291-6.784-3.525-.369-9.363,6.414-5.839,36.575-24.521,61.805-25.65,0,0,16.076-2.549,15.624,13.198ZM239.439,136.12c-6.324,6.944-14.41,11.705-21.962,15.687-14.14,7.457-27.348,10.51-30.228,8.25-.984-.661-1.45-2.003-1.098-3.433.992-4.024,4.432-9.775,4.432-9.775,0,0,6.151-12.498,12.644-24.803,6.493-12.305,13.326-24.416,13.326-24.416,0,0,4.416-8.07,8.896-8.322,2.897-.163,6.09,1.953,10.855,6.489,0,0,4.405,3.84,5.502,5.334,0,0,2.739,2.75,4.69,7.502,2.671,6.504,3.425,15.977-7.058,27.487Z" fill="url(#linear-gradient1)" fill-rule="evenodd"/>
    <path d="M254.704,107.461c-2.438-4.962-5.822-8.391-5.822-8.391-1.543-1.956-6.953-6.273-6.953-6.273-5.947-5.281-10.604-8.402-14.664-7.804-4.5.251-10.227,9.377-10.227,9.377,0,0-8.421,14.215-16.519,28.541-8.408,14.87-7.771,14.076-15.168,28.1,0,0-3.272,6.168-5.228,10.979-.647,1.595.143,3.226,1.369,3.995,2.472,1.81,10.492,1.166,21.072-2.167,4.81-1.515,10.246-3.501,15.758-6.214,9.422-4.637,20.039-10.147,27.983-18.18,13.561-13.714,11.732-24.392,8.4-31.964ZM239.439,136.12c-6.324,6.944-14.41,11.705-21.962,15.687-14.14,7.457-27.348,10.51-30.228,8.25-.984-.661-1.45-2.003-1.098-3.433.992-4.024,4.432-9.775,4.432-9.775,0,0,6.151-12.498,12.644-24.803,6.493-12.305,13.326-24.416,13.326-24.416,0,0,4.416-8.07,8.896-8.322,2.897-.163,6.09,1.953,10.855,6.489,0,0,4.405,3.84,5.502,5.334,0,0,2.739,2.75,4.69,7.502,2.671,6.504,3.425,15.977-7.058,27.487Z" fill="url(#linear-gradient2)" fill-rule="evenodd"/>
    <path d="M160.318,120.117c-34.291,1.478-75.683,25.447-84.098,33.418-7.747,7.338-2.27,9.879,1.338,11.566,7.031,3.289,31.433,5.597,54.519,6.306,6.092.187,12.084.379,17.652.311,11.26-.139,18.163-2.127,22.919-6.008,4.299-3.509,6.738-8.538,7.84-15.367.611-3.793.683-8.137.64-13.04.782-20.033-20.809-17.186-20.809-17.186ZM166.76,143.546c-.515,17.909-3.792,25.971-23.408,26.397-19.615.428-47.113-1.404-53.651-4.582-2.655-1.291-6.784-3.525-.369-9.363,6.414-5.839,36.575-24.521,61.805-25.65,0,0,16.076-2.549,15.624,13.198Z" fill="url(#linear-gradient3)" fill-rule="evenodd"/>
    <path d="M101.4,77.11c-2.472-1.809-10.491-1.166-21.072,2.167-4.809,1.515-10.246,3.501-15.758,6.214-9.422,4.637-20.039,10.147-27.982,18.18-13.561,13.713-11.733,24.392-8.401,31.964,2.438,4.961,5.823,8.392,5.823,8.392,1.542,1.955,6.953,6.272,6.953,6.272,5.946,5.281,10.604,8.401,14.664,7.804,4.5-.252,10.227-9.377,10.227-9.377,0,0,8.421-14.215,16.521-28.541,8.407-14.87,7.77-14.077,15.167-28.101,0,0,3.273-6.167,5.228-10.979.648-1.594-.142-3.226-1.369-3.995ZM95.307,86.69c-.993,4.025-4.432,9.776-4.432,9.776,0,0-6.151,12.499-12.644,24.803-6.492,12.305-13.325,24.416-13.325,24.416,0,0-4.416,8.069-8.897,8.322-2.898.164-6.089-1.953-10.856-6.489,0,0-4.405-3.84-5.502-5.334,0,0-2.738-2.751-4.69-7.502-2.671-6.504-3.425-15.977,7.057-27.486,6.325-6.944,14.41-11.705,21.962-15.687,14.139-7.457,27.347-10.509,30.229-8.25.983.661,1.45,2.003,1.097,3.432Z" fill="url(#linear-gradient4)" fill-rule="evenodd"/>
    <path d="M205.843,77.769c-7.031-3.289-31.88-5.679-54.966-6.388-6.092-.187-13.344-.417-18.911-.348-10.291.113-16.903,2.164-21.659,6.045-3.222,2.794-5.883,6.906-6.984,13.736-.612,3.792-.802,8.109-.76,13.012.294,10.964,5.048,14.476,10.275,16.024,5.086,1.505,10.654,1.189,10.654,1.189,10.632-.458,21.964-2.716,32.713-6.124,13.402-4.249,25.824-10.278,35.283-15.539,7.422-4.128,13.067-7.705,15.62-10.123,7.746-7.337,2.579-9.479-1.266-11.484ZM193.221,87.332c-6.415,5.838-36.575,24.52-61.805,25.65,0,0-16.076,2.549-15.623-13.198.514-17.91,3.792-25.971,23.407-26.398,19.615-.428,47.113,1.405,53.652,4.583,2.654,1.29,6.783,3.525.369,9.363Z" fill="url(#linear-gradient5)" fill-rule="evenodd"/>
  </g>
  <path d="M57.677,217.344h-12.793v-11.422h-8.019v29.889h8.019v-12.09h12.793v12.09h8.019v-29.889h-8.019v11.422ZM84.671,216.582l-7.446-10.66h-9.262l12.698,17.99v11.898h8.019v-11.898l12.602-17.99h-9.26l-7.352,10.66ZM124.171,226.101c0,2.284-1.241,3.141-3.533,3.141h-9.068v-23.319h-8.02v29.889h20.622c3.15,0,8.115-1.238,8.02-7.616v-22.272h-8.02v20.179ZM157.754,205.922h-20.621v29.889h8.019v-23.321h9.07c2.29,0,3.531.857,3.531,3.141v20.181h8.019v-22.274c.095-6.377-4.869-7.614-8.019-7.614ZM238.117,205.922v29.889h8.019v-29.889h-8.019ZM191.528,205.922h-20.812v29.889h20.812c3.914,0,8.02-2.19,8.02-7.616v-15.42c0-3.046-.669-6.852-8.02-6.852ZM191.528,226.386c0,1.047-.286,2.475-2.292,2.57h-10.502v-16.182h10.693c1.336,0,2.101.952,2.101,2.19v11.422ZM204.298,212.774v23.036h8.019v-7.235h12.603v7.235h8.019v-29.889h-21.004c-5.252,0-7.638,2.474-7.638,6.852ZM212.317,215.509c0-1.999.764-2.665,2.482-2.761h10.121v9.71h-12.603v-6.949Z" fill="url(#linear-gradient6)" fill-rule="evenodd"/>
</svg>