<?xml version="1.0" encoding="UTF-8"?>
<svg id="Layer_1" xmlns="http://www.w3.org/2000/svg" version="1.1" viewBox="0 0 192.756 192.756">
  <!-- Generator: Adobe Illustrator 29.6.1, SVG Export Plug-In . SVG Version: 2.1.1 Build 9)  -->
  <polygon points="0 0 192.756 0 192.756 192.756 0 192.756 0 0 0 0" fill="#fff" fill-rule="evenodd"/>
  <path d="M104.869,75.4c.097,4.072,2.715,5.72,4.848,5.623,3.781,0,4.848-5.623,4.266-11.15-.291-3.103-1.261-6.399-4.945-6.399-1.842,0-3.878,1.939-4.169,4.072v7.853h0ZM101.669,64.153c-1.163,0-3.393.291-3.393-1.551,0-1.067.582-1.454,1.26-1.454,1.358,0,2.618,0,4.169-.097.291,0,.776,1.648,1.163,1.648.291,0,1.454-1.261,1.745-1.357,2.424-1.163,4.654-.776,6.593.291,2.23,1.357,3.684,3.975,3.975,6.884.776,7.95-.872,12.701-3.587,14.252-3.102,1.939-5.914,1.551-8.629-.097l-.097,5.914c2.036,0,4.944-.485,4.944,1.454,0,.969-.872,1.454-1.551,1.454h-8.823c-.582,0-1.163-.679-1.163-1.551.097-1.842,2.133-1.357,3.393-1.357v-24.432h0ZM85.284,91.494c-.969,0-2.521-.388-2.521-1.454.097-1.648.872-1.648,3.103-1.648,0-4.46.291-13.089-.388-14.931-.485-1.357-1.454-2.327-3.878-2.327-2.521,0-5.041,1.454-4.944,5.429l-.097,11.925c1.163,0,3.781-.485,3.878,1.358,0,1.163-.485,1.648-1.454,1.648h-6.593c-.582,0-2.327,0-2.327-1.357-.097-1.648,1.745-1.842,3.103-1.745v-16.676c-1.551,0-3.199.194-3.296-1.454,0-2.23,2.133-1.648,5.236-1.648.872.097,1.066.485,1.454,1.551.776-.388.872-.679,1.939-1.26,1.163-.582,2.521-.97,3.781-.97,2.23,0,5.332,0,6.302,3.103.582,1.648.873,3.49.873,5.429v11.925c1.648,0,3.199-.097,3.199,1.551,0,1.163-.776,1.551-2.036,1.551h-5.332ZM56.198,88.391c2.036-.097,3.878-1.357,4.363-3.587v-4.751c-2.617-.097-8.144.097-7.853,4.654.194,2.812,1.939,3.781,3.49,3.684h0ZM61.531,88.876c-3.587,3.975-12.022,4.072-12.022-4.363,0-5.332,3.199-6.399,8.726-7.271,1.551-.291,2.327-1.066,2.23-2.036,0-2.617-.097-5.138-3.199-5.138-1.163,0-2.908,0-3.199,1.842-.097,1.648,2.23,4.266-1.648,4.266-1.066,0-2.036-1.939-2.036-3.103,0-4.072,3.975-5.526,6.786-5.623,2.036,0,5.139.194,5.914,3.006,1.358,4.654.873,11.343.969,16.191.097,1.648,1.842,1.066,1.939.291.194-2.909-.194-4.169.194-4.751.485-.872.873-.679,1.454-.679.873,0,1.358.679,1.454,1.454.291,2.327,0,6.205-1.454,7.465-.485.485-1.648.776-2.424.776-1.358,0-2.618-.291-3.684-2.327h0ZM125.907,88.391c2.036-.097,3.781-1.357,4.363-3.587v-4.751c-2.715-.097-8.144.097-7.95,4.654.194,2.812,2.036,3.781,3.587,3.684h0ZM131.143,88.876c-3.49,3.975-11.925,4.072-11.925-4.363,0-5.332,3.103-6.399,8.726-7.271,1.551-.291,2.23-1.066,2.23-2.036,0-2.617-.194-5.138-3.199-5.138-1.163,0-3.006,0-3.296,1.842-.097,1.648,2.327,4.266-1.551,4.266-1.163,0-2.133-1.939-2.133-3.103,0-4.072,3.975-5.526,6.884-5.623,2.036,0,5.139.194,5.914,3.006,1.26,4.654.873,11.343.969,16.191.097,1.648,1.842,1.066,1.939.291.194-2.909-.291-4.169.097-4.751.485-.872.969-.679,1.551-.679.776,0,1.357.679,1.454,1.454.291,2.327-.097,6.205-1.454,7.465-.582.485-1.745.776-2.521.776-1.26,0-2.618-.291-3.684-2.327h0ZM42.819,76.951c0-4.46-1.745-6.399-4.363-6.302-2.812-.097-4.848,2.133-4.751,6.302h9.113ZM33.608,80.15c.097,5.429,2.133,8.144,4.654,8.144s4.46-1.551,4.557-4.072c.097-.776.776-2.133,1.745-2.133,2.133,0,2.521,3.587.194,6.205-2.327,2.618-3.684,3.199-6.399,3.199-2.327,0-4.848-.969-6.302-3.49-1.551-2.521-2.23-5.817-2.23-9.016,0-6.399,3.393-11.441,8.726-11.441,5.526,0,8.047,5.817,8.047,9.889,0,1.357,0,2.327-.679,2.424-.873.485-7.659.291-12.313.291h0ZM26.822,85.192c0,3.781-1.939,6.302-5.817,6.302-2.812,0-5.817-.872-5.817-4.46,0-1.551.679-2.327,2.327-2.327,1.842,0,2.133,1.261,1.842,2.133-.582,2.036-.194,1.842,1.551,1.842,2.23,0,2.424-1.357,2.424-4.557l.097-19.488c-.097-1.066-.485-1.842-1.066-1.842-1.745,0-2.327-.194-2.327-1.551,0-1.26.872-1.357,1.745-1.357h5.042v25.305h0ZM163.622,62.311c0-1.454,3.296-1.261,5.817-1.261h.194c.291,0,.485.194.582.485.097.388.194.776.194,1.164v24.335c0,1.551.485,2.036,1.163,2.036h-.194,1.939c.388,0,.679.194.873.485q.194.291.194.582v.097h0c0,.388-.097.582-.291.873-.194.291-.485.388-.873.388h-8.532c-.291,0-.485-.097-.679-.388-.194-.194-.291-.485-.388-.679v-.194l.097.194v-.291c.097-.291.194-.485.388-.679.194-.291.485-.388.679-.388,1.066,0,1.939.194,2.327-.873.194-.291.194-.679.097-1.163v-20.942c0-1.745-.582-2.23-1.454-2.327-1.648-.097-2.036-.194-2.133-1.454h0ZM159.065,87.81c.582,0,3.49-.872,3.49.679,0,1.939-4.169,2.909-5.332,2.909-1.163-.194-.969-1.842-.969-3.006-1.358,1.745-3.103,3.199-6.69,3.103-3.393-.097-4.945-2.327-5.43-4.46-1.066-3.975-.388-9.986-.485-13.961,0-1.745-.582-1.745-1.357-1.842-.776,0-1.842-.291-1.842-1.163-.097-1.357,1.357-1.26,2.812-1.26.582,0,2.036-.194,3.587,0,.194.291.388.582.388.969-.097,3.103-.097,10.762,0,15.318,0,3.006,1.648,3.878,3.587,3.878,1.842-.097,3.781-1.648,5.041-3.102v-12.216c0-1.066.097-2.23-.485-2.618-.872-.485-3.103.291-3.199-1.163,0-.969.291-1.454,1.454-1.454h4.46c.291,0,.582.194.679.582.194.291.291.776.291,1.26v17.548h0Z" fill="#1d1d1b" fill-rule="evenodd"/>
  <path d="M101.96,91.3c-.776.776-1.26,1.745-1.454,3.006-.291.872-.388,2.036-.388,3.393,0,.582,0,1.066-.097,1.357-.194.388-.485.679-.97.776-.388-.097-.679-.097-.969-.485l-.291-.485-1.066-9.016,4.848-.679.388,2.133h0ZM111.655,87.519l3.103,24.335c.097.873.194,1.26.388,1.454.097.194.485.388,1.066.485.582.097.873.388.969.872,0,.485-.194.873-.485,1.066-.291.194-.582.291-.679.291l-9.792,1.648c-.872.097-1.357-.291-1.454-.97-.097-.582.194-.969.582-1.163.582-.291.969-.582,1.066-.873,0-.097,0-.582-.097-1.454l-3.102-24.335,8.435-1.357h0ZM123.096,88.585c-.194-.194-.582-.388-1.163-.388-.485-.194-.776-.485-.776-1.066-.097-.485.097-.776.485-1.066.097-.194.291-.291.679-.291l9.695-1.551c.873-.097,1.357.194,1.357.969.097.485-.097.97-.582,1.164-.582.291-.872.582-.872.776-.097.291-.097.679-.097,1.454l2.617,20.166c.097.776.194,1.164.291,1.358.194.194.485.388,1.164.582.582,0,.776.388.872.776.097.485-.097.872-.485,1.163l-.679.291-9.695,1.551h-.679c-.485-.097-.679-.485-.776-.969-.097-.485.194-.873.582-1.164.582-.291.969-.582.969-.872.097-.097.097-.582,0-1.454l-2.618-19.972c0-.776-.194-1.261-.291-1.454h0ZM113.497,89.458l-.291-2.23,4.945-.776,1.163,8.919c.097.194,0,.388-.097.582-.194.388-.485.679-.872.679-.388.097-.776-.097-.969-.485-.291-.194-.291-.582-.582-1.164-.388-1.26-.679-2.327-1.066-3.102-.582-1.066-1.357-1.842-2.23-2.424h0ZM157.805,80.054l1.066,7.853c0,.582-.291.873-.969.969-.388.097-.776-.097-1.066-.776-1.454-3.006-3.49-4.557-6.399-4.557l-.291-2.23,7.659-1.26h0ZM162.749,81.605c-.582-.194-.872-.485-.969-.969-.097-.679.291-1.163,1.163-1.454l9.114-1.454,3.103,24.529c.097.679.194,1.067.291,1.358.194.097.582.388,1.163.485.485,0,.776.388.873.872.097.679-.291,1.163-1.067,1.454l-9.792,1.551-.679-.097c-.485-.097-.776-.388-.776-.872-.097-.582.097-.97.582-1.261.582-.291.873-.485,1.067-.776.097-.194,0-.679-.194-1.454l-2.424-20.069c-.194-.776-.291-1.164-.388-1.454-.194-.194-.485-.291-1.067-.388h0ZM138.414,84.416c-.194-.679.194-1.163,1.066-1.357l9.113-1.454,3.684,28.601-9.113,1.551-.776-.097c-.388-.194-.582-.485-.679-.969-.097-.485.194-.873.582-1.164.679-.291.969-.485,1.066-.776,0-.194,0-.679-.097-1.454l-2.618-20.069c0-.776-.194-1.26-.291-1.454-.194-.194-.582-.291-1.066-.485-.582-.097-.872-.388-.872-.872h0ZM155.769,90.427l1.164,8.338v.97c-.097.485-.291.776-.776.872-.485,0-.97-.291-1.261-1.164-.679-1.745-1.648-2.811-2.812-2.908l-.291-2.424c1.164-.582,1.745-1.745,1.939-3.781.097-.873.388-1.358.969-1.358.485-.194.776,0,.873.485l.194.969h0ZM160.81,100.995l.872,7.756-7.95,1.261-.194-2.23c1.357-.388,2.521-1.26,3.393-2.327.969-1.163,1.454-2.618,1.745-4.169l.291-.873c.097-.291.291-.485.679-.485.679-.097.969.291,1.163,1.066h0ZM177.195,77.048c1.26,0,2.424.097,3.393.388,2.424.969,3.878,2.812,4.363,5.72.291,2.036-.097,3.781-1.067,5.235-.969,1.164-2.327,2.133-4.169,3.006v.097c1.939,0,3.393.291,4.46.776,1.261.679,2.133,2.036,2.424,3.781l.485,4.169c0,.194.194.388.291.291.194-.097.388-.194.679-.582.194-.485.485-.679.776-.776.194,0,.388.097.776.291.194.194.291.388.291.679.097.485-.097,1.066-.388,1.842-.388.582-.679,1.164-1.066,1.648-.97,1.066-2.133,1.745-3.781,2.036-1.648.194-2.909-.194-4.072-.969-.679-.582-1.066-1.26-1.357-2.133-.291-.679-.485-1.454-.582-2.521l-.388-2.715c-.194-1.163-.291-2.036-.582-2.521-.388-.872-1.067-1.26-2.036-1.163l-.291-2.327c.872-.291,1.454-.679,1.648-1.357.194-.388.194-1.261,0-2.327l-.582-4.654c-.097-.97-.388-1.745-.582-2.133-.388-.485-1.066-.872-1.939-1.066l-.291-2.327h.194l3.393-.388h0ZM99.051,118.835l-7.271,1.066-.194-2.23c2.521-.776,3.878-3.199,4.169-7.368.097-.776.485-1.261,1.164-1.358.388,0,.582.097.776.388l.291.97,1.066,8.532h0ZM21.198,101.383c.582-.097.97.291,1.164,1.163l1.066,8.532c0,.873-.291,1.454-.969,1.551-.485,0-.776-.097-.97-.388-.194-.097-.388-.485-.485-.969-.872-2.23-1.939-3.878-3.296-5.042-1.26-.969-2.618-1.454-4.169-1.26l-.291-2.327c1.454,0,2.812,0,4.266.194l1.745.291c.388,0,.679-.291.969-.776.291-.582.582-.873.969-.969h0ZM41.074,98.862l8.144,23.366.582,1.26c.194.388.582.776.97.776.679.194.969.582.969,1.163.097.388-.097.679-.485.969-.291,0-.679.194-1.261.291l-8.532,1.358c-1.163.194-1.745-.097-1.842-.776v-.776l.485-.485c.485-.291.679-.679.776-.873.097-.291-.097-.873-.291-1.551l-1.067-2.811-5.041.776.194-2.23,4.169-.679-5.623-16.385.097-2.133,7.756-1.261h0ZM51.448,97.117l9.792-1.551c.873-.097,1.357.291,1.454,1.067,0,.388-.097.872-.679,1.066-.485.291-.776.582-.872.872-.097.194-.097.679,0,1.358l2.327,18.518c.194.872.291,1.551.388,1.842.485,1.163,1.261,1.842,2.424,2.036l.388,2.23-3.878.388c-1.26,0-2.521-.291-3.684-.776-1.454-.582-2.521-1.261-3.199-2.036-.388-.679-.679-1.551-.969-2.618l-2.23-18.13c-.097-.776-.291-1.357-.388-1.454-.097-.194-.485-.388-1.066-.485-.485-.097-.873-.388-.873-.873-.097-.485.097-.872.485-1.163l.582-.291h0ZM67.736,97.02l-.872-.388c-.291-.097-.291-.485-.388-.776-.097-.776.388-1.163,1.648-1.357l3.878-.679h1.066c.582,0,.872.388.969.872,0,.291-.097.582-.388.873l-.776.679c-.679.679-1.066,1.939-1.066,3.781l1.939,14.543c.097,2.812-.388,5.235-1.842,7.078-.97,1.454-2.327,2.327-3.781,2.618l-.291-2.23c1.551-.776,2.618-1.842,3.103-2.909.582-1.163.873-2.618.679-4.363l-1.842-14.349c-.388-1.842-1.066-3.006-2.036-3.393h0ZM78.4,95.76c-.194-.194-.582-.388-1.163-.485s-.873-.388-.969-.873c0-.776.388-1.26,1.163-1.454l9.792-1.551.679.097c.485.097.679.388.776.872.097.485-.194.873-.679,1.164-.485.291-.872.582-.872.872-.097.097-.097.679,0,1.454l3.103,24.335-9.114,1.454h-.679c-.485-.194-.679-.485-.776-.969-.097-.485.097-.873.679-1.164.485-.291.872-.485.969-.776.097-.194,0-.679-.097-1.454l-2.521-20.069c-.194-.872-.194-1.261-.291-1.454h0ZM32.93,105.649l1.454,4.169-1.648,13.573c-.097,1.261-.097,2.036.194,2.521.291.388.679.679,1.357.969l.776.291c.194.194.291.485.388.776.097.485-.097.873-.485.969l-1.066.388-4.072.582c-1.261.194-1.939,0-2.036-.873,0-.388.097-.679.291-.872l.872-.582c.97-.776,1.551-2.23,1.745-4.363l2.133-17.548h.097ZM16.932,119.901c-.194-.097-.679-.291-1.357-.291-.679-.097-.97-.388-.97-.969-.097-.679.291-1.163,1.164-1.26l8.338-1.358c.776-.194,1.163.194,1.357.97,0,.388-.194.776-.485,1.26-.291.194-.485.485-.485.776v.388l.969,7.659c-1.066,1.357-2.327,2.618-3.684,3.588-1.551.969-3.102,1.551-4.654,1.842l-.291-2.23c.969-.485,1.454-1.357,1.26-2.714l-.873-6.884c-.097-.485-.194-.679-.291-.776h0ZM4.717,108.558c1.745-3.199,3.975-5.041,6.981-5.623l.291,2.23c-1.067.582-1.454,1.842-1.261,3.781l2.424,18.324c.291,1.939.873,3.005,2.036,3.296l.388,2.23c-1.648.194-3.006,0-4.363-.582-1.454-.582-2.618-1.454-3.781-2.618-2.424-2.521-3.975-5.914-4.363-9.986-.582-4.169-.097-7.853,1.648-11.053h0Z" fill="#1d1d1b" fill-rule="evenodd"/>
</svg>