<?xml version="1.0" encoding="UTF-8"?>
<svg id="Layer_1" xmlns="http://www.w3.org/2000/svg" version="1.1" viewBox="0 0 233.189 55.409">
  <!-- Generator: Adobe Illustrator 29.6.1, SVG Export Plug-In . SVG Version: 2.1.1 Build 9)  -->
  <path d="M44.378,2.044h1.504v51.861h-1.504V2.044h0ZM48.013,2.044h1.504v51.861h-1.504V2.044h0ZM51.649,2.044h1.504v51.861h-1.504V2.044h0ZM7.271,2.044h1.504v51.861h-1.504V2.044h0ZM0,2.044h1.504v51.861H0V2.044h0ZM3.635,2.044h1.504v51.861h-1.504V2.044h0ZM31.235,0l1.064,1.064L11.387,21.975l-1.064-1.064L31.235,0h0ZM33.805,2.571l1.064,1.064L13.958,24.546l-1.064-1.064L33.805,2.571h0ZM36.376,5.141l1.064,1.064-20.911,20.911-1.064-1.064L36.376,5.141h0ZM38.538,48.813l1.064-1.064-23.073-22.76-1.064,1.064,23.074,22.76h0ZM35.968,51.384l1.064-1.064L13.958,27.56l-1.064,1.064,23.074,22.76h0ZM33.397,53.954l1.064-1.064L11.387,30.13l-1.064,1.064,23.074,22.76h0ZM79.105,45.13v1.504h-23.348v-1.504h23.348ZM79.105,48.766v1.505h-23.348v-1.505h23.348ZM79.105,52.401v1.504h-23.348v-1.504h23.348ZM79.105,2.044v1.504h-23.348v-1.504h23.348ZM79.105,5.68v1.504h-23.348v-1.504h23.348ZM79.105,9.315v1.504h-23.348v-1.504h23.348ZM77.676,22.665v1.504h-21.919v-1.504h21.919ZM77.676,26.3v1.504h-21.919v-1.504h21.919ZM77.676,29.936v1.504h-21.919v-1.504h21.919ZM84.646,2.044h1.504v51.861h-1.504V2.044h0ZM88.281,2.044h1.504v51.861h-1.504V2.044h0ZM91.917,2.044h1.504v51.861h-1.504V2.044h0ZM121.452,2.044h1.504v51.861h-1.504V2.044h0ZM125.088,2.044h1.504v51.861h-1.504V2.044h0ZM128.723,2.044h1.504v51.861h-1.504V2.044h0ZM95.147,8.447l1.303-.752,23.44,39.28-1.303.752-23.44-39.279h0ZM177.101,2.044v1.504h-41.452v-1.504h41.452ZM177.101,5.68v1.504h-41.452v-1.504h41.452ZM177.101,9.315v1.504h-41.452v-1.504h41.452ZM177.402,45.13v1.504h-41.452v-1.504h41.452ZM177.402,48.766v1.505h-41.452v-1.505h41.452ZM177.402,52.401v1.504h-41.452v-1.504h41.452ZM164.318,12.443l1.064,1.064-24.898,24.898-1.064-1.064,24.898-24.898h0ZM166.889,15.013l1.064,1.064-24.898,24.898-1.064-1.064,24.898-24.898h0ZM169.459,17.584l1.064,1.064-24.898,24.898-1.064-1.064,24.898-24.898h0ZM205.596,3.884c13.217,0,23.932,10.715,23.932,23.932s-10.714,23.932-23.932,23.932-23.932-10.715-23.932-23.932,10.715-23.932,23.932-23.932h0ZM205.596,5.363c12.4,0,22.453,10.053,22.453,22.453s-10.052,22.452-22.453,22.452-22.453-10.052-22.453-22.452,10.052-22.453,22.453-22.453h0ZM205.596,7.416c11.267,0,20.4,9.134,20.4,20.4s-9.133,20.4-20.4,20.4-20.4-9.134-20.4-20.4,9.133-20.4,20.4-20.4h0ZM205.596,9.075c10.351,0,18.742,8.391,18.742,18.742s-8.391,18.741-18.742,18.741-18.742-8.391-18.742-18.741,8.391-18.742,18.742-18.742h0ZM205.596.224c15.239,0,27.592,12.354,27.592,27.593s-12.354,27.592-27.592,27.592-27.592-12.353-27.592-27.592S190.358.224,205.596.224h0ZM205.596,1.717c14.414,0,26.099,11.685,26.099,26.099s-11.685,26.099-26.099,26.099-26.099-11.685-26.099-26.099S191.182,1.717,205.596,1.717h0ZM201.495,19.663c-.255.179-.514.298-.779.357-.263.06-.521.062-.776.007-.253-.055-.498-.168-.736-.339-.238-.171-.466-.414-.687-.73l-.404-.578-1.833,1.283c-.022.015-.044.023-.067.021-.025,0-.05-.011-.076-.029-.027-.019-.059-.047-.096-.085-.038-.04-.078-.092-.124-.157-.046-.066-.081-.122-.105-.171-.023-.048-.04-.088-.048-.12-.009-.033-.01-.059,0-.081.007-.021.022-.039.044-.055l4.701-3.292c.105-.073.2-.098.283-.074.083.024.148.069.196.137l.763,1.09c.077.11.147.219.208.327.061.107.125.241.191.399.066.16.107.339.126.541.016.201-.001.393-.051.579-.051.184-.137.359-.259.523-.121.165-.278.315-.469.448h0ZM200.944,18.991c.208-.146.354-.306.44-.48.084-.175.122-.344.109-.507-.013-.161-.051-.311-.118-.444-.067-.135-.141-.261-.222-.377l-.439-.626-2.047,1.434.428.611c.143.204.289.356.436.454.147.099.299.161.458.188.157.027.317.018.48-.026.163-.044.321-.119.474-.226h0ZM201.855,27.335c-.043.061-.081.105-.116.132-.034.026-.068.034-.101.027-.033-.009-.069-.036-.108-.081-.039-.045-.087-.107-.145-.189-.056-.08-.101-.147-.131-.199-.03-.051-.048-.092-.057-.124-.009-.032-.009-.058,0-.081.008-.024.019-.047.035-.075l.934-1.305-1.483-2.117-1.517.439c-.03.009-.056.014-.083.012-.027-.001-.054-.01-.084-.028-.029-.016-.062-.046-.1-.088-.037-.042-.081-.099-.133-.173-.054-.077-.094-.14-.121-.194-.027-.053-.039-.096-.034-.128.005-.033.025-.062.061-.084.037-.024.091-.045.163-.064l5.929-1.607c.037-.01.072-.012.1-.008.031.004.063.018.096.045.033.025.071.061.111.11.04.048.086.112.142.191.058.083.106.154.14.212.035.058.058.108.07.149.015.042.017.078.011.11-.007.033-.021.065-.042.094l-3.538,5.024h0ZM204.499,22.217l-.003-.004-3.154.901,1.24,1.771,1.916-2.667h0ZM205.435,32.739c-.022.015-.042.023-.064.027-.022.003-.046-.004-.076-.023-.027-.019-.062-.051-.1-.094-.038-.043-.085-.105-.14-.183-.048-.069-.085-.127-.11-.173-.025-.047-.041-.087-.048-.123-.006-.034-.004-.065.007-.095.01-.029.028-.06.052-.092l.875-1.31c.098-.151.183-.296.256-.435.073-.139.122-.278.148-.418.027-.139.022-.28-.008-.423-.032-.142-.102-.291-.21-.446l-.317-.452-2.171,1.52c-.022.015-.043.022-.067.021-.024,0-.05-.011-.076-.029-.027-.019-.059-.047-.096-.085-.038-.04-.078-.092-.124-.157-.046-.066-.081-.121-.105-.171-.023-.047-.04-.088-.048-.12-.009-.033-.01-.06,0-.081.007-.021.022-.04.044-.055l4.717-3.303c.102-.071.192-.094.272-.07.078.026.138.069.181.13l.758,1.083c.09.129.162.237.215.328.053.09.098.172.139.245.103.222.171.433.205.636.031.202.027.393-.014.575-.04.182-.116.349-.226.503-.109.153-.253.291-.429.414-.169.118-.338.203-.506.252-.167.047-.333.065-.497.051-.165-.015-.327-.055-.488-.123-.16-.068-.318-.157-.476-.271.022.111.029.218.02.326-.008.108-.033.219-.069.333-.038.115-.09.235-.155.359-.065.124-.144.257-.237.4l-.803,1.243c-.069.102-.119.173-.15.209-.03.037-.056.063-.077.078h0ZM208.303,29.211c.199-.139.337-.302.412-.489.075-.185.07-.403-.017-.657-.027-.079-.067-.161-.116-.249-.05-.089-.121-.199-.215-.334l-.4-.571-1.717,1.202.463.661c.125.179.255.318.389.418.135.098.272.164.408.197.139.033.275.032.408,0,.133-.033.261-.093.385-.179h0ZM207.338,35.456c-.022.015-.044.023-.066.022-.024,0-.048-.009-.076-.029-.027-.019-.06-.048-.097-.087-.038-.04-.078-.091-.124-.157-.044-.063-.079-.119-.103-.168-.024-.049-.042-.091-.05-.123-.009-.033-.01-.06,0-.081.007-.021.022-.04.044-.055l4.89-3.425c.022-.015.044-.023.067-.021.025,0,.051.012.079.033.029.022.062.051.098.089.037.039.076.089.118.149.046.066.081.122.105.171.023.048.04.088.048.12.009.033.01.06.001.081-.007.021-.022.04-.044.055l-4.89,3.424h0ZM212.275,39.681c-.238.167-.481.271-.729.314-.248.041-.492.03-.731-.035-.238-.065-.465-.181-.679-.346-.215-.166-.406-.37-.577-.615-.119-.171-.216-.34-.289-.504-.073-.167-.128-.323-.166-.466-.038-.143-.061-.27-.071-.379-.008-.109-.009-.19.003-.242.009-.052.035-.102.073-.151.038-.048.098-.1.178-.157.058-.04.108-.072.149-.093.042-.021.078-.035.107-.041.032-.006.057-.004.078.005.021.01.037.024.052.046.025.036.039.105.042.203.002.097.014.217.036.36.022.141.061.301.12.483.058.18.155.368.291.561.103.148.217.268.342.363.124.095.253.161.387.198.133.039.269.044.407.018.138-.026.274-.086.407-.179.144-.101.245-.219.301-.357.056-.137.086-.286.088-.448,0-.162-.014-.335-.046-.517-.032-.183-.067-.37-.1-.56-.033-.191-.058-.384-.071-.577-.015-.194-.006-.383.029-.567.035-.185.103-.362.206-.533.101-.171.255-.329.461-.473.214-.149.431-.243.651-.283.22-.038.435-.028.643.03.21.059.41.163.602.311.193.149.365.333.52.553.079.113.149.232.208.361.06.128.109.254.147.378.038.123.064.24.079.347.014.106.018.182.01.223-.008.043-.015.073-.024.091-.009.018-.024.037-.042.058-.019.021-.043.044-.073.069-.029.024-.068.054-.119.09-.047.033-.09.061-.13.083-.039.022-.075.036-.106.046-.029.01-.056.011-.077.006-.023-.006-.039-.019-.052-.037-.021-.03-.033-.087-.04-.174-.006-.088-.018-.192-.034-.314-.016-.121-.049-.256-.097-.405-.046-.148-.123-.298-.23-.452-.099-.141-.204-.251-.315-.33-.112-.077-.223-.13-.334-.154-.11-.023-.22-.022-.33.003-.111.028-.215.074-.311.142-.141.099-.241.217-.297.354-.056.137-.085.288-.088.452-.002.166.013.339.045.525.031.184.065.373.1.565.033.191.061.384.077.579.019.195.01.385-.022.572-.033.185-.099.362-.201.534-.101.171-.252.327-.455.469h0Z" fill="#1d1d1b" fill-rule="evenodd"/>
</svg>