<?xml version="1.0" encoding="UTF-8"?>
<svg id="Layer_1" xmlns="http://www.w3.org/2000/svg" version="1.1" viewBox="0 0 283.05 87.676">
  <!-- Generator: Adobe Illustrator 29.6.1, SVG Export Plug-In . SVG Version: 2.1.1 Build 9)  -->
  <path d="M124.527,10.615l-1.139,4.523s-3.498-.438-8.421,3.668l-21.626,17.302-7.587,6.09s3.604,5.614,7.587,11.73c4.401,6.752,9.265,14.107,10.228,15.14,1.828,1.967,4.845,5.298,9.426,5.271l-1.187,4.833c-7.867,0-13.742.228-18.467.008-13.972-.626-17.957-5.124-33.993-30.828,0,0-4.551,16.473-5.652,20.582-1.107,4.151,4.668,5.299,4.668,5.299l-1.223,4.901H20.855l.084-.333,1.12-4.498c1.845-.133,6.943.476,10.107-11.607.779-2.303-.558,1.868,11.024-39.999,1.642-6.225-3.093-7.137-4.743-7.558l1.107-4.474,34.697-.023-1.12,4.496s-4.672.511-5.959,4.854l-6.204,22.486s28.841-22.028,29.198-22.354c2.817-2.614-.627-4.812-3.099-4.986l1.12-4.473,5.153-.008,31.187-.042ZM239.288,10.005c-3.853-.05-7.547.14-11.076.552-29.064,3.401-46.655,21.716-46.603,40.055.048,15.367,12.459,30.181,41.275,30.061,1.828-.01,3.606-.062,5.328-.169,6.973-.36,13.134-1.333,18.742-2.463l3.326-14.306c-5.571,1.856-12.631,3.423-18.27,3.434-1.304.004-2.566-.063-3.797-.186-13.214-1.334-21.826-9.868-21.862-20.759-.033-11.287,8.166-20.16,21.862-22.474,2.301-.381,4.733-.591,7.319-.591,8.834,0,13.306,2.932,16.246,6.776h2.392l4.706-16.9c-4.841-1.575-12.033-2.925-19.587-3.03M162.846,10.665h-34.223l-1.122,4.473s6.826.741,4.731,7.553l-15.527,56.444,31.047.052,1.162-4.847s-5.798-1.4-4.29-6.757c.113-.481,4.559-16.753,4.559-16.753l13.663-.013h.568c7.092.025,9.43,3.696,9.43,3.696l4.131-16.753h-23.989l3.567-13.171,6.293-.004,14.541-.01c3.838,0,6.525,2.554,6.525,4.432h2.359l4.591-18.341h-28.016ZM272.606,19.616c.921-.934,1.396-2.077,1.396-3.408,0-1.319-.476-2.455-1.392-3.38-.936-.951-2.079-1.415-3.398-1.415s-2.455.464-3.387,1.415c-.932.925-1.396,2.061-1.396,3.38,0,1.331.464,2.474,1.392,3.408.932.955,2.06,1.412,3.391,1.412,1.339,0,2.462-.47,3.395-1.412M273.158,12.279c1.089,1.09,1.63,2.396,1.63,3.929,0,1.546-.541,2.854-1.63,3.953-1.086,1.095-2.401,1.636-3.947,1.636s-2.854-.552-3.939-1.636c-1.081-1.087-1.619-2.397-1.619-3.953,0-1.532.537-2.838,1.63-3.929,1.089-1.078,2.401-1.623,3.928-1.615,1.546-.008,2.854.529,3.947,1.615M270.043,15.953c.41-.167.625-.487.625-.955,0-.447-.142-.742-.403-.898-.276-.157-.713-.23-1.316-.221h-.901v2.209h.967c.456,0,.798-.048,1.028-.136M271.639,18.849c.008.169.034.27.057.324l.035.083h-1.005c-.011-.027-.011-.042-.015-.073-.008-.015-.012-.029-.012-.067l-.031-.199v-.485c0-.702-.188-1.168-.571-1.392-.234-.13-.637-.207-1.204-.207h-.844v2.424h-1.093v-6.125h2.148c.759,0,1.312.081,1.669.23.625.258.959.778.959,1.551,0,.537-.203.936-.61,1.202-.215.127-.503.234-.879.293.472.067.829.27,1.051.593.215.339.33.648.33.953v.453c0,.14.008.292.015.443" fill="#e4002b"/>
</svg>