<?xml version="1.0" encoding="UTF-8"?>
<svg id="Layer_1" xmlns="http://www.w3.org/2000/svg" version="1.1" viewBox="0 0 295.547 151.802">
  <!-- Generator: Adobe Illustrator 29.6.1, SVG Export Plug-In . SVG Version: 2.1.1 Build 9)  -->
  <path d="M141.236,45.347" fill="#b20e10"/>
  <g>
    <path d="M149.5,0C100.278,0,60.379,20.482,60.379,45.748s39.898,45.75,89.121,45.75,89.119-20.484,89.119-45.75S198.721,0,149.5,0ZM149.874,81.028c-45.01,0-81.495-15.695-81.495-35.055S104.864,10.918,149.874,10.918s81.499,15.696,81.499,35.055-36.486,35.055-81.499,35.055Z" fill="#b20e10"/>
    <path d="M178.967,27.572c.051-.107.103-.292.103-.419,0-.509-.412-.926-.916-.926l.006-.007-1.238.007c-.102,0-.186-.08-.186-.182v-2.175c0-.105.084-.185.186-.185l4.666-.005h1.043l10.99-.008c.5,0,.978.104,1.144.617l14.488,42.285c.016.073.029.163.029.24,0,.45-.355.811-.801.811l.019.005-10.455.008c-.5,0-1.039-.419-1.203-.933l-8.955-27.285c-.062-.235-.207-.435-.459-.435-.254,0-.4.179-.457.435l-8.951,27.285c-.168.514-.707.933-1.209.933l-10.422-.01c-.447,0-.812-.364-.812-.814,0-.077.006-.153.029-.228l13.359-39.014Z" fill="#b20e10"/>
    <path d="M144.166,27.535v-.405c0-.51-.432-.908-.937-.908h-1.384c-.103,0-.186-.083-.186-.187v-2.179c0-.097.083-.183.186-.183h13.832c.502,0,.914.414.914.924v42.112c0,.51-.412.921-.914.921h-10.602c-.504,0-.914-.411-.914-.921V28.451l.005-.916Z" fill="#b20e10"/>
    <path d="M135.19,67.628l-12.205-.003c-.507,0-1.216-.416-1.584-.928l-12.185-16.743c-.206-.191-.221-.254-.362-.373-.088-.06-.226-.099-.343-.099-.311,0-.501.238-.501.561v.224-.02l.007,16.462c0,.51-.409.921-.913.921h-10.281c-.503,0-.913-.411-.913-.921l.009-39.579v-.005c0-.51-.402-.92-.906-.92h.025l-1.439.01c-.101,0-.184-.086-.184-.186v-2.174c0-.102.083-.188.184-.188h3.224l10.281.005c.504,0,.913.414.913.924l-.003,10.914v.796l.003,2.065v-.02.224c0,.321.189.562.502.562.118,0,.254-.04.35-.101.134-.115.144-.179.354-.375l1.686-2.323,8.416-11.733c.372-.515,1.081-.926,1.587-.926h11.686c.442,0,.786.364.786.812,0,.166-.04.322-.123.454l-12.925,18.79c-.142.189-.215.349-.215.57s.054.349.198.539l15.468,21.429c.142.152.194.318.194.54,0,.45-.351.814-.791.814Z" fill="#b20e10"/>
  </g>
  <g>
    <path d="M61.715,116.959h-3.738l-11.92,33.329h7.475l2.318-6.466h11.719l2.324,6.466h9.092l-11.927-33.329h-5.344ZM61.715,138.97h-4.145l4.145-11.508,4.14,11.508h-4.14Z" fill="#b20e10" fill-rule="evenodd"/>
    <polygon points="122.82 116.959 115.951 136.251 109.082 116.959 99.489 116.959 94.942 150.288 102.412 150.288 105.14 129.478 112.217 150.288 118.576 150.288 125.851 129.381 128.578 150.288 136.959 150.288 132.312 116.959 122.82 116.959" fill="#b20e10" fill-rule="evenodd"/>
    <rect x="34.035" y="116.959" width="9.092" height="33.329" fill="#b20e10"/>
    <path d="M26.763,145.038l-9.391-13.435,11.413-14.645h-9.391l-10.306,12.926v-12.926H0v33.329h9.088v-15.454l8.89,12.626s2.226,2.828,4.544,2.828h9.597s-1.016.105-5.356-5.25Z" fill="#b20e10" fill-rule="evenodd"/>
    <path d="M266.546,145.539l-7.576-11.411c7.174-2.326,6.77-8.989,6.77-8.989,0-7.872-9.191-8.18-9.191-8.18h-17.375v33.329h9.189v-28.486h3.236s5.25.305,5.25,4.651c0,0,.705,6.968-7.875,6.968l9.596,14.443s1.613,2.423,5.15,2.423h7.77s-.301,0-.701-.302c-.807-.505-2.125-1.717-4.242-4.447Z" fill="#b20e10" fill-rule="evenodd"/>
    <path d="M295.532,140.185c-.402-6.462-7.371-8.682-7.371-8.682-9.59-3.334-8.787-6.971-8.787-6.971,0-3.837,6.057-4.038,6.057-4.038,4.35,0,6.867,2.221,6.867,2.221v-5.054s-3.635-2.12-9.693-1.713c0,0-9.293.605-11.816,6.866-.506,1.01-.707,2.226-.707,3.533,0,0-.203,1.621.707,3.639.803,1.916,2.726,4.241,6.769,6.063,0,0,9.389,2.921,9.187,6.765-.195,5.151-6.865,4.041-6.865,4.041-3.939-.605-7.977-2.423-9.092-2.927-.301-.105-.404-.203-.404-.203l.404,1.313,1.008,3.833c4.144,2.528,9.801,2.731,9.801,2.731,14.945.708,13.935-11.417,13.935-11.417Z" fill="#b20e10" fill-rule="evenodd"/>
    <path d="M218.065,115.44c-8.082,0-14.949,4.856-17.676,11.719-.805,2.021-1.209,4.139-1.209,6.46s.404,4.446,1.209,6.464c2.727,6.876,9.594,11.718,17.676,11.718,10.4,0,18.883-8.078,18.883-18.183s-8.482-18.179-18.883-18.179ZM218.065,146.55c-5.455,0-9.801-5.756-9.801-12.93s4.346-12.925,9.801-12.925,9.797,5.759,9.797,12.925-4.346,12.93-9.797,12.93Z" fill="#b20e10" fill-rule="evenodd"/>
    <polygon points="201.603 121.802 201.603 116.959 200.39 116.959 174.325 116.959 173.421 116.959 173.421 121.802 174.325 121.802 182.915 121.802 182.915 150.288 192.007 150.288 192.007 121.802 200.39 121.802 201.603 121.802" fill="#b20e10" fill-rule="evenodd"/>
    <path d="M156.251,115.44c-10.5,0-18.988,8.079-18.988,18.179s8.487,18.183,18.988,18.183c8.482,0,15.656-5.35,18.074-12.832.514-1.71.814-3.427.814-5.351,0-1.817-.301-3.633-.814-5.352-2.418-7.475-9.592-12.827-18.074-12.827ZM156.251,146.55c-5.455,0-9.897-5.756-9.897-12.93s4.442-12.925,9.897-12.925c5.354,0,9.799,5.759,9.799,12.925s-4.445,12.93-9.799,12.93Z" fill="#b20e10" fill-rule="evenodd"/>
  </g>
</svg>