<?xml version="1.0" encoding="UTF-8"?>
<svg id="Layer_1" xmlns="http://www.w3.org/2000/svg" version="1.1" viewBox="0 0 365 86.357">
  <!-- Generator: Adobe Illustrator 29.6.1, SVG Export Plug-In . SVG Version: 2.1.1 Build 9)  -->
  <path d="M228.589,0l-20.807,10.04,20.807-6.184,20.88,6.184L228.589,0ZM228.734,11.568c-16.25,0-26.773,12.668-26.773,26.118s10.379,25.463,26.627,25.463,26.918-12.011,26.918-25.463-10.509-26.118-26.773-26.118ZM178.026,11.786c-12.969.029-25.668,10.154-26.482,26.482,0,0-.501,24.809,27.5,24.809,12.47,0,18.707-10.644,18.188-10.476-1.056.359-6.3,8.329-18.043,8.512-4.299.081-18.553-3.46-18.843-23.426-.178-11.935,8.14-24.154,19.061-24.154,13.34,0,16.404,13.023,17.388,13.023l-.145-13.605c-.237.131-.933,2.125-1.892,2.474-1.37.505-4.834-1.352-6.111-1.746-2.715-.855-4.301-1.364-8.003-1.746-.863-.089-1.754-.147-2.619-.145ZM68.751,12.15c-.476.134-.727.8-.727.8-1.877,4.233-19.207,45.034-19.207,45.034-2.368,5.448-5.456,4.797-5.456,5.165h12.295c0-.601-6.636.427-4.365-5.238l6.62-15.715c.683-.986.707-1.309,2.328-1.309h12.295c1.506,0,1.533,0,2.183,1.455l6.184,14.842c1.812,5.952-3.717,5.598-3.638,5.966h17.461c.158-.52-2.656,1.181-5.82-6.402l-18.988-44.015c-.518-.568-.878-.662-1.164-.582ZM134.883,12.295c.081.355,5.34-.088,5.529,6.62l.073,27.719-28.228-34.194h-13.605c.148.507,5.995.574,5.893,7.13v37.977c.091,5.611-5.344,5.002-5.384,5.602h13.605c-.004-.6-4.802.992-5.529-5.238V21.535c.024-1.005.201-1.358.509-1.019,0,0,33.013,40.933,33.903,42.051,2.036,2.575,1.528-.728,1.528-.728l.073-42.924c.283-6.129,5.838-6.291,5.893-6.62h-14.259ZM260.382,12.514c0,.604,5.149.27,5.456,7.494l-4.074,37.249c-.961,6.194-5.324,5.607-5.165,5.893h12.513c.07-.367-5.644.067-4.802-5.82l3.638-33.757c-.038-2.495.439-2.414.8-1.673.199.417,1.422,2.806,2.11,4.292,0,0,13.832,29.722,14.187,30.338.496.853.871.515,1.091-.073,0,0,15.143-35.848,15.496-36.013.513-.217.544.795.728,1.673l4.583,33.321c1.034,7.5-4.088,7.264-4.001,7.566l17.606.073c-.229-.749-4.857.524-5.893-8.003l-4.656-36.158c0-6.185,5.169-5.967,5.093-6.402h-12.659l-13.605,31.138c-.47,1.127-.462.489-.873-.364-.102-.202-.165-.379-.364-.727l-13.968-29.61-.145-.437h-13.095ZM326.077,12.659c-.071.658,5.456-.548,5.456,7.784v34.994c0,8.321-5.979,7.343-5.82,7.712h38.923l.364-10.185c-.644.135.063,3.859-3.128,6.329-1.401,1.078-3.532,1.903-6.911,2.11l-13.896.073c-2.514-.014-2.146-.51-2.183-4.292v-19.207c0-1.85.089-2.814,2.837-2.765h12.513c5.931-.188,5.124,5.82,5.675,5.82v-13.023c-.551,0,.272,5.529-5.966,5.529h-12.368c-2.656,0-2.692-.196-2.692-2.037v-13.168c0-4.138.91-4.147,3.128-4.147h12.804c11.467.684,9.415,8.451,10.185,8.512l-.364-10.04h-38.559ZM.8,13.168c-.304.432,6.475.588,6.475,6.766v37.759c-.107,4.997-7.275,5.162-7.275,5.456h37.54l2.11-10.84c-.803-.072-.233,8.942-12.368,9.094h-7.13c-2.472-.091-5.457.331-5.457-2.546V19.716c0-6.059,6.899-6.07,7.348-6.548H.8ZM228.589,13.532c9.972.011,16.806,7.944,16.806,24.299,0,14.211-6.913,23.32-16.806,23.426h-.145c-9.981,0-16.588-9.134-16.588-23.426,0-16.366,6.755-24.299,16.733-24.299ZM66.714,22.626c.443-.193.909.286,1.237,1.237l4.656,12.804c.459,1.41,1.051,1.819-.509,1.819-1.233.003-10.23,0-10.695,0-1.374,0-1.185-.788-.655-2.037,0,0,4.616-11.281,5.165-12.659.266-.659.535-1.048.8-1.164ZM358.307,69.843l-1.964,2.474h1.601l2.837-2.474h-2.473ZM80.828,72.971c-5.727,0-7.784,3.262-7.784,6.766,0,2.654,1.629,6.621,7.784,6.621s7.712-3.966,7.712-6.621c0-3.504-1.984-6.766-7.712-6.766ZM138.594,72.971c-5.191,0-7.275,3.277-7.275,6.693,0,5.088,4.02,6.693,7.348,6.693,2.524,0,3.89-.824,4.875-1.455l.509,1.31h1.528v-6.693h-6.912v1.964h4.584c-.608,1.796-2.006,2.692-4.511,2.692-2.757,0-4.874-1.554-4.874-4.583,0-1.778,1.013-4.511,5.093-4.511,2.988,0,3.697,1.533,4.001,2.183h2.546c-.627-3.221-3.922-4.292-6.911-4.292ZM164.566,72.971c-1.848.18-4.729.904-4.729,3.783,0,1.952,1.649,3.233,4.656,3.638l3.128.436c1.861.229,2.837.772,2.837,1.601,0,1.108-1.709,1.819-3.783,1.819-3.437,0-4.408-1.396-4.874-2.328l-2.474.8c.304.97,1.691,3.638,7.275,3.638,3.471,0,6.402-1.122,6.402-4.147,0-2.147-1.739-3.27-4.656-3.71l-3.056-.436c-2.596-.317-2.91-.909-2.91-1.455,0-1.178,1.7-1.601,3.419-1.601,3.095,0,4.173.964,4.583,2.11l2.401-.727c-.323-.882-1.31-3.419-6.911-3.419-.251,0-.694-.06-1.31,0ZM280.971,72.971c-5.729,0-7.784,3.262-7.784,6.766,0,2.654,1.628,6.621,7.784,6.621s7.712-3.966,7.712-6.621c0-3.504-1.986-6.766-7.712-6.766ZM320.766,72.971c-5.728,0-7.712,3.262-7.712,6.766,0,2.654,1.553,6.621,7.712,6.621s7.784-3.966,7.784-6.621c0-3.504-2.06-6.766-7.784-6.766ZM1.673,73.262v12.804h2.546v-5.529h8.148v-2.183H4.22v-2.983h9.458v-2.11H1.673ZM22.19,73.262l-6.402,12.804h2.692l1.382-2.983h7.493l1.382,2.983h2.692l-6.329-12.804h-2.91ZM35.285,73.262v7.275c0,4.118,2.671,5.82,6.911,5.82s6.912-1.702,6.912-5.82v-7.275h-2.546v7.13c0,2.112-.767,3.856-4.365,3.856s-4.365-1.744-4.365-3.856v-7.13h-2.546ZM55.074,73.262v12.804h8.294c3.169,0,5.093-1.299,5.093-3.71,0-1.674-1.05-2.742-1.964-3.128.699-.439,1.528-1.072,1.528-2.692,0-2.43-2.104-3.274-5.165-3.274h-7.784ZM93.778,73.262v7.275c0,4.118,2.599,5.82,6.839,5.82s6.911-1.702,6.911-5.82v-7.275h-2.546v7.13c0,2.112-.767,3.856-4.365,3.856s-4.365-1.744-4.365-3.856v-7.13h-2.473ZM113.567,73.262v12.804h2.546v-5.02h4.001l3.783,5.02h3.128l-4.001-5.238c1.914-.102,3.638-1.422,3.638-3.783,0-3.133-2.233-3.783-5.311-3.783h-7.784ZM182.973,73.262l-6.475,12.804h2.765l1.382-2.983h7.493l1.31,2.983h2.692l-6.329-12.804h-2.837ZM196.869,73.262v12.804h2.546v-12.804h-2.546ZM205.526,73.262v12.804h2.474v-9.603l9.021,9.603h2.328v-12.804h-2.401v9.24l-8.73-9.24h-2.692ZM224.078,73.262v2.11h5.82v10.695h2.546v-10.695h5.82v-2.11h-14.187ZM254.125,73.262v12.804h2.546v-5.529h8.73v5.529h2.546v-12.804h-2.546v5.093h-8.73v-5.093h-2.546ZM293.993,73.262v12.804h2.401v-9.603l9.094,9.603h2.328v-12.804h-2.474v9.24l-8.657-9.24h-2.692ZM333.789,73.262v12.804h2.546v-5.02h4.074l3.783,5.02h3.128l-4.001-5.238c1.915-.102,3.638-1.422,3.638-3.783,0-3.133-2.235-3.783-5.311-3.783h-7.857ZM352.486,73.262v12.804h11.932v-2.183h-9.385v-3.347h7.857v-2.183h-7.857v-2.983h9.167v-2.11h-11.713ZM80.828,75.081c2.971,0,5.165,1.429,5.165,4.511,0,3.626-2.73,4.656-5.165,4.656s-5.238-1.03-5.238-4.656c0-3.082,2.268-4.511,5.238-4.511ZM280.971,75.081c2.971,0,5.165,1.429,5.165,4.511,0,3.626-2.731,4.656-5.165,4.656s-5.238-1.03-5.238-4.656c0-3.082,2.267-4.511,5.238-4.511ZM320.766,75.081c2.971,0,5.238,1.429,5.238,4.511,0,3.626-2.804,4.656-5.238,4.656s-5.165-1.03-5.165-4.656c0-3.082,2.196-4.511,5.165-4.511ZM23.645,75.299l2.765,5.675h-5.456l2.692-5.675ZM184.355,75.299l2.765,5.675h-5.456l2.692-5.675ZM57.62,75.372h5.456c1.664,0,2.401.362,2.401,1.455,0,1.074-.737,1.455-2.401,1.455h-5.456v-2.91ZM116.113,75.372h4.874c2.076,0,3.128.249,3.128,1.746,0,1.512-1.052,1.819-3.128,1.819h-4.874v-3.565ZM336.335,75.372h4.947c2.079,0,3.128.249,3.128,1.746,0,1.512-1.049,1.819-3.128,1.819h-4.947v-3.565ZM240.011,80.319v1.528h8.948v-1.528h-8.948ZM57.62,80.392h5.529c1.718,0,2.837.409,2.837,1.746,0,1.516-1.227,1.819-2.837,1.819h-5.529v-3.565Z" fill="#343c42"/>
</svg>