<?xml version="1.0" encoding="UTF-8"?>
<svg id="Layer_1" xmlns="http://www.w3.org/2000/svg" version="1.1" viewBox="0 0 192.756 192.756">
  <!-- Generator: Adobe Illustrator 29.6.1, SVG Export Plug-In . SVG Version: 2.1.1 Build 9)  -->
  <polygon points="0 0 192.756 0 192.756 192.756 0 192.756 0 0 0 0" fill="#fff" fill-rule="evenodd"/>
  <polygon points="27.68 107.012 27.68 110.987 2.835 110.987 2.835 83.662 7.307 83.662 7.307 107.012 27.68 107.012 27.68 107.012" fill="#1d1d1b" fill-rule="evenodd"/>
  <polygon points="24.202 93.598 29.171 84.159 24.45 84.159 20.723 93.598 24.202 93.598 24.202 93.598" fill="#1d1d1b" fill-rule="evenodd"/>
  <path d="M64.823,88.148c-1.611-2.535-3.965-4.666-6.735-6.118-2.771-1.453-5.96-2.226-9.149-2.226s-6.377.774-9.148,2.226c-2.771,1.452-5.124,3.584-6.736,6.118-1.611,2.534-2.481,5.473-2.481,8.412s.87,5.877,2.481,8.412c1.611,2.535,3.965,4.666,6.736,6.118,2.771,1.452,5.96,2.226,9.148,2.226s6.378-.774,9.149-2.226c2.771-1.452,5.124-3.584,6.735-6.118,1.612-2.535,2.481-5.473,2.481-8.412s-.869-5.877-2.481-8.412h0ZM60.957,103.251c-1.202,1.988-2.961,3.665-5.037,4.809-2.076,1.144-4.468,1.755-6.861,1.755s-4.785-.611-6.861-1.755c-2.076-1.144-3.834-2.82-5.037-4.809-1.202-1.988-1.849-4.289-1.849-6.589s.647-4.6,1.849-6.589c1.203-1.988,2.961-3.665,5.037-4.809,2.076-1.144,4.469-1.755,6.861-1.755s4.785.611,6.861,1.755c2.076,1.144,3.834,2.82,5.037,4.809,1.203,1.989,1.849,4.289,1.849,6.589s-.647,4.601-1.849,6.589h0Z" fill="#1d1d1b" fill-rule="evenodd"/>
  <path d="M98.493,95.446c-.808,1.78-2.339,2.809-3.535,3.431-1.197.622-2.06.838-2.929.807h0l8.696,11.303h-4.969l-8.409-10.93h-10.97v10.93h-4.472v-27.324h17.888c1.808,0,3.642.357,5.26,1.266,1.618.91,3.018,2.293,3.676,4.249.658,1.957.573,4.488-.235,6.268h0ZM93.491,95.259c.942-.797,1.5-2.106,1.451-3.404-.048-1.298-.703-2.585-1.638-3.369-.936-.784-2.132-.849-3.263-.849h-13.665v8.446h13.665c1.208,0,2.507-.027,3.45-.824h0Z" fill="#1d1d1b" fill-rule="evenodd"/>
  <polygon points="124.328 95.337 124.328 99.063 109.172 99.063 109.172 107.012 129.545 107.012 129.545 110.987 104.7 110.987 104.7 83.662 129.545 83.662 129.545 87.637 109.172 87.637 109.172 95.337 124.328 95.337 124.328 95.337" fill="#1d1d1b" fill-rule="evenodd"/>
  <polygon points="124.576 79.44 117.868 79.44 115.135 82.917 124.576 79.44 124.576 79.44" fill="#1d1d1b" fill-rule="evenodd"/>
  <path d="M138.304,104.031l-3.542,6.955h-4.472l13.913-27.324h4.472l13.913,27.324h-4.472l-3.542-6.955h-16.271ZM146.44,88.054l-6.365,12.5h12.73l-6.365-12.5h0Z" fill="#1d1d1b" fill-rule="evenodd"/>
  <polygon points="189.671 107.012 189.671 110.987 164.826 110.987 164.826 83.662 169.298 83.662 169.298 107.012 189.671 107.012 189.671 107.012" fill="#1d1d1b" fill-rule="evenodd"/>
  <path d="M187.734,89.145l-.038-.653h0c-.007-.12.003-.24-.045-.376-.048-.135-.133-.285-.22-.382-.088-.097-.179-.143-.276-.155.184-.063.345-.189.461-.376.117-.186.188-.434.185-.699-.004-.266-.083-.549-.225-.759-.305-.448-.842-.524-1.312-.501h-1.979v4.565h.768v-1.875h1.147c.126,0,.335-.017.544.146.277.327.155.757.203,1.122.004.218.025.424.116.607h.862v-.141h0c-.158-.064-.172-.292-.191-.524h0ZM186.785,87.135c-.238.152-.484.153-.654.15h-1.084v-1.39h0c.473.006.949-.02,1.418.018.184.023.398.127.506.361.099.301.103.626-.186.862h0Z" fill="#1d1d1b" fill-rule="evenodd"/>
  <path d="M189.405,85.587c-.336-.582-.828-1.074-1.41-1.41-.582-.336-1.254-.516-1.926-.516s-1.344.18-1.926.516c-.582.336-1.074.828-1.411,1.41-.336.582-.516,1.254-.516,1.926s.18,1.344.516,1.926c.336.582.828,1.073,1.411,1.409.582.336,1.254.516,1.926.516s1.344-.18,1.926-.516c.582-.336,1.074-.828,1.41-1.409.336-.582.516-1.254.516-1.926s-.18-1.344-.516-1.926h0ZM188.943,89.187c-.286.494-.704.911-1.199,1.196-.495.285-1.066.438-1.637.438s-1.142-.153-1.637-.438c-.495-.285-.913-.702-1.199-1.196-.286-.493-.439-1.064-.439-1.634s.153-1.14.439-1.634c.286-.494.704-.911,1.199-1.196.495-.285,1.066-.438,1.637-.438s1.142.153,1.637.438c.495.285.913.702,1.199,1.196.285.494.439,1.064.439,1.634s-.153,1.14-.439,1.634h0Z" fill="#1d1d1b" fill-rule="evenodd"/>
</svg>