<?xml version="1.0" encoding="UTF-8"?>
<svg id="Layer_3" xmlns="http://www.w3.org/2000/svg" xmlns:xlink="http://www.w3.org/1999/xlink" version="1.1" viewBox="0 0 328 328">
  <!-- Generator: Adobe Illustrator 29.6.1, SVG Export Plug-In . SVG Version: 2.1.1 Build 9)  -->
  <defs>
    <clipPath id="clippath">
      <polygon points="48.975 70.691 278.863 70.691 278.863 247.312 48.975 247.312 48.975 70.691 48.975 70.691" fill="none"/>
    </clipPath>
  </defs>
  <g clip-path="url(#clippath)">
    <polygon points="65.125 75.736 64.111 75.783 63.121 75.898 62.176 76.128 61.254 76.428 60.356 76.796 59.526 77.257 58.72 77.764 57.959 78.34 57.269 78.985 56.623 79.676 56.047 80.437 55.54 81.22 55.08 82.072 54.711 82.971 54.412 83.893 54.204 84.837 54.066 85.828 54.02 86.842 54.02 86.842 54.02 86.865 54.02 86.911 54.02 87.002 54.02 87.141 54.02 87.325 54.02 87.533 54.02 87.763 54.02 88.063 54.02 88.362 54.02 88.731 54.02 89.099 54.02 89.537 54.02 89.975 54.02 90.459 54.02 90.989 54.02 91.542 54.02 92.117 54.02 92.716 54.02 93.362 54.02 94.03 54.02 94.721 54.02 95.459 54.02 96.219 54.02 97.002 54.02 97.809 54.02 98.638 54.02 99.49 54.02 100.389 54.02 101.287 54.02 102.232 54.02 103.176 54.02 104.168 54.02 105.158 54.02 106.195 54.02 107.232 54.02 108.315 54.02 109.398 54.02 110.503 54.02 111.632 54.02 112.761 54.02 113.937 54.02 115.111 54.02 116.309 54.02 117.53 54.02 118.752 54.02 119.996 54.02 121.263 54.02 122.53 54.02 123.82 54.02 125.133 54.02 126.446 54.02 127.783 54.02 129.119 54.02 130.455 54.02 131.815 54.02 133.197 54.02 134.58 54.02 135.962 54.02 137.367 54.02 138.773 54.02 140.178 54.02 141.606 54.02 143.035 54.02 144.463 54.02 145.915 54.02 147.343 54.02 148.795 54.02 150.247 54.02 151.698 54.02 153.172 54.02 154.624 54.02 156.099 54.02 157.55 54.02 159.002 54.02 160.453 54.02 161.904 54.02 163.379 54.02 164.83 54.02 166.305 54.02 167.756 54.02 169.208 54.02 170.66 54.02 172.088 54.02 173.54 54.02 174.967 54.02 176.396 54.02 177.825 54.02 179.23 54.02 180.636 54.02 182.041 54.02 183.423 54.02 184.806 54.02 186.188 54.02 187.547 54.02 188.884 54.02 190.22 54.02 191.557 54.02 192.87 54.02 194.183 54.02 195.473 54.02 196.74 54.02 198.007 54.02 199.252 54.02 200.472 54.02 201.694 54.02 202.892 54.02 204.067 54.02 205.242 54.02 206.371 54.02 207.5 54.02 208.606 54.02 209.711 54.02 210.771 54.02 211.808 54.02 212.845 54.02 213.836 54.02 214.826 54.02 215.771 54.02 216.715 54.02 217.614 54.02 218.512 54.02 219.365 54.02 220.194 54.02 221.001 54.02 221.784 54.02 222.545 54.02 223.282 54.02 223.973 54.02 224.641 54.02 225.287 54.02 225.885 54.02 226.461 54.02 227.014 54.02 227.544 54.02 228.028 54.02 228.466 54.02 228.904 54.02 229.272 54.02 229.641 54.02 229.94 54.02 230.24 54.02 230.47 54.02 230.678 54.02 230.862 54.02 231 54.02 231.092 54.02 231.138 54.02 231.161 54.02 231.161 54.066 232.175 54.204 233.166 54.412 234.11 54.711 235.032 55.08 235.931 55.54 236.783 56.047 237.566 56.623 238.327 57.269 239.018 57.959 239.663 58.72 240.238 59.526 240.746 60.356 241.207 61.254 241.576 62.176 241.875 63.121 242.105 64.111 242.22 65.125 242.267 65.125 242.267 65.148 242.267 65.171 242.267 65.263 242.267 65.355 242.267 65.471 242.267 65.631 242.267 65.816 242.267 66.023 242.267 66.254 242.267 66.507 242.267 66.807 242.267 67.106 242.267 67.452 242.267 67.82 242.267 68.212 242.267 68.604 242.267 69.041 242.267 69.502 242.267 69.986 242.267 70.493 242.267 71.022 242.267 71.576 242.267 72.153 242.267 72.751 242.267 73.373 242.267 74.018 242.267 74.686 242.267 75.377 242.267 76.069 242.267 76.806 242.267 77.543 242.267 78.303 242.267 79.087 242.267 79.893 242.267 80.723 242.267 81.575 242.267 82.428 242.267 83.303 242.267 84.202 242.267 85.123 242.267 86.045 242.267 87.013 242.267 87.957 242.267 88.948 242.267 89.962 242.267 90.976 242.267 91.989 242.267 93.049 242.267 94.108 242.267 95.192 242.267 96.274 242.267 97.381 242.267 98.509 242.267 99.638 242.267 100.79 242.267 101.942 242.267 103.117 242.267 104.292 242.267 105.49 242.267 106.711 242.267 107.933 242.267 109.154 242.267 110.421 242.267 111.665 242.267 112.932 242.267 114.2 242.267 115.489 242.267 116.78 242.267 118.093 242.267 119.406 242.267 120.743 242.267 122.078 242.267 123.415 242.267 124.751 242.267 126.11 242.267 127.47 242.267 128.852 242.267 130.235 242.267 131.618 242.267 132.999 242.267 134.405 242.267 135.81 242.267 137.215 242.267 138.621 242.267 140.05 242.267 141.477 242.267 142.907 242.267 144.335 242.267 145.763 242.267 147.215 242.267 148.644 242.267 150.095 242.267 151.546 242.267 152.998 242.267 154.449 242.267 155.901 242.267 157.352 242.267 158.827 242.267 160.278 242.267 161.73 242.267 163.204 242.267 164.632 242.267 166.107 242.267 167.559 242.267 169.011 242.267 170.462 242.267 171.936 242.267 173.388 242.267 174.839 242.267 176.291 242.267 177.742 242.267 179.194 242.267 180.622 242.267 182.074 242.267 183.502 242.267 184.931 242.267 186.359 242.267 187.788 242.267 189.216 242.267 190.621 242.267 192.027 242.267 193.432 242.267 194.837 242.267 196.22 242.267 197.602 242.267 198.985 242.267 200.367 242.267 201.727 242.267 203.085 242.267 204.422 242.267 205.759 242.267 207.095 242.267 208.432 242.267 209.744 242.267 211.058 242.267 212.348 242.267 213.638 242.267 214.905 242.267 216.172 242.267 217.416 242.267 218.661 242.267 219.905 242.267 221.125 242.267 222.347 242.267 223.545 242.267 224.72 242.267 225.895 242.267 227.047 242.267 228.199 242.267 229.328 242.267 230.456 242.267 231.562 242.267 232.645 242.267 233.728 242.267 234.789 242.267 235.848 242.267 236.862 242.267 237.875 242.267 238.889 242.267 239.857 242.267 240.825 242.267 241.793 242.267 242.714 242.267 243.636 242.267 244.534 242.267 245.41 242.267 246.262 242.267 247.114 242.267 247.943 242.267 248.75 242.267 249.534 242.267 250.294 242.267 251.031 242.267 251.769 242.267 252.46 242.267 253.151 242.267 253.819 242.267 254.464 242.267 255.086 242.267 255.685 242.267 256.261 242.267 256.814 242.267 257.344 242.267 257.851 242.267 258.334 242.267 258.796 242.267 259.233 242.267 259.625 242.267 260.017 242.267 260.385 242.267 260.731 242.267 261.03 242.267 261.33 242.267 261.583 242.267 261.813 242.267 262.021 242.267 262.206 242.267 262.367 242.267 262.481 242.267 262.574 242.267 262.644 242.267 262.689 242.267 262.713 242.267 262.713 242.267 263.726 242.22 264.716 242.105 265.661 241.875 266.583 241.576 267.481 241.207 268.31 240.746 269.118 240.238 269.854 239.663 270.569 239.018 271.214 238.327 271.79 237.566 272.297 236.783 272.758 235.931 273.126 235.032 273.425 234.11 273.633 233.166 273.771 232.175 273.817 231.161 273.817 231.161 273.817 231.138 273.817 231.092 273.817 231 273.817 230.862 273.817 230.678 273.817 230.47 273.817 230.24 273.817 229.94 273.817 229.641 273.817 229.272 273.817 228.904 273.817 228.466 273.817 228.028 273.817 227.544 273.817 227.014 273.817 226.461 273.817 225.885 273.817 225.287 273.817 224.641 273.817 223.973 273.817 223.282 273.817 222.545 273.817 221.784 273.817 221.001 273.817 220.194 273.817 219.365 273.817 218.512 273.817 217.614 273.817 216.715 273.817 215.771 273.817 214.826 273.817 213.836 273.817 212.845 273.817 211.808 273.817 210.771 273.817 209.711 273.817 208.606 273.817 207.5 273.817 206.371 273.817 205.242 273.817 204.067 273.817 202.892 273.817 201.694 273.817 200.472 273.817 199.252 273.817 198.007 273.817 196.74 273.817 195.473 273.817 194.183 273.817 192.87 273.817 191.557 273.817 190.22 273.817 188.884 273.817 187.547 273.817 186.188 273.817 184.806 273.817 183.423 273.817 182.041 273.817 180.636 273.817 179.23 273.817 177.825 273.817 176.396 273.817 174.967 273.817 173.54 273.817 172.088 273.817 170.66 273.817 169.208 273.817 167.756 273.817 166.305 273.817 164.83 273.817 163.379 273.817 161.904 273.817 160.453 273.817 159.002 273.817 157.55 273.817 156.099 273.817 154.624 273.817 153.172 273.817 151.698 273.817 150.247 273.817 148.795 273.817 147.343 273.817 145.915 273.817 144.463 273.817 143.035 273.817 141.606 273.817 140.178 273.817 138.773 273.817 137.367 273.817 135.962 273.817 134.58 273.817 133.197 273.817 131.815 273.817 130.455 273.817 129.119 273.817 127.783 273.817 126.446 273.817 125.133 273.817 123.82 273.817 122.53 273.817 121.263 273.817 119.996 273.817 118.752 273.817 117.53 273.817 116.309 273.817 115.111 273.817 113.937 273.817 112.761 273.817 111.632 273.817 110.503 273.817 109.398 273.817 108.315 273.817 107.232 273.817 106.195 273.817 105.158 273.817 104.168 273.817 103.176 273.817 102.232 273.817 101.287 273.817 100.389 273.817 99.49 273.817 98.638 273.817 97.809 273.817 97.002 273.817 96.219 273.817 95.459 273.817 94.721 273.817 94.03 273.817 93.362 273.817 92.716 273.817 92.117 273.817 91.542 273.817 90.989 273.817 90.459 273.817 89.975 273.817 89.537 273.817 89.099 273.817 88.731 273.817 88.362 273.817 88.063 273.817 87.763 273.817 87.533 273.817 87.325 273.817 87.141 273.817 87.002 273.817 86.911 273.817 86.865 273.817 86.842 273.817 86.842 273.771 85.828 273.633 84.837 273.425 83.893 273.126 82.971 272.758 82.072 272.297 81.22 271.79 80.437 271.214 79.676 270.569 78.985 269.854 78.34 269.118 77.764 268.31 77.257 267.481 76.796 266.583 76.428 265.661 76.128 264.716 75.898 263.726 75.783 262.713 75.736 262.713 75.736 262.689 75.736 262.644 75.736 262.574 75.736 262.481 75.736 262.367 75.736 262.206 75.736 262.021 75.736 261.813 75.736 261.583 75.736 261.33 75.736 261.03 75.736 260.731 75.736 260.385 75.736 260.017 75.736 259.625 75.736 259.233 75.736 258.796 75.736 258.334 75.736 257.851 75.736 257.344 75.736 256.814 75.736 256.261 75.736 255.685 75.736 255.086 75.736 254.464 75.736 253.819 75.736 253.151 75.736 252.46 75.736 251.769 75.736 251.031 75.736 250.294 75.736 249.534 75.736 248.75 75.736 247.943 75.736 247.114 75.736 246.262 75.736 245.41 75.736 244.534 75.736 243.636 75.736 242.714 75.736 241.793 75.736 240.825 75.736 239.857 75.736 238.889 75.736 237.875 75.736 236.862 75.736 235.848 75.736 234.789 75.736 233.728 75.736 232.645 75.736 231.562 75.736 230.456 75.736 229.328 75.736 228.199 75.736 227.047 75.736 225.895 75.736 224.72 75.736 223.545 75.736 222.347 75.736 221.125 75.736 219.905 75.736 218.661 75.736 217.416 75.736 216.172 75.736 214.905 75.736 213.638 75.736 212.348 75.736 211.058 75.736 209.744 75.736 208.432 75.736 207.095 75.736 205.759 75.736 204.422 75.736 203.085 75.736 201.727 75.736 200.367 75.736 198.985 75.736 197.602 75.736 196.22 75.736 194.837 75.736 193.432 75.736 192.027 75.736 190.621 75.736 189.216 75.736 187.788 75.736 186.359 75.736 184.931 75.736 183.502 75.736 182.074 75.736 180.622 75.736 179.194 75.736 177.742 75.736 176.291 75.736 174.839 75.736 173.388 75.736 171.936 75.736 170.462 75.736 169.011 75.736 167.559 75.736 166.107 75.736 164.632 75.736 163.204 75.736 161.73 75.736 160.278 75.736 158.827 75.736 157.352 75.736 155.901 75.736 154.449 75.736 152.998 75.736 151.546 75.736 150.095 75.736 148.644 75.736 147.215 75.736 145.763 75.736 144.335 75.736 142.907 75.736 141.477 75.736 140.05 75.736 138.621 75.736 137.215 75.736 135.81 75.736 134.405 75.736 132.999 75.736 131.618 75.736 130.235 75.736 128.852 75.736 127.47 75.736 126.11 75.736 124.751 75.736 123.415 75.736 122.078 75.736 120.743 75.736 119.406 75.736 118.093 75.736 116.78 75.736 115.489 75.736 114.2 75.736 112.932 75.736 111.665 75.736 110.421 75.736 109.154 75.736 107.933 75.736 106.711 75.736 105.49 75.736 104.292 75.736 103.117 75.736 101.942 75.736 100.79 75.736 99.638 75.736 98.509 75.736 97.381 75.736 96.274 75.736 95.192 75.736 94.108 75.736 93.049 75.736 91.989 75.736 90.976 75.736 89.962 75.736 88.948 75.736 87.957 75.736 87.013 75.736 86.045 75.736 85.123 75.736 84.202 75.736 83.303 75.736 82.428 75.736 81.575 75.736 80.723 75.736 79.893 75.736 79.087 75.736 78.303 75.736 77.543 75.736 76.806 75.736 76.069 75.736 75.377 75.736 74.686 75.736 74.018 75.736 73.373 75.736 72.751 75.736 72.153 75.736 71.576 75.736 71.022 75.736 70.493 75.736 69.986 75.736 69.502 75.736 69.041 75.736 68.604 75.736 68.212 75.736 67.82 75.736 67.452 75.736 67.106 75.736 66.807 75.736 66.507 75.736 66.254 75.736 66.023 75.736 65.816 75.736 65.631 75.736 65.471 75.736 65.355 75.736 65.263 75.736 65.171 75.736 65.148 75.736 65.125 75.736 65.125 75.736 65.125 75.736" fill="#c22821"/>
    <polygon points="146.961 150.892 147.077 150.085 147.191 149.279 147.307 148.45 147.445 147.62 147.583 146.767 147.722 145.892 147.86 145.016 148.021 144.141 148.183 143.242 148.344 142.321 148.505 141.422 148.689 140.501 148.851 139.556 149.058 138.611 149.242 137.667 149.45 136.722 149.657 135.754 149.864 134.787 150.072 133.819 150.302 132.852 150.533 131.86 150.764 130.893 151.017 129.903 151.269 128.935 151.523 127.944 151.776 126.954 152.053 125.963 152.33 124.972 152.606 124.004 152.906 123.014 153.182 122.046 153.504 121.055 153.805 120.087 154.127 119.12 154.426 118.152 154.772 117.208 155.094 116.24 155.439 115.295 155.785 114.351 156.131 113.429 156.5 112.507 156.868 111.586 157.237 110.688 157.628 109.789 158.021 108.913 158.412 108.038 158.804 107.163 159.219 106.333 159.633 105.481 160.048 104.674 160.486 103.845 160.923 103.062 161.361 102.278 161.798 101.518 162.26 100.781 162.72 100.043 163.204 99.329 163.665 98.638 164.126 97.97 164.632 97.301 165.116 96.679 165.623 96.057 166.153 95.459 166.66 94.882 167.19 94.33 167.72 93.8 168.273 93.315 168.826 92.832 169.379 92.371 169.932 91.933 170.508 91.542 171.084 91.15 171.683 90.805 172.259 90.482 172.858 90.182 173.48 89.929 174.079 89.675 174.702 89.468 175.346 89.284 175.969 89.146 176.613 89.03 177.281 88.939 177.927 88.892 178.595 88.892 178.595 88.892 179.009 88.892 179.401 88.915 179.816 88.961 180.208 89.007 180.599 89.076 181.014 89.169 181.406 89.284 181.82 89.399 182.235 89.537 182.627 89.675 183.041 89.837 183.433 90.021 183.848 90.206 184.262 90.413 184.654 90.643 185.069 90.874 185.483 91.127 185.898 91.403 186.29 91.68 186.705 91.98 187.12 92.279 187.511 92.602 187.926 92.947 188.34 93.293 188.732 93.661 189.146 94.03 189.562 94.422 189.977 94.836 190.368 95.251 190.783 95.666 191.197 96.127 191.589 96.565 192.004 97.048 192.395 97.509 192.81 98.016 193.225 98.523 193.617 99.03 194.031 99.56 194.423 100.089 194.814 100.642 195.229 101.218 195.622 101.794 196.036 102.371 196.428 102.969 196.819 103.591 197.211 104.214 197.602 104.835 198.017 105.481 198.409 106.126 198.801 106.794 199.192 107.462 199.584 108.153 199.976 108.844 200.344 109.536 200.735 110.273 201.128 110.987 201.519 111.724 201.888 112.461 202.279 113.222 202.648 113.982 203.04 114.743 203.409 115.526 203.777 116.332 204.145 117.116 204.514 117.922 204.883 118.752 205.252 119.581 205.621 120.41 205.989 121.239 206.357 122.092 206.727 122.968 207.072 123.82 207.44 124.695 207.786 125.571 208.131 126.47 208.477 127.368 208.846 128.267 209.191 129.188 209.514 130.11 209.86 131.031 210.205 131.976 210.551 132.921 210.873 133.866 211.219 134.81 211.541 135.777 211.864 136.745 212.186 137.713 212.509 138.704 212.831 139.671 213.154 140.685 213.454 141.676 213.776 142.667 214.076 143.68 214.375 144.694 214.675 145.731 214.975 146.744 215.274 147.781 215.573 148.818 215.873 149.855 216.149 150.892 216.426 151.951 216.725 153.011 217.001 154.071 217.278 155.131 217.532 156.19 217.809 157.273 218.085 158.334 218.338 159.393 218.591 160.476 218.845 161.582 219.098 162.665 219.352 163.748 219.582 164.854 219.835 165.96 220.066 167.065 220.296 168.171 220.527 169.277 220.757 170.383 220.988 171.512 221.195 172.618 221.402 173.747 221.609 174.876 221.817 175.981 222.024 177.11 222.232 178.239 222.416 179.369 222.6 180.498 222.785 181.649 222.969 182.779 223.153 183.907 223.314 185.06 223.499 186.188 223.66 187.34 223.822 188.469 223.959 189.621 224.121 190.75 224.259 191.902 224.397 193.031 224.536 194.183 224.674 195.335 224.812 196.464 224.927 197.616 225.043 198.768 225.158 199.897 225.272 201.048 225.365 202.201 225.457 203.33 225.549 204.481 225.642 205.61 225.733 206.763 225.803 207.891 225.872 209.021 225.941 210.172 226.01 211.301 226.08 212.431 226.125 213.559 226.172 214.688 226.217 215.817 226.24 216.946 226.264 218.075 226.31 219.181 226.31 220.31 226.333 221.439 226.333 222.545 226.356 223.65 226.356 223.65 226.172 223.65 225.71 223.65 224.997 223.65 224.029 223.65 222.877 223.65 221.563 223.65 220.135 223.65 218.591 223.65 217.024 223.65 215.435 223.65 213.845 223.65 212.325 223.65 210.873 223.65 209.56 223.65 208.408 223.65 207.463 223.65 206.727 223.65 206.265 223.65 206.104 223.65 206.104 223.65 206.104 222.268 206.081 220.862 206.081 219.481 206.058 218.098 206.035 216.715 206.012 215.333 205.989 213.974 205.943 212.591 205.896 211.209 205.85 209.85 205.805 208.49 205.759 207.131 205.689 205.772 205.644 204.413 205.574 203.053 205.505 201.717 205.413 200.381 205.344 199.044 205.252 197.708 205.183 196.372 205.09 195.035 204.975 193.722 204.883 192.409 204.791 191.096 204.676 189.782 204.56 188.469 204.445 187.179 204.33 185.889 204.215 184.599 204.077 183.308 203.961 182.041 203.823 180.774 203.685 179.507 203.546 178.239 203.409 176.996 203.247 175.752 203.108 174.507 202.948 173.263 202.786 172.042 202.625 170.82 202.464 169.6 202.303 168.402 202.141 167.204 201.957 166.005 201.795 164.807 201.612 163.632 201.427 162.458 201.242 161.305 201.059 160.13 200.874 159.002 200.69 157.873 200.482 156.744 200.298 155.615 200.091 154.486 199.906 153.38 199.699 152.274 199.492 151.191 199.285 150.108 199.077 149.025 198.847 147.965 198.639 146.906 198.432 145.869 198.201 144.832 197.994 143.795 197.764 142.781 197.533 141.768 197.303 140.777 197.072 139.786 196.842 138.796 196.612 137.829 196.381 136.86 196.151 135.916 195.897 134.971 195.667 134.049 195.436 133.128 195.183 132.23 194.93 131.331 194.7 130.432 194.446 129.58 194.192 128.705 193.939 127.852 193.709 127.023 193.455 126.193 193.202 125.364 192.949 124.558 192.695 123.774 192.441 122.991 192.165 122.231 191.911 121.47 191.658 120.732 191.405 119.996 191.128 119.281 190.875 118.567 190.621 117.876 190.345 117.185 190.091 116.54 189.838 115.871 189.562 115.226 189.308 114.604 189.032 114.005 188.778 113.406 188.502 112.807 188.248 112.231 187.972 111.678 187.696 111.148 187.442 110.618 187.166 110.088 186.912 109.605 186.635 109.121 186.382 108.637 186.105 108.176 185.852 107.739 185.576 107.323 185.323 106.909 185.046 106.518 184.792 106.126 184.516 105.78 184.262 105.435 183.986 105.089 183.732 104.766 183.456 104.467 183.203 104.19 182.949 103.914 182.673 103.66 182.419 103.43 182.166 103.223 181.913 103.016 181.636 102.831 181.382 102.67 181.129 102.508 180.875 102.394 180.622 102.255 180.369 102.163 180.115 102.094 179.862 102.025 179.632 101.979 179.378 101.955 179.124 101.933 179.124 101.933 178.848 101.955 178.595 101.979 178.318 102.002 178.041 102.048 177.789 102.117 177.512 102.186 177.235 102.278 176.982 102.394 176.705 102.508 176.452 102.647 176.176 102.785 175.922 102.946 175.646 103.107 175.392 103.315 175.116 103.499 174.862 103.73 174.609 103.937 174.355 104.19 174.079 104.444 173.826 104.72 173.572 104.997 173.319 105.296 173.065 105.596 172.812 105.941 172.558 106.264 172.305 106.633 172.051 106.978 171.821 107.37 171.567 107.761 171.314 108.176 171.084 108.591 170.831 109.029 170.6 109.466 170.347 109.927 170.117 110.411 169.863 110.895 169.632 111.402 169.402 111.909 169.172 112.439 168.941 112.992 168.711 113.544 168.48 114.097 168.25 114.696 168.019 115.295 167.789 115.895 167.581 116.517 167.352 117.162 167.121 117.807 166.914 118.475 166.706 119.143 166.476 119.834 166.269 120.548 166.061 121.263 165.854 122 165.646 122.737 165.439 123.498 165.232 124.258 165.025 125.041 164.84 125.847 164.632 126.654 164.426 127.483 164.242 128.313 164.057 129.165 163.872 130.041 163.688 130.917 163.504 131.792 163.32 132.714 163.136 133.635 162.974 134.557 162.79 135.501 162.605 136.446 162.444 137.437 162.26 138.404 162.098 139.418 161.937 140.408 161.776 141.445 161.615 142.482 161.453 143.519 161.292 144.579 161.131 145.662 160.993 146.744 160.831 147.851 160.693 148.979 160.555 150.108 160.393 151.237 160.255 152.389 160.14 153.565 160.001 154.739 159.864 155.937 159.726 157.135 159.61 158.356 159.496 159.578 159.357 160.822 159.242 162.065 159.126 163.334 159.011 164.623 158.919 165.937 158.804 167.227 158.711 168.563 158.596 169.899 158.504 171.236 158.412 172.595 158.32 173.978 158.228 175.36 158.136 176.765 158.066 178.194 157.975 179.599 157.905 181.05 157.836 182.502 157.767 183.977 157.698 185.451 157.628 186.926 157.582 188.446 157.514 189.943 157.468 191.487 157.421 193.031 157.375 194.575 157.329 196.142 157.283 197.731 157.237 199.321 157.214 200.933 157.168 202.546 157.144 204.182 157.122 205.818 157.099 207.477 157.099 209.136 157.076 210.817 157.076 212.523 157.076 214.228 157.053 215.932 157.053 215.932 156.892 215.932 156.431 215.932 155.716 215.932 154.749 215.932 153.597 215.932 152.284 215.932 150.855 215.932 149.334 215.932 147.745 215.932 146.156 215.932 144.588 215.932 143.068 215.932 141.616 215.932 140.303 215.932 139.151 215.932 138.206 215.932 137.469 215.932 137.008 215.932 136.847 215.932 136.847 215.932 136.847 214.228 136.847 212.523 136.824 210.817 136.824 209.136 136.801 207.477 136.778 205.818 136.755 204.182 136.732 202.546 136.709 200.933 136.663 199.321 136.64 197.731 136.594 196.142 136.548 194.575 136.501 193.031 136.456 191.487 136.386 189.943 136.34 188.446 136.271 186.926 136.226 185.451 136.156 183.977 136.087 182.502 136.018 181.05 135.926 179.599 135.856 178.194 135.764 176.765 135.695 175.36 135.603 173.978 135.511 172.595 135.418 171.236 135.304 169.899 135.211 168.563 135.119 167.227 135.004 165.937 134.888 164.623 134.796 163.334 134.682 162.065 134.543 160.822 134.428 159.578 134.313 158.356 134.197 157.135 134.059 155.937 133.921 154.739 133.783 153.565 133.667 152.389 133.529 151.237 133.368 150.108 133.229 148.979 133.091 147.851 132.93 146.744 132.792 145.662 132.631 144.579 132.47 143.519 132.331 142.482 132.17 141.445 131.986 140.408 131.824 139.418 131.664 138.404 131.502 137.437 131.318 136.446 131.156 135.501 130.972 134.557 130.788 133.635 130.603 132.714 130.419 131.815 130.235 130.917 130.05 130.041 129.866 129.165 129.659 128.313 129.475 127.483 129.29 126.654 129.083 125.847 128.875 125.041 128.691 124.258 128.483 123.498 128.276 122.737 128.069 122 127.862 121.263 127.654 120.548 127.424 119.834 127.216 119.143 127.009 118.475 126.779 117.807 126.571 117.162 126.341 116.517 126.11 115.895 125.903 115.295 125.672 114.696 125.442 114.097 125.212 113.544 124.982 112.992 124.751 112.439 124.521 111.909 124.267 111.402 124.037 110.895 123.807 110.411 123.553 109.927 123.323 109.466 123.07 109.029 122.839 108.591 122.586 108.176 122.355 107.761 122.102 107.37 121.849 106.978 121.595 106.633 121.342 106.264 121.088 105.941 120.834 105.619 120.581 105.296 120.328 104.997 120.075 104.72 119.821 104.444 119.567 104.19 119.291 103.937 119.038 103.73 118.784 103.499 118.507 103.315 118.254 103.107 117.978 102.946 117.725 102.785 117.448 102.647 117.194 102.508 116.918 102.394 116.665 102.278 116.388 102.186 116.111 102.117 115.835 102.048 115.581 102.002 115.305 101.979 115.029 101.955 114.752 101.933 114.752 101.933 114.521 101.955 114.268 101.979 114.015 102.025 113.762 102.094 113.508 102.163 113.254 102.255 113.001 102.394 112.748 102.508 112.494 102.67 112.241 102.831 111.987 103.016 111.734 103.223 111.481 103.43 111.204 103.66 110.951 103.914 110.697 104.19 110.421 104.467 110.167 104.766 109.913 105.089 109.638 105.412 109.384 105.78 109.108 106.126 108.854 106.518 108.578 106.909 108.324 107.323 108.048 107.739 107.794 108.176 107.518 108.637 107.265 109.121 106.988 109.605 106.735 110.088 106.458 110.618 106.205 111.148 105.928 111.678 105.651 112.231 105.398 112.807 105.122 113.406 104.868 114.005 104.592 114.604 104.338 115.226 104.085 115.871 103.808 116.54 103.555 117.208 103.278 117.876 103.024 118.567 102.771 119.281 102.495 119.996 102.242 120.732 101.988 121.47 101.735 122.231 101.481 122.991 101.227 123.774 100.975 124.558 100.722 125.364 100.467 126.193 100.213 127.023 99.96 127.852 99.707 128.705 99.455 129.58 99.224 130.455 98.97 131.331 98.717 132.23 98.487 133.128 98.233 134.049 98.002 134.971 97.772 135.916 97.519 136.86 97.288 137.829 97.058 138.796 96.827 139.786 96.597 140.777 96.367 141.768 96.16 142.781 95.929 143.795 95.698 144.832 95.491 145.869 95.261 146.906 95.053 147.965 94.846 149.048 94.638 150.108 94.431 151.191 94.224 152.297 94.017 153.38 93.809 154.509 93.625 155.615 93.417 156.744 93.232 157.873 93.026 159.002 92.841 160.154 92.657 161.305 92.474 162.458 92.289 163.632 92.127 164.807 91.943 166.005 91.782 167.204 91.598 168.402 91.435 169.6 91.275 170.82 91.114 172.042 90.976 173.263 90.814 174.507 90.653 175.752 90.514 176.996 90.376 178.239 90.238 179.507 90.1 180.774 89.962 182.041 89.823 183.331 89.708 184.599 89.592 185.889 89.478 187.179 89.362 188.492 89.247 189.782 89.132 191.096 89.04 192.409 88.925 193.722 88.832 195.035 88.741 196.372 88.648 197.708 88.579 199.044 88.487 200.381 88.418 201.717 88.349 203.077 88.28 204.413 88.211 205.772 88.165 207.131 88.095 208.49 88.049 209.85 88.003 211.232 87.98 212.591 87.934 213.974 87.911 215.333 87.888 216.715 87.865 218.098 87.842 219.481 87.819 220.862 87.819 222.268 87.819 223.65 87.819 223.65 87.658 223.65 87.197 223.65 86.46 223.65 85.515 223.65 84.34 223.65 83.027 223.65 81.599 223.65 80.078 223.65 78.487 223.65 76.898 223.65 75.309 223.65 73.788 223.65 72.359 223.65 71.046 223.65 69.894 223.65 68.926 223.65 68.189 223.65 67.728 223.65 67.567 223.65 67.567 223.65 67.567 222.545 67.59 221.416 67.59 220.31 67.613 219.181 67.636 218.075 67.682 216.946 67.705 215.817 67.751 214.688 67.798 213.559 67.844 212.431 67.913 211.278 67.982 210.149 68.051 209.021 68.12 207.868 68.189 206.74 68.281 205.61 68.374 204.459 68.466 203.306 68.558 202.178 68.65 201.025 68.766 199.897 68.88 198.745 68.996 197.593 69.134 196.464 69.249 195.312 69.387 194.16 69.525 193.031 69.663 191.879 69.802 190.727 69.963 189.598 70.101 188.446 70.263 187.317 70.424 186.165 70.609 185.036 70.769 183.884 70.954 182.755 71.139 181.626 71.322 180.475 71.506 179.345 71.691 178.216 71.898 177.087 72.106 175.959 72.313 174.853 72.52 173.724 72.728 172.595 72.935 171.489 73.165 170.36 73.396 169.254 73.626 168.148 73.857 167.043 74.087 165.937 74.341 164.83 74.571 163.725 74.825 162.642 75.078 161.536 75.331 160.453 75.585 159.37 75.839 158.31 76.115 157.251 76.368 156.168 76.644 155.108 76.921 154.048 77.198 152.988 77.474 151.928 77.773 150.869 78.05 149.832 78.35 148.795 78.625 147.758 78.925 146.721 79.225 145.708 79.525 144.671 79.847 143.657 80.146 142.644 80.446 141.652 80.768 140.662 81.091 139.648 81.415 138.681 81.736 137.69 82.059 136.722 82.381 135.754 82.704 134.787 83.027 133.842 83.373 132.898 83.718 131.953 84.04 131.008 84.386 130.087 84.731 129.165 85.077 128.244 85.422 127.345 85.769 126.446 86.137 125.571 86.482 124.672 86.828 123.797 87.197 122.945 87.565 122.069 87.911 121.239 88.28 120.387 88.648 119.558 89.017 118.729 89.386 117.922 89.754 117.092 90.123 116.309 90.492 115.526 90.883 114.743 91.252 113.959 91.644 113.199 92.012 112.439 92.403 111.701 92.773 110.964 93.164 110.25 93.556 109.536 93.947 108.821 94.339 108.13 94.73 107.462 95.122 106.771 95.514 106.126 95.906 105.457 96.297 104.813 96.69 104.19 97.081 103.568 97.473 102.969 97.887 102.371 98.279 101.772 98.67 101.195 99.085 100.642 99.477 100.089 99.892 99.56 100.284 99.03 100.698 98.499 101.09 97.993 101.504 97.509 101.896 97.025 102.31 96.565 102.726 96.104 103.117 95.666 103.532 95.251 103.946 94.814 104.338 94.422 104.753 94.03 105.168 93.661 105.56 93.293 105.974 92.947 106.389 92.602 106.804 92.279 107.195 91.98 107.61 91.68 108.024 91.403 108.439 91.127 108.831 90.874 109.246 90.643 109.66 90.413 110.052 90.206 110.467 90.021 110.881 89.837 111.273 89.675 111.688 89.514 112.102 89.399 112.494 89.261 112.909 89.169 113.3 89.076 113.716 89.007 114.107 88.961 114.521 88.915 114.914 88.892 115.305 88.892 115.305 88.892 115.973 88.892 116.641 88.939 117.287 89.03 117.932 89.146 118.577 89.284 119.199 89.468 119.821 89.675 120.443 89.929 121.042 90.182 121.641 90.482 122.24 90.805 122.816 91.15 123.392 91.542 123.968 91.933 124.544 92.371 125.097 92.832 125.626 93.315 126.18 93.823 126.71 94.33 127.239 94.882 127.769 95.459 128.276 96.057 128.783 96.679 129.267 97.301 129.774 97.97 130.258 98.638 130.718 99.329 131.202 100.043 131.664 100.781 132.123 101.518 132.562 102.278 132.999 103.062 133.437 103.845 133.875 104.674 134.29 105.481 134.705 106.333 135.119 107.163 135.511 108.038 135.902 108.913 136.293 109.789 136.686 110.688 137.055 111.586 137.423 112.507 137.791 113.429 138.137 114.351 138.483 115.295 138.828 116.24 139.151 117.208 139.497 118.152 139.796 119.12 140.119 120.087 140.418 121.055 140.741 122.046 141.018 123.014 141.317 124.004 141.593 124.972 141.869 125.963 142.146 126.954 142.399 127.944 142.653 128.912 142.907 129.903 143.16 130.893 143.391 131.86 143.621 132.852 143.851 133.819 144.059 134.787 144.289 135.754 144.496 136.722 144.68 137.667 144.888 138.611 145.072 139.556 145.256 140.478 145.418 141.422 145.602 142.321 145.763 143.242 145.925 144.141 146.063 145.016 146.224 145.892 146.362 146.767 146.501 147.62 146.615 148.45 146.754 149.279 146.869 150.085 146.961 150.892 146.961 150.892 146.961 150.892" fill="#f6b101"/>
    <polygon points="133.737 199.113 133.737 175.544 226.978 175.544 226.978 199.113 133.737 199.113 133.737 199.113" fill="#c22821"/>
    <polygon points="217.555 177.456 223.429 177.456 223.429 196.763 217.555 196.763 217.555 177.456 217.555 177.456" fill="#fff"/>
    <polygon points="245.018 177.456 249.003 177.456 247.644 182.71 244.741 182.71 245.018 177.456 245.018 177.456" fill="#fff"/>
    <polygon points="255.892 180.313 257.044 180.336 258.173 180.451 259.256 180.636 260.247 180.889 261.145 181.281 261.929 181.765 262.574 182.386 263.058 183.147 263.357 184.068 263.473 185.129 263.473 185.129 262.597 185.129 260.685 185.129 258.772 185.129 257.897 185.129 257.897 185.129 257.666 184.045 256.953 183.4 255.823 183.216 255.823 183.216 255.017 183.331 254.326 183.792 254.026 184.736 254.026 184.736 254.211 185.451 254.718 185.958 255.478 186.28 256.445 186.488 257.552 186.672 258.727 186.856 259.902 187.132 259.902 187.132 261.03 187.57 262.021 188.1 262.85 188.792 263.473 189.598 263.864 190.543 264.002 191.626 264.002 191.626 263.934 192.57 263.726 193.423 263.38 194.206 262.896 194.875 262.274 195.496 261.538 196.003 260.662 196.418 259.671 196.763 258.519 197.017 257.275 197.155 255.892 197.201 255.892 197.201 254.464 197.155 253.197 197.017 252.091 196.786 251.147 196.441 250.34 196.026 249.672 195.519 249.142 194.897 248.727 194.206 248.451 193.446 248.29 192.57 248.22 191.626 248.22 191.626 249.119 191.626 251.054 191.626 252.99 191.626 253.865 191.626 253.865 191.626 254.142 192.801 254.855 193.538 255.915 193.791 255.915 193.791 257.067 193.63 257.759 193.1 257.989 192.247 257.989 192.247 257.759 191.464 257.16 190.911 256.261 190.497 255.201 190.22 254.026 189.967 252.851 189.737 251.791 189.46 251.791 189.46 250.893 189.068 250.063 188.492 249.418 187.686 248.98 186.649 248.819 185.335 248.819 185.335 248.865 184.691 249.027 184.023 249.304 183.331 249.718 182.687 250.27 182.041 251.008 181.488 251.93 181.004 253.036 180.636 254.349 180.382 255.892 180.313 255.892 180.313 255.892 180.313" fill="#fff"/>
    <polygon points="135.741 190.911 135.418 191.925 135.004 192.847 134.474 193.722 133.875 194.505 133.184 195.197 132.4 195.796 131.571 196.302 130.649 196.695 129.682 196.994 128.668 197.178 127.608 197.224 127.608 197.224 126.594 197.178 125.626 197.017 124.705 196.74 123.853 196.395 123.024 195.934 122.286 195.38 121.595 194.759 120.973 194.045 120.443 193.261 120.005 192.409 119.659 191.487 119.383 190.497 119.222 189.46 119.175 188.354 119.175 188.354 119.222 187.248 119.36 186.211 119.613 185.221 119.936 184.299 120.351 183.446 120.857 182.663 121.456 181.948 122.102 181.327 122.862 180.774 123.668 180.313 124.544 179.968 125.512 179.691 126.525 179.53 127.608 179.483 127.608 179.483 128.76 179.53 129.82 179.714 130.81 180.014 131.732 180.405 132.585 180.913 133.345 181.511 134.013 182.202 134.589 182.985 135.073 183.861 135.464 184.806 135.764 185.82 135.764 185.82 134.912 185.82 133.022 185.82 131.133 185.82 130.28 185.82 130.28 185.82 129.728 184.759 128.852 184.045 127.608 183.769 127.608 183.769 126.548 183.954 125.742 184.506 125.166 185.289 124.797 186.257 124.613 187.317 124.544 188.354 124.544 188.354 124.613 189.391 124.797 190.45 125.166 191.418 125.742 192.202 126.548 192.754 127.608 192.939 127.608 192.939 128.852 192.662 129.705 191.948 130.28 190.911 130.28 190.911 131.133 190.911 132.999 190.911 134.888 190.911 135.741 190.911 135.741 190.911 135.741 190.911" fill="#fff"/>
    <polygon points="95.261 177.456 102.265 177.456 105.329 188.86 108.37 177.456 115.397 177.456 118.461 197.224 112.678 197.224 111.135 185.681 107.979 197.224 102.657 197.224 99.5 185.681 97.979 197.224 92.173 197.224 95.261 177.456 95.261 177.456" fill="#fff"/>
    <polygon points="185.161 187.294 185.161 187.894 185.161 189.068 185.161 190.589 185.161 192.271 185.161 193.93 185.161 195.38 185.161 196.372 185.161 196.763 185.161 196.763 179.355 196.763 179.355 179.898 185.161 179.898 185.161 179.898 185.161 180.221 185.161 180.866 185.161 181.212 185.161 181.212 186.036 180.589 186.958 180.106 188.041 179.76 189.354 179.553 190.967 179.483 190.967 179.483 192.165 179.576 193.271 179.852 194.261 180.29 195.137 180.866 195.852 181.534 196.404 182.294 196.75 183.101 196.865 183.954 196.865 183.954 196.865 184.207 196.865 184.898 196.865 185.958 196.865 187.271 196.865 188.769 196.865 190.358 196.865 191.948 196.865 193.446 196.865 194.759 196.865 195.818 196.865 196.51 196.865 196.763 196.865 196.763 191.036 196.763 191.036 196.763 191.036 196.349 191.036 195.312 191.036 193.815 191.036 192.109 191.036 190.404 191.036 188.93 191.036 187.87 191.036 187.478 191.036 187.478 190.783 186.396 190.138 185.497 189.239 184.898 188.133 184.668 188.133 184.668 186.52 185.151 185.553 186.211 185.161 187.294 185.161 187.294 185.161 187.294" fill="#fff"/>
    <path d="M236.908,181.557v-4.101h5.875v19.307h-5.875v-.945h0l-.898.668-1.336.53-2.073.206h0l-.692-.023-.714-.115-.761-.162-.76-.253-.737-.346-.738-.46-.69-.576-.623-.714-.553-.83-.461-.991-.345-1.129-.208-1.29-.092-1.475h0l.069-1.382.184-1.244.323-1.083.392-.967.507-.83.553-.714.645-.599.668-.507.715-.415.737-.299.761-.23.737-.161.737-.092.715-.023h0l1.958.23,1.267.484.714.53h0ZM230.825,188.86l.138,1.452.415,1.199.668.898.898.576,1.128.184h0l1.129-.161.968-.553.737-.898h0v-5.069h0l-.552-1.014-.968-.668-1.314-.253h0l-1.128.184-.898.553-.668.899-.415,1.198-.138,1.474h0Z" fill="#fff"/>
    <path d="M159.91,188.354l.045-1.037.116-.968.23-.922.299-.875.393-.83.46-.761.53-.691.622-.623.691-.553.714-.484.83-.392.875-.322.945-.23,1.014-.138,1.06-.046h0l1.06.046.991.138.968.23.875.322.806.392.761.484.691.553.599.623.553.691.461.761.369.806.322.898.208.922.138.968.045,1.037h0l-.045,1.037-.138.968-.208.944-.3.875-.391.807-.461.76-.553.691-.599.622-.691.553-.761.484-.806.392-.875.322-.968.231-.991.138-1.06.046h0l-1.06-.046-1.014-.138-.945-.231-.875-.322-.83-.392-.714-.484-.691-.553-.622-.622-.53-.691-.46-.76-.393-.807-.299-.875-.23-.944-.116-.968-.045-1.037h0ZM172.097,188.354l-.069-1.037-.207-1.06-.415-.968-.622-.783-.875-.553-1.175-.185h0l-1.175.185-.875.553-.622.783-.415.968-.207,1.06-.069,1.037h0l.069,1.037.207,1.06.415.968.622.784.875.553,1.175.185h0l1.175-.185.875-.553.622-.784.415-.968.207-1.06.069-1.037h0Z" fill="#fff"/>
    <path d="M137.791,177.456h10.069l1.106.023,1.036.139.991.184.968.277.898.346.829.415.783.483.714.53.669.622.599.668.507.714.461.783.369.852.3.898.207.922.138.991.046,1.037h0l-.046,1.037-.138.99-.207.922-.3.898-.369.83-.461.807-.507.714-.599.668-.669.622-.714.529-.783.484-.829.414-.898.346-.968.276-.991.185-1.036.115-1.106.046h-10.069v-19.767h0ZM144.45,192.547h3.041l.875-.069.875-.254.807-.461.737-.691.576-.945.369-1.244.138-1.543h0l-.138-1.544-.369-1.244-.576-.945-.737-.692-.807-.46-.875-.253-.875-.069h-3.041v10.414h0Z" fill="#fff"/>
    <path d="M207.325,179.483l1.222.046,1.175.138,1.106.23.99.322.898.438.784.53.668.645.507.737.346.852.184.944h0v12.395h-5.874v-1.682h0l-.876.691-.921.599-1.014.46-1.198.277-1.406.115h0l-1.106-.115-1.014-.3-.898-.484-.806-.622-.668-.784-.484-.852-.322-.967-.116-1.014h0l.046-.691.116-.691.229-.691.323-.668.438-.644.576-.576.69-.53.875-.461,1.037-.368,1.221-.276,1.382-.185,1.613-.069h0l1.383-.207.69-.553.208-.761h0l-.346-.853-.807-.53-.991-.184h0l-.99.139-.784.483-.322.853h-5.506l.046-.692.138-.668.253-.668.369-.622.484-.576.645-.53.807-.461.967-.391,1.152-.277,1.337-.185,1.543-.069h0ZM207.002,188.976l-1.267.254-.967.691-.369,1.175h0l.184.829.623.6,1.106.23h0l1.314-.253,1.082-.807.623-1.359h0v-1.52h0l-.623.138-.83.046-.875-.023h0Z" fill="#fff"/>
    <path d="M235.318,210.495h3.617l1.544.299,1.037.783.391,1.129h0l-.276,1.037-.737.691-1.014.323h0v.022h0l1.267.784.576,1.128.138,1.475h-1.612l-.208-1.589-.668-.898-1.313-.3h-1.313v2.788h-1.428v-7.672h0ZM236.747,214.158h1.682l1.06-.161.622-.438.184-.737h0l-.162-.576-.507-.392-.968-.139h-1.912v2.442h0ZM238.267,207.823l1.083.092,1.014.253.945.392.852.53.784.667.645.761.553.852.392.968.253,1.014.092,1.059h0l-.092,1.083-.253,1.014-.392.945-.553.875-.645.76-.784.669-.852.53-.945.392-1.014.253-1.083.093h0l-1.059-.093-1.014-.253-.945-.392-.876-.53-.76-.669-.668-.76-.53-.875-.392-.945-.254-1.014-.092-1.083h0l.092-1.059.254-1.014.392-.968.53-.852.668-.761.76-.667.876-.53.945-.392,1.014-.253,1.059-.092h0ZM238.267,220.31l1.06-.092.991-.277.921-.437.829-.576.714-.714.576-.807.437-.921.277-1.014.092-1.061h0l-.092-1.059-.277-.991-.437-.922-.576-.807-.714-.714-.829-.576-.921-.437-.991-.277-1.06-.092h0l-1.059.092-.991.277-.898.437-.829.576-.715.714-.576.807-.437.922-.276.991-.092,1.059h0l.092,1.061.276,1.014.437.921.576.807.715.714.829.576.898.437.991.277,1.059.092h0Z" fill="#f6b101"/>
  </g>
</svg>