<?xml version="1.0" encoding="UTF-8"?>
<svg xmlns="http://www.w3.org/2000/svg" version="1.1" viewBox="0 0 2100.737 282.906">
  <!-- Generator: Adobe Illustrator 29.6.1, SVG Export Plug-In . SVG Version: 2.1.1 Build 9)  -->
  <g isolation="isolate">
    <g id="t">
      <path d="M1991.919,134.987h21.851l-27.033,141.962h42.471l25.8-141.962h38.715l7.015-38.641h-38.715l9.701-53.335h-41.237l-9.701,53.335h-23.555l-5.311,38.641Z" fill="#df0000"/>
    </g>
    <g id="k">
      <path d="M1939.736,177.632l66.048-81.286h-49.555l-41.793,51.539,19.057-104.874h-41.234l-42.51,233.938h41.235l13.652-75.128,45.115,75.128h49.986l-60-99.317Z" fill="#df0000"/>
    </g>
    <g id="r">
      <path d="M1883.922,94.395h-5.888c-10.018,0-22.843,3.888-34.795,10.923l1.63-8.972h-41.237l-32.827,180.632h41.237l18.835-103.644c6.533-29.038,23.704-39.65,42.772-39.65l3.134-.002,7.139-39.287Z" fill="#df0000"/>
    </g>
    <g id="a_2">
      <path d="M1754.761,96.346l-2.301,12.665c-12.081-8.963-27.122-14.07-43.724-13.902-43.056.434-83.571,34.913-97.626,77.87-3.367,7.873-5.853,24.734-5.251,34.071.62,42.164,28.29,75.176,68.961,74.749,17.075-.179,33.839-5.573,48.888-14.575l-1.767,9.726h41.227l32.82-180.603h-41.227ZM1743.855,189.678c-6.443,30.782-33.432,51.812-61.103,51.812-24.774,0-42.4-23.744-37.066-50.331,6.167-30.744,30.486-53.871,59.596-53.871,28.151,0,44.732,22.966,38.573,52.39Z" fill="#df0000"/>
    </g>
    <g id="M_2">
      <path d="M1642.737,6.286h-48.818l-129.136,171.426,31.142-171.426h-42.316l-233.609,270.662h58.676l160.662-186.145-34.116,186.145h38.692l140.112-185.951-33.778,185.951h43.304L1642.737,6.286Z" fill="#df0000"/>
    </g>
    <g id="Spiral">
      <path d="M1077.767,164.716c18.8,9.055,43.725,11.094,58.17-5.461-2.601,1.736-10.121,6.523-20.987,7.403-16.899,1.369-32.804-8.163-43.857-20.317-24.555-26.999-35.747-72.288-25.286-119.713-13.677,9.809-25.154,21.719-34.242,35.023.003.012.005.023.008.034,5.152,44.537,27.864,84.741,66.195,103.03Z" fill="#df0000"/>
      <path d="M1115.504,127.657c1.85-2.521,7.28-9.591,17.189-14.134,15.411-7.066,33.617-3.549,48.161,4.092,32.307,16.971,58.313,55.699,64.705,103.838,9.496-13.894,16.209-29.005,20.198-44.609-20.07-40.107-55.172-70.135-97.46-74.213-20.763-2.078-44.882,4.53-52.794,25.027Z" fill="#df0000"/>
      <path d="M1122.885,159.913c-3.108-.342-11.946-1.509-20.835-7.819-13.825-9.813-19.882-27.339-20.537-43.755-1.455-36.463,19.08-78.346,57.57-107.951-16.392-1.214-32.904.423-48.749,4.842-24.683,37.428-33.127,82.827-15.52,121.476,8.582,19.02,26.364,36.604,48.071,33.207Z" fill="#df0000"/>
      <path d="M1133.904,86.182c-17.242,11.754-31.47,32.32-24.356,53.107-.203-3.121-.588-12.026,4.082-21.876,7.263-15.319,23.471-24.327,39.524-27.823,35.652-7.764,80.458,5.181,116.295,37.937-1.627-16.247-6.039-32.22-13.182-47.139-41.155-17.824-87.348-18.264-122.364,5.794Z" fill="#df0000"/>
      <path d="M1096.984,95.691c-5.652,20.087-3.332,44.987,15.479,56.337-2.161-2.26-8.181-8.834-10.935-19.382-4.283-16.404,2.343-33.722,12.393-46.719,22.32-28.864,64.965-47.748,113.471-45.691-11.689-11.4-25.337-20.801-40.399-27.637,0,0-.001,0-.002.001-42.982,12.801-78.649,42.155-90.008,83.091Z" fill="#df0000"/>
      <path d="M1127.543,122.574c3.038-.742,11.742-2.668,22.253.221,16.348,4.493,28.033,18.891,34.263,34.092,13.839,33.767,8.867,80.151-17.18,121.136,15.623-4.381,30.593-11.463,44.148-21.189,10.406-43.625,2.818-89.191-26.955-119.497-14.569-14.939-37.294-25.38-56.53-14.764Z" fill="#df0000"/>
      <path d="M1173.848,174.065c-1.559-20.808-12.255-43.413-33.814-47.645,2.804,1.384,10.709,5.503,16.904,14.473,9.635,13.95,9.332,32.49,4.333,48.14-11.107,34.771-44.745,67.115-91.061,81.764,15.202,6.872,31.292,10.885,47.507,12.109,35.995-26.729,59.457-66.501,56.131-108.841Z" fill="#df0000"/>
      <path d="M1142.406,195.627c12.182-16.942,18.518-41.134,4.723-58.234,1.258,2.863,4.666,11.1,3.646,21.953-1.586,16.88-13.736,30.888-27.625,39.663-30.86,19.498-77.421,22.653-122.318,4.101,6.976,14.516,16.535,28.027,28.612,39.815,44.756,2.661,88.294-12.724,112.962-47.298Z" fill="#df0000"/>
      <path d="M1104.461,191.934c20.222-5.148,40.627-19.607,41.051-41.574-.877,3.002-3.56,11.502-11.318,19.161-12.065,11.911-30.377,14.832-46.657,12.627-36.172-4.9-73.866-32.411-96.335-75.479-4.076,16.047-5.267,32.61-3.659,48.903,32.572,30.796,75.806,46.988,116.919,36.362Z" fill="#df0000"/>
    </g>
    <g id="a_1">
      <path d="M927.761,96.346l-2.301,12.665c-12.081-8.963-27.122-14.07-43.724-13.902-43.056.434-83.571,34.913-97.626,77.87-3.367,7.873-5.853,24.734-5.251,34.071.62,42.164,28.29,75.176,68.961,74.749,17.075-.179,33.839-5.573,48.888-14.575l-1.767,9.726h41.227l32.82-180.603h-41.227ZM916.855,189.678c-6.443,30.782-33.432,51.812-61.103,51.812-24.774,0-42.4-23.744-37.066-50.331,6.167-30.744,30.486-53.871,59.596-53.871,28.151,0,44.732,22.966,38.573,52.39Z" fill="#df0000" mix-blend-mode="difference"/>
    </g>
    <g id="i">
      <g>
        <polygon points="799.111 91.342 807.899 42.983 766.671 42.983 757.883 91.342 799.111 91.342" fill="#df0000"/>
        <path d="M798.211,96.291h-41.227l-32.82,180.603h41.227l32.82-180.603Z" fill="#df0000"/>
      </g>
    </g>
    <g id="d">
      <path d="M717.76,43.025l-12.219,67.237c-12.283-9.797-27.907-15.384-45.21-15.208-41.854.424-81.291,33.423-96.071,75.063-.014.038-.028.076-.041.115-.156.441-.326.877-.476,1.32l-.017.1c-6.251,18.119-6.049,32.247-5.627,37.756,1.614,41.008,28.876,72.754,68.526,72.336,17.741-.187,35.159-6.039,50.625-15.799l-1.99,10.95h41.227l42.5-233.868h-41.227ZM694.93,189.722c-6.443,30.782-32.257,51.812-59.928,51.812-20.934,0-44.489-17.626-37.455-50.33,6.593-30.656,31.514-53.871,58.81-53.871,28.151,0,44.732,22.965,38.573,52.389Z" fill="#df0000"/>
    </g>
    <g id="e">
      <path d="M557.646,206.057c6.091-12.659,5.728-34.45,5.728-34.45.293-44.064-29.764-76.502-72.015-76.502-39.578,0-78.794,27.897-96.505,64.617-14.117,29.676-9.487,52.202-9.487,52.202h0c3.672,39.602,31.774,69.892,73.084,69.892,40.589,0,77.73-27.713,94.958-65.945h-43.545c-10.644,15.947-27.132,25.718-45.979,25.718-17.526,0-36.49-12.369-38.139-35.533h131.901ZM484.822,137.388c19.7,0,32.338,11.267,36.06,28.103h-83.353c11.082-16.99,28.414-28.103,47.292-28.103Z" fill="#df0000"/>
    </g>
    <g id="M_1">
      <path d="M422.737,6.286h-48.818l-129.136,171.426L275.924,6.286h-42.316L0,276.949h58.676L219.338,90.804l-34.116,186.145h38.692l140.112-185.951-33.778,185.951h43.304L422.737,6.286Z" fill="#df0000"/>
    </g>
  </g>
</svg>