<?xml version="1.0" encoding="UTF-8"?>
<svg id="Layer_1" xmlns="http://www.w3.org/2000/svg" version="1.1" viewBox="0 0 192.756 192.756">
  <!-- Generator: Adobe Illustrator 29.6.1, SVG Export Plug-In . SVG Version: 2.1.1 Build 9)  -->
  <polygon points="0 0 192.756 0 192.756 192.756 0 192.756 0 0 0 0" fill="#fff" fill-rule="evenodd"/>
  <path d="M145.39,95.659c-1.291-3.3-4.411-5.846-7.747-6.671-9.146-2.439-20.73-1.471-27.043,6.169-3.658,4.698-5.81,11.764-3.084,17.718,1.327,3.479,5.021,5.99,8.5,6.635,7.675,1.004,17.574,1.435,23.743-4.196,5.774-4.806,7.711-12.84,5.631-19.654h0ZM126.454,109.79c-.861.323-2.26.466-3.049-.143-1.829-1.004-1.219-3.264-1.004-4.77.861-2.798,1.829-6.743,5.308-7.281,1.142-.112,2.582.395,3.049,1.722.323,4.053-.841,8.175-4.304,10.473h0Z" fill="#1d1d1b" fill-rule="evenodd"/>
  <polygon points="43.253 72.648 36.797 91.372 31.889 72.648 18.847 72.648 2.835 118.361 18.072 118.361 24.142 100.928 28.661 118.361 42.479 118.361 58.491 72.648 43.253 72.648 43.253 72.648 43.253 72.648" fill="#1d1d1b" fill-rule="evenodd"/>
  <path d="M68.522,86.286c2.69-.395,5.523-1.255,6.994-3.91,1.076-2.116.681-4.663-.61-6.528-2.08-2.188-4.95-2.403-7.998-2.224-2.798.395-5.631,1.793-6.635,4.699-.466,1.829-.359,4.053.861,5.523,1.793,2.188,4.698,2.511,7.388,2.439h0Z" fill="#1d1d1b" fill-rule="evenodd"/>
  <polygon points="57.421 89.348 47.22 118.403 61.683 118.403 71.884 89.348 57.421 89.348 57.421 89.348 57.421 89.348" fill="#1d1d1b" fill-rule="evenodd"/>
  <polygon points="113.359 89.306 96.572 89.306 88.178 99.12 97.347 72.648 82.625 72.648 66.613 118.361 81.334 118.361 85.466 106.868 87.791 118.361 103.158 118.361 100.575 104.415 113.359 89.306 113.359 89.306 113.359 89.306" fill="#1d1d1b" fill-rule="evenodd"/>
  <path d="M179.462,88.96c-6.457,0-10.718,2.841-12.914,4.778h0l1.679-4.391h-15.238l-10.202,29.055h15.238l4.907-13.947h0c.775-2.195,2.066-3.228,4.261-3.228s2.712,2.195,2.066,4.003h0l-4.649,13.172h14.721l6.586-18.853h0c1.808-5.166,0-10.589-6.456-10.589h0Z" fill="#1d1d1b" fill-rule="evenodd"/>
  <path d="M186.89,112.316c-1.687,0-3.047,1.36-3.047,3.031,0,1.687,1.361,3.047,3.047,3.047s3.031-1.36,3.031-3.047c0-1.671-1.352-3.031-3.031-3.031h0ZM186.89,118.028c-1.48,0-2.673-1.193-2.673-2.681,0-1.472,1.193-2.665,2.673-2.665,1.472,0,2.665,1.193,2.665,2.665,0,1.488-1.193,2.681-2.665,2.681h0Z" fill="#1d1d1b" fill-rule="evenodd"/>
  <path d="M188.451,114.551c0-.287-.127-.589-.382-.732-.255-.151-.541-.167-.827-.167h-1.48v3.397h.414v-1.567h.764l.971,1.567h.493l-1.026-1.567h0c.605-.016,1.074-.262,1.074-.931h0ZM186.812,115.152h-.636v-1.201h.971c.422,0,.883.064.883.589,0,.692-.74.612-1.217.612h0Z" fill="#1d1d1b" fill-rule="evenodd"/>
</svg>