<?xml version="1.0" encoding="UTF-8"?>
<svg id="Layer_1" xmlns="http://www.w3.org/2000/svg" version="1.1" viewBox="0 0 773.816 197.905">
  <!-- Generator: Adobe Illustrator 29.6.1, SVG Export Plug-In . SVG Version: 2.1.1 Build 9)  -->
  <path d="M41.279,93.96l.452-.002c9.415-14.09,20.925-18.916,36.991-19.018,31.227-.199,43.798,19.409,43.979,47.92l.456,71.732-41.184.262-.36-56.57c-.071-11.088,1.616-30.56-18.749-30.431-16.745.107-21.417,12.582-21.325,27.064l.383,60.191-41.184.262-.738-116.083,41.184-.262.095,14.934Z" fill="#1d1d1b"/>
  <path d="M186.389,78.103l.394,62.002c.094,14.708,3.78,25.094,20.751,24.986s20.526-10.54,20.432-25.248l-.394-62.001,41.184-.262.444,69.921c.244,38.242-26.609,50.18-61.457,50.401-34.848.222-61.85-11.373-62.094-49.615l-.444-69.922,41.184-.262Z" fill="#de0a14"/>
  <path d="M339.641,193.216l-41.183.262-.522-82.141-13.35.085-.216-33.942,13.351-.085-.222-34.848,41.183-.262.222,34.848,23.308-.148.216,33.942-23.308.148.522,82.141Z" fill="#de0a14"/>
  <path d="M495.085,141.085l-86.666.551c.106,16.746,8.989,25.74,25.961,25.632,8.825-.056,15.142-3.038,19.619-10.76l39.599-.252c-3.081,13.597-11.164,23.605-21.757,30.236-10.594,6.629-23.699,9.881-37.049,9.965-38.469.245-67.345-21.295-67.599-61.347-.246-38.695,26.08-62.17,63.869-62.411,40.278-.256,63.743,24.486,63.995,64.086l.027,4.299ZM456.693,117.569c-2.108-11.075-12.337-18.251-23.424-18.181-11.993.076-21.91,6.476-24.322,18.484l47.746-.304Z" fill="#de0a14"/>
  <path d="M555.022,191.846l-41.976.267-1.217-191.424,41.976-.267,1.217,191.424Z" fill="#de0a14"/>
  <path d="M621.373,191.424l-41.975.267-1.217-191.424,41.975-.267,1.217,191.424Z" fill="#de0a14"/>
  <path d="M773.816,190.455l-41.183.262-.082-12.898-.453.002c-7.168,11.586-21.391,16.881-34.968,16.968-34.396.219-58.789-28.365-59-61.628-.212-33.264,23.365-61.927,57.76-62.146,13.352-.085,27.413,4.805,36.077,14.933l-.072-11.314,41.183-.262.738,116.083ZM680.673,133.117c.094,14.708,9.896,25.96,26.641,25.854,16.745-.106,26.403-11.483,26.309-26.191-.091-14.256-9.897-26.187-26.642-26.08-16.745.106-26.398,12.161-26.308,26.417Z" fill="#de0a14"/>
</svg>