<?xml version="1.0" encoding="UTF-8"?>
<svg id="Layer_1" xmlns="http://www.w3.org/2000/svg" version="1.1" viewBox="0 0 414.129 201.435">
  <!-- Generator: Adobe Illustrator 29.6.1, SVG Export Plug-In . SVG Version: 2.1.1 Build 9)  -->
  <path d="M200.879,5.012c23.965,0,38.678,19.735,38.678,41.249,0,20.955-11.815,37.898-28.084,50.052l.775,1.449h38.012l8.249-15.718h-4.007l-5.244,7.803h-19.509c13.494-9.588,24.753-24.638,24.753-43.139,0-29.54-26.651-46.707-53.623-46.707s-53.615,17.167-53.615,46.707c0,18.501,11.254,33.551,24.743,43.139h-19.509l-5.234-7.803h-4.02l8.255,15.718h38.009l.783-1.449c-16.274-12.153-28.095-29.097-28.095-50.052,0-21.515,14.716-41.249,38.683-41.249M0,160.182c0,22.406,18.282,40.691,40.691,40.691s40.69-18.285,40.69-40.691-18.287-40.685-40.69-40.685S0,137.776,0,160.182M96.423,199.2l14.719-47.267,21.294,49.502,21.292-49.502,14.71,47.267h12.267l-25.307-80.259-22.962,53.506-22.965-53.506-25.304,80.259h12.256ZM69.676,160.182c0,16.387-12.708,29.319-28.985,29.319s-28.988-12.933-28.988-29.319,12.711-29.319,28.988-29.319,28.985,12.934,28.985,29.319M343.231,199.2l8.138-16.055h41.471l8.138,16.055h13.151l-42.027-82.488-42.021,82.488h13.151ZM290.504,130.863c-16.276,0-28.984,12.934-28.984,29.319s12.708,29.319,28.984,29.319c13.267,0,24.751-8.808,27.982-20.85h-27.311v-11.366h39.905c.114.89.114,1.893.114,2.898,0,22.406-18.284,40.691-40.69,40.691s-40.685-18.285-40.685-40.691,18.275-40.685,40.685-40.685c13.714,0,25.86,6.8,33.22,17.273l-9.361,6.693c-5.127-7.584-13.826-12.601-23.858-12.601M190.737,121.17v78.029h47.376v-11.372h-35.676v-22.069h34.561v-11.371h-34.561v-21.848h35.676v-11.369h-47.376ZM372.102,142.456l14.94,29.319h-29.875l14.935-29.319Z" fill="#c2142d"/>
</svg>