<svg xmlns="http://www.w3.org/2000/svg" alt="Paco Rabanne Logo" xmlns:xlink="http://www.w3.org/1999/xlink" version="1.1" id="Layer_3" x="0px" y="0px" viewBox="0 0 590.7 63" style="enable-background:new 0 0 590.7 63;" xml:space="preserve" class="header-logo in off  replaced-svg" preserveAspectRatio="xMidYMin slice" width="590.7"  height="63" >
      <style type="text/css">
        .st0{fill:#231F20;}
      </style>
      <title></title>
      <g>
        <path class="st0" d="M24.1,43.7c6.6,0,12.1-4.3,12.1-11.8s-5.5-11.9-12.1-11.9s-12,4.3-12,11.9S17.6,43.7,24.1,43.7 M12.3,43.4   c0.8,1.3,1.2,2.8,1.3,4.3V63H0V11.8h13.5v3.6c-0.1,1.5-0.5,3-1.3,4.3c3.1-5.7,9.1-9.2,15.6-9.2c12.1,0,20.7,8.1,20.7,21   s-9,20.9-20.7,20.9C21.4,52.6,15.4,49.1,12.3,43.4" fill="#231F20"></path>
        <path class="st0" d="M78.6,20.1c-6.6,0-12.1,4.3-12.1,11.9S72,43.7,78.6,43.7s12-4.3,12-11.8S85.1,20.1,78.6,20.1 M89.2,51.3v-3.7   c0-1.6,0.5-3.1,1.3-4.4c-3.1,5.7-9.2,9.3-15.8,9.3c-11.8,0-20.6-7.8-20.6-20.5c0-13,8.6-21.4,20.7-21.4c6.5-0.1,12.6,3.5,15.7,9.2   c-0.8-1.2-1.2-2.7-1.3-4.1v-3.8h13.5v39.5H89.2z" fill="#231F20"></path>
        <path class="st0" d="M156.9,35.2c-1.9,11.3-11.9,17.3-23.7,17.3c-12.9,0-23.9-7-23.9-21s11-21,23.9-21c11.6,0,21.6,6.5,23.6,17.5   h-12.2c-1.4-5-5.6-8.1-11.2-8.1c-6.7,0-11.9,4.4-11.9,11.6s5.1,11.5,11.9,11.5c5.6,0,9.9-2.8,11.3-7.8L156.9,35.2z" fill="#231F20"></path>
        <path class="st0" d="M186.1,19.8c-6.6,0-12,4.4-12,11.7s5.4,11.6,12,11.6S198,38.8,198,31.5S192.7,19.8,186.1,19.8 M186.1,10.6   c12.7,0,24.2,7,24.2,20.9s-11.5,20.9-24.2,20.9s-24.2-7-24.2-20.9S173.4,10.6,186.1,10.6" fill="#231F20"></path>
        <path class="st0" d="M248.7,15.8c-0.1,1.9-0.6,3.8-1.5,5.5c3.7-7.5,9.3-10.8,15.3-10.8c2.5-0.1,4.9,0.4,7.2,1.3v12.9   c-2.6-2.1-5.8-3.2-9.1-3.1c-6.8,0-11.9,3.3-11.9,10.5v19.3h-13.5V11.8h13.5V15.8z" fill="#231F20"></path>
        <path class="st0" d="M297.5,20.1c-6.6,0-12.1,4.3-12.1,11.9s5.5,11.8,12.1,11.8s12-4.3,12-11.8S304,20.1,297.5,20.1 M308,51.3v-3.7   c0-1.6,0.5-3.1,1.3-4.4c-3.1,5.7-9.2,9.3-15.8,9.3c-11.8,0-20.6-7.8-20.6-20.5c0-13,8.5-21.4,20.6-21.4c6.5-0.1,12.6,3.5,15.7,9.2   c-0.8-1.2-1.2-2.7-1.3-4.1v-3.8h13.5v39.5H308z" fill="#231F20"></path>
        <path class="st0" d="M354.1,43.7c6.6,0,12.1-4.3,12.1-11.8s-5.5-11.9-12.1-11.9c-6.6,0-12,4.3-12,11.9S347.6,43.7,354.1,43.7    M378.6,31.6c0,13-8.5,21-20.7,21c-6.5,0.1-12.5-3.5-15.7-9.2c0.8,1.3,1.2,2.8,1.3,4.3v3.6h-13.4V0h13.4v15.6c0,1.5-0.5,3-1.3,4.3   c3.1-5.7,9.1-9.3,15.6-9.3C369.5,10.7,378.5,18.7,378.6,31.6" fill="#231F20"></path>
        <path class="st0" d="M407.9,20.1c-6.6,0-12.1,4.3-12.1,11.9s5.6,11.8,12.1,11.8c6.5,0,12-4.3,12-11.8S414.4,20.1,407.9,20.1    M418.5,51.3v-3.7c0-1.6,0.5-3.1,1.3-4.4c-3.1,5.7-9.2,9.3-15.8,9.3c-11.8,0-20.6-7.8-20.6-20.5c0-13,8.5-21.4,20.7-21.4   c6.5-0.1,12.6,3.5,15.7,9.2c-0.8-1.2-1.2-2.7-1.3-4.1v-3.8H432v39.5H418.5z" fill="#231F20"></path>
        <path class="st0" d="M453.9,15.5c-0.1,1.8-0.6,3.6-1.5,5.2c3.6-6.9,10-10,16.8-10c8.6,0,16.5,4.4,16.5,14.2v26.5h-13.6V30   c0-5.8-3-9-8.9-9c-6.1,0-9.4,3.4-9.4,8.9v21.5h-13.5V11.8h13.6V15.5z" fill="#231F20"></path>
        <path class="st0" d="M506.7,15.5c-0.1,1.8-0.6,3.6-1.5,5.2c3.6-6.9,10-10,16.9-10c8.6,0,16.5,4.4,16.5,14.2v26.5h-13.6V30   c0-5.8-3-9-8.9-9c-6.1,0-9.4,3.4-9.4,8.9v21.5h-13.5V11.8h13.5V15.5z" fill="#231F20"></path>
        <path class="st0" d="M578.7,26.2c-1-4-4.8-6.9-10.5-6.9s-9.8,2.7-11.1,6.9H578.7z M556.7,34.3c0.5,5.7,5.2,8.9,11.5,8.9   c5.1,0,8.9-1.8,10.8-5.5h11.6c-2.4,9.3-11.4,14.7-22.5,14.7c-12.9,0-23.7-7-23.7-20.9c0-13.8,11.2-21,24-21   c11.6,0,22.3,6.8,22.3,21c0,0.9,0,1.8-0.2,2.7L556.7,34.3z" fill="#231F20"></path>
      </g>
      </svg>