<?xml version="1.0" encoding="UTF-8"?>
<svg id="Laag_1" xmlns="http://www.w3.org/2000/svg" version="1.1" viewBox="0 0 350.631 267.445">
  <!-- Generator: Adobe Illustrator 29.6.1, SVG Export Plug-In . SVG Version: 2.1.1 Build 9)  -->
  <path d="M268.058,145.047s-9.64,13.971-36.138,13.49c0,0-17.34,0-20.723-3.85l-.481-99.524s-10.121-16.151-21.686,0v125.541l.184,33.01.099,18.883.014,2.378.184,32.472-57.342-17.835v-16.859l-.085-15.571-.113-18.218-.113-20.482-.085-15.967-.085-14.098.481-148.415,82.892,21.204s52.997,14.934,62.636,59.748c0,0,5.789,45.777-9.639,64.094Z" fill="#dd092b"/>
  <path d="M132.169,232.751s-17.34,7.715-42.394,7.715c0,0-50.378-.495-73.252-11.083,0,0-25.352-7.799-13.249-29.004,3.369-5.917,9.272-9.965,15.372-12.98,2.095-1.019,4.671-2.222,7.842-3.567h.014l50.774,14.99-16.42,6.115c-8.918,3.029-1.925,9.739-1.925,9.739,9.88,8.196,20.482,2.647,20.482,2.647l26.215-9.158,26.456,9.017.085,15.571Z" fill="#f2c101"/>
  <path d="M131.858,178.481l-54.582,20.341-50.774-14.99c4.133-1.755,9.243-3.765,15.556-6.016l68.001-22.308,21.714,7.007.085,15.967Z" fill="#00aa9e"/>
  <polygon points="131.773 162.514 110.059 155.507 131.688 148.415 131.773 162.514" fill="#316eb3"/>
  <path d="M131.971,198.963l-26.342,9.201-26.215,9.158s-10.602,5.549-20.482-2.647c0,0-6.993-6.709,1.925-9.739l16.42-6.115,54.582-20.341.113,20.482Z" fill="none"/>
  <path d="M323.559,221.583l-55.219-16.646,20.935-7.332c.75-.269,1.486-.594,2.18-1.019,20.638-12.456-1.302-12.74-15.259-11.65-4.728.382-9.385,1.401-13.872,2.987l-23.172,8.21-50.123-15.429s36.152-13.971,65.056-15.415c0,0,100.713-6.271,96.382,34.694,0,0,3.935,9.187-26.909,21.601Z" fill="#316eb3"/>
  <polygon points="237.2 251.054 189.511 267.445 189.327 234.973 237.2 251.054" fill="#f2c101"/>
  <path d="M323.559,221.583c-6.525,2.633-14.636,5.407-24.658,8.281l-61.702,21.19-47.872-16.08-.014-2.378,79.028-27.659,55.219,16.646Z" fill="#00aa9e"/>
  <path d="M291.456,196.585c-.694.425-1.43.75-2.18,1.019l-20.935,7.332-79.028,27.659-.099-18.883,49.939-17.581,23.172-8.21c4.487-1.585,9.144-2.605,13.872-2.987,13.957-1.09,35.897-.807,15.259,11.65Z" fill="none"/>
  <polygon points="239.153 196.132 189.214 213.713 189.03 180.703 239.153 196.132" fill="#00aa9e"/>
  <line x1="189.313" y1="232.595" x2="189.03" y2="232.694" fill="none"/>
  <polygon points="132.084 217.181 105.629 208.164 131.971 198.963 132.084 217.181" fill="#00aa9e"/>
</svg>