<?xml version="1.0" encoding="UTF-8"?>
<svg id="Ebene_1" xmlns="http://www.w3.org/2000/svg" version="1.1" viewBox="0 0 591 93">
  <!-- Generator: Adobe Illustrator 29.6.1, SVG Export Plug-In . SVG Version: 2.1.1 Build 9)  -->
  <path d="M69.65,57.76h-31.7v22.37c0,10.68,10.57,11.26,11.76,11.26v1.61H0v-1.61c1.19,0,11.76-.58,11.76-11.26V12.87C11.76,2.19,1.19,1.61,0,1.61V0h69.65c22.18,0,32.74,14.48,32.74,28.95,0,14.34-10.56,28.81-32.74,28.81ZM57.3,6.29h-19.35v45.18h19.35c14.29,0,20.98-10.52,20.98-22.52s-6.69-22.66-20.98-22.66ZM195.26,93l-43.31-35.24v22.37c0,10.68,10.57,11.26,11.76,11.26v1.61h-49.56v-1.61c1.19,0,11.76-.58,11.76-11.26V12.87c0-10.68-10.57-11.26-11.76-11.26V0h69.66c22.17,0,32.59,14.48,32.59,28.95,0,14.34-10.42,28.81-32.59,28.81h-21.73c4.76,4.97,14.73,7.02,23.81,7.02,4.01,0,8.03-.59,11.46-1.46l35.27,28.36v1.32h-37.36ZM171.45,6.29h-19.5v45.18h19.5c14.14,0,20.99-10.52,20.99-22.52s-6.85-22.66-20.99-22.66ZM309.57,93v-1.61c4.91,0,6.99-1.46,6.99-4.68,0-1.46-.6-3.36-1.64-5.26l-8.93-15.8h-38.69l-6.85,13.9c-.89,1.9-1.64,4.09-1.64,6.29,0,3.36,1.49,5.55,5.66,5.55v1.61h-23.96v-1.61c5.65,0,9.22-3.8,12.65-10.67l28.72-57.47-8.04-13.31c-4.16-6.87-8.48-8.33-12.8-8.33V0h37.66l46.43,81.45c2.83,4.97,5.96,9.94,12.21,9.94v1.61h-47.77ZM285.45,29.68l-15.18,29.69h32.15l-16.97-29.69ZM422.08,93h-54.77v-1.61c1.19,0,11.76-.58,11.76-11.26V12.87c0-10.68-10.57-11.26-11.76-11.26V0h54.77c24.56,0,50.15,15.79,50.15,46.5s-25.59,46.5-50.15,46.5ZM440.68,29.39c0-16.81-10.72-23.1-22.62-23.1h-12.8v80.42h12.8c11.9,0,22.62-6.29,22.62-23.1V29.39ZM543.23,93v-1.61c4.9,0,6.99-1.46,6.99-4.68,0-1.46-.6-3.36-1.64-5.26l-8.93-15.8h-38.69l-6.85,13.9c-.89,1.9-1.64,4.09-1.64,6.29,0,3.36,1.49,5.55,5.66,5.55v1.61h-23.96v-1.61c5.65,0,9.23-3.8,12.65-10.67l28.72-57.47-8.03-13.31c-4.17-6.87-8.49-8.33-12.8-8.33V0h37.65l46.44,81.45c2.82,4.97,5.95,9.94,12.2,9.94v1.61h-47.77ZM519.11,29.68l-15.18,29.69h32.15l-16.97-29.69Z" fill="#221e1f" fill-rule="evenodd"/>
</svg>