<?xml version="1.0" encoding="UTF-8"?>
<svg id="Capa_1" xmlns="http://www.w3.org/2000/svg" xmlns:xlink="http://www.w3.org/1999/xlink" version="1.1" viewBox="0 0 127.3 114.972">
  <!-- Generator: Adobe Illustrator 29.6.1, SVG Export Plug-In . SVG Version: 2.1.1 Build 9)  -->
  <defs>
    <clipPath id="clippath">
      <path d="M61.343,60.569c-2.867-5.51-4.799-9.313-7.521-15.413-.231-.521-.396-.907-.396-1.396.006-.476.171-.866.399-1.377,2.72-6.1,4.653-9.904,7.519-15.413.165-.317.298-.524.484-.527h.005c.19,0,.325.207.491.527,2.866,5.51,4.796,9.313,7.517,15.413.233.523.393.907.393,1.396,0,.494-.171.868-.399,1.379-2.72,6.1-4.653,9.903-7.519,15.413-.165.318-.301.526-.488.529-.19,0-.32-.211-.486-.53M54.032,9.661c-.268.028-.369.076-.47.127-.133.073-.268.144-.481.462-.619.925-7.008,11.427-11.072,18.817-2.885,5.242-5.731,10.8-6.944,13.366-.323.679-.369,1.127-.369,1.338,0,.369.123.817.369,1.336,1.213,2.565,4.058,8.122,6.944,13.365,4.064,7.391,10.429,17.916,11.085,18.817.101.139.192.253.279.344.149.157.282.25.435.296.163.051.485.021.751-.008.141-.016.32-.01.459-.005,1.637.055,4.151.114,6.816.112,3.304,0,7.166-.084,7.747-.152l.092-.01c.223-.025.348-.058.413-.092.135-.055.247-.163.519-.538.655-.903,6.989-11.374,11.054-18.765,2.885-5.242,5.732-10.798,6.944-13.365.321-.679.369-1.214.369-1.423,0-.369-.123-.735-.369-1.251-1.213-2.566-4.06-8.122-6.944-13.366-4.066-7.391-10.429-17.915-11.084-18.817-.177-.242-.32-.405-.466-.513-.084-.06-.163-.101-.25-.128-.163-.049-.524-.019-.79.01-.142.014-.321.011-.458.005-1.358-.057-4.088-.114-6.778-.114-3.304,0-7.285.101-7.801.152" fill="none"/>
    </clipPath>
    <linearGradient id="Degradado_sin_nombre_65" data-name="Degradado sin nombre 65" x1="-308.633" y1="356.887" x2="-307.049" y2="356.887" gradientTransform="translate(15507.005 -13278.818) rotate(-90) scale(43.278 -43.278)" gradientUnits="userSpaceOnUse">
      <stop offset="0" stop-color="#ececef"/>
      <stop offset=".687" stop-color="#fff"/>
      <stop offset="1" stop-color="#abacb1"/>
    </linearGradient>
    <filter id="luminosity-invert-noclip" x="34.694" y="9.509" width="54.278" height="68.522" color-interpolation-filters="sRGB" filterUnits="userSpaceOnUse">
      <feColorMatrix result="cm" values="-1 0 0 0 1 0 -1 0 0 1 0 0 -1 0 1 0 0 0 1 0"/>
      <feFlood flood-color="#fff" result="bg"/>
      <feBlend in="cm" in2="bg"/>
    </filter>
    <linearGradient id="Degradado_sin_nombre_33" data-name="Degradado sin nombre 33" x1="-313.011" y1="360.769" x2="-311.427" y2="360.769" gradientTransform="translate(8862.12 -7552.38) rotate(-90) scale(24.393 -24.393)" gradientUnits="userSpaceOnUse">
      <stop offset="0" stop-color="#fff"/>
      <stop offset=".855" stop-color="#fff"/>
      <stop offset=".869" stop-color="#f9f9f9"/>
      <stop offset=".887" stop-color="#eaeaea"/>
      <stop offset=".907" stop-color="#d1d1d1"/>
      <stop offset=".928" stop-color="#afaeae"/>
      <stop offset=".95" stop-color="#828282"/>
      <stop offset=".973" stop-color="#4b4b4b"/>
      <stop offset=".996" stop-color="#0c0b0b"/>
      <stop offset="1" stop-color="#010000"/>
    </linearGradient>
    <mask id="mask" x="34.694" y="9.509" width="54.278" height="68.522" maskUnits="userSpaceOnUse">
      <g filter="url(#luminosity-invert-noclip)">
        <g>
          <rect x="34.694" y="9.509" width="54.278" height="68.522"/>
          <g isolation="isolate">
            <rect x="34.695" y="44.296" width="54.277" height="33.735" fill="url(#Degradado_sin_nombre_33)"/>
          </g>
        </g>
      </g>
    </mask>
    <clipPath id="clippath-1">
      <rect x="34.694" y="9.509" width="54.278" height="68.522" fill="none"/>
    </clipPath>
    <clipPath id="clippath-2">
      <path d="M61.834,26.439c.19,0,.325.207.491.529,2.866,5.51,4.796,9.313,7.517,15.413.233.523.393.907.393,1.396,0,.494-.171.868-.399,1.379-2.72,6.1-4.653,9.903-7.519,15.413-.165.318-.301.526-.488.529-.19,0-.32-.211-.486-.53-2.867-5.51-4.799-9.313-7.521-15.413-.231-.521-.396-.907-.396-1.396.006-.475.171-.866.399-1.377,2.722-6.1,4.653-9.904,7.519-15.413.165-.317.298-.524.484-.527l.005-.002ZM54.032,9.661c-.268.028-.369.076-.47.127-.131.073-.268.144-.481.462-.619.925-7.008,11.427-11.072,18.817-2.885,5.242-5.731,10.8-6.944,13.366-.323.679-.369,1.127-.369,1.338,0,.369.123.817.369,1.336,1.213,2.565,4.058,8.122,6.944,13.365,4.064,7.391,10.429,17.916,11.085,18.817.101.139.192.253.279.345.149.155.282.249.435.295.163.051.485.021.749-.008.143-.016.321-.01.461-.005,1.613.054,4.083.112,6.707.112h.109c3.304,0,7.166-.084,7.747-.152l.093-.01c.222-.025.347-.06.412-.092.135-.055.247-.163.519-.538.655-.903,6.989-11.374,11.054-18.765,2.885-5.242,5.732-10.798,6.944-13.365.321-.679.369-1.214.369-1.423,0-.369-.123-.735-.369-1.251-1.213-2.566-4.06-8.122-6.944-13.366-4.066-7.391-10.429-17.915-11.084-18.817-.177-.242-.32-.405-.466-.513-.084-.06-.163-.101-.25-.128-.163-.049-.524-.019-.79.01-.142.014-.321.011-.458.005-1.358-.057-4.088-.114-6.778-.114-3.304,0-7.285.101-7.801.152" fill="none"/>
    </clipPath>
    <radialGradient id="Degradado_sin_nombre_64" data-name="Degradado sin nombre 64" cx="-313.279" cy="341.607" fx="-313.279" fy="341.607" r="1.583" gradientTransform="translate(6818.467 7426.056) scale(21.579 -21.659)" gradientUnits="userSpaceOnUse">
      <stop offset="0" stop-color="#fff"/>
      <stop offset=".401" stop-color="#fff"/>
      <stop offset="1" stop-color="#abacb1"/>
    </radialGradient>
    <clipPath id="clippath-3">
      <path d="M50.739,43.753c-.234.22-.646.437-1.651.437-.893,0-8.482-.01-12.098-.01-.53,0-1.241-.04-1.241.8,0,.493.427,1.487,1.305,3.205,4.799,9.387,10.13,18.764,15.845,27.928,0,0,.872,1.406.963,1.518.089.111.195.16.408.158,0,0,3.626-6.64,6.553-13.876-3.257-6.01-6.265-11.951-9.077-17.923,0,0-.8-1.495-.831-2.085-.003-.078-.006-.103,0-.181.006-.063,0-.092-.022-.092-.027,0-.078.049-.154.12" fill="none"/>
    </clipPath>
    <linearGradient id="Degradado_sin_nombre_63" data-name="Degradado sin nombre 63" x1="-314.344" y1="362.326" x2="-312.761" y2="362.326" gradientTransform="translate(7772.682 -6623.778) rotate(-90) scale(21.319 -21.319)" gradientUnits="userSpaceOnUse">
      <stop offset="0" stop-color="#ececef"/>
      <stop offset=".01" stop-color="#ececef"/>
      <stop offset=".339" stop-color="#bcbdc2"/>
      <stop offset=".528" stop-color="#8a8a8f"/>
      <stop offset=".694" stop-color="#5b5a5f"/>
      <stop offset=".845" stop-color="#434144"/>
      <stop offset=".899" stop-color="#393639"/>
      <stop offset=".948" stop-color="#2d2a2b"/>
      <stop offset=".959" stop-color="#302d2e"/>
      <stop offset=".969" stop-color="#3a3839"/>
      <stop offset=".979" stop-color="#4c4a4c"/>
      <stop offset=".989" stop-color="#646367"/>
      <stop offset=".999" stop-color="#848388"/>
      <stop offset="1" stop-color="#89898e"/>
    </linearGradient>
    <clipPath id="clippath-4">
      <path d="M54.269,77.789h.003-.003ZM54.272,77.789h.002-.002Z" fill="none"/>
    </clipPath>
    <clipPath id="clippath-5">
      <polygon points="54.269 77.787 54.269 77.787 54.274 77.787 54.269 77.787" fill="none"/>
    </clipPath>
    <linearGradient id="Degradado_sin_nombre_631" data-name="Degradado sin nombre 63" x1="54.27" y1="77.787" x2="54.274" y2="77.787" gradientTransform="matrix(0,0,0,0,275.885,-162.299)" xlink:href="#Degradado_sin_nombre_63"/>
    <clipPath id="clippath-6">
      <path d="M88.301,43.856c-.13.133-.496.331-1.314.331h-9.965c-4.569,0-4.105-.123-5.293,2.294-.527,1.075-1.073,2.34-1.629,3.379-3.99,8.342-13.726,25.143-15.04,27.225-.495.784-.568.825-.207.825,0,0,3.303.12,6.981.12,5.743,0,7.796-.157,7.796-.157,3.331-5.184,11.273-18.323,16.943-29.707,1.308-2.622,1.962-3.762,1.897-4.322-.006-.043-.024-.059-.047-.059-.036,0-.087.036-.12.071" fill="none"/>
    </clipPath>
    <linearGradient id="Degradado_sin_nombre_62" data-name="Degradado sin nombre 62" x1="-314.334" y1="361.918" x2="-312.75" y2="361.918" gradientTransform="translate(7793.968 -6629.434) rotate(-90) scale(21.338 -21.338)" gradientUnits="userSpaceOnUse">
      <stop offset="0" stop-color="#ececef"/>
      <stop offset=".01" stop-color="#ececef"/>
      <stop offset=".339" stop-color="#bcbdc2"/>
      <stop offset=".528" stop-color="#8a8a8f"/>
      <stop offset=".694" stop-color="#5b5a5f"/>
      <stop offset=".845" stop-color="#434144"/>
      <stop offset=".902" stop-color="#393639"/>
      <stop offset=".954" stop-color="#2d2a2b"/>
      <stop offset=".964" stop-color="#302d2e"/>
      <stop offset=".973" stop-color="#3a3839"/>
      <stop offset=".982" stop-color="#4c4a4c"/>
      <stop offset=".99" stop-color="#646367"/>
      <stop offset=".999" stop-color="#848388"/>
      <stop offset="1" stop-color="#89898e"/>
    </linearGradient>
    <clipPath id="clippath-7">
      <path d="M69.344,9.756c-.234,0-.41.19-.738.698-2.818,4.363-12.546,22.69-16.519,31.235-.486,1.047-.731,1.558-.731,2.066l2.069.003s0,.002.001,0c.006-.476.171-.866.399-1.377,2.72-6.1,4.653-9.904,7.519-15.413.165-.317.298-.524.484-.527l.806-2.345c2.802-6.989,6.73-14.34,6.73-14.34h-.022" fill="none"/>
    </clipPath>
    <linearGradient id="Degradado_sin_nombre_61" data-name="Degradado sin nombre 61" x1="-313.675" y1="362.042" x2="-312.092" y2="362.042" gradientTransform="translate(7835.935 -6693.263) rotate(-90) scale(21.477 -21.477)" gradientUnits="userSpaceOnUse">
      <stop offset="0" stop-color="#5b5a5f"/>
      <stop offset=".01" stop-color="#4f4e52"/>
      <stop offset=".024" stop-color="#464447"/>
      <stop offset=".04" stop-color="#434144"/>
      <stop offset=".11" stop-color="#403e41"/>
      <stop offset=".155" stop-color="#373638"/>
      <stop offset=".193" stop-color="#292729"/>
      <stop offset=".227" stop-color="#151415"/>
      <stop offset=".252" stop-color="#010000"/>
      <stop offset="1" stop-color="#010000"/>
    </linearGradient>
    <clipPath id="clippath-8">
      <path d="M61.83,26.441,61.83,26.441h.005c.19,0,.325.207.491.527,2.866,5.51,4.796,9.313,7.517,15.413.233.523.393.907.393,1.396,0,.003,0,.002,0,0,0-.002,0-.003,0,0h2.065c0-.507-.237-1.005-.724-2.041-2.747-5.831-5.617-11.515-8.941-17.641l-.806,2.345Z" fill="none"/>
    </clipPath>
    <linearGradient id="Degradado_sin_nombre_60" data-name="Degradado sin nombre 60" x1="-321.388" y1="369.27" x2="-319.805" y2="369.27" gradientTransform="translate(4658.13 -3951.97) rotate(-90) scale(12.433 -12.433)" gradientUnits="userSpaceOnUse">
      <stop offset="0" stop-color="#949398"/>
      <stop offset=".158" stop-color="#8f8e93"/>
      <stop offset=".342" stop-color="#818084"/>
      <stop offset=".54" stop-color="#6a696d"/>
      <stop offset=".747" stop-color="#4b494c"/>
      <stop offset=".795" stop-color="#434144"/>
      <stop offset=".825" stop-color="#3e3d3f"/>
      <stop offset=".856" stop-color="#323133"/>
      <stop offset=".887" stop-color="#1e1d1e"/>
      <stop offset=".919" stop-color="#020101"/>
      <stop offset=".921" stop-color="#010000"/>
      <stop offset="1" stop-color="#010000"/>
    </linearGradient>
    <clipPath id="clippath-9">
      <path d="M52.08,45.82c2.745,5.833,5.605,11.503,8.928,17.63l.822-2.351c-.19,0-.32-.211-.486-.53-2.867-5.51-4.799-9.313-7.521-15.413-.231-.521-.396-.907-.396-1.396l-2.071-.003c-.005.51.231,1.024.724,2.065" fill="none"/>
    </clipPath>
    <linearGradient id="Degradado_sin_nombre_59" data-name="Degradado sin nombre 59" x1="-321.962" y1="369.572" x2="-320.379" y2="369.572" gradientTransform="translate(4653.733 -3941.434) rotate(-90) scale(12.439 -12.439)" gradientUnits="userSpaceOnUse">
      <stop offset="0" stop-color="#d0d0d4"/>
      <stop offset=".357" stop-color="#d0d0d4"/>
      <stop offset=".491" stop-color="#cbcbcf"/>
      <stop offset=".644" stop-color="#bdbdc1"/>
      <stop offset=".804" stop-color="#a7a7ab"/>
      <stop offset=".963" stop-color="#89898e"/>
      <stop offset="1" stop-color="#5b5a5f"/>
    </linearGradient>
    <clipPath id="clippath-10">
      <path d="M52.08,45.82c2.745,5.833,5.605,11.503,8.928,17.63l.822-2.351c-.19,0-.32-.211-.486-.53-2.867-5.51-4.799-9.313-7.521-15.413-.231-.521-.396-.907-.396-1.396v-.003l-2.071-.003c-.005.513.231,1.028.724,2.068" fill="none"/>
    </clipPath>
    <clipPath id="clippath-11">
      <rect x="45.459" y="44.775" width="22.264" height="17.651" transform="translate(-15.539 83.145) rotate(-65.72)" fill="none"/>
    </clipPath>
    <linearGradient id="Degradado_sin_nombre_27" data-name="Degradado sin nombre 27" x1="-294.769" y1="376.122" x2="-293.185" y2="376.122" gradientTransform="translate(4725.364 -3596.984) rotate(-90) scale(12.413 -12.413)" gradientUnits="userSpaceOnUse">
      <stop offset="0" stop-color="#ccc"/>
      <stop offset=".013" stop-color="#ccc"/>
      <stop offset=".11" stop-color="#000"/>
      <stop offset="1" stop-color="#000"/>
    </linearGradient>
    <mask id="mask-1" x="33.641" y="30.363" width="45.898" height="46.476" maskUnits="userSpaceOnUse">
      <g clip-path="url(#clippath-11)">
        <rect x="38.843" y="36.43" width="35.495" height="34.34" transform="translate(-15.538 83.147) rotate(-65.721)" fill="url(#Degradado_sin_nombre_27)"/>
      </g>
    </mask>
    <linearGradient id="Degradado_sin_nombre_58" data-name="Degradado sin nombre 58" x1="-294.768" y1="376.128" x2="-293.185" y2="376.128" gradientTransform="translate(4725.428 -3596.995) rotate(-90) scale(12.413 -12.413)" gradientUnits="userSpaceOnUse">
      <stop offset="0" stop-color="#f6f7f7"/>
      <stop offset=".013" stop-color="#f6f7f7"/>
      <stop offset=".11" stop-color="#f4f3f4"/>
      <stop offset="1" stop-color="#f4f3f4"/>
    </linearGradient>
    <clipPath id="clippath-12">
      <path d="M70.235,43.778c0,.494-.171.868-.399,1.379-2.72,6.1-4.653,9.903-7.519,15.413-.165.318-.301.526-.488.529l-.822,2.351c-2.956,7.413-6.738,14.338-6.738,14.338.229.011.502-.268.817-.749.084-.133.195-.315.331-.543,2.123-3.615,12.356-22.502,16.142-30.641.486-1.047.741-1.569.741-2.077h-2.065v-.002.002" fill="none"/>
    </clipPath>
    <linearGradient id="Degradado_sin_nombre_57" data-name="Degradado sin nombre 57" x1="-314.257" y1="361.99" x2="-312.673" y2="361.99" gradientTransform="translate(7839.231 -6673.008) rotate(-90) scale(21.481 -21.481)" gradientUnits="userSpaceOnUse">
      <stop offset="0" stop-color="#fff"/>
      <stop offset=".263" stop-color="#f8f8f9"/>
      <stop offset=".617" stop-color="#e7e7e9"/>
      <stop offset=".969" stop-color="#d0d0d4"/>
      <stop offset=".991" stop-color="#949398"/>
      <stop offset="1" stop-color="#949398"/>
    </linearGradient>
    <clipPath id="clippath-13">
      <path d="M33.356,43.77c0,.456.098,1.045.499,1.913.944,2.05,3.589,7.27,6.981,13.439,3.703,6.735,10.424,17.936,11.176,18.96.309.421.57.676.823.836l.537-1.284c-.087-.09-.177-.204-.279-.344-.655-.901-7.02-11.427-11.085-18.817-2.886-5.242-5.731-10.8-6.944-13.365-.245-.519-.369-.967-.369-1.336l-1.339-.002Z" fill="none"/>
    </clipPath>
    <linearGradient id="Degradado_sin_nombre_56" data-name="Degradado sin nombre 56" x1="-313.918" y1="361.992" x2="-312.335" y2="361.992" gradientTransform="translate(8079.224 -6889.746) rotate(-90) scale(22.199 -22.199)" gradientUnits="userSpaceOnUse">
      <stop offset="0" stop-color="#89898e"/>
      <stop offset=".135" stop-color="#838388"/>
      <stop offset=".569" stop-color="#76767b"/>
      <stop offset=".97" stop-color="#727277"/>
      <stop offset=".989" stop-color="#96979c"/>
      <stop offset="1" stop-color="#a7a8ad"/>
    </linearGradient>
    <clipPath id="clippath-14">
      <path d="M52.835,78.917c.361.23.695.258,1.1.295.999.089,5.378.161,7.897.161s7.248-.103,7.899-.161c.309-.029.59-.056.883-.185l-.53-1.251c-.065.033-.19.067-.413.092l-.092.01c-.581.068-4.443.152-7.747.152-2.665.002-5.179-.057-6.816-.112-.139-.005-.318-.011-.459.005-.266.029-.587.058-.751.008-.153-.046-.286-.139-.435-.296l-.537,1.284Z" fill="none"/>
    </clipPath>
    <linearGradient id="Degradado_sin_nombre_55" data-name="Degradado sin nombre 55" x1="-310.426" y1="319.695" x2="-308.842" y2="319.695" gradientTransform="translate(-3094.091 3135.147) rotate(90) scale(9.871 -9.871)" gradientUnits="userSpaceOnUse">
      <stop offset="0" stop-color="#89898e"/>
      <stop offset=".019" stop-color="#89898e"/>
      <stop offset=".037" stop-color="#757479"/>
      <stop offset=".061" stop-color="#605e63"/>
      <stop offset=".084" stop-color="#535155"/>
      <stop offset=".105" stop-color="#4f4d51"/>
      <stop offset="1" stop-color="#4f4d51"/>
    </linearGradient>
    <clipPath id="clippath-15">
      <path d="M70.109,9.737c.146.108.288.271.466.513.655.903,7.019,11.427,11.084,18.817,2.885,5.244,5.732,10.8,6.944,13.366.245.516.369.882.369,1.251l1.339.086h0c0-.372-.082-1.043-.499-1.914-1.013-2.111-4.25-8.485-6.982-13.437-3.654-6.626-10.393-17.909-11.175-18.96-.412-.553-.722-.812-1.034-.948l-.513,1.227Z" fill="none"/>
    </clipPath>
    <linearGradient id="Degradado_sin_nombre_54" data-name="Degradado sin nombre 54" x1="-307.061" y1="338.148" x2="-305.478" y2="338.148" gradientTransform="translate(-7224.739 6642.65) rotate(90) scale(21.603 -21.603)" gradientUnits="userSpaceOnUse">
      <stop offset="0" stop-color="#7f7d82"/>
      <stop offset="1" stop-color="#949398"/>
    </linearGradient>
    <clipPath id="clippath-16">
      <path d="M53.853,8.333c-.345.033-.605.09-.822.184l.53,1.271c.101-.051.203-.098.47-.127.516-.051,4.497-.152,7.801-.152,2.69,0,5.419.057,6.778.114.136.006.315.01.458-.005.266-.028.627-.059.79-.01.087.027.166.068.25.128l.513-1.227c-.299-.136-.589-.152-.926-.182-1.04-.095-5.518-.163-7.863-.163-2.065,0-6.857.055-7.98.168" fill="none"/>
    </clipPath>
    <linearGradient id="Degradado_sin_nombre_53" data-name="Degradado sin nombre 53" x1="-289.242" y1="376.819" x2="-287.659" y2="376.819" gradientTransform="translate(4085.408 -3071.137) rotate(-90) scale(10.678 -10.678)" gradientUnits="userSpaceOnUse">
      <stop offset="0" stop-color="#7f7d82"/>
      <stop offset=".01" stop-color="#7f7d82"/>
      <stop offset=".022" stop-color="#908f94"/>
      <stop offset=".041" stop-color="#a8a8ad"/>
      <stop offset=".059" stop-color="#b7b7bc"/>
      <stop offset=".074" stop-color="#bcbdc2"/>
      <stop offset=".501" stop-color="#cfd0d3"/>
      <stop offset="1" stop-color="#d0d0d4"/>
    </linearGradient>
    <clipPath id="clippath-17">
      <path d="M51.966,9.512c-.774,1.01-7.508,12.375-11.131,18.906-2.549,4.598-6.599,12.563-6.982,13.437-.383.876-.497,1.46-.497,1.914l1.339.002c0-.211.046-.659.369-1.338,1.213-2.566,4.059-8.124,6.944-13.366,4.064-7.391,10.453-17.893,11.072-18.817.214-.318.348-.389.481-.462l-.53-1.271c-.423.179-.674.486-1.065.996" fill="none"/>
    </clipPath>
    <linearGradient id="Degradado_sin_nombre_52" data-name="Degradado sin nombre 52" x1="-318.149" y1="345.416" x2="-316.565" y2="345.416" gradientTransform="translate(6265.371 6798.345) scale(19.606 -19.606)" gradientUnits="userSpaceOnUse">
      <stop offset="0" stop-color="#a7a8ad"/>
      <stop offset=".987" stop-color="#949398"/>
      <stop offset="1" stop-color="#d0d0d4"/>
    </linearGradient>
    <clipPath id="clippath-18">
      <path d="M70.085,77.776l.002-.002-.002.002M88.603,45.108c-1.213,2.566-4.06,8.122-6.944,13.365-4.066,7.391-10.399,17.863-11.054,18.765-.272.375-.385.483-.519.538l.53,1.251c.325-.144.657-.413,1.04-.945.725-1.009,7.97-13.103,11.175-18.96,3.206-5.857,6.61-12.606,6.982-13.439.462-1.035.499-1.542.499-1.913l-1.339-.086c0,.209-.047.744-.369,1.423" fill="none"/>
    </clipPath>
    <linearGradient id="Degradado_sin_nombre_51" data-name="Degradado sin nombre 51" x1="-313.86" y1="361.328" x2="-312.277" y2="361.328" gradientTransform="translate(8145.483 -6926.714) rotate(-90) scale(22.321 -22.321)" gradientUnits="userSpaceOnUse">
      <stop offset="0" stop-color="#4f4d51"/>
      <stop offset=".019" stop-color="#4f4d51"/>
      <stop offset=".226" stop-color="#58575b"/>
      <stop offset=".596" stop-color="#636367"/>
      <stop offset=".97" stop-color="#67676b"/>
      <stop offset=".986" stop-color="#828186"/>
      <stop offset="1" stop-color="#949398"/>
    </linearGradient>
    <clipPath id="clippath-19">
      <path d="M62.015,27.201c.253.481,2.261,4.31,4.093,8.067,1.719,3.52,3.22,6.897,3.387,7.269.223.503.358.837.358,1.241,0,.393-.131.695-.353,1.197l-.013.029c-.014.033-1.585,3.574-3.399,7.293-1.625,3.328-3.392,6.729-4.076,8.037l-.033.062c-.065.127-.123.22-.149.22-.027,0-.082-.09-.147-.218-.01-.019-.044-.084-.101-.193-1.917-3.668-3.241-6.325-4.014-7.907-1.737-3.558-3.282-7.03-3.391-7.289l-.016-.036c-.196-.461-.351-.825-.351-1.211s.18-.815.364-1.217c.011-.025.043-.095.09-.204,1.099-2.492,2.207-4.87,3.29-7.069,1.572-3.192,3.342-6.609,3.928-7.736-5.41,3.499-8.993,9.601-8.993,16.541,0,10.858,8.77,19.663,19.588,19.663,3.486,0,6.759-.915,9.595-2.517.426-.754.82-1.457,1.165-2.093,3.119-5.698,6.583-12.544,6.982-13.439.438-.982.499-1.501.499-1.916,0-.328-.063-1.012-.499-1.917-1.036-2.157-4.254-8.494-6.982-13.439-.212-.385-.432-.784-.662-1.194-2.948-1.783-6.404-2.81-10.098-2.81s-7.122,1.02-10.062,2.791" fill="none"/>
    </clipPath>
    <clipPath id="clippath-20">
      <path d="M66.415,44.072c0,3.236,2.623,5.861,5.86,5.861s5.863-2.625,5.863-5.861-2.625-5.861-5.863-5.861-5.86,2.625-5.86,5.861" fill="none"/>
    </clipPath>
    <radialGradient id="Degradado_sin_nombre_21" data-name="Degradado sin nombre 21" cx="-361.171" cy="290.276" fx="-361.171" fy="290.276" r="1.583" gradientTransform="translate(1409.404 1118.732) scale(3.702 -3.702)" gradientUnits="userSpaceOnUse">
      <stop offset="0" stop-color="#fff"/>
      <stop offset=".166" stop-color="#fff"/>
      <stop offset=".269" stop-color="#c3c3c3"/>
      <stop offset=".372" stop-color="#908f8f"/>
      <stop offset=".476" stop-color="#646363"/>
      <stop offset=".581" stop-color="#403f3f"/>
      <stop offset=".685" stop-color="#242323"/>
      <stop offset=".789" stop-color="#100f0f"/>
      <stop offset=".894" stop-color="#040303"/>
      <stop offset="1" stop-color="#010000"/>
    </radialGradient>
    <mask id="mask-2" x="52.555" y="24.413" width="39.319" height="39.32" maskUnits="userSpaceOnUse">
      <g>
        <rect x="52.556" y="24.414" width="39.318" height="39.318"/>
        <g isolation="isolate">
          <g clip-path="url(#clippath-20)">
            <rect x="66.415" y="38.211" width="11.723" height="11.723" fill="url(#Degradado_sin_nombre_21)"/>
          </g>
        </g>
      </g>
    </mask>
    <clipPath id="clippath-21">
      <rect x="52.556" y="24.414" width="39.318" height="39.316" fill="none"/>
    </clipPath>
    <clipPath id="clippath-22">
      <path d="M52.555,44.072c0,10.858,8.803,19.658,19.66,19.658s19.658-8.8,19.658-19.658-8.8-19.66-19.658-19.66-19.66,8.802-19.66,19.66" fill="none"/>
    </clipPath>
    <radialGradient id="Degradado_sin_nombre_20" data-name="Degradado sin nombre 20" cx="-320.419" cy="333.463" fx="-320.419" fy="333.463" r="1.583" gradientTransform="translate(4050.698 4184.511) scale(12.417 -12.416)" gradientUnits="userSpaceOnUse">
      <stop offset="0" stop-color="#fff"/>
      <stop offset=".194" stop-color="#a1a1a1"/>
      <stop offset=".388" stop-color="#4b4b4b"/>
      <stop offset=".524" stop-color="#141414"/>
      <stop offset=".59" stop-color="#000"/>
      <stop offset="1" stop-color="#000"/>
    </radialGradient>
    <mask id="mask-3" x="52.555" y="24.413" width="39.319" height="39.32" maskUnits="userSpaceOnUse">
      <rect x="52.556" y="24.415" width="39.318" height="39.318" fill="url(#Degradado_sin_nombre_20)"/>
    </mask>
    <radialGradient id="Degradado_sin_nombre_19" data-name="Degradado sin nombre 19" cx="-320.39" cy="333.495" fx="-320.39" fy="333.495" r="1.583" gradientTransform="translate(4050.332 4184.907) scale(12.417 -12.416)" gradientUnits="userSpaceOnUse">
      <stop offset="0" stop-color="#fff"/>
      <stop offset=".59" stop-color="#fff"/>
      <stop offset="1" stop-color="#fff"/>
    </radialGradient>
  </defs>
  <g>
    <g clip-path="url(#clippath)">
      <rect x="34.695" y="9.509" width="54.277" height="68.521" fill="url(#Degradado_sin_nombre_65)"/>
    </g>
    <g mask="url(#mask)">
      <g clip-path="url(#clippath-1)">
        <g clip-path="url(#clippath-2)">
          <rect x="34.695" y="9.509" width="54.277" height="68.52" fill="url(#Degradado_sin_nombre_64)"/>
        </g>
      </g>
    </g>
    <g clip-path="url(#clippath-3)">
      <rect x="35.748" y="43.632" width="25.074" height="34.158" fill="url(#Degradado_sin_nombre_63)"/>
    </g>
    <g clip-path="url(#clippath-4)">
      <g clip-path="url(#clippath-5)">
        <polygon points="54.27 77.787 54.27 77.787 54.274 77.787 54.27 77.787" fill="url(#Degradado_sin_nombre_631)"/>
      </g>
    </g>
    <g clip-path="url(#clippath-6)">
      <rect x="54.491" y="43.784" width="34.042" height="34.245" fill="url(#Degradado_sin_nombre_62)"/>
    </g>
    <g clip-path="url(#clippath-7)">
      <rect x="51.356" y="9.756" width="18.01" height="34.004" fill="url(#Degradado_sin_nombre_61)"/>
    </g>
    <g clip-path="url(#clippath-8)">
      <rect x="61.829" y="24.096" width="10.47" height="19.685" fill="url(#Degradado_sin_nombre_60)"/>
    </g>
    <g clip-path="url(#clippath-9)">
      <rect x="51.351" y="43.756" width="10.478" height="19.694" fill="url(#Degradado_sin_nombre_59)"/>
    </g>
    <g clip-path="url(#clippath-10)">
      <g mask="url(#mask-1)">
        <rect x="45.458" y="44.776" width="22.264" height="17.651" transform="translate(-15.539 83.147) rotate(-65.721)" fill="url(#Degradado_sin_nombre_58)"/>
      </g>
    </g>
    <g clip-path="url(#clippath-12)">
      <rect x="54.269" y="43.776" width="18.03" height="34.023" fill="url(#Degradado_sin_nombre_57)"/>
    </g>
    <g clip-path="url(#clippath-13)">
      <rect x="33.356" y="43.77" width="20.016" height="35.147" fill="url(#Degradado_sin_nombre_56)"/>
    </g>
    <g clip-path="url(#clippath-14)">
      <rect x="56.527" y="70.369" width="10.397" height="16.268" transform="translate(-37.123 92.707) rotate(-60)" fill="url(#Degradado_sin_nombre_55)"/>
    </g>
    <g clip-path="url(#clippath-15)">
      <rect x="59.895" y="8.813" width="40.63" height="34.654" transform="translate(18.763 83.943) rotate(-61.3)" fill="url(#Degradado_sin_nombre_54)"/>
    </g>
    <g clip-path="url(#clippath-16)">
      <rect x="58.622" y=".298" width="6.409" height="17.356" transform="translate(36.156 65.934) rotate(-74)" fill="url(#Degradado_sin_nombre_53)"/>
    </g>
    <g clip-path="url(#clippath-17)">
      <rect x="27.71" y="6.067" width="31.498" height="40.155" transform="translate(-6.483 17.311) rotate(-21)" fill="url(#Degradado_sin_nombre_52)"/>
    </g>
    <g clip-path="url(#clippath-18)">
      <rect x="70.085" y="43.685" width="20.227" height="35.342" fill="url(#Degradado_sin_nombre_51)"/>
    </g>
    <g clip-path="url(#clippath-19)">
      <g mask="url(#mask-2)">
        <g clip-path="url(#clippath-21)">
          <g clip-path="url(#clippath-22)">
            <g mask="url(#mask-3)">
              <rect x="52.555" y="24.413" width="39.318" height="39.318" fill="url(#Degradado_sin_nombre_19)"/>
            </g>
          </g>
        </g>
      </g>
    </g>
    <path d="M69.842,42.382c-.109-.247-1.642-3.699-3.391-7.283-1.905-3.904-4.037-7.964-4.128-8.13-.171-.32-.304-.529-.489-.529s-.307.185-.489.529c-.09.169-2.274,4.352-4.134,8.13-1.856,3.767-3.29,7.076-3.385,7.283-.192.418-.399.901-.399,1.377s.179.887.396,1.396c.104.244,1.648,3.718,3.401,7.307,1.908,3.904,4.037,7.947,4.118,8.107.161.315.301.529.488.529s.321-.208.488-.527c.087-.168,2.207-4.204,4.113-8.106,1.746-3.581,3.292-7.049,3.406-7.307.237-.541.397-.899.397-1.379s-.157-.868-.391-1.396M69.499,44.975l-.013.029c-.014.032-1.583,3.574-3.399,7.293-1.624,3.328-3.391,6.729-4.077,8.037l-.032.06c-.067.128-.123.222-.149.222s-.082-.092-.147-.22c-.01-.017-.044-.084-.101-.193-1.917-3.668-3.241-6.324-4.014-7.907-1.738-3.556-3.282-7.03-3.393-7.29l-.014-.035c-.196-.462-.351-.827-.351-1.211,0-.39.181-.815.364-1.219.011-.024.043-.093.09-.203,1.099-2.492,2.206-4.87,3.29-7.069,1.911-3.877,4.11-8.086,4.129-8.121.062-.117.116-.226.15-.226.036,0,.092.111.155.228.017.033,2.167,4.117,4.12,8.118,1.719,3.521,3.22,6.897,3.387,7.27.223.503.358.837.358,1.241,0,.391-.133.695-.353,1.197" fill="#010000"/>
    <path d="M89.819,41.853c-1.034-2.158-4.253-8.493-6.981-13.439-3.74-6.78-10.418-17.942-11.176-18.96-.749-1.005-1.168-1.05-1.862-1.122l-.101-.011c-1.01-.111-5.29-.162-7.864-.162-2.205,0-6.89.057-7.981.166-1.028.101-1.306.416-1.892,1.183-.806,1.051-7.595,12.53-11.131,18.906-2.558,4.611-6.607,12.581-6.984,13.439-.339.774-.497,1.384-.497,1.917,0,.568.158,1.177.499,1.916.849,1.841,3.409,6.94,6.982,13.439,3.727,6.78,10.461,17.985,11.175,18.96.755,1.031,1.248,1.073,1.93,1.135,1.035.092,5.507.162,7.899.162,2.582,0,7.255-.103,7.899-.162.638-.059,1.189-.108,1.928-1.135.679-.941,7.923-13.013,11.176-18.96,3.119-5.698,6.582-12.544,6.981-13.439.44-.982.5-1.501.5-1.917,0-.326-.065-1.01-.5-1.916M89.464,45.527c-.397.89-3.854,7.72-6.968,13.41-3.249,5.937-10.475,17.981-11.15,18.92-.635.882-1.039.918-1.648.974-.638.058-5.29.16-7.864.16-2.386,0-6.838-.068-7.866-.16-.644-.057-.999-.089-1.648-.977-.711-.97-7.427-12.148-11.149-18.917-3.569-6.492-6.123-11.579-6.97-13.415-.315-.685-.462-1.243-.462-1.753,0-.478.147-1.037.464-1.761.375-.855,4.414-8.803,6.968-13.407,3.531-6.367,10.299-17.815,11.099-18.859.56-.731.76-.945,1.621-1.032,1.078-.108,5.744-.165,7.943-.165,2.565,0,6.826.051,7.821.16l.103.011c.647.07.944.1,1.591.969.754,1.012,7.413,12.145,11.148,18.916,2.723,4.938,5.937,11.265,6.971,13.418.4.838.461,1.455.461,1.748,0,.372-.057.842-.465,1.759" fill="#010000"/>
  </g>
  <polygon points="127.3 99.071 127.3 101.971 121.259 101.971 121.259 114.73 117.185 114.73 117.185 101.971 111.146 101.971 111.146 99.071 127.3 99.071" fill="#010000"/>
  <polygon points="112.885 111.828 112.885 114.73 99.94 114.73 99.94 99.071 104.011 99.071 104.011 111.828 112.885 111.828" fill="#010000"/>
  <polygon points="34.474 111.828 34.474 114.73 20.874 114.73 20.874 99.071 34.218 99.071 34.218 101.973 24.949 101.973 24.949 105.413 33.419 105.413 33.419 108.221 24.949 108.221 24.949 111.828 34.474 111.828" fill="#010000"/>
  <path d="M13.578,108.914c1.744-.946,2.821-2.809,2.821-4.762,0-1.628-.475-2.892-1.47-3.724-1.158-.959-2.744-1.358-5.423-1.358H.166l-.166.944s.166.282.359.621c.29.498.265.645.265.978v13.116h4.075v-5.014h5.062l2.715,5.014h4.485l-3.384-5.816ZM11.518,106.372c-.312.306-.684.453-1.262.453h-5.556v-4.773h4.389c1.306,0,2.004.148,2.475.53.46.369.683.931.683,1.76,0,.858-.228,1.547-.728,2.029Z" fill="#010000"/>
  <path d="M51.528,99.069v10.387c-.95-1.196-1.948-2.35-3.632-4.202-1.372-1.506-4.232-4.596-5.701-6.182h-3.932l-.165.944s.169.282.359.621c.219.372.263.549.27.75l-.003,13.344,3.661-.012v-10.373c.73.975,2.031,2.471,2.899,3.411,1.728,1.869,4.337,4.782,6.369,6.974h3.517v-15.659l-3.642-.003Z" fill="#010000"/>
  <path d="M91.409,99.071v9.576c0,1.068-.213,1.703-.734,2.19-.66.613-1.749.907-3.321.907-1.596,0-2.714-.294-3.369-.907-.519-.487-.734-1.125-.734-2.19v-9.576h-4.534l-.165.944s.169.282.358.621c.207.358.255.534.264.728l.004,7.43c0,4.094,2.773,6.177,8.121,6.177h.114c5.353,0,7.98-2.027,7.98-6.177v-9.724h-3.984Z" fill="#010000"/>
  <path d="M70.113,99.071h-5.089c-1.544,3.189-4.229,9.07-6.743,15.66h4.089c.325-.892.671-1.801,1.019-2.712h8.358c.353.911.696,1.82,1.021,2.712h4.09c-2.516-6.59-5.202-12.472-6.744-15.66ZM64.557,109.067c1.072-2.668,2.145-5.191,3.01-7.148.865,1.957,1.942,4.48,3.013,7.148h-6.023Z" fill="#010000"/>
</svg>