<?xml version="1.0" encoding="UTF-8"?>
<svg id="Layer_1" xmlns="http://www.w3.org/2000/svg" version="1.1" viewBox="0 0 453.931 69.99">
  <!-- Generator: Adobe Illustrator 29.6.1, SVG Export Plug-In . SVG Version: 2.1.1 Build 9)  -->
  <path d="M84.637,11.645h-24.68v8.897c1.256,0,21.39.003,24.68.003s6.089,2.656,6.089,6.011v2.083h-20.252c-8.219,0-14.897,6.683-14.897,14.897s6.678,14.9,14.897,14.9c0,0,28.961-.006,29.061-.006v-31.875c0-8.215-6.642-14.911-14.898-14.911ZM90.726,49.626h-20.252c-3.358,0-6.086-2.729-6.086-6.089s2.727-6.089,6.086-6.089h20.252v12.178Z" fill="#2c2f88"/>
  <path d="M159.827,11.641c8.216,0,14.877,6.7,14.877,14.915v31.89h-8.811v-31.828c0-3.356-2.729-6.089-6.087-6.089l-15.354.008v37.909h-8.808V20.533l-14.428-.003c-3.359,0-6.089,2.733-6.089,6.089v31.828h-8.808v-31.89c0-8.215,6.702-14.915,14.917-14.915h38.591Z" fill="#2c2f88"/>
  <path d="M193.558,11.635c-6.589,0-11.949,5.361-11.949,11.95,0,4.914,2.959,9.268,7.54,11.096q23.457,7.36,23.475,7.35c1.557.537,2.613,2.021,2.613,3.69,0,2.155-1.748,3.907-3.896,3.907h-29.853v8.814h29.853c7.013,0,12.718-5.705,12.718-12.721,0-5.226-3.142-9.86-8.009-11.805-.003,0-9.607-3.04-9.607-3.04l-13.89-4.41c-1.222-.418-2.045-1.576-2.045-2.881,0-1.681,1.369-3.045,3.049-3.045h25.8v-8.905h-25.8Z" fill="#2c2f88"/>
  <path d="M302.32,46.629l.003-12.222-.006-7.848c0-8.212,6.686-14.896,14.896-14.896h15.312c8.216,0,14.898,6.685,14.898,14.896l-.006,9.076s.004,21.963.004,22.815h-8.81c0-.898.006-31.818.006-31.818,0-3.355-2.734-6.087-6.092-6.087h-15.312c-3.358,0-6.088,2.731-6.088,6.087v31.814h-8.808c0-.863.003-11.818.003-11.818Z" fill="#2c2f88"/>
  <path d="M378.614,2.729v8.916s13.105.004,13.951.004v8.875h-13.951v22.995c0,3.358,2.73,6.089,6.086,6.089h12.3v8.812h-12.3c-8.215,0-14.898-6.687-14.898-14.902l.011-9.076s-.006-27.683-.006-31.714h8.808Z" fill="#2c2f88"/>
  <path d="M354.221,11.633h8.804v46.817h-8.804V11.633Z" fill="#2c2f88"/>
  <path d="M444.604,26.668c0-8.212-6.685-14.895-14.9-14.895h-12.661c-8.216,0-14.898,6.684-14.898,14.895,0,0,.017,16.88.017,16.883,0,8.214,6.684,14.894,14.895,14.894h23.128v-8.836h-23.128c-3.353,0-6.089-2.73-6.089-6.085l-.007-4.889s32.738-.01,33.642-.01c0-.854.002-11.957.002-11.957ZM435.795,29.825h-24.838v-3.157c0-3.355,2.731-6.085,6.086-6.085h12.661c3.357,0,6.091,2.729,6.091,6.085v3.157Z" fill="#2c2f88"/>
  <path d="M35.639,49.62c3.228,0,5.855-2.631,5.855-5.867,0-2.506-1.588-4.735-3.95-5.549-.035-.012-28.962-9.085-28.962-9.085C3.397,27.05.006,22.059.006,16.428.006,8.876,6.15,2.732,13.701,2.732h32.154v8.899H13.701c-2.565,0-4.807,2.148-4.807,4.797,0,2.058,1.299,3.882,3.232,4.543.021.006,14.748,4.682,14.748,4.682l14.232,4.524c5.56,2.225,9.18,7.558,9.18,13.576,0,8.078-6.571,14.681-14.647,14.681H0v-8.814h35.639Z" fill="#2c2f88" isolation="isolate"/>
  <path d="M265.563,51.962c-5.508,5.869-13.308,8.318-20.728,7.277,1.02,1.891,2.349,3.648,3.999,5.197,8.261,7.75,21.287,7.338,29.038-.918,7.755-8.262,7.343-21.287-.918-29.041-1.649-1.547-3.489-2.763-5.438-3.663,1.506,7.34-.443,15.281-5.952,21.148Z" fill="#2c2f88"/>
  <path d="M279.456,31.919c5.864,5.509,8.312,13.309,7.273,20.731,1.89-1.021,3.649-2.351,5.199-4.002,7.752-8.258,7.339-21.286-.92-29.038-8.26-7.754-21.287-7.34-29.04.918-1.547,1.649-2.764,3.491-3.663,5.439,7.342-1.507,15.28.446,21.15,5.951Z" fill="#2c2f88"/>
  <path d="M259.409,18.03c5.508-5.868,13.309-8.318,20.731-7.276-1.02-1.89-2.351-3.65-4.002-5.199-8.26-7.751-21.285-7.34-29.04.921-7.752,8.259-7.34,21.287.921,29.04,1.649,1.548,3.489,2.763,5.439,3.663-1.508-7.341.445-15.281,5.95-21.148Z" fill="#2c2f88"/>
  <path d="M245.521,38.072c-5.866-5.508-8.317-13.307-7.277-20.728-1.889,1.019-3.649,2.35-5.196,4-7.751,8.261-7.341,21.286.92,29.04,8.258,7.75,21.286,7.34,29.038-.92,1.549-1.65,2.765-3.49,3.664-5.44-7.341,1.507-15.282-.443-21.148-5.952Z" fill="#2c2f88"/>
  <path d="M443.28,8.559c0-2.764,2.085-4.849,4.754-4.849,2.641,0,4.725,2.085,4.725,4.849,0,2.81-2.085,4.88-4.725,4.88-2.669,0-4.754-2.069-4.754-4.88ZM448.034,14.41c3.181,0,5.896-2.47,5.896-5.851,0-3.351-2.716-5.82-5.896-5.82-3.209,0-5.926,2.47-5.926,5.82,0,3.381,2.717,5.851,5.926,5.851ZM446.8,9.023h1.174l1.774,2.917h1.143l-1.914-2.964c.987-.125,1.746-.647,1.746-1.853,0-1.327-.788-1.914-2.378-1.914h-2.563v6.731h1.019v-2.917ZM446.8,8.158v-2.082h1.39c.711,0,1.467.151,1.467.986,0,1.034-.771,1.096-1.635,1.096h-1.222Z" fill="#2c2f88"/>
</svg>