<?xml version="1.0" encoding="UTF-8"?>
<svg id="Layer_1" xmlns="http://www.w3.org/2000/svg" version="1.1" viewBox="0 0 192.756 192.756">
  <!-- Generator: Adobe Illustrator 29.6.1, SVG Export Plug-In . SVG Version: 2.1.1 Build 9)  -->
  <polygon points="0 0 192.756 0 192.756 192.756 0 192.756 0 0 0 0" fill="#fff" fill-rule="evenodd"/>
  <path d="M164.523,87.447l-.019,26.272h26.529l.005-26.275-26.515.003h0ZM166.249,97.125v7.028h8.132v8.032h6.921v-8.032h7.993v-7.028h-7.993l.016-8.146-6.936.01v8.136s-8.132,0-8.132,0h0Z" fill="#e32322" fill-rule="evenodd"/>
  <path d="M1.444,113.75l18.533-.013h0c.975.048,1.958-.077,2.889-.371.931-.294,1.808-.757,2.577-1.359.769-.602,1.429-1.342,1.939-2.174,1.029-1.67,1.421-3.71,1.097-5.63-.16-.963-.494-1.898-.981-2.744-.487-.847-1.126-1.605-1.878-2.228-.752-.623-1.616-1.11-2.539-1.429-.922-.319-1.902-.451-2.878-.451h-11.453c-.372.002-.745-.053-1.096-.176-.351-.123-.68-.308-.967-.545-.287-.237-.532-.525-.719-.846-.377-.642-.515-1.42-.382-2.154.065-.366.196-.721.384-1.042.188-.321.433-.609.72-.846.599-.496,1.348-.727,2.064-.72h0l18.739.015v-4.44s-18.874.019-18.874.019h0c-.877,0-1.754.156-2.578.458-.824.302-1.594.749-2.264,1.316-.67.567-1.24,1.252-1.674,2.014-.872,1.521-1.185,3.357-.861,5.087.16.863.472,1.698.918,2.453.446.756,1.026,1.432,1.705,1.988.678.556,1.455.992,2.284,1.281.828.289,1.708.418,2.585.418h0l11.234.003h0c.452,0,.905.059,1.333.205.427.146.829.369,1.179.655.35.286.649.634.878,1.023.46.779.63,1.723.468,2.614-.08.445-.239.875-.468,1.265-.229.389-.528.738-.878,1.024-.728.6-1.64.871-2.511.859H1.444v4.471h0ZM34.557,86.574l-4.285.008-.003,17.984h0c-.034,1.088.127,2.183.475,3.215.348,1.032.884,2,1.574,2.843.689.844,1.53,1.562,2.471,2.11,1.876,1.098,4.158,1.489,6.303,1.069,1.069-.207,2.1-.607,3.028-1.177.928-.57,1.752-1.308,2.422-2.166.677.861,1.507,1.602,2.441,2.174,1.873,1.152,4.161,1.589,6.316,1.221,1.08-.182,2.127-.559,3.075-1.107.948-.548,1.797-1.268,2.494-2.114.696-.846,1.241-1.817,1.597-2.853.356-1.036.497-2.137.498-3.232h0l.016-17.967h-4.409l-.011,18.242h0c.045.597-.02,1.201-.19,1.775-.17.573-.448,1.115-.812,1.589-.365.474-.817.881-1.327,1.193-1.019.628-2.273.859-3.449.639-.588-.109-1.156-.327-1.666-.639-.51-.312-.962-.719-1.327-1.193-.753-.975-1.092-2.202-1.002-3.364h0v-18.242s-4.365,0-4.365,0l.007,18.243h0c.031.596-.044,1.199-.225,1.768-.18.57-.465,1.106-.835,1.574-.37.469-.826.87-1.338,1.177-1.023.618-2.273.845-3.449.625-.587-.108-1.154-.324-1.665-.633-.511-.309-.965-.712-1.334-1.182-.765-.97-1.117-2.188-1.05-3.345.008-6.079-.007-12.157.025-18.236h0ZM89.602,113.687v-27.122l-10.802.008h0c-1.685.001-3.376.25-4.959.829-1.582.579-3.056,1.456-4.321,2.571-1.265,1.115-2.32,2.466-3.096,3.963-.775,1.497-1.27,3.14-1.45,4.816s-.046,3.387.393,5.015c.439,1.628,1.184,3.173,2.183,4.531.999,1.358,2.252,2.529,3.675,3.431,2.193,1.402,4.813,2.109,7.337,2.212.898.027,1.798-.035,2.684-.185.886-.15,1.756-.389,2.595-.71h0l-.042-4.38h0c-.71.389-1.447.671-2.189.881-.38.109-.766.202-1.557.249-.791.047-1.988.048-3.139-.191-1.151-.24-2.258-.72-3.241-1.383-.983-.663-1.843-1.509-2.522-2.482-1.384-1.973-1.964-4.436-1.662-6.757.15-1.177.52-2.325,1.083-3.369.564-1.044,1.321-1.982,2.223-2.753.901-.771,1.946-1.374,3.064-1.768,1.118-.394,2.31-.547,3.495-.546h0l6.018.004v23.136h4.23ZM94.11,105.037c-.031.914.086,1.835.349,2.711.263.876.671,1.709,1.202,2.454.531.745,1.185,1.402,1.928,1.936.743.534,1.574.946,2.449,1.212.875.266,1.794.387,2.708.359h0l5.916.003v-3.871s-4.456-.007-4.456-.007h0c-.607.017-1.217-.063-1.799-.238-.582-.175-1.135-.445-1.631-.796-.496-.351-.935-.782-1.295-1.272-.748-1.014-1.105-2.235-1.096-3.412h0l.011-13.425,9.429-.015.011-4.114h-9.44v-7.123h-4.282l-.006,25.597h0ZM131.958,91.923c-.986-1.39-2.227-2.6-3.646-3.545-2.821-1.91-6.394-2.631-9.72-2.174-1.654.215-3.235.687-4.685,1.419-1.45.732-2.77,1.725-3.88,2.914-1.11,1.189-2.011,2.574-2.639,4.071-.628,1.498-.984,3.107-1.09,4.669-.105,1.563.039,3.078.423,4.53.384,1.452,1.005,2.841,1.833,4.094.827,1.253,1.86,2.371,3.045,3.293,1.185.923,2.521,1.651,3.938,2.146,1.418.495,2.916.756,4.417.774,1.281.114,2.581.029,3.836-.255,1.255-.284,2.465-.766,3.573-1.422,1.107-.656,2.111-1.487,2.962-2.453.851-.965,1.55-2.065,2.065-3.245h0l-2.927-2.802h0c-.376,1-.924,1.936-1.615,2.752-.69.816-1.523,1.511-2.449,2.04-1.866,1.059-4.074,1.477-6.17,1.241-1.056-.122-2.092-.417-3.055-.87-.963-.452-1.852-1.061-2.622-1.795-.77-.734-1.421-1.593-1.92-2.534-1.008-1.882-1.357-4.105-.982-6.222.184-1.06.538-2.089,1.046-3.037.507-.947,1.168-1.813,1.948-2.552.78-.739,1.679-1.353,2.652-1.808.973-.456,2.02-.753,3.087-.88,1.153-.105,2.323-.018,3.447.26,1.123.277,2.2.745,3.17,1.377.97.632,1.833,1.428,2.543,2.342h0l3.415-2.331h0ZM158.753,98.129c.001-1.522-.264-3.048-.824-4.462-.56-1.415-1.4-2.719-2.456-3.815-1.056-1.096-2.328-1.983-3.721-2.595-1.393-.612-2.906-.949-4.427-.986-1.521-.037-3.049.226-4.469.77-1.42.545-2.732,1.371-3.842,2.412h0l-.009-9.967h-4.446l-.011,34.215,4.457-.006-.007-15.376h0c-.038-.923.088-1.853.374-2.731.287-.878.732-1.704,1.31-2.426.577-.721,1.284-1.339,2.078-1.811,1.585-.95,3.519-1.3,5.337-.963.908.166,1.787.496,2.58.971.792.475,1.499,1.093,2.074,1.815.575.723,1.02,1.55,1.305,2.428.285.879.409,1.809.369,2.732h0l-.005,15.342,4.321.034.013-15.581h0ZM156.529,80.61c.209.022.44-.077.655.131.157.252.048.417.159.73h.452c-.141-.3.01-.583-.214-.913-.064-.068-.149-.1-.225-.12.095-.03.166-.024.302-.178.125-.191.187-.475-.069-.757-.201-.199-.466-.181-.707-.184h-.804s.003,2.151.003,2.151l.448.002h0v-.862h0ZM156.935,78.637c.23,0,.461.046.674.134.213.088.408.219.571.382.514.533.653,1.23.382,1.92-.088.213-.219.408-.382.571-.533.515-1.23.653-1.918.382-.213-.088-.408-.219-.571-.382-.514-.533-.65-1.231-.382-1.92.088-.213.219-.409.382-.571.346-.346.808-.517,1.245-.516h0ZM158.281,81.745c.198-.151.317-.387.413-.618.182-.437.203-.969,0-1.458-.096-.23-.237-.441-.413-.617-.576-.557-1.329-.706-2.074-.414-.23.096-.441.237-.618.413-.556.576-.703,1.331-.412,2.076.095.23.236.442.412.618.576.556,1.33.706,2.074.413.23-.096.466-.215.618-.413h0ZM156.94,80.261l-.41-.003v-.571h0c.232.024.46-.078.714.084.134.124.096.413-.128.471-.058.013-.117.019-.176.018h0Z" fill="#1d1d1b" fill-rule="evenodd"/>
</svg>