<?xml version="1.0" encoding="UTF-8"?>
<svg xmlns="http://www.w3.org/2000/svg" xmlns:xlink="http://www.w3.org/1999/xlink" version="1.1" viewBox="0 0 154.814 115.327">
  <!-- Generator: Adobe Illustrator 29.6.1, SVG Export Plug-In . SVG Version: 2.1.1 Build 9)  -->
  <defs>
    <clipPath id="clippath">
      <path d="M30.43,44.256C30.43,19.913,50.157.186,74.5.186s44.071,19.727,44.071,44.07-19.727,44.072-44.071,44.072-44.071-19.727-44.071-44.072" fill="none"/>
    </clipPath>
    <clipPath id="clippath-1">
      <path d="M30.43,44.256c0,24.342,19.73,44.072,44.071,44.072s44.071-19.73,44.071-44.072c0,24.346-19.727,44.072-44.071,44.072s-44.071-19.727-44.071-44.072M74.5.186c24.343,0,44.071,19.727,44.071,44.07C118.571,19.915,98.838.186,74.5.186M74.5.186C50.16.186,30.43,19.915,30.43,44.256,30.43,19.913,50.157.186,74.5.186" fill="none"/>
    </clipPath>
    <clipPath id="clippath-2">
      <path d="M118.571,44.256c0,24.342-19.733,44.072-44.071,44.072,24.334,0,44.071-19.738,44.071-44.072M30.43,44.256c0,24.334,19.741,44.072,44.071,44.072-24.341,0-44.071-19.73-44.071-44.072M45.237,56.614c-1.556-13.083,7.796-24.957,20.882-26.51,9.059-1.081,17.533,3.074,22.412,10.07-3.843-3.906-9.388-6.062-15.25-5.366-10.062,1.198-17.243,10.321-16.05,20.381,1.195,10.062,10.281,16.855,20.381,16.052,10.052-.801,19.039-10.44,17.045-24.943-1.902-13.817-13.513-23.071-27.462-23.071-15.397,0-27.882,12.549-27.882,28.026,0,2.057.219,4.061.635,5.99l.25.968c-5.112-12.162-3.533-26.667,5.366-37.618,12.862-15.829,36.139-18.208,51.961-5.35l-.005-.008c8.741,6.687,14.511,17.32,14.511,29.179,0,20.207-16.014,36.479-36.588,36.588h-.249c-27.617.004-29.957-24.389-29.957-24.389M72.601,66.776c3.357.076,6.72-1.34,9.003-4.152,3.92-4.824,3.187-11.917-1.641-15.835-4.828-3.925-11.915-3.188-15.837,1.636-2.284,2.81-2.986,6.388-2.223,9.662-2.028-4.824-1.401-10.58,2.127-14.924,5.107-6.276,14.332-7.229,20.611-2.129,6.276,5.099,7.23,14.323,2.129,20.602-2.893,3.561-7.113,5.41-11.369,5.41-.936,0-1.874-.09-2.8-.27M71.853,64.063c-4.715-.199-8.368-4.183-8.165-8.898.142-3.261,2.095-6.012,4.843-7.334-1.598,1.133-2.679,2.965-2.767,5.078-.157,3.621,2.65,6.68,6.273,6.835,3.623.16,6.687-2.65,6.841-6.273.094-2.111-.825-4.029-2.319-5.293,2.623,1.552,4.333,4.461,4.196,7.722-.2,4.585-3.981,8.174-8.525,8.174-.125,0-.251-.002-.378-.01M74.5.186c24.337,0,44.071,19.729,44.071,44.07C118.571,19.926,98.834.186,74.5.186M30.43,44.256C30.43,19.915,50.16.186,74.5.186,50.17.186,30.43,19.926,30.43,44.256h0" fill="none"/>
    </clipPath>
    <clipPath id="clippath-3">
      <path d="M30.43,44.256C30.43,19.926,50.17.186,74.5.186s44.071,19.74,44.071,44.07-19.737,44.072-44.071,44.072-44.071-19.738-44.071-44.072M42.573,73.416l.005.006c8.208,9.021,19.893,14.195,32.061,14.195,23.909,0,43.361-19.449,43.361-43.361,0-12.165-5.174-23.85-14.193-32.058l-.006-.005-.444-.195c2.757,3.06,5.289,6.161,7.175,9.417,3.776,6.511,6.207,15.047,6.207,22.617,0,23.701-18.623,42.326-42.326,42.326-7.567,0-16.104-2.434-22.615-6.207-3.255-1.887-6.297-4.252-9.436-7.006l.211.271M66.119,30.103c-13.086,1.553-22.438,13.427-20.882,26.51,0,0,2.358,24.537,30.206,24.389,20.575-.109,36.588-16.381,36.588-36.588,0-11.858-5.77-22.492-14.511-29.179l.005.008c-15.822-12.858-39.099-10.478-51.961,5.35-8.899,10.951-10.479,25.457-5.366,37.618l-.25-.968c-.416-1.929-.635-3.934-.635-5.99,0-15.477,12.485-28.026,27.882-28.026,13.95,0,25.56,9.254,27.462,23.071,1.993,14.502-6.993,24.142-17.045,24.943-10.1.803-19.185-5.99-20.381-16.052-1.193-10.06,5.988-19.183,16.05-20.381,5.862-.696,11.407,1.46,15.25,5.366-4.363-6.257-11.6-10.241-19.561-10.24-.941,0-1.894.056-2.852.17M86.769,61.635c5.102-6.278,4.148-15.502-2.129-20.602-6.279-5.1-15.503-4.147-20.611,2.129-3.528,4.344-4.155,10.1-2.127,14.924-.763-3.274-.061-6.852,2.223-9.662,3.922-4.824,11.009-5.561,15.837-1.636,4.827,3.918,5.56,11.011,1.641,15.835-2.283,2.812-5.646,4.228-9.003,4.152,5.133,1,10.639-.797,14.169-5.141M63.688,55.164c-.202,4.715,3.451,8.699,8.165,8.898,4.71.207,8.696-3.452,8.902-8.164.138-3.261-1.572-6.17-4.196-7.722,1.494,1.264,2.413,3.183,2.319,5.293-.154,3.623-3.218,6.434-6.841,6.273-3.623-.155-6.431-3.214-6.273-6.835.088-2.113,1.169-3.945,2.767-5.078-2.748,1.323-4.702,4.074-4.843,7.334M43.203,14.197c-7.831,8.128-12.144,18.801-12.144,30.059,0,2.148.176,4.379.52,6.634l.224.902c-.099-1.3-.042-3.389-.042-4.457,0-12.378,4.378-24.24,13.123-33,7.463-7.474,18.027-12.141,28.474-13.357l-.683-.038c-11.197.446-21.662,5.155-29.472,13.256M51.632,80.434c6.562,3.805,15.154,6.252,22.78,6.252,23.881,0,42.657-18.771,42.657-42.654,0-7.626-2.449-16.221-6.252-22.782,3.178,5.211,6.854,13.814,6.854,23.225,0,23.73-19.087,42.814-42.814,42.814-9.414,0-17.264-3.355-23.226-6.855" fill="none"/>
    </clipPath>
    <clipPath id="clippath-4">
      <path d="M42.579,73.422l-.005-.006-.211-.271c3.138,2.754,6.18,5.119,9.436,7.006,6.511,3.773,15.047,6.207,22.615,6.207,23.703,0,42.326-18.625,42.326-42.326,0-7.57-2.431-16.106-6.207-22.617-1.886-3.256-4.418-6.356-7.175-9.417l.444.195.006.005c9.02,8.208,14.193,19.893,14.193,32.058,0,23.912-19.452,43.361-43.361,43.361-12.167,0-23.853-5.174-32.061-14.195M74.858,87.289c23.727,0,42.814-19.084,42.814-42.814,0-9.412-3.677-18.015-6.854-23.225,3.803,6.561,6.252,15.156,6.252,22.782,0,23.882-18.775,42.654-42.657,42.654-7.626,0-16.218-2.447-22.78-6.252,5.961,3.5,13.811,6.855,23.226,6.855" fill="none"/>
    </clipPath>
    <clipPath id="clippath-5">
      <path d="M43.222,14.427c6.684-6.937,15.474-11.172,23.708-12.453-8.733,1.881-15.85,5.694-22.275,12.133-8.598,8.608-13.006,19.778-13.267,30.149,0-11.172,4.061-21.766,11.834-29.83" fill="none"/>
    </clipPath>
    <clipPath id="clippath-6">
      <path d="M31.58,50.89c-.344-2.255-.52-4.486-.52-6.634,0-11.258,4.312-21.931,12.144-30.059C51.014,6.096,61.478,1.387,72.675.941l.683.038c-10.447,1.216-21.011,5.883-28.474,13.357-8.745,8.76-13.123,20.622-13.123,33,0,1.068-.056,3.157.042,4.457l-.224-.902M43.222,14.427c-7.773,8.064-11.834,18.657-11.834,29.83.261-10.372,4.669-21.541,13.267-30.149,6.425-6.439,13.542-10.252,22.275-12.133-8.234,1.281-17.024,5.516-23.708,12.453" fill="none"/>
    </clipPath>
  </defs>
  <g id="Layer_3">
    <path id="_x38_" d="M152.313,98.448c-1.379,0-2.499,1.12-2.499,2.5s1.12,2.5,2.499,2.5,2.501-1.12,2.501-2.5-1.12-2.5-2.501-2.5ZM152.313,103.042c-1.155-.003-2.092-.938-2.094-2.095.002-1.155.938-2.093,2.094-2.095,1.157.002,2.093.939,2.095,2.095-.002,1.156-.937,2.092-2.095,2.095ZM153.005,101.252c-.074-.08-.169-.152-.282-.219.228-.034.4-.113.517-.242.114-.128.172-.29.172-.485,0-.153-.037-.291-.113-.411-.077-.12-.177-.204-.304-.249-.126-.048-.33-.072-.608-.072h-1.109v2.612h.527v-1.09h.106c.121,0,.21.01.266.029.056.02.107.055.158.108.051.053.143.181.278.385l.381.567h.631l-.32-.509c-.124-.204-.226-.346-.299-.425ZM152.193,100.679h-.39v-.662h.411c.214,0,.342.002.385.009.084.014.151.048.199.103.046.055.069.124.069.212,0,.078-.019.143-.054.195-.034.053-.084.089-.147.111-.063.021-.221.032-.474.032Z"/>
  </g>
  <g id="Layer_2">
    <g clip-path="url(#clippath)">
      <g clip-path="url(#clippath-1)">
        <image width="623" height="622" transform="translate(30.179) scale(.142)" xlink:href="ubisoft-1.png"/>
      </g>
      <g clip-path="url(#clippath-2)">
        <image width="623" height="622" transform="translate(30.179) scale(.142)" xlink:href="ubisoft-2.png"/>
      </g>
      <g clip-path="url(#clippath-3)">
        <image width="623" height="622" transform="translate(30.179) scale(.142)" xlink:href="ubisoft-3.png"/>
      </g>
      <g clip-path="url(#clippath-4)">
        <image width="535" height="534" transform="translate(42.133 11.811) scale(.142)" xlink:href="ubisoft-4.png"/>
      </g>
      <g clip-path="url(#clippath-5)">
        <image width="253" height="300" transform="translate(31.175 1.707) scale(.142)" xlink:href="ubisoft-5.png"/>
      </g>
      <g clip-path="url(#clippath-6)">
        <image width="300" height="360" transform="translate(30.89 .711) scale(.142)" xlink:href="ubisoft-6.png"/>
      </g>
    </g>
  </g>
  <g id="Layer_1">
    <g>
      <path d="M74.703,103.073v.219h4.645c0-2.105.109-4.844-4.946-4.844h-15.254v5.988c0,1.668.754,4.504,4.7,4.504h11.007v.938c0,1.078-.105,1.555-2.171,1.555h-8.137c-.945,0-.871-.789-.871-.789v-.293h-4.688v1.32c0,1.512.621,3.656,4.121,3.656h12.075c2.277,0,4.738-.851,4.738-3.797v-2.781c0-1.676-.402-3.828-4.211-3.828h-8.641c-2.5,0-2.886-.578-2.886-1.715v-.867h9.687c.332,0,.832.132.832.734"/>
      <path d="M15.926,108.092c0,1.07-.211,1.84-.641,2.281-.433.441-1.172.668-2.219.668h-5.078c-1.05,0-1.789-.227-2.215-.668-.433-.441-.648-1.211-.648-2.281v-9.644H0v10.75c0,2.09.551,3.633,1.66,4.633,1.11,1,2.844,1.496,5.195,1.496h14.192l.012-16.879h-5.133v9.644"/>
      <path d="M43.566,106.663c.864-.238,1.489-.613,1.879-1.117.395-.496.59-1.399.59-2.711,0-1.617-.484-2.746-1.441-3.398-.961-.652-2.508-.988-4.629-.988h-14.754v16.879h16.324c1.629,0,2.895-.32,3.774-.953.886-.629,1.324-1.953,1.324-3.644,0-1.293-.227-2.25-.688-2.871-.461-.625-1.257-1.023-2.379-1.195h0ZM30.316,102.338h9.09c1,0,1.5.441,1.5,1.32,0,.479-.117.934-.367,1.133-.242.195-.621.285-1.133.285h-9.09v-2.738ZM40.906,111.163c-.304.183-.765.269-1.379.269h-9.211v-2.902h9.211c.602,0,1.055.102,1.371.309.321.199.477.675.477,1.203,0,.457-.152.941-.469,1.121"/>
      <rect x="49.941" y="98.448" width="5.117" height="16.879"/>
      <polyline points="108.785 115.327 113.902 115.327 113.902 109.854 125.656 109.854 125.656 105.565 113.902 105.565 113.902 102.725 126.238 102.725 126.238 98.448 108.785 98.448 108.785 115.327"/>
      <polyline points="128.164 98.448 128.164 102.702 135.367 102.702 135.367 115.327 140.5 115.327 140.5 102.702 147.703 102.702 147.703 98.448 128.164 98.448"/>
      <path d="M89.926,98.448c-3.203,0-4.379.484-5.516,1.305-1.137.82-1.844,2.238-1.844,4.543v4.988c0,2.324.602,3.914,1.809,4.766,1.207.859,2.801,1.277,5.551,1.277h7.773c2.75,0,4.199-.379,5.414-1.242,1.203-.859,1.766-2.195,1.766-4.801v-10.836h-14.953ZM99.707,107.854c0,1.387-.137,1.996-.57,2.457-.43.461-1.176.73-2.344.73h-6.164c-1.328,0-1.965-.305-2.34-.746-.383-.441-.59-1.195-.59-2.602v-1.801c0-1.152.219-1.851.652-2.384.441-.539,1.289-.804,2.555-.804h8.801v5.148"/>
    </g>
  </g>
</svg>