<?xml version="1.0" encoding="UTF-8"?>
<svg id="logo" xmlns="http://www.w3.org/2000/svg" version="1.1" viewBox="0 0 240 90">
  <!-- Generator: Adobe Illustrator 29.6.1, SVG Export Plug-In . SVG Version: 2.1.1 Build 9)  -->
  <rect width="240" height="90" fill="#fff"/>
  <g>
    <path d="M203.952,28.648c-7.462,0-13.681,2.34-17.986,6.768-3.85,3.96-5.971,9.407-5.971,15.336,0,6.323,1.707,11.294,5.075,14.777,3.707,3.833,9.387,5.776,16.882,5.776,9.37,0,16.069-3.068,17.913-4.016l-3.968-9.222c-3.642,1.953-7.512,2.983-11.218,2.983-4.654,0-7.647-1.92-8.213-5.267l-.161-.959,1.004-.007c7.157-.046,12.449-1.005,16.178-2.932,2.089-1.08,3.69-2.489,4.761-4.188,1.162-1.844,1.751-4.112,1.751-6.741,0-4.103-1.477-7.242-4.391-9.331-2.757-1.976-6.679-2.979-11.657-2.979ZM196.077,47.431l.015-.856c.1-5.639,3.472-8.163,6.769-8.163,1.655,0,3.588.902,3.588,3.443,0,1.681-.705,3.006-2.097,3.937-1.554,1.04-4.04,1.588-7.389,1.627l-.886.011Z" fill="#ff5a5f"/>
    <g>
      <path d="M117.28,69.998h16.117v-6.6l-1.442-.131c-1.64-.182-2.219-.895-2.219-2.727v-30.541h-17.072v6.831l2.396.212c1.642.181,2.221.895,2.221,2.727v30.228Z" fill="#07be54"/>
      <path d="M20,36.907l1.834.136c1.343.167,2.225.68,2.225,2.647v18.23c0,8.946,3.737,13.113,11.76,13.113,5.049,0,9.072-2.117,11.329-5.961l.098-.168h.774v5.095h15.32v-6.6l-1.847-.205c-1.536-.181-2.054-.889-2.054-2.806v-30.388h-16.116v6.912l1.442.131c1.64.182,2.219.895,2.219,2.727v14.886c0,4.012-2.312,6.708-5.753,6.708-3.796,0-4.559-2.323-4.559-6.071v-25.293h-16.674v6.907Z" fill="#07be54"/>
      <path d="M93.358,69.998h16.674v-6.6l-1.835-.136c-1.342-.167-2.225-.68-2.225-2.647v-18.537c0-8.947-3.737-13.114-11.76-13.114-5.049,0-9.072,2.117-11.329,5.962l-.098.168h-.774v-5.095h-15.32v6.907l1.847.205c1.536.181,2.054.889,2.054,2.806v30.08h16.117v-6.6l-1.442-.131c-1.64-.182-2.219-.895-2.219-2.727v-15.199c0-4.012,2.312-6.708,5.753-6.708,3.797,0,4.559,2.323,4.559,6.071v25.293Z" fill="#07be54"/>
      <path d="M161.672,30.025v6.881l1.728.128c.673.068,1.198.815,1.198,1.505,0,.134-.02.263-.056.385l-5.984,18.706h-.581l-5.403-17.824c-.238-.81-.215-1.39.073-1.826.277-.419.788-.779,1.564-.87l1.848-.205v-6.881h-21.197v6.837l2.328.285c.96.113,1.522.432,1.809,1.123l11.198,31.728h14.235l10.502-30.479c.571-1.713,1.285-2.295,2.828-2.477l1.688-.135v-6.881h-17.777Z" fill="#07be54"/>
      <path d="M215.254,10c-10.062,0-16.666,5-15,14.999,10,0,14.999-4.938,15-14.999Z" fill="#07be54"/>
    </g>
  </g>
</svg>