<?xml version="1.0" encoding="UTF-8"?>
<svg id="Layer_1" xmlns="http://www.w3.org/2000/svg" xmlns:xlink="http://www.w3.org/1999/xlink" version="1.1" viewBox="0 0 220 220">
  <!-- Generator: Adobe Illustrator 29.6.1, SVG Export Plug-In . SVG Version: 2.1.1 Build 9)  -->
  <defs>
    <radialGradient id="radial-gradient" cx="73.071" cy="78.571" fx="73.071" fy="78.571" r="150.44" gradientUnits="userSpaceOnUse">
      <stop offset="0" stop-color="#80c9ff"/>
      <stop offset=".273" stop-color="#0086e6"/>
      <stop offset=".45" stop-color="#0071c4"/>
      <stop offset=".838" stop-color="#003d71"/>
      <stop offset="1" stop-color="#00274d"/>
    </radialGradient>
  </defs>
  <path d="M0,109.999C0,49.248,49.246,0,110.001,0s109.999,49.248,109.999,109.999-49.246,110.001-109.999,110.001S0,170.751,0,109.999h0Z" fill="url(#radial-gradient)"/>
  <path d="M33.32,111.76c0,31.535,18.782,58.68,45.767,70.867l-42.093-94.54c-2.385,7.463-3.674,15.418-3.674,23.673h0ZM133.857,186.068l-22.812-51.238-22.816,51.244c7.212,2.212,14.871,3.4,22.807,3.4s15.606-1.192,22.822-3.406h0ZM185.074,88.087l-42.093,94.54c26.985-12.188,45.767-39.332,45.767-70.867,0-8.255-1.287-16.21-3.674-23.673h0ZM47.898,66.438l36.527,82.035,15.258-34.271h22.721l15.247,34.248,36.517-82.012c-6.178-8.592-14.07-15.873-23.172-21.344l-28.596,64.229h-22.715l-28.6-64.233c-9.111,5.47-17.004,12.753-23.187,21.349h0ZM88.228,37.448l22.816,51.238,22.808-51.233c-7.215-2.214-14.88-3.404-22.817-3.404s-15.595,1.188-22.807,3.399h0ZM17.178,111.76c0-51.834,42.021-93.854,93.857-93.854s93.857,42.02,93.857,93.854-42.02,93.858-93.857,93.858S17.178,163.598,17.178,111.76h0Z" fill-rule="evenodd"/>
  <path d="M33.32,111.76c0,31.535,18.782,58.68,45.767,70.867l-42.093-94.54c-2.385,7.463-3.674,15.418-3.674,23.673M133.857,186.068l-22.812-51.238-22.816,51.244c7.212,2.212,14.871,3.4,22.807,3.4s15.606-1.192,22.822-3.406M185.074,88.087l-42.093,94.54c26.985-12.188,45.767-39.332,45.767-70.867,0-8.255-1.287-16.21-3.674-23.673M47.898,66.438l36.527,82.035,15.258-34.271h22.721l15.247,34.248,36.517-82.012c-6.178-8.592-14.07-15.873-23.172-21.344l-28.596,64.229h-22.715l-28.6-64.233c-9.111,5.47-17.004,12.753-23.187,21.349M88.228,37.448l22.816,51.238,22.808-51.233c-7.215-2.214-14.88-3.404-22.817-3.404s-15.595,1.188-22.807,3.399M17.178,111.76c0-51.834,42.021-93.854,93.857-93.854s93.857,42.02,93.857,93.854-42.02,93.858-93.857,93.858S17.178,163.598,17.178,111.76h0Z" fill="none" stroke="#231f20" stroke-miterlimit="2.613" stroke-width=".958"/>
  <path d="M32.287,109.999c0,31.534,18.781,58.682,45.767,70.866l-42.094-94.542c-2.383,7.463-3.673,15.42-3.673,23.676h0ZM132.825,184.308l-22.813-51.241-22.814,51.246c7.211,2.209,14.867,3.4,22.805,3.4s15.605-1.191,22.823-3.405h0ZM184.041,86.323l-42.092,94.542c26.984-12.184,45.764-39.332,45.764-70.866,0-8.256-1.285-16.213-3.672-23.676h0ZM46.865,64.674l36.526,82.035,15.257-34.27h22.723l15.246,34.248,36.518-82.014c-6.178-8.592-14.069-15.872-23.172-21.341l-28.596,64.226h-22.714l-28.602-64.232c-9.107,5.469-17.002,12.751-23.186,21.348h0ZM87.197,35.685l22.814,51.239,22.807-51.234c-7.214-2.214-14.877-3.402-22.816-3.402s-15.594,1.189-22.805,3.398h0ZM16.146,109.999c0-51.837,42.02-93.855,93.856-93.855s93.857,42.018,93.857,93.855-42.021,93.857-93.857,93.857S16.146,161.836,16.146,109.999h0Z" fill="#fff" fill-rule="evenodd"/>
  <path d="M32.287,109.999c0,31.534,18.781,58.682,45.767,70.866l-42.094-94.542c-2.383,7.463-3.673,15.42-3.673,23.676M132.825,184.308l-22.813-51.241-22.814,51.246c7.211,2.209,14.867,3.4,22.805,3.4s15.605-1.191,22.823-3.405M184.041,86.323l-42.092,94.542c26.984-12.184,45.764-39.332,45.764-70.866,0-8.256-1.285-16.213-3.672-23.676M46.865,64.674l36.526,82.035,15.257-34.27h22.723l15.246,34.248,36.518-82.014c-6.178-8.592-14.069-15.872-23.172-21.341l-28.596,64.226h-22.714l-28.602-64.232c-9.107,5.469-17.002,12.751-23.186,21.348M87.197,35.685l22.814,51.239,22.807-51.234c-7.214-2.214-14.877-3.402-22.816-3.402s-15.594,1.189-22.805,3.398M16.146,109.999c0-51.837,42.02-93.855,93.856-93.855s93.857,42.018,93.857,93.855-42.021,93.857-93.857,93.857S16.146,161.836,16.146,109.999h0Z" fill="none" stroke="#231f20" stroke-miterlimit="2.613" stroke-width=".958"/>
</svg>