<?xml version="1.0" encoding="UTF-8"?>
<svg id="Layer_1" xmlns="http://www.w3.org/2000/svg" version="1.1" viewBox="0 0 100 19.485">
  <!-- Generator: Adobe Illustrator 29.6.1, SVG Export Plug-In . SVG Version: 2.1.1 Build 9)  -->
  <polygon points="79.363 6.368 80.579 6.368 80.579 9.261 83.561 9.261 83.561 6.368 84.923 6.368 84.923 13.19 83.561 13.19 83.561 10.448 80.579 10.448 80.579 13.19 79.363 13.19 79.363 6.368 79.363 6.368" fill="#6b4c33"/>
  <polygon points="38.04 6.384 42.959 6.384 42.959 7.482 39.359 7.482 39.359 9.376 41.922 9.376 41.922 10.474 39.359 10.474 39.359 12.118 43.016 12.118 43.016 13.19 38.04 13.19 38.04 6.384 38.04 6.384" fill="#6b4c33"/>
  <polygon points="87.145 6.384 92.064 6.384 92.064 7.482 88.464 7.482 88.464 9.376 91.027 9.376 91.027 10.474 88.464 10.474 88.464 12.118 92.121 12.118 92.121 13.19 87.145 13.19 87.145 6.384 87.145 6.384" fill="#6b4c33"/>
  <polygon points="30.194 6.368 31.642 6.368 33.335 11.418 33.428 11.418 35.095 6.368 36.556 6.368 34.052 13.19 32.665 13.19 30.194 6.368 30.194 6.368" fill="#6b4c33"/>
  <polygon points="23.221 6.368 24.773 6.368 26.466 9.383 28.187 6.368 29.647 6.368 27.132 10.534 27.132 13.19 25.799 13.19 25.799 10.534 23.221 6.368 23.221 6.368" fill="#6b4c33"/>
  <path d="M44.317,11.094h1.44c.054.368.214.641.477.82.263.178.643.266,1.141.266.424,0,.743-.072.958-.215.216-.142.322-.354.322-.634,0-.408-.618-.745-1.854-1.013l-.043-.009c-.033-.007-.082-.017-.149-.032-.663-.138-1.135-.291-1.416-.461-.252-.152-.442-.357-.574-.614-.131-.257-.197-.559-.197-.91,0-.654.235-1.155.704-1.504.468-.348,1.146-.522,2.032-.522.829,0,1.477.185,1.944.556.467.372.714.893.74,1.57h-1.403c-.026-.326-.158-.573-.394-.743-.239-.169-.577-.255-1.017-.255-.383,0-.677.07-.885.212-.207.142-.311.343-.311.604,0,.357.403.622,1.209.799.219.048.39.086.512.114.516.125.884.223,1.1.291.217.07.406.148.567.233.288.153.505.353.649.604.145.25.217.551.217.902,0,.698-.248,1.24-.747,1.625-.498.385-1.199.578-2.105.578-.893,0-1.594-.197-2.1-.589-.508-.393-.781-.95-.819-1.675h0Z" fill="#6b4c33"/>
  <path d="M55.076,13.19v-6.822h2.904c.768,0,1.324.062,1.672.185.347.122.627.34.834.653.21.314.346.686.361,1.09.018.441-.227,1.078-.5,1.426-.248.318-.51.467-.879.623l1.547,2.846h-1.51l-1.387-2.686-1.781-.012v2.697h-1.262ZM56.338,9.476h1.26c.695,0,1.13-.027,1.304-.083.477-.153.616-.569.616-1.023,0-.23-.129-.415-.258-.556-.128-.142-.311-.233-.546-.269-.116-.017-.47-.022-1.058-.022h-1.318v1.953h0Z" fill="#6b4c33"/>
  <path d="M94.061,13.191v-6.823h2.904c.767,0,1.323.062,1.671.185.347.122.627.34.835.653.209.314.345.686.361,1.09.018.441-.227,1.078-.5,1.427-.25.317-.511.467-.88.622l1.547,2.847h-1.51l-1.387-2.686-1.781-.012v2.698h-1.261ZM95.322,9.476h1.261c.694,0,1.129-.027,1.303-.083.478-.153.616-.569.616-1.023,0-.23-.129-.415-.257-.556-.129-.142-.31-.233-.547-.269-.116-.017-.47-.022-1.058-.022h-1.318v1.953h0Z" fill="#6b4c33"/>
  <path d="M65.784,7.524c1.245,0,2.254,1.009,2.254,2.254s-1.009,2.254-2.254,2.254-2.254-1.01-2.254-2.254,1.009-2.254,2.254-2.254h0ZM65.784,6.134c2.013,0,3.643,1.631,3.643,3.644s-1.631,3.643-3.643,3.643-3.644-1.632-3.644-3.643,1.631-3.644,3.644-3.644h0Z" fill="#6b4c33" fill-rule="evenodd"/>
  <path d="M76.38,8.534h1.394c-.522-1.396-1.703-2.301-3.313-2.364-1.863-.073-3.557,1.208-3.741,3.45-.175,2.129,1.36,3.605,3.411,3.74,1.852.123,3.282-.956,3.683-2.461h-1.415c-1.415,2.186-4.355,1.285-4.283-1.299.039-1.389,1.039-2.166,2.2-2.209.823-.03,1.455.462,2.064,1.144h0Z" fill="#6b4c33" fill-rule="evenodd"/>
  <path d="M9.743,0c5.381,0,9.743,4.362,9.743,9.743s-4.362,9.742-9.743,9.742S0,15.124,0,9.743,4.362,0,9.743,0h0ZM9.743,1.364c4.627,0,8.379,3.751,8.379,8.379s-3.752,8.379-8.379,8.379S1.364,14.371,1.364,9.743,5.115,1.364,9.743,1.364h0Z" fill="#919825" fill-rule="evenodd"/>
  <path d="M2.81,8.281c-.453,4.262,1.542,7.079,4.991,8.169-.063-1.399.07-2.978-.31-4.49-.38-1.513-2.345-3.722-4.681-3.679h0Z" fill="#919825" fill-rule="evenodd"/>
  <path d="M14.856,14.522c-1.574,1.693-3.484,2.376-5.679,2.209l-.019-6.24c.417-2.58,1.752-3.824,3.411-4.594.329,2.184-.943,3.934-3.302,5.342,1.402,2.066,3.188,3.178,5.589,3.283h0Z" fill="#919825" fill-rule="evenodd"/>
  <path d="M13.82,4.092c.513,3.749-.391,6.213-2.617,7.481,1.204,1.25,2.776,1.735,4.652,1.59,1.709-3.332.816-6.862-2.035-9.071h0Z" fill="#919825" fill-rule="evenodd"/>
  <path d="M7.937,9.751c-1.329-1.811-2.883-2.621-4.574-2.83,2.184-4.434,7.022-5.281,10.379-2.897-3.676,1.301-5.45,2.972-5.805,5.727h0Z" fill="#919825" fill-rule="evenodd"/>
</svg>