<svg xmlns="http://www.w3.org/2000/svg" width="48" height="48" viewBox="0 0 48 48">
  <g id="Group_4406" data-name="Group 4406" transform="translate(-171 -461)">
    <path id="Path_490" data-name="Path 490" d="M692.087,248.432v42.375a2.812,2.812,0,0,1-2.812,2.813H646.9a2.812,2.812,0,0,1-2.813-2.813V248.432a2.813,2.813,0,0,1,2.813-2.812h42.375A2.813,2.813,0,0,1,692.087,248.432Z" transform="translate(-473.087 215.38)" fill="red"/>
    <path id="Path_491" data-name="Path 491" d="M724.812,271.023v1.256c.737.33,1.184.628,1.184,1.328V286.12l-5.617-15.1h-4.025v1.256c.7.33,1.331.593,1.331,1.328V294.62c0,.658-.629,1.031-1.331,1.359v1.26h4.359v-1.26a1.245,1.245,0,0,1-.886-1.359V278.591l6.835,18.648H728.1V273.607a1.232,1.232,0,0,1,.925-1.328v-1.256Z" transform="translate(-514.345 200.888)" fill="#fff"/>
    <path id="Path_492" data-name="Path 492" d="M697.618,292.034a4.986,4.986,0,0,1-.7,2,2.75,2.75,0,0,1-2.214,1.331h-1.737V273.607c0-.624.366-.96,1.107-1.325v-1.258H688.2v1.258c.7.366,1.18.7,1.18,1.325v21.047c0,.626-.554.777-1.329,1.114v1.472h11.229v-6.167C698.612,291.072,697.728,291.3,697.618,292.034Z" transform="translate(-498.182 200.888)" fill="#fff"/>
    <path id="Path_493" data-name="Path 493" d="M661.926,272.232c.743.33,1.261.662,1.261,1.328V282.5h-4.325v-9.2c0-.664.186-.92.927-1.252v-1.07h-5.655v1.292c.739.33,1.143.668,1.143,1.33l0,20.9c0,.7-.405,1.035-1.145,1.369v1.327H659.9v-1.146a1.522,1.522,0,0,1-1.034-1.509V285.6a1.123,1.123,0,0,1,1.071-1.179h2.141a1.153,1.153,0,0,1,1.113,1.181v8.9c0,.7-.518,1.035-1.261,1.369v1.327h5.8v-1.327a1.3,1.3,0,0,1-.959-1.369V273.6a1.822,1.822,0,0,1,1-1.622V270.94h-5.844Z" transform="translate(-478.819 200.935)" fill="#fff"/>
  </g>
</svg>
