<svg id="Group_4342" data-name="Group 4342" xmlns="http://www.w3.org/2000/svg" width="300" height="57" viewBox="0 0 300 57">
  <rect id="Rectangle_6941" data-name="Rectangle 6941" width="300" height="57" fill="#fff"/>
  <g id="HetParool_Logo_Primair_RGB" transform="translate(66.434 10.853)">
    <rect id="Rectangle_6949" data-name="Rectangle 6949" width="167.109" height="4.68" transform="translate(0.023 28.44)"/>
    <path id="Path_4298" data-name="Path 4298" d="M9.145,13.02V5.177c0-1.62.126-1.9,2.19-2.128V2.573H0V3.05c2.063.223,2.19.508,2.19,2.128V22.262c0,1.619-.127,1.9-2.19,2.129v.476H11.335v-.476c-2.065-.223-2.19-.51-2.19-2.129V13.973h7.366v8.289c0,1.619-.126,1.9-2.19,2.129v.476H25.655v-.476c-2.063-.223-2.19-.51-2.19-2.129V5.176c0-1.62.127-1.9,2.19-2.128V2.572H14.321v.476c2.064.223,2.19.508,2.19,2.128v7.843H9.145Zm32.642,6.033a5.369,5.369,0,0,1-4.444,2.159c-3.113,0-5.145-2.094-5.241-6H42.136v-.795c0-4.158-2.411-7.112-7.177-7.112s-8.794,3.555-8.794,9.3,3.778,8.573,8.508,8.573c4.161,0,6.605-2.286,7.5-5.969l-.383-.16ZM34.548,8.067c1.524,0,2.032,2.286,2.032,6.224l-4.478.317c.126-3.937.859-6.54,2.446-6.54m16.987-.445V3.208h-.476A29.788,29.788,0,0,1,43.184,8.1v.476H44.9V19.847c0,3.81,2.129,5.334,5.177,5.334a5.881,5.881,0,0,0,5.811-4.541l-.38-.16a2.55,2.55,0,0,1-2.19,1.145,1.768,1.768,0,0,1-1.78-2V8.572H55.06V7.619H51.535Zm20.2,14.639V16.386H73.8c6.478,0,9.557-2.542,9.557-7.048,0-3.908-2.921-6.765-9.21-6.765H62.587V3.05c2.063.223,2.19.508,2.19,2.128V22.262c0,1.619-.127,1.9-2.19,2.129v.476h12.8v-.476c-2.761-.127-3.652-.51-3.652-2.129m0-6.511V3.208h.414c2.6,0,4.444,2.19,4.444,6.13S75,15.751,72.146,15.751Zm29.945,6.7a2.539,2.539,0,0,1-.985.252c-.6,0-1.046-.444-1.046-1.333V12.955c0-4.287-2.922-5.651-7.622-5.651C88.053,7.3,85,8.508,85,11.528a2.4,2.4,0,0,0,1.586,2.412l3.939-.287c-.191-2.19-.445-5.588,1.333-5.588,1.015,0,1.238,1.111,1.238,2.7v4.352a25.278,25.278,0,0,0-5.145.919c-2.35.7-4.287,1.907-4.287,4.7a4.287,4.287,0,0,0,4.509,4.541A5.53,5.53,0,0,0,93.132,22.1a4.148,4.148,0,0,0,4.414,3.178,4.582,4.582,0,0,0,4.317-2.574l-.19-.252ZM90.117,18.959c0-1.875.7-2.573,1.715-2.924.445-.16.795-.254,1.27-.379v5.907a2.313,2.313,0,0,1-.92.19c-1.525,0-2.065-1.207-2.065-2.794m25.31-11.654c-2.952,0-4.192,3.81-4.731,5.937l.126-5.937h-.475l-7.875,1.9v.475l1.682,1.08V23.246c0,.953-.508,1.048-1.682,1.144v.476h10.7V24.39c-1.779-.254-2.476-.351-2.476-1.653v-8.7c1.429-1.619,4.827-1.651,6.161-.952l.251-.16V7.844a2.4,2.4,0,0,0-1.68-.539m20.891,9.241c0,5.3-3.779,8.733-9.21,8.733s-9.208-3.431-9.208-8.733S121.362,7.3,127.109,7.3s9.21,3.936,9.21,9.242m-6.953,0c0-5.336-.57-8.479-2.255-8.479s-2.252,3.143-2.252,8.479.571,7.968,2.252,7.968,2.255-2.635,2.255-7.968m26.959,0c0,5.3-3.778,8.733-9.207,8.733s-9.21-3.431-9.21-8.733,3.461-9.242,9.21-9.242,9.207,3.936,9.207,9.242m-6.953,0c0-5.336-.574-8.479-2.254-8.479s-2.256,3.143-2.256,8.479.571,7.968,2.256,7.968,2.254-2.635,2.254-7.968m16.067,6.7V0h-.475l-7.749,1.429v.476l1.682.953V23.245c0,.953-.506,1.048-1.682,1.144v.476h9.908v-.476c-1.175-.1-1.685-.191-1.685-1.144"/>
  </g>
</svg>
