<svg id="Group_4342" data-name="Group 4342" xmlns="http://www.w3.org/2000/svg" width="300" height="57" viewBox="0 0 300 57">
  <rect id="Rectangle_6941" data-name="Rectangle 6941" width="300" height="57" fill="#fff"/>
  <g id="Trouw_Logo_Primair_Tagline_RGB" transform="translate(86 11.564)">
    <path id="Path_4296" data-name="Path 4296" d="M95.506,26.057l.212,10.231c0,.5,0,2.362-.042,5.593a35.33,35.33,0,0,1,2.291-5.3l5.172-10.521h8.949l.253,10.771v5.054a36.933,36.933,0,0,1,2.205-5.508l4.962-10.315h7.548L115.566,47.35h-8.652l-.381-9.569c-.042-1.325-.084-2.651-.084-4.018,0-.828,0-1.656.041-2.485-.934,2.32-1.611,3.893-2.035,4.763l-5.471,11.31H90.12L88.043,26.059h7.463Zm-24.047,0L69.17,36.744a9.5,9.5,0,0,0-.255,2.112c0,2.071,1.018,3.189,2.885,3.189,2.755,0,4.877-2.361,5.894-7l1.95-8.989h7.634L82.613,47.348H75.786l.849-3.6c-2.461,2.736-5.259,4.144-8.312,4.144-4.5,0-7.124-2.651-7.124-7.414a29.531,29.531,0,0,1,.806-5.924l1.824-8.492h7.632ZM48.176,30.364c-3.053,0-5.853,3.232-5.853,7.788,0,2.817,1.74,4.805,4.2,4.805,3.053,0,5.726-3.231,5.726-7.788,0-2.983-1.654-4.805-4.07-4.805M59.922,35.5c0,7.29-5.428,12.468-14.121,12.468-7,0-11.2-3.769-11.2-9.735,0-7.622,5.257-12.757,13.994-12.757,7.082,0,11.322,3.811,11.322,10.024M34.648,32.145a13.293,13.293,0,0,0-3.308-.579c-3.477,0-4.962,2.112-5.979,6.586l-2.035,9.2H15.692l4.453-21.375h6.913l-.806,3.894c2.121-2.983,4.242-4.391,7.209-4.391a10.482,10.482,0,0,1,2.885.456l-1.7,6.214ZM23.96,18.6l-1.229,5.55H15.225l-5.046,23.2H2.248l5.046-23.2H0L1.187,18.6H23.96Z" transform="translate(0 -16.282)" fill="#005693"/>
    <path id="Path_4297" data-name="Path 4297" d="M260.153,6.685a1.128,1.128,0,0,0-.591-.1h-1.294a.977.977,0,0,1-.375-.053,1.123,1.123,0,0,0-.435.716c0,.473.582.832,1.356.832.852,0,1.547-.454,1.547-1.023a.445.445,0,0,0-.21-.376m-.755-4.06a.813.813,0,0,0-.616-.305.935.935,0,0,0-.861,1.049,1.3,1.3,0,0,0,.487,1.12.82.82,0,0,0,.461.148c.513,0,.861-.42.861-1.032a1.5,1.5,0,0,0-.33-.981m.546-.2a1.5,1.5,0,0,1,.443.464,1.3,1.3,0,0,1,.155.63,1.527,1.527,0,0,1-1.685,1.445,1.74,1.74,0,0,1-.452-.045,1.253,1.253,0,0,0-.358.612.282.282,0,0,0,.148.237,1.01,1.01,0,0,0,.522.1h1.226a1.068,1.068,0,0,1,.869.263.885.885,0,0,1,.226.622,1.527,1.527,0,0,1-.713,1.233,3.046,3.046,0,0,1-3.051.123.971.971,0,0,1-.539-.744A.718.718,0,0,1,257.1,6.8a3.121,3.121,0,0,1,.6-.341.7.7,0,0,1-.374-.551.656.656,0,0,1,.235-.454,5.573,5.573,0,0,1,.616-.6,1.654,1.654,0,0,1-.608-.288,1.335,1.335,0,0,1-.512-1.042A1.615,1.615,0,0,1,258.734,2a2,2,0,0,1,1,.253l1.574-.324v.787l-1.366-.288Zm-5.687,4.034V6.231l.721-.324V3.615a.872.872,0,0,0-.365-.832,1.507,1.507,0,0,0-.79-.166,5.7,5.7,0,0,0-.79.053V5.907l.678.324v.227h-2.261V6.231l.765-.324V2.757l-.808-.237v-.2l1.633-.359v.5c.2-.078.382-.166.565-.236A2.081,2.081,0,0,1,254.553,2a1.212,1.212,0,0,1,.92.394,1.372,1.372,0,0,1,.323,1.059V5.907l.764.324v.227h-2.3Zm-5.519,0V6.231l.774-.324V2.739l-.774-.236V2.3l1.591-.35V5.906l.765.324v.227h-2.356ZM249.92.99c-.365,0-.548-.159-.548-.473s.174-.481.548-.481.539.149.539.464c0,.332-.174.49-.539.49m-3.864,1.6a2.166,2.166,0,0,0-.755.132V6.108c.19.017.339.026.512.026a1.7,1.7,0,0,0,1-.253,1.829,1.829,0,0,0,.713-1.548c0-1.05-.574-1.742-1.469-1.742m-.181,3.955a2.652,2.652,0,0,1-.574-.053V7.945l.955.289v.227h-2.538V8.234l.765-.289V2.757l-.765-.237V2.31l1.582-.359v.56c.147-.079.278-.149.59-.288a2.086,2.086,0,0,1,.8-.227,1.893,1.893,0,0,1,1.694,2.074,2.419,2.419,0,0,1-2.511,2.476M242.23,2.67a.727.727,0,0,0-.661-.307c-.626,0-.982.5-1.06,1.462l1.947-.185a1.5,1.5,0,0,0-.226-.971M240.5,4.105a1.923,1.923,0,0,0,.417,1.391,1.655,1.655,0,0,0,1.286.5,7.888,7.888,0,0,0,1.042-.1l.053.3s-.382.114-.6.183a3.621,3.621,0,0,1-1.1.175,1.993,1.993,0,0,1-2.007-2.187,2.5,2.5,0,0,1,.7-1.82A1.939,1.939,0,0,1,241.675,2a1.586,1.586,0,0,1,1.521.919,3.217,3.217,0,0,1,.174,1.191H240.5Zm-3.7,2.353V6.231l.772-.324V2.739L236.8,2.5V2.3l1.591-.35V5.906l.765.324v.227H236.8ZM237.981.99c-.365,0-.548-.159-.548-.473s.175-.481.548-.481.539.149.539.464c0,.332-.174.49-.539.49M234.954,2.45a2.315,2.315,0,0,0-.548-.053,1.626,1.626,0,0,0-1.669,1.82c0,1.111.574,1.732,1.494,1.732a2.37,2.37,0,0,0,.721-.123V2.449Zm0,4.13V6.046c-.217.1-.355.158-.608.271a1.84,1.84,0,0,1-.833.228,1.869,1.869,0,0,1-1.634-2.074A2.357,2.357,0,0,1,234.294,2a1.886,1.886,0,0,1,.661.113V.815L234.138.57V.378L235.772.01V5.8l.721.228v.192l-1.538.359ZM230.9,3.133l-.268-.533a2.15,2.15,0,0,0-.235-.01,2.067,2.067,0,0,0-.678.149V5.907l.947.324v.227h-2.537V6.231l.772-.324V2.748l-.807-.236v-.2l1.625-.359v.56A3.65,3.65,0,0,1,231.07,2a.946.946,0,0,1,.461.139v1H230.9Zm-4.478-.463a.727.727,0,0,0-.661-.307c-.626,0-.982.5-1.06,1.462l1.947-.185a1.508,1.508,0,0,0-.226-.971m-1.73,1.437a1.917,1.917,0,0,0,.417,1.391,1.655,1.655,0,0,0,1.286.5,7.923,7.923,0,0,0,1.043-.1l.052.3s-.382.114-.6.183a3.621,3.621,0,0,1-1.1.175,1.994,1.994,0,0,1-2.008-2.187,2.5,2.5,0,0,1,.7-1.82A1.939,1.939,0,0,1,225.868,2a1.587,1.587,0,0,1,1.521.919,3.245,3.245,0,0,1,.174,1.191h-2.868ZM223.881.884l-2.243,5.661H221.2L219.154.884l-.7-.324V.333h2.312V.56l-.685.324,1.259,3.736c.07.2.061.184.278.875L223.264.884,222.579.56V.333h1.99V.56l-.687.324ZM217.316,2.67a.727.727,0,0,0-.661-.307c-.626,0-.982.5-1.06,1.462l1.947-.185a1.508,1.508,0,0,0-.226-.971m-1.73,1.437A1.917,1.917,0,0,0,216,5.5a1.654,1.654,0,0,0,1.285.5,7.9,7.9,0,0,0,1.043-.1l.053.3s-.382.114-.6.183a3.621,3.621,0,0,1-1.1.175,1.993,1.993,0,0,1-2.007-2.187,2.5,2.5,0,0,1,.7-1.82A1.939,1.939,0,0,1,216.761,2a1.586,1.586,0,0,1,1.521.919,3.244,3.244,0,0,1,.174,1.191h-2.868Zm-2.67,2.475V6.046c-.217.1-.356.158-.608.271a1.845,1.845,0,0,1-.834.228,1.869,1.869,0,0,1-1.634-2.074A2.356,2.356,0,0,1,212.255,2a1.886,1.886,0,0,1,.661.113V.815L212.1.57V.378L213.732.01V5.8l.721.228v.192l-1.538.359Zm0-4.13a2.323,2.323,0,0,0-.548-.053,1.627,1.627,0,0,0-1.669,1.82c0,1.111.575,1.732,1.5,1.732a2.37,2.37,0,0,0,.721-.123V2.449Z" transform="translate(-183.784)" fill="#005693"/>
  </g>
</svg>
