<svg id="Group_4339" data-name="Group 4339" xmlns="http://www.w3.org/2000/svg" width="300" height="57" viewBox="0 0 300 57">
  <rect id="Rectangle_6941" data-name="Rectangle 6941" width="300" height="57" fill="#fff"/>
  <g id="Group_4267" data-name="Group 4267" transform="translate(30.917 -14.443)">
    <g id="Volkskrant-logo" transform="translate(15 29)">
      <path id="Path_4284" data-name="Path 4284" d="M19.5,25.258v-.935h-.631c-1.667,0-1.919-.177-1.919-1.439V0H7.855V.934H8.967c1.667,0,1.92.151,1.92,1.288v12.6a7.792,7.792,0,0,0-4.395-1.288C3.208,13.538,0,15.837,0,19.6a6.249,6.249,0,0,0,6.491,6.062,6.82,6.82,0,0,0,4.673-1.49v1.086Zm-8.562-4.294c0,1.516-.177,2.172-.732,2.652a2.65,2.65,0,0,1-1.718.631c-2.071,0-2.071-1.717-2.071-3.486V18.438c0-1.768,0-3.486,2.071-3.486a2.65,2.65,0,0,1,1.718.632c.556.48.732,1.136.732,2.652Z" fill="#1a1919" fill-rule="evenodd"/>
      <path id="Path_4285" data-name="Path 4285" d="M92.414,58.941c-.076-4.042-2.829-6.29-7.729-6.29-5.077,0-8.259,2.349-8.259,6.113,0,3.637,3.359,6.062,8.386,6.062a8.892,8.892,0,0,0,7.451-3.359l-.581-.632a7.657,7.657,0,0,1-5.759,2.9c-1.743,0-2.9-.682-3.233-1.818a9.051,9.051,0,0,1-.2-2.4v-.581Zm-5.835-1.01H82.488V56.9c0-1.591.05-2.021.328-2.475a2.01,2.01,0,0,1,1.793-.808,1.7,1.7,0,0,1,1.768,1.036,6.074,6.074,0,0,1,.2,2.2Z" transform="translate(-56.775 -39.114)" fill="#1a1919" fill-rule="evenodd"/>
      <path id="Path_4286" data-name="Path 4286" d="M143.552,25.258,133.145,2.652a6.046,6.046,0,0,0-.682-1.212c-.329-.379-.758-.505-1.97-.505h-.858V0h13.69V.934h-.48a8.606,8.606,0,0,0-1.541.076.971.971,0,0,0-.935.985,6.641,6.641,0,0,0,.783,2.324l5.809,13.033,5.406-12.2a10.28,10.28,0,0,0,1.01-3.005c0-.935-.606-1.212-2.88-1.212h-.2V0h7.881V.934h-.253a5.955,5.955,0,0,0-1.491.1c-.53.152-.783.48-1.288,1.616L144.891,25.258Z" transform="translate(-96.303)" fill="#1a1919" fill-rule="evenodd"/>
      <path id="Path_4287" data-name="Path 4287" d="M228.878,58.519c0-3.663-3.359-6.062-8.512-6.062-5.2,0-8.512,2.374-8.512,6.112s3.309,6.112,8.512,6.112C225.594,64.681,228.878,62.307,228.878,58.519Zm-6.315,1.465a7.482,7.482,0,0,1-.2,2.6,2.32,2.32,0,0,1-3.991,0,7.473,7.473,0,0,1-.2-2.6V57.154a7.473,7.473,0,0,1,.2-2.6,2.32,2.32,0,0,1,3.991,0,7.481,7.481,0,0,1,.2,2.6Z" transform="translate(-157.381 -38.969)" fill="#1a1919" fill-rule="evenodd"/>
      <path id="Path_4288" data-name="Path 4288" d="M277.953,24.323h.631c1.667,0,1.92-.151,1.92-1.288V2.223c0-1.137-.253-1.288-1.92-1.288h-1.111V0h9.093V23.01c0,1.162.278,1.313,1.945,1.313h.631v.935H277.953Z" transform="translate(-206.128)" fill="#1a1919" fill-rule="evenodd"/>
      <path id="Path_4289" data-name="Path 4289" d="M337.761,25.283l-4.243-5.532v3.132c0,1.263.278,1.465,1.945,1.465h.328v.935H324.9v-.935h.632c1.667,0,1.92-.176,1.92-1.439V2.223c0-1.137-.253-1.288-1.92-1.288h-1.111V0h9.093V19.221l2.7-1.97c.328-.253.859-.632,1.111-.859.429-.378.581-.606.581-.884a.494.494,0,0,0-.328-.454,3.112,3.112,0,0,0-1.213-.1h-.859v-.934h8.84v.934c-2.88.076-4.723.556-6.037,1.516l5.531,6.946a2.288,2.288,0,0,0,.935.833,2.773,2.773,0,0,0,.783.1,1.591,1.591,0,0,0,.379,0v.935Z" transform="translate(-241.007)" fill="#1a1919" fill-rule="evenodd"/>
      <path id="Path_4290" data-name="Path 4290" d="M418.462,64.945a16.167,16.167,0,0,1-5.506-.985,1.508,1.508,0,0,0-.48-.126c-.328,0-.429.227-.455.758h-.859V60.272h.859v.1a2.587,2.587,0,0,0,.53,1.869,4.906,4.906,0,0,0,3.46,1.439c1.01,0,1.541-.353,1.541-.934,0-.53-.379-.884-1.389-1.339l-.883-.4c-2.8-1.238-3.89-2.349-3.89-4.066,0-2.475,2.349-3.991,6.163-3.991a14.2,14.2,0,0,1,4.268.682,2.624,2.624,0,0,0,.833.177c.354,0,.48-.152.556-.48h.834v3.738h-.834v-.278c0-.884-.126-1.212-.556-1.591a4.84,4.84,0,0,0-2.93-.96c-.985,0-1.515.354-1.515.96,0,.581.354.884,1.844,1.465l1.516.581c2.45.96,3.309,1.869,3.309,3.536C424.877,63.353,422.452,64.945,418.462,64.945Z" transform="translate(-305.442 -39.333)" fill="#1a1919" fill-rule="evenodd"/>
      <path id="Path_4291" data-name="Path 4291" d="M476.269,25.283l-4.243-5.532v3.132c0,1.263.278,1.465,1.945,1.465h.328v.935H463.413v-.935h.631c1.667,0,1.92-.176,1.92-1.439V2.223c0-1.137-.252-1.288-1.92-1.288h-1.112V0h9.093V19.221l2.7-1.97c.328-.253.859-.632,1.111-.859.429-.378.581-.606.581-.884a.494.494,0,0,0-.329-.454,3.107,3.107,0,0,0-1.212-.1h-.859v-.934h8.84v.934c-2.879.076-4.724.556-6.037,1.516l5.531,6.946a2.288,2.288,0,0,0,.935.833,2.772,2.772,0,0,0,.783.1,1.589,1.589,0,0,0,.379,0v.935Z" transform="translate(-343.901)" fill="#1a1919" fill-rule="evenodd"/>
      <path id="Path_4292" data-name="Path 4292" d="M559.691,63.437h.733v.935H549.361v-.935h.48c1.667,0,1.919-.151,1.919-1.288V55.379c0-1.137-.253-1.288-1.919-1.288h-.758v-.934h8.461v2.93c.858-2.147,2.424-3.435,4.445-3.435a3.342,3.342,0,0,1,3.587,3.587,3.138,3.138,0,0,1-3.233,3.41,2.933,2.933,0,0,1-3.183-2.9,2.271,2.271,0,0,1,.252-1.137c.1-.2.076-.227.076-.278,0-.076-.1-.126-.152-.126-.2,0-.454.227-.732.657a5.555,5.555,0,0,0-.657,1.541,11.519,11.519,0,0,0-.2,2.425v2.3C557.746,63.26,558.024,63.437,559.691,63.437Z" transform="translate(-407.9 -39.114)" fill="#1a1919" fill-rule="evenodd"/>
      <path id="Path_4293" data-name="Path 4293" d="M632.291,64.372v-.935h-.505c-1.136,0-1.339-.353-1.339-1.439V58.208a8.322,8.322,0,0,0-.176-2.425,3.649,3.649,0,0,0-.682-1.313c-.96-1.212-2.729-1.819-5.178-1.819a18.228,18.228,0,0,0-4.774.783,7.346,7.346,0,0,1-1.01.253c-.3,0-.4-.126-.429-.555h-.758V56.87h.833v-.278a1.938,1.938,0,0,1,.631-1.743,5.467,5.467,0,0,1,3.107-.858c1.188,0,1.971.353,2.223,1.01a3.864,3.864,0,0,1,.152,1.44v.833c-.935-.076-1.592-.1-2.5-.1-3.966,0-6.694,1.036-6.694,3.814,0,2.5,2.147,3.713,4.723,3.713a7.9,7.9,0,0,0,4.673-1.389v1.061Zm-7.906-4.041c0,.278,0,.682-.025,1.111a1.657,1.657,0,0,1-.3,1.061,1.616,1.616,0,0,1-1.238.53c-.985,0-1.339-.581-1.339-2.122V60.38c0-1.591.581-2.2,2.147-2.2.328,0,.3,0,.758.025Z" transform="translate(-457.01 -39.114)" fill="#1a1919" fill-rule="evenodd"/>
      <path id="Path_4294" data-name="Path 4294" d="M694.564,64.81v-.834h.152a1.362,1.362,0,0,0,.985-.252c.177-.177.227-.607.227-1.693V57.763a5.617,5.617,0,0,0-.152-2.021,1.191,1.191,0,0,0-1.238-.631,2.191,2.191,0,0,0-1.667.732c-.379.48-.455.834-.455,2.273v3.915c0,.505.025.985.05,1.238.076.505.353.707,1.162.707h.253v.834h-9.75v-.935h.48c1.667,0,1.92-.151,1.92-1.364V55.894c0-1.213-.253-1.364-1.92-1.364h-.758V53.6h8.361v1.617a7.075,7.075,0,0,1,5.077-1.97,5.01,5.01,0,0,1,3.814,1.414,3.41,3.41,0,0,1,.808,1.844,12.455,12.455,0,0,1,.076,1.692v4.319c0,1.213.253,1.364,1.919,1.364h.4v.935Z" transform="translate(-508.019 -39.552)" fill="#1a1919" fill-rule="evenodd"/>
      <path id="Path_4295" data-name="Path 4295" d="M774.475,50.689c-.707,1.389-2.3,2.1-4.748,2.1-1.844,0-3.107-.379-3.89-1.263a3.753,3.753,0,0,1-.859-2.248,18.442,18.442,0,0,1-.076-2.1V42.127h-2.071v-.834l7.779-4.849.328.253v4.42H774.8v1.011h-3.865v5.834a7.788,7.788,0,0,0,.126,2.1,1.1,1.1,0,0,0,1.162.783c1.692,0,1.768-1.44,1.768-2.854v-.278h.859v.379A5.357,5.357,0,0,1,774.475,50.689Z" transform="translate(-566.688 -27.073)" fill="#1a1919" fill-rule="evenodd"/>
    </g>
  </g>
</svg>
