<svg xmlns="http://www.w3.org/2000/svg" width="87.467" height="30.796" viewBox="0 0 87.467 30.796"><defs><style>.a{fill:#fff;opacity:0.01;}.b{fill:#ff5a5f;}.c{fill:#07be54;}</style></defs><g transform="translate(0 0.929)"><rect class="a" width="87.467" height="29.867" transform="translate(0 0)"/><path class="b" d="M189.028,28.65a9.178,9.178,0,0,0-6.772,2.547A8.194,8.194,0,0,0,180,36.965a7.7,7.7,0,0,0,1.911,5.561c1.4,1.441,3.533,2.171,6.351,2.171a15.241,15.241,0,0,0,6.738-1.5l-1.5-3.469a9.029,9.029,0,0,1-4.221,1.129c-1.753,0-2.878-.722-3.089-1.983l-.064-.376h.376a13.433,13.433,0,0,0,6.087-1.1,4.515,4.515,0,0,0,1.791-1.576,4.692,4.692,0,0,0,.673-2.517,4.062,4.062,0,0,0-1.652-3.51A7.255,7.255,0,0,0,189.028,28.65Zm-2.961,7.066V35.4c.038-2.122,1.306-3.074,2.547-3.074a1.245,1.245,0,0,1,1.351,1.3,1.689,1.689,0,0,1-.79,1.479,5.35,5.35,0,0,1-2.78.613Z" transform="translate(-114.069 -22.562)"/><path class="c" d="M114.4,45.049h6.065V42.566l-.527-.049c-.617-.068-.835-.339-.835-1.027V30H112.66v2.57l.9.079c.617.068.835.339.835,1.027Z" transform="translate(-72.066 -23.404)"/><path class="c" d="M20,32.6l.688.049c.508.064.839.256.839,1V40.5c0,3.386,1.407,4.932,4.424,4.932a4.7,4.7,0,0,0,4.263-2.257l.038-.064h.282v1.934h5.771V42.566l-.7-.079c-.576-.068-.771-.335-.771-1.053V30H28.774v2.6l.546.049c.617.068.835.339.835,1.027v5.6A2.239,2.239,0,0,1,27.987,41.8c-1.426,0-1.716-.873-1.716-2.284V30H20Z" transform="translate(-14.267 -23.404)"/><path class="c" d="M76.724,44.425h6.26V41.942l-.688-.053c-.508-.06-.839-.256-.839-.993V33.921c.023-3.367-1.4-4.921-4.413-4.921a4.7,4.7,0,0,0-4.263,2.257l-.038.06H72.45V29.376H66.69v2.6l.7.075c.576.068.752.335.752,1.057V44.425h6.084V41.942l-.546-.049c-.617-.068-.831-.339-.831-1.027V35.148a2.24,2.24,0,0,1,2.163-2.524c1.426,0,1.716.877,1.716,2.287Z" transform="translate(-43.391 -22.781)"/><path class="c" d="M144.959,30v2.588l.651.049a.568.568,0,0,1,.451.564.5.5,0,0,1-.023.147l-2.257,7.035h-.2l-2.035-6.7a.794.794,0,0,1,.03-.688.783.783,0,0,1,.587-.327l.7-.075V30H134.88v2.57l.877.109a.726.726,0,0,1,.673.433l4.214,11.938H146l3.95-11.467a1.116,1.116,0,0,1,1.065-.933l.636-.049V30Z" transform="translate(-85.926 -23.404)"/><path class="c" d="M205.734,10c-3.785,0-6.268,1.881-5.643,5.643C203.853,15.643,205.734,13.785,205.734,10Z" transform="translate(-126.543 -10.929)"/></g></svg>