<svg xmlns="http://www.w3.org/2000/svg" width="82" height="28" viewBox="0 0 82 28"><defs><style>.a{fill:#fff;opacity:0.01;}.b{fill:#ff5a5f;}.c{fill:#07be54;}</style></defs><g transform="translate(20 -2)"><rect class="a" width="82" height="28" transform="translate(-20 2)"/><path class="b" d="M189.748,28.65a9.911,9.911,0,0,0-7.312,2.75A8.848,8.848,0,0,0,180,37.628a8.317,8.317,0,0,0,2.064,6c1.507,1.556,3.815,2.344,6.857,2.344a16.457,16.457,0,0,0,7.276-1.625l-1.625-3.746a9.75,9.75,0,0,1-4.558,1.219c-1.893,0-3.108-.78-3.335-2.141l-.069-.406h.406a14.5,14.5,0,0,0,6.573-1.19,4.875,4.875,0,0,0,1.934-1.7,5.066,5.066,0,0,0,.727-2.718,4.386,4.386,0,0,0-1.783-3.79A7.834,7.834,0,0,0,189.748,28.65Zm-3.2,7.629v-.345c.041-2.291,1.41-3.319,2.75-3.319a1.345,1.345,0,0,1,1.458,1.4,1.824,1.824,0,0,1-.853,1.6,5.777,5.777,0,0,1-3,.662Z" transform="translate(-135 -17.977)"/><path class="c" d="M114.537,46.25h6.549V43.569l-.569-.053c-.666-.073-.9-.366-.9-1.109V30H112.66v2.775l.975.085c.666.073.9.366.9,1.109Z" transform="translate(-95.018 -18.779)"/><path class="c" d="M20,32.807l.743.053c.548.069.906.276.906,1.077v7.406c0,3.656,1.519,5.326,4.777,5.326a5.07,5.07,0,0,0,4.6-2.437l.041-.069h.3V46.25h6.232V43.569l-.752-.085c-.622-.073-.833-.362-.833-1.137V30H29.474v2.807l.589.053c.666.073.9.366.9,1.109v6.049c0,1.625-.942,2.722-2.34,2.722-1.54,0-1.852-.942-1.852-2.466V30H20Z" transform="translate(-40 -18.779)"/><path class="c" d="M77.525,45.656h6.76V42.975l-.743-.057c-.548-.065-.906-.276-.906-1.072V34.314C82.659,30.678,81.128,29,77.87,29a5.07,5.07,0,0,0-4.6,2.437l-.041.065H72.91v-2.1H66.69v2.807l.752.081c.622.073.812.362.812,1.142v12.22h6.569V42.975l-.589-.053c-.666-.073-.9-.366-.9-1.109V35.638c0-1.625.938-2.726,2.336-2.726,1.54,0,1.852.947,1.852,2.47Z" transform="translate(-67.723 -18.185)"/><path class="c" d="M145.763,30v2.795l.7.053a.613.613,0,0,1,.488.609.536.536,0,0,1-.024.158l-2.437,7.6h-.219l-2.2-7.239a.857.857,0,0,1,.033-.743.845.845,0,0,1,.634-.353l.752-.081V30H134.88v2.775l.947.118a.784.784,0,0,1,.727.467l4.55,12.89h5.781l4.266-12.382a1.2,1.2,0,0,1,1.15-1.007l.687-.053V30Z" transform="translate(-108.211 -18.779)"/><path class="c" d="M206.192,10c-4.087,0-6.768,2.031-6.094,6.094C204.161,16.094,206.192,14.087,206.192,10Z" transform="translate(-146.873 -6.904)"/></g></svg>