<svg xmlns="http://www.w3.org/2000/svg" xmlns:xlink="http://www.w3.org/1999/xlink" width="4" height="8" viewBox="0 0 4 8"><defs><style>.a{fill:#7e2424;}.b{clip-path:url(#a);}.c{fill:none;}.d,.e{stroke:none;}.e{fill:#fff;}</style><clipPath id="a"><rect class="a" width="4" height="8" transform="translate(23 141)"/></clipPath></defs><g class="b" transform="translate(-23 -141)"><g class="c" transform="translate(23 141)"><path class="d" d="M4,0A4,4,0,1,1,0,4,4,4,0,0,1,4,0Z"/><path class="e" d="M 4 2 C 2.897200107574463 2 2 2.897200107574463 2 4 C 2 5.102799892425537 2.897200107574463 6 4 6 C 5.102799892425537 6 6 5.102799892425537 6 4 C 6 2.897200107574463 5.102799892425537 2 4 2 M 4 0 C 6.209139823913574 0 8 1.790860176086426 8 4 C 8 6.209139823913574 6.209139823913574 8 4 8 C 1.790860176086426 8 0 6.209139823913574 0 4 C 0 1.790860176086426 1.790860176086426 0 4 0 Z"/></g></g></svg>