<svg xmlns="http://www.w3.org/2000/svg" width="13.995" height="10.12" viewBox="0 0 13.995 10.12"><defs><style>.a{fill:#505050;fill-rule:evenodd;}</style></defs><path class="a" d="M13.311,10.809V8.576a.574.574,0,0,1,.946-.437,29.417,29.417,0,0,1,5.315,4.551.577.577,0,0,1,0,.748,29.177,29.177,0,0,1-5.386,4.6.575.575,0,0,1-.789-.185.561.561,0,0,1-.086-.3V15.3c-1.789-.272-6.5-.664-6.789-.82a1.5,1.5,0,0,1-.808-1.428,1.5,1.5,0,0,1,.808-1.428S11.58,11.072,13.311,10.809Z" transform="translate(-5.714 -8)"/></svg>