<svg xmlns="http://www.w3.org/2000/svg" xmlns:xlink="http://www.w3.org/1999/xlink" width="205.37" height="32.282" viewBox="0 0 205.37 32.282"><defs><style>.a{fill:none;}.b{clip-path:url(#a);}.c{fill:#ff5a5f;}.d{fill:#07be54;}</style><clipPath id="a"><rect class="a" width="205.37" height="32.282"/></clipPath></defs><g class="b"><path class="c" d="M172.61,18.648a12.819,12.819,0,0,0-9.471,3.564,11.47,11.47,0,0,0-3.144,8.075c0,3.33.9,5.948,2.672,7.781,1.952,2.018,4.943,3.042,8.89,3.042A21.362,21.362,0,0,0,180.99,39L178.9,34.14a12.6,12.6,0,0,1-5.907,1.571c-2.45,0-4.027-1.011-4.325-2.774l-.084-.505.529,0c3.768-.024,6.556-.529,8.52-1.544a6.308,6.308,0,0,0,2.507-2.205,6.559,6.559,0,0,0,.922-3.549,5.679,5.679,0,0,0-2.313-4.914,10.444,10.444,0,0,0-6.138-1.569m-4.146,9.891.008-.451c.052-2.969,1.828-4.3,3.564-4.3a1.743,1.743,0,0,1,1.888,1.814,2.364,2.364,0,0,1-1.1,2.073,7.339,7.339,0,0,1-3.89.857Z" transform="translate(-75.743 -8.828)"/><path class="d" d="M95.094,41.063h8.487V37.588l-.76-.069c-.864-.1-1.169-.472-1.169-1.436V20h-8.99v3.6l1.262.111c.865.1,1.17.472,1.17,1.437Z" transform="translate(-43.867 -9.468)"/><path class="d" d="M0,23.636l.966.072c.707.088,1.172.358,1.172,1.394v9.6c0,4.711,1.968,6.905,6.193,6.905A6.574,6.574,0,0,0,14.3,38.468l.052-.088h.408v2.682h8.067V37.587l-.973-.108c-.809-.1-1.082-.468-1.082-1.478V20H12.282v3.64l.759.069c.864.1,1.169.471,1.169,1.436v7.839c0,2.113-1.217,3.532-3.029,3.532-2,0-2.4-1.223-2.4-3.2V20H0Z" transform="translate(0 -9.468)"/><path class="d" d="M60.733,40.573h8.78V37.1l-.966-.072c-.707-.088-1.172-.358-1.172-1.394V25.871c0-4.711-1.968-6.906-6.193-6.906a6.573,6.573,0,0,0-5.966,3.14l-.052.088h-.408V19.51H46.69v3.637l.972.107c.809.1,1.082.469,1.082,1.478v15.84h8.487V37.1l-.76-.069c-.864-.1-1.169-.472-1.169-1.436v-8c0-2.113,1.217-3.532,3.029-3.532,2,0,2.4,1.223,2.4,3.2Z" transform="translate(-22.103 -8.978)"/><path class="d" d="M128.979,20.025v3.623l.91.068a.8.8,0,0,1,.631.793.715.715,0,0,1-.029.2l-3.152,9.85h-.305l-2.845-9.386a1.114,1.114,0,0,1,.038-.961,1.1,1.1,0,0,1,.824-.458l.973-.108V20.025H114.861v3.6l1.226.15a1.017,1.017,0,0,1,.953.591l5.9,16.708h7.5l5.53-16.051c.3-.9.676-1.209,1.489-1.3l.889-.072V20.025Z" transform="translate(-54.376 -9.48)"/><path class="d" d="M188.031,0c-5.3,0-8.776,2.633-7.9,7.9,5.265,0,7.9-2.6,7.9-7.9" transform="translate(-85.212)"/><path class="c" d="M235.393,18.194h-1.1v2.219A3.918,3.918,0,0,0,233,20.2c-1.938,0-3.095,1.367-3.095,3.655,0,2.113.919,3.278,2.588,3.278a2.308,2.308,0,0,0,1.922-.954l.09.771h1l-.108-1.221Zm-1.1,3.177v3.536a1.511,1.511,0,0,1-1.642,1.343c-1.09,0-1.642-.846-1.642-2.514,0-1.689.712-2.657,1.955-2.657a3.018,3.018,0,0,1,1.33.293" transform="translate(-108.839 -8.613)"/><path class="c" d="M248.605,22.431l-.032-.012A6.894,6.894,0,0,0,246.421,22c-2.138,0-3.316,1.33-3.316,3.746,0,2.085.908,3.186,2.627,3.186a2.232,2.232,0,0,0,1.9-.924l.075.741h1.01l-.109-1.184Zm-2.744,5.647c-1.368,0-1.656-1.247-1.656-2.293,0-1.919.688-2.892,2.046-2.892a3.732,3.732,0,0,1,1.252.2v3.547a1.51,1.51,0,0,1-1.642,1.434" transform="translate(-115.088 -10.415)"/><path class="c" d="M261.83,22.431l-.032-.012A6.893,6.893,0,0,0,259.646,22c-2.138,0-3.316,1.33-3.316,3.746,0,2.085.908,3.186,2.627,3.186a2.232,2.232,0,0,0,1.9-.923l.075.741h1.01l-.109-1.184Zm-1.1.666v3.547a1.51,1.51,0,0,1-1.642,1.434c-1.368,0-1.656-1.247-1.656-2.293,0-1.919.688-2.892,2.046-2.892a3.732,3.732,0,0,1,1.252.2" transform="translate(-121.349 -10.415)"/><path class="c" d="M272.759,22a1.729,1.729,0,0,0-1.6.993l-.1-.811h-.97l.083.935V28.75h1.1V24.577A1.5,1.5,0,0,1,272.629,23a1.8,1.8,0,0,1,.823.241l.051.027.344-.99-.033-.021A2.041,2.041,0,0,0,272.759,22" transform="translate(-127.862 -10.415)"/><path class="c" d="M286.592,22a8.735,8.735,0,0,0-2.369.392l-.036.01v9.081H285.3v-3a3.076,3.076,0,0,0,1.616.452c1.7,0,2.679-1.29,2.679-3.538,0-2.284-.983-3.394-3-3.394m1.89,3.524c0,1.542-.614,2.462-1.642,2.462a2.556,2.556,0,0,1-1.538-.546V23.152a3.744,3.744,0,0,1,1.174-.194c1.407,0,2.007.768,2.007,2.567" transform="translate(-134.537 -10.415)"/><rect class="c" width="1.127" height="8.755" transform="translate(156.667 9.58)"/><path class="c" d="M308.217,22.346h-1.1v4.345a1.7,1.7,0,0,1-1.668,1.512c-1.072,0-1.291-.667-1.291-1.668V22.346h-1.115v4.475c0,1.51.722,2.275,2.145,2.275a2.431,2.431,0,0,0,2.032-1.012l.1.829h1l-.1-1Z" transform="translate(-143.463 -10.579)"/><path class="c" d="M331.16,25.931a1.826,1.826,0,0,1-.964.305c-.64,0-.9-.314-.9-1.083v-3.8h1.848V20.38H329.3V18.193h-1.114v6.935c0,.845,0,2,1.833,2a2.818,2.818,0,0,0,1.5-.438l.034-.023-.339-.766Z" transform="translate(-155.364 -8.613)"/><path class="c" d="M345.513,18.333c.712-.684,1.248-1.21,1.552-1.552a.989.989,0,0,0,.3-.579c0-.414-.57-.562-.844-.633l-.036-.009-1.473,2.424.471.38Z" transform="translate(-163.331 -7.366)"/><path class="c" d="M347,22.346h-1.1v4.345a1.705,1.705,0,0,1-1.669,1.512c-1.072,0-1.291-.667-1.291-1.668V22.346h-1.115v4.475c0,1.51.722,2.275,2.145,2.275A2.432,2.432,0,0,0,346,28.084l.1.829h1l-.1-1Z" transform="translate(-161.823 -10.579)"/><path class="c" d="M235.486,41.376h-1.1V43.6a3.918,3.918,0,0,0-1.291-.215c-1.938,0-3.095,1.367-3.095,3.655,0,2.113.919,3.278,2.587,3.278a2.307,2.307,0,0,0,1.923-.954l.09.771h1l-.109-1.221Zm-1.1,3.177V48.09a1.511,1.511,0,0,1-1.642,1.343c-1.09,0-1.642-.846-1.642-2.514,0-1.689.712-2.657,1.955-2.657a3.018,3.018,0,0,1,1.33.293" transform="translate(-108.883 -19.588)"/><path class="c" d="M247.85,50.631a2.607,2.607,0,0,1-1.621.578,1.976,1.976,0,0,1-1.9-2.086l.095,0c.059,0,.121.007.191.007.852,0,3.629-.165,3.629-2.288,0-1.026-.747-1.664-1.95-1.664-2.12,0-3.069,1.79-3.069,3.563,0,2.172,1.044,3.369,2.939,3.369a3.423,3.423,0,0,0,2.153-.754l.032-.027-.439-.747Zm-3.522-2.349c.047-.858.5-2.245,1.914-2.245a.881.881,0,0,1,.953.927c0,1.266-2.214,1.33-2.658,1.33-.055,0-.1,0-.145-.007l-.063,0" transform="translate(-115.144 -21.39)"/><path class="c" d="M261.9,50.972l-1.806-5.443h-1.212L261.22,52.1h1.372l2.273-6.568h-1.16Z" transform="translate(-122.557 -21.554)"/><path class="c" d="M274.584,45.183a1.728,1.728,0,0,0-1.6.993l-.1-.811h-.97L272,46.3v5.633h1.1V47.76a1.5,1.5,0,0,1,1.357-1.579,1.8,1.8,0,0,1,.823.241l.051.027.344-.99-.033-.021a2.041,2.041,0,0,0-1.055-.255" transform="translate(-128.726 -21.39)"/><path class="c" d="M285.749,45.529h-1.1v4.345a1.7,1.7,0,0,1-1.668,1.512c-1.072,0-1.291-.667-1.291-1.668V45.529h-1.115V50c0,1.51.722,2.275,2.145,2.275a2.432,2.432,0,0,0,2.032-1.011l.1.829h1l-.1-1Z" transform="translate(-132.826 -21.554)"/><path class="c" d="M296.131,46.115a1.818,1.818,0,0,1,1.522.826l.031.041.753-.593-.025-.038a2.64,2.64,0,0,0-2.293-1.167c-.482,0-2.887.167-2.887,3.46,0,2.239,1.039,3.472,2.926,3.472a3.236,3.236,0,0,0,2.142-.781l.031-.028-.482-.745-.043.034a2.448,2.448,0,0,1-1.57.588c-1.562,0-1.89-1.4-1.89-2.58,0-1.581.651-2.488,1.786-2.488" transform="translate(-138.818 -21.39)"/><path class="c" d="M308,43.381a2.541,2.541,0,0,0-1.955.893v-2.9h-1.1v8.754h1.1V45.839a1.711,1.711,0,0,1,1.681-1.551c1.123,0,1.278.8,1.278,1.655v4.189h1.114V45.669c0-1.5-.733-2.288-2.119-2.288" transform="translate(-144.365 -19.588)"/><path class="c" d="M321.151,49.114a1.827,1.827,0,0,1-.964.305c-.639,0-.9-.314-.9-1.083v-3.8h1.848v-.971h-1.848V41.376h-1.114v6.935c0,.845,0,2,1.833,2a2.818,2.818,0,0,0,1.5-.438l.034-.023-.339-.766Z" transform="translate(-150.625 -19.588)"/><path class="c" d="M329.893,50.631a2.608,2.608,0,0,1-1.622.578,1.976,1.976,0,0,1-1.9-2.086l.095,0c.059,0,.122.007.191.007.851,0,3.629-.165,3.629-2.288,0-1.026-.747-1.664-1.95-1.664-2.12,0-3.07,1.79-3.07,3.563,0,2.172,1.044,3.369,2.939,3.369a3.424,3.424,0,0,0,2.153-.754l.032-.027-.44-.747Zm-3.522-2.349c.047-.858.5-2.245,1.914-2.245a.881.881,0,0,1,.953.927c0,1.266-2.214,1.33-2.658,1.33-.054,0-.1,0-.145-.007l-.063,0" transform="translate(-153.984 -21.39)"/><path class="c" d="M340.164,45.183a2.51,2.51,0,0,0-2.062,1.036L338,45.365h-.969l.068,1.026v5.542h1.115V47.641a1.676,1.676,0,0,1,1.707-1.551c1.1,0,1.252.814,1.252,1.694v4.15h1.114V47.471c0-1.5-.733-2.288-2.119-2.288" transform="translate(-159.551 -21.39)"/><path class="c" d="M357.02,50.972l-1.795-5.41-.011-.034H354l2.328,6.534.012.033h1.372l2.273-6.568h-1.16Z" transform="translate(-167.588 -21.554)"/><path class="c" d="M371.754,45.614l-.032-.012a6.893,6.893,0,0,0-2.152-.419c-2.139,0-3.316,1.33-3.316,3.746,0,2.085.908,3.186,2.627,3.186a2.231,2.231,0,0,0,1.9-.923l.075.741h1.011l-.109-1.184Zm-1.1.666v3.547a1.51,1.51,0,0,1-1.642,1.434c-1.369,0-1.656-1.247-1.656-2.293,0-1.919.688-2.892,2.046-2.892a3.732,3.732,0,0,1,1.252.2" transform="translate(-173.388 -21.39)"/><path class="c" d="M383.153,45.183a2.508,2.508,0,0,0-2.062,1.036l-.107-.854h-.969l.068,1.026v5.542H381.2V47.641a1.676,1.676,0,0,1,1.708-1.551c1.1,0,1.252.814,1.252,1.694v4.15h1.114V47.471c0-1.5-.732-2.288-2.119-2.288" transform="translate(-179.903 -21.39)"/><path class="c" d="M321.441,20.38h-1.288l-2.724,2.95V18.194h-1.088v8.754h1.088v-2.19l.712-.777,2.242,2.966h1.251l-2.791-3.732Z" transform="translate(-149.759 -8.613)"/></g></svg>