<svg xmlns="http://www.w3.org/2000/svg" width="3920" height="3924.313" viewBox="0 0 3920 3924.313"><defs><style>.a{fill:#df0000;}</style></defs><path class="a" d="M2776.207,174.774l.036-.017a1968.95,1968.95,0,0,1,560.388,383.378c-672.862-28.526-1264.392,233.42-1574.013,633.8-139.4,180.269-231.307,420.517-171.9,648.063,38.2,146.3,121.71,237.51,151.674,268.843-260.94-157.445-293.105-502.836-214.72-781.47C1685.238,759.528,2179.98,352.356,2776.207,174.774ZM1261.133,2284.844c260.768,125.592,606.522,153.894,806.877-75.749-36.082,24.072-140.392,90.48-291.1,102.681-234.408,18.994-455.056-113.235-608.394-281.823C827.913,1655.43,672.687,1027.21,817.775,369.374A1951.376,1951.376,0,0,0,342.807,855.191l.087.468c71.47,617.787,386.532,1175.489,918.239,1429.185M1631.392,2662.4c280.507-71.4,563.545-271.979,569.436-576.679-12.166,41.628-49.391,159.542-157.012,265.775-167.358,165.227-421.349,205.744-647.178,175.156-501.761-67.969-1024.612-449.578-1336.3-1047A1970.1,1970.1,0,0,0,9.583,2158c451.8,427.189,1051.526,651.806,1621.81,504.395m320.175-962.119c42.148-10.294,162.871-37.018,308.686,3.067,226.766,62.32,388.855,262.032,475.28,472.907,191.967,468.4,122.992,1111.8-238.308,1680.333A1955.637,1955.637,0,0,0,3109.6,3562.668c144.362-605.154,39.1-1237.219-373.9-1657.6-202.087-207.217-517.306-352.063-784.14-204.792m206.178,1013.347c168.97-235.014,256.868-570.6,65.525-807.794,17.434,39.721,64.711,153.979,50.57,304.527-21.992,234.147-190.528,428.453-383.188,550.18C1462.6,3031,816.735,3074.753,193.941,2817.418a1953.192,1953.192,0,0,0,396.878,552.3c620.8,36.913,1224.741-176.508,1566.926-656.086m-270.784-495.4c-43.1-4.748-165.711-20.936-289.016-108.469-191.758-136.112-275.792-379.219-284.856-606.938C1292.9,997.038,1577.739,416.044,2111.647,5.389a1975.884,1975.884,0,0,0-676.224,67.154c-342.358,519.195-459.51,1148.921-215.259,1685.047,119.024,263.853,365.684,507.758,666.8,460.637M2516.9,1423.621c-288.011-28.82-622.587,62.839-732.322,347.158,25.667-34.972,100.983-133.044,238.429-196.056,213.785-98.019,466.32-49.218,668.061,56.757,448.141,235.431,808.886,772.63,897.548,1440.38a1951.939,1951.939,0,0,0,280.177-618.793C3590.4,1896.718,3103.469,1480.186,2516.9,1423.621m-477.082-228.152c-239.174,163.042-436.548,448.332-337.853,736.672-2.79-43.291-8.162-166.821,56.618-303.452,100.758-212.5,325.583-337.454,548.258-385.943C2801.371,1135.038,3422.9,1314.614,3920,1768.977a1968.067,1968.067,0,0,0-182.835-653.868c-570.89-247.25-1211.639-253.35-1697.351,80.36m554.062,1219.057c-21.609-288.652-169.991-602.207-469.04-660.921,38.906,19.219,148.536,76.356,234.477,200.77,133.65,193.509,129.456,450.688,60.117,667.766-154.064,482.333-620.681,930.994-1263.144,1134.191a1957.5,1957.5,0,0,0,658.979,167.981c499.3-370.779,824.744-922.467,778.611-1509.787"/></svg>