<svg xmlns="http://www.w3.org/2000/svg" width="18" height="18" viewBox="0 0 18 18"><defs><style>.a{fill:#fff;}.a,.b{fill-rule:evenodd;}.b{fill:#505050;}</style></defs><g transform="translate(-110 -1)"><path class="a" d="M8.55,18C3.6,18,0,15.283,0,9.45,0,1.8,4.95,0,9.45,0,14.41,0,18,2.7,18,8.55,18,15.3,13.96,18,8.55,18Z" transform="translate(110 1)"/><path class="b" d="M12.022,10.332V8.478a.477.477,0,0,1,.786-.363,24.425,24.425,0,0,1,4.413,3.779.479.479,0,0,1,0,.621,24.227,24.227,0,0,1-4.472,3.817.477.477,0,0,1-.655-.154.466.466,0,0,1-.071-.252V14.065c-1.485-.226-5.4-.552-5.637-.681A1.247,1.247,0,0,1,5.714,12.2a1.248,1.248,0,0,1,.671-1.186S10.584,10.551,12.022,10.332Z" transform="translate(107.476 -2.202)"/></g></svg>