<svg id="Trouw" xmlns="http://www.w3.org/2000/svg" xmlns:xlink="http://www.w3.org/1999/xlink" width="129.562" height="32.581" viewBox="0 0 129.562 32.581">
  <defs>
    <clipPath id="clip-path">
      <rect id="Rectangle_4811" data-name="Rectangle 4811" width="129.562" height="32.582" fill="#fff"/>
    </clipPath>
  </defs>
  <g id="Group_123" data-name="Group 123" clip-path="url(#clip-path)">
    <path id="Path_3858" data-name="Path 3858" d="M574.521,253.193c7.216,0,11.537,3.975,11.537,10.456,0,7.6-5.531,13.007-14.389,13.007-7.129,0-11.407-3.932-11.407-10.155C560.262,258.55,565.619,253.193,574.521,253.193Zm23.292.6-2.333,11.148a10.152,10.152,0,0,0-.259,2.2c0,2.16,1.037,3.327,2.939,3.327,2.809,0,4.969-2.463,6.006-7.3l1.986-9.377h7.779l-4.753,22.21H602.22l.865-3.76c-2.507,2.852-5.358,4.321-8.469,4.321-4.58,0-7.259-2.766-7.259-7.735a31.529,31.529,0,0,1,.821-6.179l1.859-8.858Zm-48.4-7.778-1.253,5.79h-7.648l-5.142,24.2h-8.08l5.142-24.2H525l1.21-5.79Zm9.68,7.173a10.414,10.414,0,0,1,2.938.475l-1.728,6.481a13.265,13.265,0,0,0-3.37-.6c-3.543,0-5.056,2.2-6.092,6.87l-2.074,9.593h-7.778l4.537-22.3h7.043l-.821,4.062C553.909,254.661,556.069,253.193,559.094,253.193Zm63.221.6.216,10.673v.217c0,.737,0,2.609-.044,5.616a37.424,37.424,0,0,1,2.334-5.531l5.27-10.975h9.119l.259,11.235V270.3a39.227,39.227,0,0,1,2.247-5.747l5.055-10.759h7.691l-11.71,22.21h-8.815l-.388-9.982c-.044-1.383-.086-2.766-.086-4.192,0-.864,0-1.728.042-2.592-.951,2.42-1.641,4.061-2.074,4.969l-5.575,11.8h-9.03L614.71,253.8Zm-48.226,4.494c-3.111,0-5.963,3.371-5.963,8.124,0,2.938,1.772,5.012,4.278,5.012,3.111,0,5.834-3.37,5.834-8.124C578.237,260.193,576.551,258.291,574.089,258.291Zm29.863-12.133v.8l-1.39-.292a1.515,1.515,0,0,1,.451.469,1.311,1.311,0,0,1,.159.637,1.551,1.551,0,0,1-1.717,1.461,1.805,1.805,0,0,1-.459-.044,1.266,1.266,0,0,0-.364.619.283.283,0,0,0,.151.24,1.041,1.041,0,0,0,.531.106h1.249a1.093,1.093,0,0,1,.885.266.886.886,0,0,1,.231.629,1.543,1.543,0,0,1-.726,1.248,3.122,3.122,0,0,1-3.107.124.983.983,0,0,1-.549-.752.727.727,0,0,1,.372-.575,3.143,3.143,0,0,1,.612-.345.71.71,0,0,1-.381-.557.664.664,0,0,1,.24-.46,5.663,5.663,0,0,1,.627-.6,1.689,1.689,0,0,1-.62-.292,1.348,1.348,0,0,1-.521-1.053,1.641,1.641,0,0,1,1.708-1.549,2.051,2.051,0,0,1,1.018.257Zm-16.3.026v.567c.15-.08.283-.15.6-.292a2.139,2.139,0,0,1,.815-.23,1.919,1.919,0,0,1,1.725,2.1,2.456,2.456,0,0,1-2.557,2.5,2.783,2.783,0,0,1-.584-.053v1.469l.973.292v.23h-2.585v-.23l.779-.292V247l-.779-.239v-.212Zm12.824,4.638a1.131,1.131,0,0,0-.443.725c0,.478.593.841,1.381.841.867,0,1.576-.46,1.576-1.035a.45.45,0,0,0-.213-.381,1.162,1.162,0,0,0-.6-.1h-1.318A1,1,0,0,1,600.472,250.822Zm-44.972-6.6v5.859l.735.231v.194l-1.566.363v-.54c-.221.1-.363.16-.62.274a1.7,1.7,0,0,1-2.514-1.867,2.391,2.391,0,0,1,2.46-2.5,1.931,1.931,0,0,1,.673.115v-1.31l-.832-.248v-.2Zm22.443,0v5.859l.734.231v.194l-1.566.363v-.54l-.62.274a1.7,1.7,0,0,1-2.513-1.867,2.391,2.391,0,0,1,2.46-2.5,1.926,1.926,0,0,1,.673.115v-1.31l-.832-.248v-.2Zm6.011,2.009a1.62,1.62,0,0,1,1.549.93,3.235,3.235,0,0,1,.177,1.2H582.76a1.932,1.932,0,0,0,.425,1.407,1.692,1.692,0,0,0,1.31.5,8,8,0,0,0,1.062-.106l.053.3s-.389.116-.61.185a3.718,3.718,0,0,1-1.125.177,2.023,2.023,0,0,1-2.044-2.213,2.522,2.522,0,0,1,.717-1.841A1.988,1.988,0,0,1,583.955,246.228Zm-25.372,0a1.619,1.619,0,0,1,1.549.93,3.249,3.249,0,0,1,.177,1.2h-2.921a1.929,1.929,0,0,0,.425,1.407,1.692,1.692,0,0,0,1.309.5,8,8,0,0,0,1.062-.106l.053.3s-.389.116-.611.185a3.713,3.713,0,0,1-1.124.177,2.023,2.023,0,0,1-2.044-2.213,2.522,2.522,0,0,1,.717-1.841A1.985,1.985,0,0,1,558.583,246.228Zm4.082-1.681v.23l-.7.327,1.283,3.78c.071.2.062.186.284.885l1.673-4.665-.7-.327v-.23h2.027v.23l-.7.327-2.284,5.727H563.1l-2.08-5.727-.708-.327v-.23Zm5.193,1.681a1.619,1.619,0,0,1,1.549.93,3.251,3.251,0,0,1,.177,1.2h-2.921a1.932,1.932,0,0,0,.425,1.407,1.692,1.692,0,0,0,1.31.5,8.02,8.02,0,0,0,1.062-.106l.053.3s-.389.116-.61.185a3.716,3.716,0,0,1-1.124.177,2.023,2.023,0,0,1-2.045-2.213,2.522,2.522,0,0,1,.717-1.841A1.987,1.987,0,0,1,567.858,246.228Zm24.91-.044v4l.779.327v.23h-2.4v-.23l.788-.327v-3.2l-.788-.239v-.2Zm2.762.009v.5c.2-.08.39-.168.576-.239a2.124,2.124,0,0,1,.965-.23,1.241,1.241,0,0,1,.937.4,1.382,1.382,0,0,1,.328,1.071v2.487l.778.327v.23h-2.346v-.23l.735-.327v-2.319a.881.881,0,0,0-.372-.841,1.543,1.543,0,0,0-.805-.168,6.071,6.071,0,0,0-.8.053v3.275l.691.327v.23h-2.3v-.23l.779-.327V247l-.823-.239v-.2Zm-23.749-.009v.567a3.745,3.745,0,0,1,1.372-.522.957.957,0,0,1,.469.141v1.009h-.637l-.274-.54c-.106-.009-.168-.009-.239-.009a2.108,2.108,0,0,0-.691.15v3.2l.965.327v.23h-2.584v-.23l.787-.327v-3.2l-.823-.239v-.2Zm8.829,0v4l.779.327v.23h-2.4v-.23l.787-.327v-3.2l-.787-.239v-.2Zm7.807.646a2.237,2.237,0,0,0-.77.132v3.426c.194.017.345.026.522.026a1.736,1.736,0,0,0,1.018-.257,1.844,1.844,0,0,0,.726-1.566C589.914,247.529,589.33,246.83,588.417,246.83Zm-34.306-.2a1.649,1.649,0,0,0-1.7,1.841c0,1.08.585,1.753,1.523,1.753a2.464,2.464,0,0,0,.735-.124v-3.417A2.371,2.371,0,0,0,554.111,246.635Zm22.442,0a1.649,1.649,0,0,0-1.7,1.841c0,1.08.584,1.753,1.522,1.753a2.46,2.46,0,0,0,.735-.124v-3.417A2.37,2.37,0,0,0,576.554,246.635Zm24.822-.08a.95.95,0,0,0-.877,1.062,1.315,1.315,0,0,0,.5,1.133.838.838,0,0,0,.469.15c.522,0,.876-.425.876-1.044a1.5,1.5,0,0,0-.336-.991A.829.829,0,0,0,601.376,246.556Zm-33.624.045c-.637,0-1,.5-1.08,1.478l1.983-.186a1.5,1.5,0,0,0-.23-.982A.74.74,0,0,0,567.752,246.6Zm16.1,0c-.638,0-1,.5-1.08,1.478l1.983-.186a1.507,1.507,0,0,0-.231-.982A.741.741,0,0,0,583.848,246.6Zm-25.371,0c-.637,0-1,.5-1.08,1.478l1.982-.186a1.51,1.51,0,0,0-.23-.982A.741.741,0,0,0,558.477,246.6Zm21.716-2.355c.372,0,.549.151.549.47,0,.336-.177.5-.549.5s-.557-.16-.557-.478S579.813,244.245,580.194,244.245Zm12.159,0c.371,0,.549.151.549.47,0,.336-.177.5-.549.5s-.558-.16-.558-.478S591.972,244.245,592.353,244.245Z" transform="translate(-525 -244.138)" fill="#005693" fill-rule="evenodd"/>
  </g>
</svg>
