<svg xmlns="http://www.w3.org/2000/svg" xmlns:xlink="http://www.w3.org/1999/xlink" width="37" height="923" viewBox="0 0 37 923">
  <defs>
    <clipPath id="clip-path">
      <rect id="Rectangle_6909" data-name="Rectangle 6909" width="37" height="923" transform="translate(592.078 188.014)" fill="#fff"/>
    </clipPath>
  </defs>
  <g id="Group_4197" data-name="Group 4197" transform="translate(-592.078 -188.014)" clip-path="url(#clip-path)">
    <g id="Group_4196" data-name="Group 4196" transform="translate(-193.614 16.338)">
      <path id="Path_4324" data-name="Path 4324" d="M202.57,1042.3l833.919-888.718" transform="translate(-102.063 -46.472)" fill="none" stroke="#f39579" stroke-width="2"/>
      <path id="Path_4325" data-name="Path 4325" d="M166.87,1006.6l833.919-888.719" transform="translate(-129.18 -77.717)" fill="none" stroke="#f39579" stroke-width="2"/>
      <path id="Path_4326" data-name="Path 4326" d="M238.271,1078.021l833.936-888.737" transform="translate(-74.945 -15.227)" fill="none" stroke="#f39579" stroke-width="2"/>
      <path id="Path_4327" data-name="Path 4327" d="M281.12,1120.853l833.919-888.719" transform="translate(-42.397 22.276)" fill="none" stroke="#f39579" stroke-width="2"/>
      <path id="Path_4328" data-name="Path 4328" d="M316.82,1156.552l833.919-888.718" transform="translate(-15.28 53.521)" fill="none" stroke="#f39579" stroke-width="2"/>
      <path id="Path_4329" data-name="Path 4329" d="M149.021,988.753,982.939,100.034" transform="translate(-142.738 -93.339)" fill="none" stroke="#f39579" stroke-width="2"/>
      <path id="Path_4330" data-name="Path 4330" d="M220.42,1060.171l833.936-888.737" transform="translate(-88.504 -30.849)" fill="none" stroke="#f39579" stroke-width="2"/>
      <path id="Path_4331" data-name="Path 4331" d="M184.72,1024.451l833.919-888.718" transform="translate(-115.621 -62.095)" fill="none" stroke="#f39579" stroke-width="2"/>
      <path id="Path_4332" data-name="Path 4332" d="M256.13,1095.862l833.918-888.718" transform="translate(-61.379 0.404)" fill="none" stroke="#f39579" stroke-width="2"/>
      <path id="Path_4333" data-name="Path 4333" d="M298.97,1138.7l833.919-888.718" transform="translate(-28.839 37.898)" fill="none" stroke="#f39579" stroke-width="2"/>
      <path id="Path_4334" data-name="Path 4334" d="M334.67,1174.421l833.936-888.737" transform="translate(-1.722 69.144)" fill="none" stroke="#f39579" stroke-width="2"/>
      <path id="Path_4335" data-name="Path 4335" d="M206.141,1045.873l833.918-888.719" transform="translate(-99.35 -43.347)" fill="none" stroke="#f39579" stroke-width="2"/>
      <path id="Path_4336" data-name="Path 4336" d="M170.44,1010.172l833.919-888.718" transform="translate(-126.468 -74.592)" fill="none" stroke="#f39579" stroke-width="2"/>
      <path id="Path_4337" data-name="Path 4337" d="M241.851,1081.583l833.918-888.719" transform="translate(-72.226 -12.094)" fill="none" stroke="#f39579" stroke-width="2"/>
      <path id="Path_4338" data-name="Path 4338" d="M284.69,1124.422,1118.608,235.7" transform="translate(-39.686 25.4)" fill="none" stroke="#f39579" stroke-width="2"/>
      <path id="Path_4339" data-name="Path 4339" d="M320.391,1160.123,1154.309,271.4" transform="translate(-12.568 56.646)" fill="none" stroke="#f39579" stroke-width="2"/>
      <path id="Path_4340" data-name="Path 4340" d="M152.59,992.322,986.508,103.6" transform="translate(-140.027 -90.215)" fill="none" stroke="#f39579" stroke-width="2"/>
      <path id="Path_4341" data-name="Path 4341" d="M223.99,1063.741,1057.926,175" transform="translate(-85.792 -27.725)" fill="none" stroke="#f39579" stroke-width="2"/>
      <path id="Path_4342" data-name="Path 4342" d="M188.29,1028.023,1022.208,139.3" transform="translate(-112.91 -58.97)" fill="none" stroke="#f39579" stroke-width="2"/>
      <path id="Path_4343" data-name="Path 4343" d="M259.7,1099.433l833.918-888.719" transform="translate(-58.668 3.529)" fill="none" stroke="#f39579" stroke-width="2"/>
      <path id="Path_4344" data-name="Path 4344" d="M302.54,1142.272l833.919-888.718" transform="translate(-26.127 41.023)" fill="none" stroke="#f39579" stroke-width="2"/>
      <path id="Path_4345" data-name="Path 4345" d="M338.24,1177.991l833.936-888.737" transform="translate(0.99 72.268)" fill="none" stroke="#f39579" stroke-width="2"/>
      <path id="Path_4346" data-name="Path 4346" d="M209.71,1049.443l833.919-888.719" transform="translate(-96.639 -40.223)" fill="none" stroke="#f39579" stroke-width="2"/>
      <path id="Path_4347" data-name="Path 4347" d="M174.01,1013.742l833.918-888.719" transform="translate(-123.756 -71.469)" fill="none" stroke="#f39579" stroke-width="2"/>
      <path id="Path_4348" data-name="Path 4348" d="M245.42,1085.152l833.919-888.718" transform="translate(-69.515 -8.969)" fill="none" stroke="#f39579" stroke-width="2"/>
      <path id="Path_4349" data-name="Path 4349" d="M288.26,1127.992l833.919-888.719" transform="translate(-36.974 28.524)" fill="none" stroke="#f39579" stroke-width="2"/>
      <path id="Path_4350" data-name="Path 4350" d="M323.96,1163.693l833.919-888.719" transform="translate(-9.857 59.77)" fill="none" stroke="#f39579" stroke-width="2"/>
      <path id="Path_4351" data-name="Path 4351" d="M156.16,995.892,990.079,107.174" transform="translate(-137.315 -87.09)" fill="none" stroke="#f39579" stroke-width="2"/>
      <path id="Path_4352" data-name="Path 4352" d="M227.561,1067.311,1061.5,178.574" transform="translate(-83.08 -24.6)" fill="none" stroke="#f39579" stroke-width="2"/>
      <path id="Path_4353" data-name="Path 4353" d="M191.86,1031.593l833.919-888.719" transform="translate(-110.198 -55.845)" fill="none" stroke="#f39579" stroke-width="2"/>
      <path id="Path_4354" data-name="Path 4354" d="M263.271,1103,1097.19,214.284" transform="translate(-55.955 6.653)" fill="none" stroke="#f39579" stroke-width="2"/>
      <path id="Path_4355" data-name="Path 4355" d="M306.11,1145.843l833.918-888.719" transform="translate(-23.416 44.147)" fill="none" stroke="#f39579" stroke-width="2"/>
      <path id="Path_4356" data-name="Path 4356" d="M341.811,1181.561l833.936-888.737" transform="translate(3.702 75.393)" fill="none" stroke="#f39579" stroke-width="2"/>
      <path id="Path_4357" data-name="Path 4357" d="M213.28,1053.012,1047.2,164.294" transform="translate(-93.928 -37.098)" fill="none" stroke="#f39579" stroke-width="2"/>
      <path id="Path_4358" data-name="Path 4358" d="M177.58,1017.312,1011.5,128.594" transform="translate(-121.045 -68.343)" fill="none" stroke="#f39579" stroke-width="2"/>
      <path id="Path_4359" data-name="Path 4359" d="M248.99,1088.722,1082.908,200" transform="translate(-66.803 -5.845)" fill="none" stroke="#f39579" stroke-width="2"/>
      <path id="Path_4360" data-name="Path 4360" d="M291.83,1131.562l833.919-888.718" transform="translate(-34.262 31.649)" fill="none" stroke="#f39579" stroke-width="2"/>
      <path id="Path_4361" data-name="Path 4361" d="M327.53,1167.263l833.919-888.719" transform="translate(-7.145 62.895)" fill="none" stroke="#f39579" stroke-width="2"/>
      <path id="Path_4362" data-name="Path 4362" d="M159.73,999.463,993.648,110.744" transform="translate(-134.603 -83.966)" fill="none" stroke="#f39579" stroke-width="2"/>
      <path id="Path_4363" data-name="Path 4363" d="M231.13,1070.881l833.936-888.737" transform="translate(-80.369 -21.476)" fill="none" stroke="#f39579" stroke-width="2"/>
      <path id="Path_4364" data-name="Path 4364" d="M273.98,1113.712,1107.9,224.994" transform="translate(-47.821 16.027)" fill="none" stroke="#f39579" stroke-width="2"/>
      <path id="Path_4365" data-name="Path 4365" d="M195.431,1035.162,1029.35,146.444" transform="translate(-107.485 -52.721)" fill="none" stroke="#f39579" stroke-width="2"/>
      <path id="Path_4366" data-name="Path 4366" d="M266.84,1106.572l833.919-888.718" transform="translate(-53.244 9.778)" fill="none" stroke="#f39579" stroke-width="2"/>
      <path id="Path_4367" data-name="Path 4367" d="M309.681,1149.413,1143.6,260.694" transform="translate(-20.703 47.272)" fill="none" stroke="#f39579" stroke-width="2"/>
      <path id="Path_4368" data-name="Path 4368" d="M345.38,1185.131l833.936-888.737" transform="translate(6.413 78.517)" fill="none" stroke="#f39579" stroke-width="2"/>
      <path id="Path_4369" data-name="Path 4369" d="M145.45,985.182,979.369,96.464" transform="translate(-145.45 -96.464)" fill="none" stroke="#f39579" stroke-width="2"/>
      <path id="Path_4370" data-name="Path 4370" d="M216.851,1056.583,1050.77,167.864" transform="translate(-91.215 -33.974)" fill="none" stroke="#f39579" stroke-width="2"/>
      <path id="Path_4371" data-name="Path 4371" d="M181.15,1020.882l833.918-888.718" transform="translate(-118.333 -65.219)" fill="none" stroke="#f39579" stroke-width="2"/>
      <path id="Path_4372" data-name="Path 4372" d="M252.561,1092.292,1086.48,203.574" transform="translate(-64.09 -2.72)" fill="none" stroke="#f39579" stroke-width="2"/>
      <path id="Path_4373" data-name="Path 4373" d="M295.4,1135.132l833.919-888.718" transform="translate(-31.551 34.774)" fill="none" stroke="#f39579" stroke-width="2"/>
      <path id="Path_4374" data-name="Path 4374" d="M331.1,1170.851l833.936-888.737" transform="translate(-4.433 66.019)" fill="none" stroke="#f39579" stroke-width="2"/>
      <path id="Path_4375" data-name="Path 4375" d="M163.3,1003.031,997.218,114.313" transform="translate(-131.892 -80.842)" fill="none" stroke="#f39579" stroke-width="2"/>
      <path id="Path_4376" data-name="Path 4376" d="M234.7,1074.451l833.936-888.737" transform="translate(-77.657 -18.351)" fill="none" stroke="#f39579" stroke-width="2"/>
      <path id="Path_4377" data-name="Path 4377" d="M277.55,1117.281l833.918-888.718" transform="translate(-45.109 19.151)" fill="none" stroke="#f39579" stroke-width="2"/>
      <path id="Path_4378" data-name="Path 4378" d="M199,1038.732l833.918-888.718" transform="translate(-104.774 -49.596)" fill="none" stroke="#f39579" stroke-width="2"/>
      <path id="Path_4379" data-name="Path 4379" d="M270.41,1110.142l833.918-888.718" transform="translate(-50.533 12.902)" fill="none" stroke="#f39579" stroke-width="2"/>
      <path id="Path_4380" data-name="Path 4380" d="M313.25,1152.983l833.919-888.719" transform="translate(-17.992 50.397)" fill="none" stroke="#f39579" stroke-width="2"/>
      <path id="Path_4381" data-name="Path 4381" d="M348.95,1188.7l833.936-888.737" transform="translate(9.125 81.641)" fill="none" stroke="#f39579" stroke-width="2"/>
      <path id="Path_4382" data-name="Path 4382" d="M352.84,1191.631l833.919-888.737" transform="translate(12.08 84.206)" fill="none" stroke="#f39579" stroke-width="2"/>
      <path id="Path_4383" data-name="Path 4383" d="M424.24,1263.023,1258.176,374.3" transform="translate(66.314 146.705)" fill="none" stroke="#f39579" stroke-width="2"/>
      <path id="Path_4384" data-name="Path 4384" d="M388.54,1227.322,1222.458,338.6" transform="translate(39.197 115.46)" fill="none" stroke="#f39579" stroke-width="2"/>
      <path id="Path_4385" data-name="Path 4385" d="M459.95,1298.741,1293.869,410" transform="translate(93.438 177.95)" fill="none" stroke="#f39579" stroke-width="2"/>
      <path id="Path_4386" data-name="Path 4386" d="M502.79,1341.572l833.919-888.718" transform="translate(125.979 215.452)" fill="none" stroke="#f39579" stroke-width="2"/>
      <path id="Path_4387" data-name="Path 4387" d="M538.49,1377.272l833.936-888.718" transform="translate(153.096 246.697)" fill="none" stroke="#f39579" stroke-width="2"/>
      <path id="Path_4388" data-name="Path 4388" d="M370.69,1209.472l833.919-888.718" transform="translate(25.638 99.837)" fill="none" stroke="#f39579" stroke-width="2"/>
      <path id="Path_4389" data-name="Path 4389" d="M442.1,1280.873l833.918-888.719" transform="translate(79.881 162.327)" fill="none" stroke="#f39579" stroke-width="2"/>
      <path id="Path_4390" data-name="Path 4390" d="M406.391,1245.172,1240.31,356.454" transform="translate(52.756 131.082)" fill="none" stroke="#f39579" stroke-width="2"/>
      <path id="Path_4391" data-name="Path 4391" d="M477.8,1316.583l833.919-888.719" transform="translate(106.997 193.581)" fill="none" stroke="#f39579" stroke-width="2"/>
      <path id="Path_4392" data-name="Path 4392" d="M520.641,1359.422,1354.56,470.7" transform="translate(139.538 231.075)" fill="none" stroke="#f39579" stroke-width="2"/>
      <path id="Path_4393" data-name="Path 4393" d="M556.351,1395.123,1390.268,506.4" transform="translate(166.663 262.32)" fill="none" stroke="#f39579" stroke-width="2"/>
      <path id="Path_4394" data-name="Path 4394" d="M356.41,1195.2l833.919-888.737" transform="translate(14.791 87.33)" fill="none" stroke="#f39579" stroke-width="2"/>
      <path id="Path_4395" data-name="Path 4395" d="M427.811,1266.593l833.936-888.719" transform="translate(69.026 149.829)" fill="none" stroke="#f39579" stroke-width="2"/>
      <path id="Path_4396" data-name="Path 4396" d="M392.11,1230.892l833.918-888.718" transform="translate(41.908 118.584)" fill="none" stroke="#f39579" stroke-width="2"/>
      <path id="Path_4397" data-name="Path 4397" d="M463.521,1302.311l833.918-888.737" transform="translate(96.151 181.074)" fill="none" stroke="#f39579" stroke-width="2"/>
      <path id="Path_4398" data-name="Path 4398" d="M506.36,1345.142l833.919-888.718" transform="translate(128.691 218.577)" fill="none" stroke="#f39579" stroke-width="2"/>
      <path id="Path_4399" data-name="Path 4399" d="M542.061,1380.842,1376,492.124" transform="translate(155.808 249.822)" fill="none" stroke="#f39579" stroke-width="2"/>
      <path id="Path_4400" data-name="Path 4400" d="M374.26,1213.042l833.919-888.718" transform="translate(28.35 102.962)" fill="none" stroke="#f39579" stroke-width="2"/>
      <path id="Path_4401" data-name="Path 4401" d="M445.67,1284.443l833.919-888.719" transform="translate(82.592 165.452)" fill="none" stroke="#f39579" stroke-width="2"/>
      <path id="Path_4402" data-name="Path 4402" d="M409.96,1248.742l833.919-888.719" transform="translate(55.467 134.206)" fill="none" stroke="#f39579" stroke-width="2"/>
      <path id="Path_4403" data-name="Path 4403" d="M481.37,1320.153l833.919-888.719" transform="translate(109.709 196.705)" fill="none" stroke="#f39579" stroke-width="2"/>
      <path id="Path_4404" data-name="Path 4404" d="M524.21,1362.992l833.918-888.719" transform="translate(142.249 234.199)" fill="none" stroke="#f39579" stroke-width="2"/>
      <path id="Path_4405" data-name="Path 4405" d="M559.92,1398.692l833.919-888.718" transform="translate(169.374 265.444)" fill="none" stroke="#f39579" stroke-width="2"/>
      <path id="Path_4406" data-name="Path 4406" d="M359.98,1198.762,1193.9,310.044" transform="translate(17.503 90.464)" fill="none" stroke="#f39579" stroke-width="2"/>
      <path id="Path_4407" data-name="Path 4407" d="M431.38,1270.161l833.936-888.718" transform="translate(71.737 152.953)" fill="none" stroke="#f39579" stroke-width="2"/>
      <path id="Path_4408" data-name="Path 4408" d="M395.681,1234.462,1229.6,345.744" transform="translate(44.621 121.709)" fill="none" stroke="#f39579" stroke-width="2"/>
      <path id="Path_4409" data-name="Path 4409" d="M467.09,1305.881l833.919-888.737" transform="translate(98.862 184.199)" fill="none" stroke="#f39579" stroke-width="2"/>
      <path id="Path_4410" data-name="Path 4410" d="M509.93,1348.712l833.918-888.718" transform="translate(131.402 221.701)" fill="none" stroke="#f39579" stroke-width="2"/>
      <path id="Path_4411" data-name="Path 4411" d="M545.63,1384.411l833.936-888.719" transform="translate(158.519 252.946)" fill="none" stroke="#f39579" stroke-width="2"/>
      <path id="Path_4412" data-name="Path 4412" d="M377.83,1216.612l833.919-888.718" transform="translate(31.062 106.086)" fill="none" stroke="#f39579" stroke-width="2"/>
      <path id="Path_4413" data-name="Path 4413" d="M449.24,1288.031l833.919-888.737" transform="translate(85.303 168.576)" fill="none" stroke="#f39579" stroke-width="2"/>
      <path id="Path_4414" data-name="Path 4414" d="M413.53,1252.312l833.936-888.718" transform="translate(58.179 137.331)" fill="none" stroke="#f39579" stroke-width="2"/>
      <path id="Path_4415" data-name="Path 4415" d="M484.94,1323.722,1318.859,435" transform="translate(112.42 199.83)" fill="none" stroke="#f39579" stroke-width="2"/>
      <path id="Path_4416" data-name="Path 4416" d="M527.78,1366.562l833.936-888.718" transform="translate(144.961 237.324)" fill="none" stroke="#f39579" stroke-width="2"/>
      <path id="Path_4417" data-name="Path 4417" d="M563.49,1402.281l833.919-888.737" transform="translate(172.086 268.569)" fill="none" stroke="#f39579" stroke-width="2"/>
      <path id="Path_4418" data-name="Path 4418" d="M363.55,1202.333l833.918-888.719" transform="translate(20.215 93.588)" fill="none" stroke="#f39579" stroke-width="2"/>
      <path id="Path_4419" data-name="Path 4419" d="M434.95,1273.732l833.936-888.718" transform="translate(74.449 156.078)" fill="none" stroke="#f39579" stroke-width="2"/>
      <path id="Path_4420" data-name="Path 4420" d="M399.25,1238.031l833.918-888.718" transform="translate(47.332 124.832)" fill="none" stroke="#f39579" stroke-width="2"/>
      <path id="Path_4421" data-name="Path 4421" d="M470.66,1309.443l833.919-888.719" transform="translate(101.574 187.332)" fill="none" stroke="#f39579" stroke-width="2"/>
      <path id="Path_4422" data-name="Path 4422" d="M513.5,1352.281l833.918-888.718" transform="translate(134.114 224.825)" fill="none" stroke="#f39579" stroke-width="2"/>
      <path id="Path_4423" data-name="Path 4423" d="M549.21,1387.982l833.919-888.718" transform="translate(161.239 256.071)" fill="none" stroke="#f39579" stroke-width="2"/>
      <path id="Path_4424" data-name="Path 4424" d="M381.4,1220.182l833.918-888.718" transform="translate(33.773 109.211)" fill="none" stroke="#f39579" stroke-width="2"/>
      <path id="Path_4425" data-name="Path 4425" d="M452.811,1291.6,1286.73,402.864" transform="translate(88.016 171.701)" fill="none" stroke="#f39579" stroke-width="2"/>
      <path id="Path_4426" data-name="Path 4426" d="M495.65,1334.432l833.919-888.718" transform="translate(120.556 209.203)" fill="none" stroke="#f39579" stroke-width="2"/>
      <path id="Path_4427" data-name="Path 4427" d="M417.1,1255.883l833.936-888.719" transform="translate(60.891 140.456)" fill="none" stroke="#f39579" stroke-width="2"/>
      <path id="Path_4428" data-name="Path 4428" d="M488.51,1327.292l833.919-888.719" transform="translate(115.132 202.954)" fill="none" stroke="#f39579" stroke-width="2"/>
      <path id="Path_4429" data-name="Path 4429" d="M531.351,1370.133l833.934-888.719" transform="translate(147.673 240.448)" fill="none" stroke="#f39579" stroke-width="2"/>
      <path id="Path_4430" data-name="Path 4430" d="M567.061,1405.851l833.917-888.737" transform="translate(174.798 271.693)" fill="none" stroke="#f39579" stroke-width="2"/>
      <path id="Path_4431" data-name="Path 4431" d="M367.12,1205.9l833.918-888.719" transform="translate(22.926 96.713)" fill="none" stroke="#f39579" stroke-width="2"/>
      <path id="Path_4432" data-name="Path 4432" d="M438.53,1277.3l833.919-888.718" transform="translate(77.168 159.203)" fill="none" stroke="#f39579" stroke-width="2"/>
      <path id="Path_4433" data-name="Path 4433" d="M402.82,1241.6l833.919-888.718" transform="translate(50.044 127.958)" fill="none" stroke="#f39579" stroke-width="2"/>
      <path id="Path_4434" data-name="Path 4434" d="M474.23,1313.013l833.918-888.719" transform="translate(104.285 190.456)" fill="none" stroke="#f39579" stroke-width="2"/>
      <path id="Path_4435" data-name="Path 4435" d="M517.07,1355.853l833.918-888.719" transform="translate(136.826 227.95)" fill="none" stroke="#f39579" stroke-width="2"/>
      <path id="Path_4436" data-name="Path 4436" d="M552.78,1391.553,1386.7,502.834" transform="translate(163.95 259.195)" fill="none" stroke="#f39579" stroke-width="2"/>
      <path id="Path_4437" data-name="Path 4437" d="M384.97,1223.753l833.919-888.719" transform="translate(36.485 112.335)" fill="none" stroke="#f39579" stroke-width="2"/>
      <path id="Path_4438" data-name="Path 4438" d="M456.38,1295.171,1290.3,406.434" transform="translate(90.727 174.825)" fill="none" stroke="#f39579" stroke-width="2"/>
      <path id="Path_4439" data-name="Path 4439" d="M499.22,1338l833.918-888.719" transform="translate(123.267 212.328)" fill="none" stroke="#f39579" stroke-width="2"/>
      <path id="Path_4440" data-name="Path 4440" d="M420.67,1259.452l833.936-888.719" transform="translate(63.602 143.579)" fill="none" stroke="#f39579" stroke-width="2"/>
      <path id="Path_4441" data-name="Path 4441" d="M492.08,1330.862,1326,442.144" transform="translate(117.844 206.079)" fill="none" stroke="#f39579" stroke-width="2"/>
      <path id="Path_4442" data-name="Path 4442" d="M534.92,1373.7l833.936-888.718" transform="translate(150.384 243.572)" fill="none" stroke="#f39579" stroke-width="2"/>
      <path id="Path_4443" data-name="Path 4443" d="M570.63,1409.422l833.919-888.738" transform="translate(177.509 274.818)" fill="none" stroke="#f39579" stroke-width="2"/>
    </g>
  </g>
</svg>
