<svg xmlns="http://www.w3.org/2000/svg" width="3500" height="3503.851" viewBox="0 0 3500 3503.851"><defs><style>.a{fill:#df0000;}</style></defs><path class="a" d="M2478.756,156.048l.032-.015a1757.993,1757.993,0,0,1,500.347,342.3c-600.769-25.469-1128.922,208.411-1405.369,565.892-124.469,160.954-206.524,375.462-153.481,578.628,34.1,130.626,108.67,212.062,135.423,240.038-232.983-140.575-261.7-448.96-191.715-697.741C1504.677,678.15,1946.411,314.6,2478.756,156.048ZM1126.012,2040.039c232.828,112.136,541.538,137.4,720.426-67.633-32.216,21.493-125.35,80.786-259.907,91.679-209.293,16.959-406.3-101.1-543.209-251.628C739.208,1478.062,600.614,917.152,730.156,329.8A1742.3,1742.3,0,0,0,306.078,763.563l.077.418c63.812,551.6,345.118,1049.544,819.857,1276.058m330.589,337.1c250.453-63.75,503.165-242.839,508.425-514.892-10.863,37.168-44.1,142.448-140.189,237.3-149.427,147.524-376.2,183.7-577.838,156.389C799,2195.252,332.166,1854.53,53.877,1321.115A1759.019,1759.019,0,0,0,8.556,1926.79c403.391,381.419,938.862,581.97,1448.045,450.352m285.87-859.035c37.632-9.191,145.421-33.052,275.612,2.738,202.469,55.643,347.192,233.957,424.357,422.238,171.4,418.214,109.814,992.678-212.775,1500.3a1746.1,1746.1,0,0,0,546.767-262.427c128.894-540.316,34.909-1104.659-333.837-1480-180.435-185.015-461.88-314.342-700.125-182.849m184.088,904.774c150.866-209.834,229.346-509.46,58.5-721.244,15.566,35.465,57.778,137.481,45.152,271.9-19.636,209.06-170.114,382.548-342.132,491.232-382.193,241.478-958.855,280.547-1514.921,50.783a1743.919,1743.919,0,0,0,354.356,493.121c554.287,32.958,1093.519-157.6,1399.041-585.791M1684.786,1980.56c-38.483-4.24-147.956-18.693-258.05-96.848-171.213-121.529-246.243-338.589-254.336-541.909C1154.375,890.213,1408.7,371.468,1885.4,4.811a1764.182,1764.182,0,0,0-603.771,59.959c-305.677,463.567-410.277,1025.823-192.2,1504.507,106.271,235.583,326.5,453.355,595.354,411.283m562.442-709.47c-257.152-25.732-555.881,56.106-653.859,309.963,22.917-31.225,90.163-118.789,212.883-175.05,190.88-87.517,416.358-43.945,596.483,50.676,400.126,210.206,722.219,689.849,801.382,1286.054a1742.8,1742.8,0,0,0,250.158-552.494c-248.565-496.74-683.321-868.643-1207.047-919.148m-425.966-203.707c-213.548,145.574-389.775,400.3-301.654,657.743-2.491-38.653-7.288-148.947,50.551-270.939,89.962-189.734,290.7-301.3,489.516-344.592,441.548-96.167,996.486,64.168,1440.324,469.849a1757.2,1757.2,0,0,0-163.245-583.811c-509.723-220.759-1081.82-226.2-1515.492,71.75m494.7,1088.444c-19.294-257.725-151.777-537.685-418.786-590.108,34.737,17.16,132.622,68.175,209.354,179.259,119.33,172.776,115.586,402.4,53.676,596.22-137.557,430.655-554.179,831.244-1127.808,1012.671a1747.766,1747.766,0,0,0,588.375,149.983c445.8-331.053,736.378-823.631,695.188-1348.024"/></svg>