<?xml version="1.0" encoding="UTF-8"?>
<svg id="Layer_1" xmlns="http://www.w3.org/2000/svg" version="1.1" viewBox="0 0 714.81 701.06">
  <!-- Generator: Adobe Illustrator 30.2.1, SVG Export Plug-In . SVG Version: 2.1.1 Build 1)  -->
  <defs>
    <style>
      .st0 {
        fill: #fbdc0f;
      }

      .st1 {
        fill: #30c3cc;
      }

      .st2 {
        fill: #1456a2;
      }

      .st3 {
        fill: #36c5c2;
      }
    </style>
  </defs>
  <path class="st2" d="M129.72.37c.8,0,1.6,0,2.42,0,2.68,0,5.36,0,8.03,0,1.94,0,3.88,0,5.82-.01,5.33-.01,10.66-.01,15.99-.02,5.75,0,11.5-.01,17.25-.02,13.89-.02,27.77-.03,41.66-.04,6.54,0,13.09,0,19.63-.01,21.76-.02,43.52-.03,65.27-.04,1.41,0,2.81,0,4.22,0,.7,0,1.39,0,2.11,0,3.53,0,7.07,0,10.6,0,.7,0,1.4,0,2.12,0,22.72,0,45.44-.03,68.16-.06,24.04-.03,48.08-.05,72.12-.06,13.1,0,26.19-.01,39.29-.04,11.16-.02,22.31-.03,33.47-.02,5.69,0,11.37,0,17.06-.02,5.22-.02,10.43-.02,15.65,0,1.88,0,3.75,0,5.63-.01,15.74-.09,30.35,2.28,45.23,7.63.82.29,1.64.59,2.49.89,15.78,5.86,29.63,14.29,42.58,24.99.53.44,1.06.88,1.61,1.33,26.86,22.54,43.16,57.06,46.39,91.67.34,6.13.27,12.27.25,18.4,0,1.83,0,3.66,0,5.49,0,4.99,0,9.98,0,14.97,0,5.4,0,10.79,0,16.19,0,10.56,0,21.11,0,31.67,0,8.58,0,17.17,0,25.75,0,1.22,0,2.45,0,3.71,0,2.49,0,4.97,0,7.46,0,23.29,0,46.57-.01,69.86,0,19.96,0,39.92,0,59.89.01,23.2.01,46.41,0,69.61,0,2.48,0,4.95,0,7.43,0,1.22,0,2.44,0,3.69,0,8.57,0,17.14,0,25.7,0,10.45,0,20.9,0,31.34,0,5.33,0,10.65,0,15.98,0,4.88,0,9.77,0,14.65,0,1.76,0,3.52,0,5.28.1,39.99-12.4,76.85-40.26,105.95-.68.75-1.37,1.49-2.07,2.26-14.65,15.49-33.93,25.28-53.87,32.01q-2.08.7-4.09,1.64c-14.06,5.14-29.3,5.67-44.09,5.59-1.93,0-3.86.01-5.79.02-5.24.02-10.48,0-15.72,0-5.67,0-11.35,0-17.02.02-11.09.02-22.18.01-33.27,0-9.02,0-18.04-.01-27.06,0q-1.93,0-3.9,0c-2.62,0-5.23,0-7.85,0-23.79.01-47.58,0-71.37-.02-21.67-.02-43.35-.02-65.02,0-24.4.02-48.81.03-73.21.02-2.61,0-5.21,0-7.82,0q-1.92,0-3.88,0c-9,0-18,0-27.01.01-10.98.01-21.96,0-32.94-.01-5.59-.01-11.19-.01-16.78,0-5.13.01-10.27,0-15.4-.02-1.84,0-3.69,0-5.53,0-37.9.19-73.05-14.27-100.11-40.83C12.4,631.45.19,594.61.27,554.81c0-1.85,0-3.7-.01-5.55-.01-5.04-.01-10.09,0-15.13,0-5.45-.01-10.91-.02-16.36-.02-10.67-.02-21.34-.02-32.01,0-8.68,0-17.36-.01-26.04-.02-24.65-.03-49.29-.03-73.94,0-.66,0-1.33,0-2.01,0-1.34,0-2.68,0-4.02,0-20.85-.01-41.71-.04-62.56-.03-23.47-.05-46.94-.05-70.41,0-12.41,0-24.82-.03-37.24-.02-10.57-.02-21.14,0-31.71,0-5.38,0-10.77-.01-16.15q-.13-42.31,4.5-59.16c.19-.71.39-1.42.59-2.15,5.48-19.44,15.38-36.53,28.41-51.85.81-.96,1.62-1.92,2.46-2.9C58.42,19.8,95.16.3,129.72.37Z"/>
  <path class="st0" d="M364.54,101.51c3.37,1.46,5.53,3.31,8.08,5.92q1.15,1.17,2.33,2.36c.79.81,1.59,1.63,2.4,2.47,5.22,5.34,10.48,10.43,16.19,15.25.64.8,1.28,1.61,1.94,2.44,1.81,2.25,3.52,3.88,5.7,5.74,4.26,3.69,8.26,7.59,12.23,11.59q1.11,1.11,2.25,2.25c1.59,1.6,3.19,3.2,4.78,4.8,2.52,2.54,5.05,5.07,7.58,7.61,5.37,5.38,10.73,10.76,16.09,16.14,6.22,6.24,12.44,12.49,18.67,18.72,2.48,2.49,4.96,4.98,7.44,7.47,1.53,1.53,3.06,3.07,4.59,4.6.68.69,1.36,1.37,2.07,2.08,3.57,3.57,7.23,6.94,11.09,10.19,2.32,2,4.44,4.17,6.58,6.36,1.37,1.38,2.74,2.75,4.12,4.12,1.65,1.65,3.3,3.31,4.95,4.96,9.23,9.25,18.46,18.49,27.69,27.73,5.58,5.59,11.17,11.18,16.75,16.77,4.88,4.89,9.77,9.78,14.65,14.67,2.58,2.58,5.16,5.16,7.74,7.75,2.88,2.89,5.76,5.77,8.64,8.65.84.85,1.68,1.69,2.55,2.56,4.25,4.24,8.57,8.34,13.14,12.24,3.11,2.71,5.99,5.64,8.89,8.57q.95.95,1.92,1.92c1.99,1.99,3.97,3.99,5.96,5.99,1.36,1.37,2.72,2.73,4.08,4.1,3.31,3.32,6.61,6.64,9.92,9.97-1.12,3.37-2.07,4.15-4.75,6.38-2.49,2.1-4.88,4.2-7.12,6.56q-2.12,2.06-4.12,2.06v2q-1.45,1.43-3.47,3.09c-4.59,3.91-8.81,8.11-13.03,12.41-4.71,4.8-9.48,9.42-14.58,13.8-3.7,3.27-7.08,6.86-10.51,10.42-1.43,1.46-2.92,2.88-4.41,4.28h-2v2q-1.42,1.39-3.41,3.03c-4.97,4.23-9.52,8.82-14.09,13.47q-8.95,9.1-13.48,12.97c-5.84,5.01-11.11,10.61-16.48,16.12-.81.83-1.63,1.65-2.47,2.5-.73.75-1.47,1.5-2.23,2.28q-1.84,1.63-3.84,1.63v2h-2v2q-1.29,1.27-3.19,2.81c-4.56,3.86-8.72,8.04-12.89,12.3-2.78,2.82-5.6,5.5-8.61,8.07-5.56,4.8-10.66,10.09-15.81,15.31-5.71,5.79-11.4,11.53-17.59,16.81-3.64,3.22-7,6.72-10.41,10.19-4.05,4.13-8.09,8.2-12.48,11.97-5.38,4.62-10.25,9.75-15.2,14.83-.72.74-1.45,1.47-2.2,2.23q-.98,1-1.97,2.02-1.66,1.45-3.66,1.45v2q-1.41,1.39-3.39,3.02c-5.04,4.29-9.65,8.95-14.29,13.67-1.65,1.67-3.3,3.34-4.95,5.01q-1.08,1.1-2.18,2.21-2.18,2.09-4.9,4.23-2.36,1.65-3.29,3.86c-4.08-.53-5.95-2.59-8.78-5.46-.46-.46-.92-.92-1.4-1.4-1.52-1.53-3.03-3.06-4.54-4.6-1.06-1.07-2.12-2.13-3.18-3.2-2.79-2.8-5.57-5.62-8.34-8.43-4.44-4.5-8.89-8.98-13.34-13.47-1.55-1.56-3.1-3.13-4.64-4.7-.96-.97-1.91-1.93-2.87-2.9-.83-.84-1.66-1.68-2.51-2.55-2.36-2.26-4.83-4.27-7.4-6.3-1.69-1.65-3.35-3.31-5-5-.88-.88-1.77-1.77-2.68-2.68l-7.32-7.32c4.21-5.08,8.64-9.61,13.5-14.06,6.22-5.75,12.27-11.63,18.16-17.72,1.41-1.44,2.87-2.83,4.34-4.22h2v-2q1.45-1.43,3.47-3.09c4.59-3.91,8.81-8.11,13.03-12.41,4.71-4.8,9.48-9.42,14.58-13.8,3.7-3.27,7.08-6.86,10.51-10.42,1.43-1.46,2.92-2.88,4.41-4.28h2v-2q1.4-1.38,3.38-3c5.16-4.39,9.87-9.18,14.62-14q9.48-9.63,14.12-13.62c4.13-3.6,8-7.5,11.88-11.38-110.55-.33-221.1-.66-335-1v-100h349c-1.12-3.37-2.07-4.15-4.75-6.38-4.01-3.41-7.85-6.8-11.06-11-1.77-2.12-3.3-3.61-5.39-5.35-7.68-6.65-14.67-14.09-21.82-21.31-1.97-1.99-3.94-3.98-5.92-5.96-.59-.6-1.18-1.2-1.79-1.81-2.87-2.89-5.78-5.65-8.88-8.29-5.58-4.83-10.72-10.11-15.92-15.35-1.92-1.93-3.84-3.85-5.75-5.78-4.76-4.78-9.52-9.56-14.28-14.35-4.03-4.05-8.07-8.1-12.11-12.15-1.88-1.89-3.75-3.77-5.63-5.66-5.22-5.24-10.41-10.43-16.06-15.2-3.04-2.62-5.82-5.49-8.63-8.34-.58-.59-1.17-1.18-1.77-1.78-1.41-1.42-2.82-2.85-4.23-4.28,1.56-3.32,3.21-5.56,6-8h2v-2q1.33-1.3,3.25-2.88c3.66-3.12,7.11-6.4,10.5-9.81.51-.51,1.01-1.02,1.54-1.55,1.57-1.59,3.14-3.18,4.71-4.77q11.86-12.01,18.2-17.43c3.09-2.7,5.93-5.64,8.8-8.57,4.83-4.88,9.7-9.62,15-14Z"/>
  <path class="st1" d="M482.54,495.51q0,3-1.31,4.39c-1.56,1.2-3.12,2.41-4.69,3.61-.66-.33-1.32-.66-2-1,2.64-2.31,5.28-4.62,8-7Z"/>
  <path class="st3" d="M424.54,550.51l2,1q-3.5,4.88-8,6c1.98-2.31,3.96-4.62,6-7Z"/>
</svg>