<?xml version="1.0" encoding="UTF-8"?>
<svg id="Layer_1" xmlns="http://www.w3.org/2000/svg" version="1.1" viewBox="0 0 40 40">
  <!-- Generator: Adobe Illustrator 29.1.0, SVG Export Plug-In . SVG Version: 2.1.0 Build 142)  -->
  <defs>
    <style>
      .st0 {
        fill: #fff;
      }

      .st1 {
        fill: red;
      }
    </style>
  </defs>
  <g id="Group_625">
    <path id="Path_490" class="st1" d="M40,2.3v35.3c0,1.3-1,2.3-2.3,2.3H2.3C1.1,40,0,38.9,0,37.6H0V2.3C0,1,1.1,0,2.3,0h35.3c1.3,0,2.3,1,2.3,2.3Z"/>
    <path id="Path_491" class="st0" d="M32.9,9.1v1c.6.3,1,.5,1,1.1v10.4l-4.7-12.6h-3.4v1c.6.3,1.1.5,1.1,1.1v17.5c0,.5-.5.9-1.1,1.1v1h3.6v-1c-.5-.1-.8-.6-.7-1.1v-13.4l5.7,15.5h1.2V11.2c0-.5.3-1,.8-1.1v-1h-3.5Z"/>
    <path id="Path_492" class="st0" d="M23.7,26.6c0,.6-.3,1.2-.6,1.7-.4.7-1.1,1.1-1.8,1.1h-1.4V11.2c0-.5.3-.8.9-1.1v-1h-4.9v1c.6.3,1,.6,1,1.1v17.5c0,.5-.5.6-1.1.9v1.2h9.4v-5.1c-.6,0-1.3.2-1.4.8Z"/>
    <path id="Path_493" class="st0" d="M10.1,10.1c.6.3,1,.6,1,1.1v7.4h-3.6v-7.7c0-.6.2-.8.8-1v-.9H3.6v1.1c.6.3,1,.6,1,1.1v17.4c0,.6-.3.9-1,1.1v1.1h4.8v-1c-.5-.2-.9-.7-.9-1.3v-7.4c0-.5.4-1,.9-1,0,0,0,0,0,0h1.8c.5,0,.9.5.9,1v7.4c0,.6-.4.9-1,1.1v1.1h4.8v-1.1c-.5-.1-.8-.6-.8-1.1V11.3c0-.6.3-1.1.8-1.4v-.9h-4.9v1.1Z"/>
  </g>
</svg>