<svg xmlns="http://www.w3.org/2000/svg" width="59.158" height="26.336" viewBox="0 0 59.158 26.336">
  <path id="Libelle_-_voor_jouw_dagelijkse_dosis_inspiratie_en_nieuwtjes-1" data-name="Libelle - voor jouw dagelijkse dosis inspiratie en nieuwtjes-1" d="M49.583,13.742a3.781,3.781,0,0,1,3.435-3.552H53.1a2.284,2.284,0,0,1,1.706.85,4.332,4.332,0,0,1,.837,2.7ZM47.25,10.361a15.189,15.189,0,0,0-1.487,6.892,11.381,11.381,0,0,0,1.176,5.408,6.608,6.608,0,0,0,6.029,3.676,15.268,15.268,0,0,0,4.392-.777h.05l.105-.032.759-3.956-.512.3a8.367,8.367,0,0,1-4.117,1.319,4.1,4.1,0,0,1-2.237-.616c-1.372-.873-2.177-2.651-2.177-4.9a6.091,6.091,0,0,1,.037-.809h9.89v-1.42c0-2.55-.119-4.7-2.031-6.68a6.244,6.244,0,0,0-4.355-1.728,5.869,5.869,0,0,0-.631.032,6.51,6.51,0,0,0-4.9,3.317ZM41.5.473V26h3.33V0H41.5ZM35.938.014v26h3.33v-26ZM13.916,16.063a8.763,8.763,0,0,1,.741-3.827,3.46,3.46,0,0,1,2.036-1.888,2.952,2.952,0,0,1,.915-.142,3.948,3.948,0,0,1,3.124,1.737,7.127,7.127,0,0,1,.819,3.768c0,2.329-.659,4.99-2.209,6.262a5.081,5.081,0,0,1-3.266,1.043,7.566,7.566,0,0,1-2.159-.317Zm11.295-2.3a3.781,3.781,0,0,1,3.435-3.552h.078a2.283,2.283,0,0,1,1.706.85,4.359,4.359,0,0,1,.837,2.7ZM10.535.023,10.558,25.1l.124.046a17.912,17.912,0,0,0,5.764,1.117,7.252,7.252,0,0,0,6.445-3.216,6.4,6.4,0,0,0,5.851,3.248h.023a15.087,15.087,0,0,0,4.35-.749h.05l.105-.032.755-3.956-.512.3A8.368,8.368,0,0,1,29.4,23.18a4.1,4.1,0,0,1-2.237-.616c-1.372-.873-2.177-2.651-2.177-4.9a6.091,6.091,0,0,1,.037-.809H34.9v-1.42c0-2.55-.119-4.7-2.031-6.68a6.143,6.143,0,0,0-4.3-1.691,4.2,4.2,0,0,0-.585.028,6.521,6.521,0,0,0-4.753,2.931,5.833,5.833,0,0,0-4.09-2.931,6.378,6.378,0,0,0-1.029-.083,7.038,7.038,0,0,0-4.2,1.415c0-1.3-.037-6.318-.046-8.4ZM8.623,7.269H5.206V26H8.623ZM0,0V26H3.376V0Z"/>
</svg>
