<svg id="Volkskrant-logo" xmlns="http://www.w3.org/2000/svg" width="160.18" height="19.785" viewBox="0 0 160.18 19.785">
  <path id="Path_4284" data-name="Path 4284" d="M15,19.436v-.719h-.486c-1.283,0-1.477-.136-1.477-1.108V0h-7V.719H6.9c1.283,0,1.477.116,1.477.991v9.7a6,6,0,0,0-3.382-.991A4.773,4.773,0,0,0,0,15.082a4.809,4.809,0,0,0,4.995,4.664A5.248,5.248,0,0,0,8.59,18.6v.836Zm-6.588-3.3c0,1.166-.136,1.672-.564,2.041a2.039,2.039,0,0,1-1.322.486c-1.594,0-1.594-1.322-1.594-2.682V14.188c0-1.361,0-2.682,1.594-2.682a2.039,2.039,0,0,1,1.322.486c.428.369.564.874.564,2.041Z" fill="#1a1919" fill-rule="evenodd"/>
  <path id="Path_4285" data-name="Path 4285" d="M88.729,57.491c-.058-3.11-2.177-4.84-5.947-4.84-3.907,0-6.355,1.808-6.355,4.7,0,2.8,2.585,4.664,6.453,4.664a6.842,6.842,0,0,0,5.733-2.585l-.447-.486a5.892,5.892,0,0,1-4.431,2.235c-1.341,0-2.235-.524-2.488-1.4a6.965,6.965,0,0,1-.156-1.846v-.447Zm-4.49-.777H81.091v-.8c0-1.224.039-1.555.252-1.9a1.547,1.547,0,0,1,1.38-.622,1.3,1.3,0,0,1,1.36.8,4.674,4.674,0,0,1,.156,1.691Z" transform="translate(-61.305 -42.234)" fill="#1a1919" fill-rule="evenodd"/>
  <path id="Path_4286" data-name="Path 4286" d="M140.344,19.436l-8.008-17.4a4.652,4.652,0,0,0-.524-.933c-.253-.292-.583-.389-1.516-.389h-.661V0h10.534V.719H139.8a6.622,6.622,0,0,0-1.186.058.747.747,0,0,0-.719.758,5.11,5.11,0,0,0,.6,1.788l4.47,10.029,4.159-9.387a7.91,7.91,0,0,0,.777-2.313c0-.719-.467-.933-2.216-.933h-.156V0H151.6V.719H151.4A4.581,4.581,0,0,0,150.256.8c-.408.117-.6.369-.991,1.244l-7.891,17.4Z" transform="translate(-103.986)" fill="#1a1919" fill-rule="evenodd"/>
  <path id="Path_4287" data-name="Path 4287" d="M224.954,57.121c0-2.818-2.585-4.664-6.55-4.664-4,0-6.55,1.827-6.55,4.7s2.546,4.7,6.55,4.7C222.427,61.863,224.954,60.036,224.954,57.121Zm-4.859,1.127a5.757,5.757,0,0,1-.155,2,1.785,1.785,0,0,1-3.071,0,5.752,5.752,0,0,1-.156-2V56.071a5.752,5.752,0,0,1,.156-2,1.785,1.785,0,0,1,3.071,0,5.757,5.757,0,0,1,.155,2Z" transform="translate(-169.938 -42.078)" fill="#1a1919" fill-rule="evenodd"/>
  <path id="Path_4288" data-name="Path 4288" d="M277.842,18.716h.486c1.283,0,1.477-.116,1.477-.991V1.71c0-.875-.195-.991-1.477-.991h-.855V0h7V17.706c0,.894.214,1.01,1.5,1.01h.486v.719h-8.61Z" transform="translate(-222.574)" fill="#1a1919" fill-rule="evenodd"/>
  <path id="Path_4289" data-name="Path 4289" d="M334.687,19.455,331.422,15.2v2.41c0,.972.214,1.127,1.5,1.127h.253v.719h-8.377v-.719h.486c1.283,0,1.477-.136,1.477-1.108V1.71c0-.875-.194-.991-1.477-.991h-.855V0h7V14.79l2.08-1.516c.253-.194.661-.486.855-.661.33-.291.447-.466.447-.68a.38.38,0,0,0-.252-.35,2.394,2.394,0,0,0-.933-.078h-.661v-.719h6.8v.719a8.011,8.011,0,0,0-4.645,1.166l4.256,5.345a1.761,1.761,0,0,0,.719.641,2.134,2.134,0,0,0,.6.078,1.224,1.224,0,0,0,.292,0v.719Z" transform="translate(-260.236)" fill="#1a1919" fill-rule="evenodd"/>
  <path id="Path_4290" data-name="Path 4290" d="M416.779,62.179a12.44,12.44,0,0,1-4.237-.758,1.16,1.16,0,0,0-.369-.1c-.253,0-.33.175-.35.583h-.661V58.584h.661v.078a1.991,1.991,0,0,0,.408,1.438,3.776,3.776,0,0,0,2.663,1.108c.777,0,1.186-.272,1.186-.719,0-.408-.292-.68-1.069-1.03l-.68-.311c-2.158-.952-2.994-1.807-2.994-3.129,0-1.9,1.808-3.071,4.743-3.071a10.926,10.926,0,0,1,3.284.525,2.02,2.02,0,0,0,.641.136c.272,0,.369-.117.428-.369h.642v2.876h-.642V55.9c0-.68-.1-.933-.428-1.224a3.724,3.724,0,0,0-2.255-.739c-.758,0-1.166.272-1.166.739,0,.447.272.68,1.419,1.127l1.166.447c1.885.738,2.546,1.438,2.546,2.721C421.716,60.955,419.85,62.179,416.779,62.179Z" transform="translate(-329.812 -42.471)" fill="#1a1919" fill-rule="evenodd"/>
  <path id="Path_4291" data-name="Path 4291" d="M473.2,19.455,469.93,15.2v2.41c0,.972.214,1.127,1.5,1.127h.253v.719H463.3v-.719h.486c1.283,0,1.477-.136,1.477-1.108V1.71c0-.875-.194-.991-1.477-.991h-.855V0h7V14.79l2.08-1.516c.253-.194.661-.486.855-.661.33-.291.447-.466.447-.68a.38.38,0,0,0-.253-.35,2.389,2.389,0,0,0-.932-.078h-.661v-.719h6.8v.719a8.012,8.012,0,0,0-4.645,1.166l4.256,5.345a1.76,1.76,0,0,0,.719.641,2.132,2.132,0,0,0,.6.078,1.222,1.222,0,0,0,.292,0v.719Z" transform="translate(-371.34)" fill="#1a1919" fill-rule="evenodd"/>
  <path id="Path_4292" data-name="Path 4292" d="M557.246,60.951h.564v.719H549.3v-.719h.369c1.283,0,1.477-.116,1.477-.991V54.751c0-.875-.194-.991-1.477-.991h-.583V53.04h6.511V55.3a3.7,3.7,0,0,1,3.42-2.643,2.572,2.572,0,0,1,2.76,2.76,2.415,2.415,0,0,1-2.488,2.624,2.257,2.257,0,0,1-2.449-2.235,1.746,1.746,0,0,1,.194-.875c.078-.155.058-.175.058-.214,0-.058-.078-.1-.117-.1-.155,0-.35.175-.564.505a4.277,4.277,0,0,0-.505,1.186,8.858,8.858,0,0,0-.156,1.866V59.94C555.749,60.815,555.963,60.951,557.246,60.951Z" transform="translate(-440.445 -42.234)" fill="#1a1919" fill-rule="evenodd"/>
  <path id="Path_4293" data-name="Path 4293" d="M628.349,61.67v-.719h-.389c-.875,0-1.03-.272-1.03-1.108V56.928a6.4,6.4,0,0,0-.136-1.866,2.807,2.807,0,0,0-.525-1.011c-.739-.933-2.1-1.4-3.984-1.4a14.027,14.027,0,0,0-3.674.6,5.65,5.65,0,0,1-.778.194c-.233,0-.311-.1-.33-.427h-.583V55.9h.641v-.214a1.491,1.491,0,0,1,.486-1.341,4.207,4.207,0,0,1,2.39-.66c.914,0,1.516.272,1.711.777a2.972,2.972,0,0,1,.117,1.108v.641c-.719-.058-1.225-.078-1.924-.078-3.052,0-5.151.8-5.151,2.935,0,1.924,1.652,2.857,3.634,2.857a6.076,6.076,0,0,0,3.6-1.069v.816Zm-6.083-3.11c0,.214,0,.525-.019.855a1.276,1.276,0,0,1-.233.816,1.244,1.244,0,0,1-.953.408c-.758,0-1.03-.447-1.03-1.633V58.6c0-1.224.447-1.691,1.652-1.691.252,0,.233,0,.583.02Z" transform="translate(-493.473 -42.234)" fill="#1a1919" fill-rule="evenodd"/>
  <path id="Path_4294" data-name="Path 4294" d="M692.1,62.143V61.5h.117a1.048,1.048,0,0,0,.758-.194c.136-.136.175-.467.175-1.3V56.721a4.319,4.319,0,0,0-.117-1.555.917.917,0,0,0-.952-.486,1.686,1.686,0,0,0-1.283.564c-.292.369-.35.642-.35,1.749v3.013c0,.389.019.758.039.952.058.389.272.544.894.544h.194v.642h-7.5v-.719h.369c1.283,0,1.477-.116,1.477-1.05V55.283c0-.933-.194-1.05-1.477-1.05h-.583v-.719h6.433v1.244a5.444,5.444,0,0,1,3.907-1.516,3.855,3.855,0,0,1,2.935,1.088,2.624,2.624,0,0,1,.622,1.419,9.577,9.577,0,0,1,.058,1.3v3.323c0,.933.194,1.05,1.477,1.05h.311v.719Z" transform="translate(-548.552 -42.708)" fill="#1a1919" fill-rule="evenodd"/>
  <path id="Path_4295" data-name="Path 4295" d="M771.791,47.405c-.544,1.069-1.768,1.613-3.654,1.613a3.781,3.781,0,0,1-2.993-.972,2.888,2.888,0,0,1-.661-1.73,14.209,14.209,0,0,1-.058-1.613V40.817h-1.594v-.642l5.986-3.731.253.194v3.4h2.974v.778H769.07v4.489a5.989,5.989,0,0,0,.1,1.613.849.849,0,0,0,.894.6c1.3,0,1.36-1.108,1.36-2.2v-.214h.661V45.4A4.122,4.122,0,0,1,771.791,47.405Z" transform="translate(-611.902 -29.233)" fill="#1a1919" fill-rule="evenodd"/>
</svg>
