<svg xmlns="http://www.w3.org/2000/svg" xmlns:xlink="http://www.w3.org/1999/xlink" width="173" height="33" viewBox="0 0 173 33">
  <defs>
    <clipPath id="clip-path">
      <rect id="Rectangle_33" data-name="Rectangle 33" width="173" height="33" transform="translate(543 261.88)" fill="#fff"/>
    </clipPath>
  </defs>
  <g id="Group_9" data-name="Group 9" transform="translate(-543 -261.88)" clip-path="url(#clip-path)">
    <g id="Group_6" data-name="Group 6" transform="translate(543 262.173)">
      <path id="Path_161" data-name="Path 161" d="M560.082,274.983c0-9.267-1.765-11.512-4.765-11.512a5.968,5.968,0,0,0-1.764.214v19.887c0,1.889.529,2.209,1.835,2.209C558.388,285.782,560.082,282.433,560.082,274.983ZM543,286.353l.953-.25c1.306-.356,1.553-.428,1.553-2.887V266c0-2.459-.247-2.53-1.553-2.886l-.953-.25v-.606h12.988c7.835,0,12.493,3.813,12.493,11.8,0,7.948-4.729,12.9-12.635,12.9H543Z" transform="translate(-543 -262.26)"/>
    </g>
    <g id="Group_7" data-name="Group 7" transform="translate(569.192 267.662)">
      <path id="Path_162" data-name="Path 162" d="M597.506,279.982l4.73-.357c0-5.061-.459-6.38-2.153-6.38C598.636,273.245,597.542,274.528,597.506,279.982Zm-6.846,2.352c0-6.736,5.047-10.086,9.706-10.086,5.187,0,8.435,2.495,8.611,8.7h-11.47c.106,6.2,2.153,7.556,5.93,7.556a10.094,10.094,0,0,0,4.8-1.247v.677a9.889,9.889,0,0,1-8.011,3.956C593.872,291.885,590.66,288.535,590.66,282.333Z" transform="translate(-590.66 -272.247)"/>
    </g>
    <g id="Group_8" data-name="Group 8" transform="translate(586.587 262.173)">
      <path id="Path_163" data-name="Path 163" d="M622.312,286.353l.953-.25c1.306-.356,1.553-.784,1.553-3.6V266c0-2.459-.247-2.53-1.553-2.886l-.953-.25v-.606h10.73l4.412,12.51h.141l4.588-12.51H652.77v.606l-.952.25c-1.306.356-1.554.428-1.554,2.886v17.214c0,2.459.247,2.531,1.554,2.887l.952.25v.606H639.606v-.606l.953-.25c1.376-.356,1.588-.428,1.588-2.887V266.359h-.141l-7.235,20.066h-1.553l-6.883-20.066h-.141v15.9c0,2.994.106,3.457,1.694,3.849l.988.25v.606h-6.565Z" transform="translate(-622.312 -262.26)" fill="#E1261C"/>
    </g>
    <path id="Path_164" data-name="Path 164" d="M688.7,282.879c0-8.424-1.2-9.348-2.97-9.348-1.661,0-2.757,1.256-2.757,8.683,0,8.5.884,9.533,2.934,9.533C687.749,291.746,688.7,290.9,688.7,282.879Zm-12.939-.148c0-7.5,5.126-10.272,10.075-10.272,5.2,0,10.076,3.214,10.076,10.124,0,7.464-5.02,10.234-10.076,10.234C680.608,292.817,675.765,289.6,675.765,282.731Z" transform="translate(-59.803 -4.681)" fill="#E1261C"/>
    <path id="Path_165" data-name="Path 165" d="M711.311,291.5l.638-.183c1.418-.4,1.489-.511,1.489-2.188v-12c0-1.568-.035-1.714-1.135-2.516l-1.134-.839v-.365l8.828-.949.284.219V275.6h.107c1.028-1.312,2.942-3.1,5.247-3.1a2.742,2.742,0,0,1,2.907,3.063c0,2.115-1.24,3.319-2.978,3.319a2.726,2.726,0,0,1-2.837-1.933c-.248-.547-.425-.73-.851-.73a2.282,2.282,0,0,0-1.454.511v12.4c0,1.824.177,1.934,1.489,2.188l.78.146v.657H711.311Z" transform="translate(-75.75 -4.681)" fill="#E1261C"/>
    <path id="Path_166" data-name="Path 166" d="M751.323,277.08c0-4.371-.469-5.135-1.767-5.135-1.406,0-1.767.764-1.767,5.026s.433,5.136,1.767,5.136C750.962,282.106,751.323,281.3,751.323,277.08Zm4.148,16.353c0-1.821-1.082-2.513-3.39-2.513H745.8a3.823,3.823,0,0,0-.65,2.622c0,2,1.011,3.387,4.257,3.387C753.488,296.929,755.471,295.691,755.471,293.432Zm-15.22.692c0-1.748,1.623-3.059,4.76-3.423v-.073c-2.56-.656-3.606-2-3.606-4.006a5.611,5.611,0,0,1,2.922-4.589v-.073a4.979,4.979,0,0,1-2.958-4.662c0-4.043,3.5-6.374,8.187-6.374a11.255,11.255,0,0,1,4.905,1.092,6.316,6.316,0,0,1,4.22-2.112,2.134,2.134,0,0,1,2.416,2.221,1.814,1.814,0,0,1-1.911,2.039c-1.19,0-1.479-.51-1.8-1.42-.4-1.129-1.407-.838-2.273-.219v.073a5.23,5.23,0,0,1,2.633,4.152c0,4.079-3.5,6.373-8.187,6.373a13.224,13.224,0,0,1-4.508-.765,2.611,2.611,0,0,0-.542,1.529c0,.583.362.984,1.551.984h7.358c3.535,0,6.312,1.129,6.312,5.063,0,5.1-4.725,8.048-11.145,8.048C742.92,297.985,740.251,296.674,740.251,294.124Z" transform="translate(-88.85 -3.53)" fill="#E1261C"/>
    <path id="Path_167" data-name="Path 167" d="M780.14,280.477l4.843-.37c0-5.246-.469-6.613-2.2-6.613C781.3,273.494,780.175,274.824,780.14,280.477Zm-7.013,2.438c0-6.983,5.169-10.456,9.942-10.456,5.314,0,8.64,2.587,8.82,9.016H780.14c.108,6.429,2.2,7.833,6.073,7.833a10.241,10.241,0,0,0,4.916-1.293v.7a10.093,10.093,0,0,1-8.206,4.1C776.416,292.817,773.126,289.344,773.126,282.915Z" transform="translate(-103.658 -4.681)" fill="#E1261C"/>
    <path id="Path_168" data-name="Path 168" d="M804.878,291.5l.641-.183c1.424-.4,1.5-.511,1.5-2.188V277.164c0-1.6-.035-1.75-1.139-2.553l-1.14-.839v-.365l8.866-.949.285.219v2.771h.107c1.923-1.532,4.095-2.991,6.907-2.991,2.706,0,4.594,1.641,4.594,4.887v11.778c0,1.715.107,1.787,1.531,2.188l.641.183v.619h-11V291.5l.534-.147c1.246-.328,1.281-.4,1.281-2.225V278.732c0-1.969-.783-2.516-2.1-2.516a10.133,10.133,0,0,0-2.35.219v12.69c0,1.86.071,1.9,1.282,2.225l.534.147v.619H804.878Z" transform="translate(-117.896 -4.681)" fill="#E1261C"/>
    <path id="Path_169" data-name="Path 169" d="M853.287,299.538a2.78,2.78,0,1,1-2.78-2.808A2.794,2.794,0,0,1,853.287,299.538Z" transform="translate(-137.262 -15.613)"/>
  </g>
</svg>
