<svg xmlns="http://www.w3.org/2000/svg" xmlns:xlink="http://www.w3.org/1999/xlink" width="276" height="36" viewBox="0 0 276 36">
  <defs>
    <clipPath id="clip-path">
      <rect id="Rectangle_4865" data-name="Rectangle 4865" width="124" height="36" transform="translate(490.03 817.94)" fill="#fff"/>
    </clipPath>
  </defs>
  <g id="Group_4476" data-name="Group 4476" transform="translate(-12 -12)">
    <rect id="Rectangle_4868" data-name="Rectangle 4868" width="140" height="1" rx="0.5" transform="translate(148 38)"/>
    <g id="Group_1296" data-name="Group 1296" transform="translate(-478.03 -805.94)" clip-path="url(#clip-path)">
      <path id="Path_4237" data-name="Path 4237" d="M509.865,817.94l-7.741,20.932-8.048-20.932H490.03v27.418h1.01V821.684l9.31,23.674h.2l8.717-23.389,0,23.389h4.2V817.94Z" transform="translate(0 0)" fill="#00a9a7"/>
      <g id="Group_1295" data-name="Group 1295" transform="translate(515.926 817.94)">
        <path id="Path_4238" data-name="Path 4238" d="M530.458,846.189c-1.833,0-2.749-1.508-2.749-3.241,0-1.844.848-3.8,4-5.388l2.955-1.354v7.76A5.5,5.5,0,0,1,530.458,846.189Zm11.3-1.355c-.474.941-1.053,1.282-1.629,1.282-.848,0-1.424-.6-1.424-2.6V835.5c0-4.744-2-8.134-6.786-8.134-4.207,0-6.718,3.616-6.718,7.193h.2a5.39,5.39,0,0,1,5.124-5.349c3.359,0,4.139,2.751,4.139,5.2v1.469l-4.92,2c-4.036,1.619-5.6,3.539-5.6,5.949a3.953,3.953,0,0,0,4.275,4.067,7.775,7.775,0,0,0,6.275-3.616l.034.077c.473,2.526,2,3.539,3.563,3.539,1.73,0,2.783-.9,3.563-2.939l-.068-.115h-.034Z" transform="translate(-524.15 -820.211)" fill="#1d1d1b"/>
        <path id="Path_4239" data-name="Path 4239" d="M561.422,828.328a3.823,3.823,0,0,0-2.749-1.057c-2.1,0-4.037,1.806-5.226,4.144v-3.8h-.171c-1.066.388-2.527.929-3.768,1.406v18.522h4.076V831.718a3.714,3.714,0,0,1,3.188-2.223,4.179,4.179,0,0,1,3.461,2h.068Z" transform="translate(-530.262 -820.189)" fill="#1d1d1b"/>
        <path id="Path_4240" data-name="Path 4240" d="M650.334,843.441l-.171-.149a3.071,3.071,0,0,1-2.476,1.431c-1.526,0-2.613-.864-2.613-3.539V827.471h4.561v-.622h-4.561v-3.786h-.1a52.3,52.3,0,0,1-6.275,4.255v.15H641v13.521c0,3.616,1.594,5.911,4.612,5.911,2.17,0,3.6-1.056,4.715-3.467" transform="translate(-551.761 -819.175)" fill="#1d1d1b"/>
        <path id="Path_4241" data-name="Path 4241" d="M629.281,835.7h-8.338c.162-4.672,1.718-7.815,4.438-7.815S629.26,830.552,629.281,835.7Zm3.768.584v-.452c-.068-4.859-2.477-8.4-7.771-8.4s-8.687,4.518-8.687,10.28c0,6.29,3.734,10.242,8.956,10.242,3.9,0,5.8-2.223,7.089-4.932l-.1-.187a5.972,5.972,0,0,1-5.328,2.712c-3.9,0-6.275-4.029-6.275-9.114v-.15h12.111Z" transform="translate(-546.432 -820.229)" fill="#1d1d1b"/>
        <path id="Path_4242" data-name="Path 4242" d="M611.812,847.585V827.514h-.136c-1.07.413-2.673.987-3.965,1.452v18.62Z" transform="translate(-544.292 -820.248)" fill="#1d1d1b"/>
        <path id="Path_4243" data-name="Path 4243" d="M609.523,823.5a2.779,2.779,0,1,0-2.783-2.776,2.783,2.783,0,0,0,2.783,2.776" transform="translate(-544.058 -817.94)" fill="#00a9a7"/>
        <path id="Path_4244" data-name="Path 4244" d="M602.568,828.328a3.822,3.822,0,0,0-2.749-1.057c-2.1,0-4.037,1.806-5.226,4.144v-3.8h-.171c-1.066.388-2.527.929-3.768,1.406v18.522h4.076V831.718a3.708,3.708,0,0,1,3.188-2.223,4.179,4.179,0,0,1,3.461,2h.068Z" transform="translate(-540.18 -820.189)" fill="#1d1d1b"/>
        <path id="Path_4245" data-name="Path 4245" d="M576.8,829.9v13.722a5.04,5.04,0,0,1-4.058,2.385c-2.566,0-4.292-3.19-4.292-8.849,0-6.039,2.092-8.552,5.068-8.552A4.422,4.422,0,0,1,576.8,829.9m4.1,17.844V827.531h-.137c-1.074.413-2.673.987-3.964,1.452v.468a6.875,6.875,0,0,0-4.868-2.078c-4.122,0-7.805,3.862-7.805,10.2,0,6.711,3.039,10.238,6.825,10.238a6.729,6.729,0,0,0,5.836-3.71v3.369h0v.132c-.149,4.25-1.9,7.814-4.821,7.814-2.69,0-3.918-4.71-4.216-5.643h-.132l-1.3,3.811a8.18,8.18,0,0,0,5.477,2.3c4.949,0,9.029-2.764,9.1-8.138Z" transform="translate(-533.786 -820.214)" fill="#1d1d1b"/>
      </g>
    </g>
  </g>
</svg>
